<?xml version="1.0" standalone="no"?>
<!DOCTYPE svg PUBLIC "-//W3C//DTD SVG 1.1//EN" "http://www.w3.org/Graphics/SVG/1.1/DTD/svg11.dtd" >
<svg xmlns="http://www.w3.org/2000/svg">
<metadata></metadata>
<defs>
<font id="bordaregular_4" horiz-adv-x="997" >
<font-face units-per-em="2048" ascent="1634" descent="-414" />
<missing-glyph horiz-adv-x="614" />
<glyph horiz-adv-x="0" />
<glyph unicode="&#xd;" horiz-adv-x="681" />
<glyph unicode=" "  horiz-adv-x="614" />
<glyph unicode="&#x09;" horiz-adv-x="614" />
<glyph unicode="&#xa0;" horiz-adv-x="614" />
<glyph unicode="!" horiz-adv-x="436" d="M61 0v303h314v-303h-314zM76 995v439h284v-439l-18 -651h-248z" />
<glyph unicode="&#x22;" horiz-adv-x="747" d="M61 1337v244h285v-244l-20 -282h-244zM401 1337v244h287v-244l-22 -282h-242z" />
<glyph unicode="#" horiz-adv-x="1312" d="M59 449v172l78 75h178l25 115h-281v174l78 76h256l80 373h277l-80 -373h125l79 373h277l-80 -373h178v-250h-231l-23 -115h254v-247h-307l-96 -449h-277l97 449h-125l-97 -449h-276l96 449h-205zM594 696h123l24 115h-125z" />
<glyph unicode="$" horiz-adv-x="1103" d="M59 78v178h400v383l-293 149q-106 53 -107 177v112q0 57 16.5 97t55.5 79l109 109q39 39 77.5 55.5t96.5 16.5h45v90h184v-90h258l80 -78v-178h-338v-340l240 -121q158 -80 157 -238v-117q0 -111 -88 -200l-82 -80q-82 -82 -215 -82h-12v-90h-184v90h-320zM338 997 q0 -4 6 -8l115 -57v246h-15q-12 0 -18 -9l-80 -82q-8 -8 -8 -16v-2v-68v-3v-1zM643 256h12q13 0 19 8l80 80q8 8 8 18v113q0 8 -6 12l-113 58v-289z" />
<glyph unicode="%" horiz-adv-x="1286" d="M59 936v276q0 45 33 80l45 43q33 33 80 33h170q49 0 82 -33l43 -43q33 -35 33 -80v-276q0 -45 -33 -78l-43 -45q-33 -33 -82 -33h-170q-47 0 -80 33l-45 45q-33 33 -33 78zM113 -33l858 1499h211l-858 -1499h-211zM223 950q0 -8 4 -12l11 -12q6 -4 12 -4h104q6 0 13 4 l10 12q6 4 6 12v250q0 6 -6 12l-10 11q-6 4 -13 4h-102q-8 0 -14 -4l-11 -11q-4 -6 -4 -12v-250zM737 209v276q0 45 35 80l43 43q33 33 82 33h168q49 0 82 -33l43 -43q35 -35 35 -80v-276q0 -45 -35 -78l-43 -45q-33 -33 -82 -33h-168q-49 0 -82 33l-43 45q-35 33 -35 78z M901 223q0 -8 6 -14l11 -10q4 -4 12 -4h102q8 0 12 4l11 12q6 4 6 12v250q0 6 -6 12l-11 11q-4 4 -12 4h-102q-8 0 -12 -4l-11 -11q-6 -6 -6 -12v-250z" />
<glyph unicode="&#x26;" horiz-adv-x="1280" d="M61 285v121q0 86 64 149l207 207l-121 127q-63 66 -64 149v105q0 86 64 149l76 76q63 63 153 64h162q90 0 152 -64l75 -76q63 -63 64 -149v-105q0 -82 -57 -145l-134 -133l226 -236l162 164l129 -129v-117l-109 -108l109 -113v-133l-121 -123l-174 182l-90 -90 q-61 -61 -152 -61h-328q-92 0 -153 61l-76 76q-63 63 -64 152zM340 301q0 -6 4 -12l37 -35q4 -6 12 -6h248q8 0 14 6l84 84l-225 233l-170 -172q-4 -4 -4 -12v-86zM426 1055q0 -7 4 -13l88 -92l92 92q6 6 6 13v69q0 8 -6 13l-37 37q-4 4 -12 4h-82q-8 0 -12 -4l-37 -37 q-4 -4 -4 -13v-69z" />
<glyph unicode="'" horiz-adv-x="407" d="M61 1337v244h285v-244l-20 -282h-244z" />
<glyph unicode="(" horiz-adv-x="641" d="M59 131v1096q0 86 62 149l160 156q61 61 149 61h150v-260h-101q-8 0 -14 -6l-119 -119q-6 -4 -6 -12v-1034q0 -6 6 -12l121 -119q4 -4 12 -4h101v-263h-150q-88 0 -149 64l-127 123q-53 51 -74 88t-21 92z" />
<glyph unicode=")" horiz-adv-x="641" d="M59 27h101q8 0 12 4l121 119q4 6 4 12v1034q0 8 -4 12l-121 119q-4 6 -12 6h-101v260h150q88 0 149 -61l160 -156q61 -63 62 -149v-1096q0 -55 -20.5 -92t-74.5 -88l-127 -123q-61 -63 -149 -64h-150v263z" />
<glyph unicode="*" horiz-adv-x="1048" d="M59 879l193 110l67 33l-67 31l-193 112l109 189l199 -115l51 -35l-6 66v221h225v-221l-6 -64l49 33l199 115l108 -189l-192 -112l-68 -31l68 -33l192 -110l-108 -189l-199 115l-49 33l6 -64v-223h-225v223l6 66l-51 -35l-199 -115z" />
<glyph unicode="+" horiz-adv-x="1093" d="M61 467v264h345v350h280v-350h346v-264h-346v-350h-280v350h-345z" />
<glyph unicode="," horiz-adv-x="499" d="M94 -193l82 177h-51v276h313v-184q0 -68 -28 -129l-66 -140h-250z" />
<glyph unicode="-" horiz-adv-x="854" d="M61 469v264h730v-264h-730z" />
<glyph unicode="." horiz-adv-x="436" d="M61 -96v303h314v-303h-314z" />
<glyph unicode="/" horiz-adv-x="878" d="M61 0l471 1434h285l-471 -1434h-285z" />
<glyph unicode="0" horiz-adv-x="999" d="M53 287v807q0 86 64 149l76 76q61 61 149 61h317q88 0 150 -61l76 -76q63 -63 63 -149v-807q0 -86 -63 -150l-76 -76q-61 -61 -150 -61h-317q-88 0 -149 61l-76 76q-63 63 -64 150zM328 303q0 -8 4 -12l37 -37q6 -6 12 -6h240q6 0 12 6l37 37q4 4 4 12v774q0 9 -4 13 l-37 36q-6 6 -12 7h-240q-8 0 -12 -7l-37 -36q-4 -4 -4 -13v-774z" />
<glyph unicode="1" horiz-adv-x="663" d="M20 1149l52 111l323 120h129l90 -90v-1292h-274v1079l-260 -96z" />
<glyph unicode="2" horiz-adv-x="1036" d="M49 1176l131 131q41 41 80 57t96 16h252q57 0 96 -16t80 -57l97 -97q39 -41 55 -80.5t16 -97.5v-141q0 -139 -98 -191l-522 -264q-8 -4 -8 -12v-178h682v-168l-82 -80h-873v428q0 156 158 238l463 235q8 4 8 12v117v4v2q0 2 -6 10l-80 82q-6 6 -10 7h-3h-3h-191h-4h-2 q-4 0 -10 -7l-135 -137z" />
<glyph unicode="3" horiz-adv-x="983" d="M20 162l185 184l94 -94q4 -6 12 -6h291q6 0 12 6l37 37q6 4 6 12v242q0 8 -6 12l-86 86q-4 4 -12 6h-358v248h376q6 0 13 4l57 62q6 4 6 12v104q0 8 -6 13l-37 36q-4 6 -12 7h-270q-8 0 -15 -7l-94 -94l-184 185l102 102q62 61 152 61h348q90 0 151 -61l76 -76 q61 -63 62 -149v-140q0 -84 -62 -147l-45 -45l53 -53q63 -63 64 -150v-274q0 -86 -64 -150l-75 -76q-61 -61 -150 -61h-369q-88 0 -149 61z" />
<glyph unicode="4" horiz-adv-x="1017" d="M20 377v110l459 893h262l88 -90v-753h170v-160l-90 -88h-80v-291h-272v291h-446zM350 537h207v374h-12z" />
<glyph unicode="5" horiz-adv-x="956" d="M49 162l184 184l95 -94q6 -6 12 -6h238q8 0 14 6l37 37q4 4 4 12v246q0 8 -4 12l-37 37q-6 6 -12 6h-406l-117 115l80 577l86 86h557l88 -88v-159h-475l-41 -283h264q90 0 152 -62l76 -75q61 -63 61 -150v-278q0 -86 -61 -150l-76 -76q-61 -61 -152 -61h-315 q-88 0 -149 61z" />
<glyph unicode="6" horiz-adv-x="960" d="M51 293v801q0 86 64 147l75 78q62 61 152 61h315q88 0 150 -61l102 -102l-184 -185l-94 94q-6 6 -13 7h-239q-6 0 -12 -7l-37 -36q-4 -6 -4 -13v-223l73 35q59 27 121 26h101q88 0 151 -63l76 -76q61 -63 61 -153v-330q0 -92 -61 -154l-76 -76q-61 -63 -151 -63h-279 q-90 0 -152 61l-75 78q-63 61 -64 154zM326 301q0 -8 4 -12l35 -35q6 -6 12 -6h209q6 0 12 6l35 35q4 4 4 12v313q0 9 -4 15l-35 33q-6 6 -12 6h-62q-4 0 -6 -2l-192 -91v-274z" />
<glyph unicode="7" horiz-adv-x="843" d="M23 1130v162l88 88h626l88 -88v-86l-370 -1208h-277l338 1132h-493z" />
<glyph unicode="8" horiz-adv-x="999" d="M53 287v274q0 86 64 150l18 18l-10 8q-61 63 -62 148v209q0 86 62 149l76 76q61 61 151 61h297q88 0 150 -61l78 -76q61 -63 61 -149v-209q0 -88 -61 -148l-11 -8l19 -18q63 -63 63 -150v-274q0 -86 -63 -150l-76 -76q-61 -61 -150 -61h-317q-88 0 -149 61l-76 76 q-63 63 -64 150zM328 303q0 -8 4 -12l37 -37q6 -6 12 -6h240q6 0 12 6l37 37q4 4 4 12v242q0 8 -4 12l-37 37q-6 6 -12 6h-240q-6 0 -12 -6l-37 -37q-4 -4 -4 -12v-242zM336 901q0 -6 6 -12l37 -37q4 -4 12 -4h219q8 0 13 4l36 37q6 6 7 12v176q-1 9 -7 13l-36 36 q-4 6 -13 7h-219q-8 0 -12 -7l-37 -36q-6 -4 -6 -13v-176z" />
<glyph unicode="9" horiz-adv-x="960" d="M51 784v301q0 92 64 154l75 78q64 63 152 63h279q88 0 151 -63l76 -78q61 -61 61 -154v-800q0 -86 -61 -148l-78 -78q-59 -59 -149 -59h-316q-88 0 -149 59l-103 103l185 184l94 -94q6 -6 12 -6h240q6 0 12 6l37 37q4 6 4 12v252l-74 -35q-59 -29 -121 -29h-100 q-88 0 -152 64l-75 78q-63 61 -64 153zM326 791q0 -8 4 -13l35 -35q6 -6 12 -6h61h2q2 0 4 2l193 90v248q0 9 -4 13l-35 34q-6 6 -12 6h-209q-6 0 -12 -6l-35 -34q-4 -4 -4 -13v-286z" />
<glyph unicode=":" horiz-adv-x="436" d="M61 -31v303h314v-303h-314zM61 752v303h314v-303h-314z" />
<glyph unicode=";" horiz-adv-x="499" d="M94 -193l82 177h-51v276h313v-184q0 -68 -28 -129l-66 -140h-250zM125 737v303h313v-303h-313z" />
<glyph unicode="&#x3c;" horiz-adv-x="1138" d="M61 406v262l916 444l100 -240l-671 -323v-23l671 -323l-100 -240z" />
<glyph unicode="=" horiz-adv-x="1093" d="M61 287v264h971v-264h-971zM61 645v264h971v-264h-971z" />
<glyph unicode="&#x3e;" horiz-adv-x="1138" d="M61 203l674 323v23l-674 323l101 240l915 -444v-262l-915 -443z" />
<glyph unicode="?" horiz-adv-x="1003" d="M59 1229l131 131q41 41 80.5 57.5t96.5 16.5h229q57 0 96 -16.5t80 -57.5l96 -96q41 -41 57.5 -81t16.5 -98v-147q0 -141 -98 -190l-215 -109q-10 -6 -11 -18v-277h-276v287q0 158 160 239l155 80q10 6 11 11v1v3v116v4v2q0 2 -6 9l-80 80q-8 6 -19 6h-166q-10 0 -16 -6 l-133 -136zM324 0v303h313v-303h-313z" />
<glyph unicode="@" horiz-adv-x="1437" d="M59 84v707q0 72 52 122l149 148q51 51 125 51h664q74 0 125 -51l149 -148q51 -51 51 -122v-433q2 -72 -51 -125l-149 -147q-51 -51 -125 -51h-228l-4 28l-10 -4q-49 -23 -102 -22h-113q-72 0 -119 47l-57 57q-49 49 -49 117v78q0 68 49 117l65 63q47 49 117 49h205v33 q0 8 -4 14l-29 27q-4 6 -12 6h-352v137l63 62h324q70 0 118 -47l64 -66q49 -47 49 -115v-374h23q6 0 12 6l90 117q4 6 4 12v395v2t-2 4l-129 127q-4 4 -12 4h-586q-2 0 -2 2q-4 0 -8 -6l-129 -125q-4 -4 -4 -10v-664q0 -8 6 -12l127 -127q2 -2 6 -2h604v-203h-639 q-76 0 -125 52l-149 147q-51 51 -52 123zM586 274q0 -8 6 -12l20 -22q6 -4 13 -4h73q6 0 13 2l92 43v84h-170q-8 0 -12 -5l-29 -28q-6 -6 -6 -13v-45z" />
<glyph unicode="A" horiz-adv-x="1288" d="M25 68l440 1366h358l441 -1366l-146 -68h-127l-133 426h-426l-135 -426h-127zM512 684h264l-129 414h-6z" />
<glyph unicode="B" horiz-adv-x="1228" d="M152 0v1348l86 86h571q88 0 147 -62l78 -76q61 -61 62 -145v-277q0 -68 -31 -110l-2 -6q-2 -4 -2 -6q0 -4 2 -9l33 -30q61 -63 61 -148v-282q0 -84 -61 -146l-76 -78q-61 -59 -150 -59h-718zM430 256h391q8 0 15 6l38 39q4 4 5 12v222q-1 8 -5 12l-38 39q-6 6 -15 6h-391 v-336zM430 848h330q8 0 12 6l39 39q6 6 6 12v215q0 7 -6 13l-39 38q-4 6 -12 7h-330v-330z" />
<glyph unicode="C" horiz-adv-x="1200" d="M115 365v704q0 86 63 148l158 157q59 60 147 60h340q88 0 148 -60l184 -184l-192 -193l-177 174q-4 6 -12 7h-242q-8 0 -12 -7l-121 -118q-6 -6 -6 -15v-643q0 -8 6 -14l121 -119q4 -6 12 -6h242q8 0 12 6l177 174l192 -192l-184 -185q-59 -59 -148 -59h-340 q-88 0 -147 59l-158 158q-63 61 -63 148z" />
<glyph unicode="D" horiz-adv-x="1296" d="M154 0v1348l88 86h575q86 0 148 -60l157 -157q61 -61 62 -148v-704q0 -86 -62 -148l-157 -158q-61 -59 -148 -59h-663zM432 256h336q8 0 12 6l121 119q6 6 6 14v643q0 9 -6 15l-121 118q-4 6 -12 7h-336v-922z" />
<glyph unicode="E" horiz-adv-x="1118" d="M147 283v868q0 84 64 145l76 78q59 60 147 60h533l86 -86v-170h-570q-8 0 -12 -7l-39 -38q-6 -6 -6 -13v-274h522v-258h-522v-275q0 -6 6 -12l39 -39q4 -6 12 -6h570v-170l-86 -86h-533q-88 0 -147 61l-76 76q-63 61 -64 146z" />
<glyph unicode="F" horiz-adv-x="1079" d="M145 2v1149q0 84 62 145l76 78q61 60 149 60h496l86 -86v-170h-535q-6 0 -12 -7l-39 -38q-6 -6 -6 -13v-311h487v-256h-487v-551h-277z" />
<glyph unicode="G" horiz-adv-x="1234" d="M115 365v706q0 86 63 148l158 155q57 60 126 60h9h350q88 0 148 -60l184 -184l-192 -193l-179 177q-4 6 -12 6h-238q-8 0 -12 -6l-121 -121q-6 -4 -6 -13v-645q0 -8 6 -14l125 -121q4 -6 13 -4h235q6 0 12 4l121 121q6 4 6 12v185h-303v170l86 88h494v-474 q0 -86 -62 -147l-157 -156q-59 -59 -130 -59h-5h-351q-88 0 -147 59l-158 158q-63 61 -63 148z" />
<glyph unicode="H" horiz-adv-x="1388" d="M156 0v1348l86 86h190v-566h520v480l88 86h191v-1434h-279v610h-520v-610h-276z" />
<glyph unicode="I" horiz-adv-x="514" d="M117 0v1348l86 86h190v-1434h-276z" />
<glyph unicode="J" horiz-adv-x="659" d="M6 12h193q6 0 12 4l37 37q4 4 4 13v1091h-246v170l88 88h436v-1376q0 -47 -13 -79t-46 -64l-78 -78q-61 -63 -149 -64h-238v258z" />
<glyph unicode="K" horiz-adv-x="1212" d="M156 0v1348l88 86h190v-521l459 521h119l123 -121l-488 -563l545 -629l-123 -121h-117l-483 545l-35 -39v-506h-278z" />
<glyph unicode="L" horiz-adv-x="1038" d="M145 86v1262l86 86h191v-1178h590v-256h-781z" />
<glyph unicode="M" horiz-adv-x="1785" d="M145 0v1348l86 86h355l299 -1129h18l297 1129h354l88 -86v-1348h-278v1024h-10l-301 -1024h-318l-299 1024h-12v-1024h-279z" />
<glyph unicode="N" horiz-adv-x="1366" d="M145 0v1348l86 86h310l393 -1024h8v1024h277v-1348l-86 -86h-302l-399 1024h-10v-1024h-277z" />
<glyph unicode="O" horiz-adv-x="1357" d="M117 365v704q0 86 61 148l158 157q61 60 149 60h385q88 0 150 -60l158 -157q61 -61 61 -148v-704q0 -86 -61 -148l-158 -158q-61 -59 -150 -59h-385q-88 0 -149 59l-158 158q-61 61 -61 148zM393 395q0 -8 6 -14l121 -119q6 -6 12 -6h291q6 0 13 6l120 119q6 6 7 14v643 q-1 9 -7 15l-120 118q-6 6 -13 7h-291q-6 0 -12 -7l-121 -118q-6 -6 -6 -15v-643z" />
<glyph unicode="P" horiz-adv-x="1202" d="M150 0v1348l86 86h589q88 0 148 -62l78 -76q61 -61 61 -145v-313q0 -84 -61 -148l-78 -76q-59 -59 -148 -59h-397v-555h-278zM428 811h348q8 0 12 6l41 39q4 4 5 12v252q-1 7 -5 13l-38 38q-6 6 -15 7h-348v-367z" />
<glyph unicode="Q" horiz-adv-x="1400" d="M125 360v709q0 84 61 145l160 158q60 60 148 60h387q88 0 149 -60l158 -158q61 -61 61 -145v-709q0 -80 -51 -135l-6 -6l176 -176l-125 -119h-123l-112 113l-7 -4q-49 -37 -120 -37h-387q-88 0 -148 61l-160 156q-61 61 -61 147zM403 391q0 -8 7 -12l120 -121q4 -4 13 -4 h288q8 0 15 4l121 121q4 4 4 12v647q0 7 -4 13l-121 118q-6 6 -15 7h-288q-8 0 -13 -7l-120 -118q-6 -6 -7 -13v-647z" />
<glyph unicode="R" horiz-adv-x="1239" d="M154 0v1348l86 86h589q88 0 148 -60l78 -78q61 -61 61 -145v-281q0 -84 -61 -145l-78 -78q-14 -14 -33 -26l-4 -3l240 -505l-113 -113h-139l-279 588h-217v-588h-278zM432 844h348q8 0 13 6l38 39q6 4 7 12v219q-1 7 -7 13l-38 38q-4 6 -13 7h-348v-334z" />
<glyph unicode="S" horiz-adv-x="1120" d="M70 78v178h596q12 0 20 8l80 80q8 8 8 18v111v3v1q0 6 -10 10l-586 301q-109 55 -108 177v112q0 57 16 97t57 79l107 107q41 41 79 57.5t95 16.5h489l80 -78v-178h-538q-12 0 -19 -9l-80 -82q-8 -8 -8 -16v-2v-72q0 -4 6 -8l541 -272q158 -82 158 -238v-117 q0 -111 -90 -200l-80 -80q-82 -82 -217 -82h-514z" />
<glyph unicode="T" horiz-adv-x="1130" d="M33 1178v170l86 86h891l86 -86v-170h-394v-1178h-278v1178h-391z" />
<glyph unicode="U" horiz-adv-x="1341" d="M154 283v1065l86 86h192v-1121q0 -6 4 -12l39 -39q6 -6 12 -6h375q6 0 12 6l39 39q4 6 5 12v1035l88 86h190v-1151q0 -84 -61 -146l-76 -76q-61 -61 -150 -61h-469q-88 0 -149 61l-76 76q-61 61 -61 146z" />
<glyph unicode="V" horiz-adv-x="1312" d="M25 1366l145 68h125l350 -1178h23l348 1178h127l143 -68l-412 -1366h-436z" />
<glyph unicode="W" horiz-adv-x="1953" d="M31 1368l143 66h129l240 -1082h24l228 1082h366l225 -1082h23l244 1082h129l143 -66l-346 -1368h-358l-238 1059h-8l-240 -1059h-358z" />
<glyph unicode="X" horiz-adv-x="1150" d="M20 117l392 604l-392 596l117 117h125l316 -480l305 480h131l116 -117l-391 -604l391 -596l-116 -117h-127l-314 477l-309 -477h-127z" />
<glyph unicode="Y" horiz-adv-x="1193" d="M16 1364l152 70h121l299 -713h16l299 713h121l152 -70l-392 -901h-49v-463h-278v463h-49z" />
<glyph unicode="Z" horiz-adv-x="1173" d="M72 86v242l704 839v11h-665v170l86 86h790l86 -86v-246l-702 -840v-6h731v-170l-88 -86h-854z" />
<glyph unicode="[" horiz-adv-x="583" d="M61 -158v1602l89 88h374v-172l-88 -88h-92v-1256h90l90 -84v-176h-372z" />
<glyph unicode="\" horiz-adv-x="870" d="M61 1434h277l471 -1434h-277z" />
<glyph unicode="]" horiz-adv-x="583" d="M61 -68l91 84h90v1256h-92l-89 88v172h375l88 -88v-1602l-90 -86h-373v176z" />
<glyph unicode="^" horiz-adv-x="1275" d="M61 571l437 899h282l434 -899l-249 -104l-308 639h-39l-307 -639z" />
<glyph unicode="_" horiz-adv-x="1167" d="M61 -131h1045v-246h-1045v246z" />
<glyph unicode="`" horiz-adv-x="501" d="M57 1464l140 127l245 -291l-114 -106z" />
<glyph unicode="a" horiz-adv-x="989" d="M76 276v101q0 84 61 143l84 84q59 59 144 60h276v61q0 6 -4 12l-45 45q-6 6 -14 6h-451v164l74 72h413q86 0 146 -59l82 -82q59 -59 59 -144v-739h-237l-7 41l-28 -12q-59 -29 -127 -29h-148q-86 0 -143 59l-76 74q-59 59 -59 143zM336 291q0 -6 6 -12l37 -37q4 -6 12 -6 h109q6 0 12 4l129 61v125h-240q-8 0 -12 -4l-47 -47q-6 -6 -6 -13v-71z" />
<glyph unicode="b" horiz-adv-x="1011" d="M106 274v1121l74 73h187v-505l77 34q55 27 115 27h100q84 0 144 -59l74 -74q61 -61 61 -143v-474q0 -82 -61 -141l-74 -76q-59 -57 -144 -57h-274q-84 0 -143 59l-74 74q-61 59 -62 141zM367 291q0 -8 6 -12l37 -37q6 -6 12 -6h201q6 0 12 6l37 37q6 4 6 12v440 q0 8 -6 14l-37 37q-6 4 -12 4h-56q-6 0 -12 -2l-188 -88v-405z" />
<glyph unicode="c" horiz-adv-x="909" d="M76 276v472q0 84 59 143l74 74q59 59 145 59h287q86 0 145 -59l97 -99l-174 -174l-93 90q-4 6 -12 6h-215q-6 0 -12 -6l-37 -37q-4 -6 -4 -12v-442q0 -6 4 -12l37 -37q6 -6 12 -6h215q8 0 12 6l93 90l174 -174l-97 -99q-59 -59 -145 -59h-287q-86 0 -145 59l-74 74 q-59 59 -59 143z" />
<glyph unicode="d" horiz-adv-x="1007" d="M76 276v463q0 82 61 142l84 84q59 59 144 59h276v444h188l72 -73v-1395h-237l-7 43l-28 -14q-59 -29 -127 -29h-148q-84 0 -143 59l-76 74q-59 59 -59 143zM336 291q0 -6 6 -12l37 -37q4 -4 12 -4h109q6 0 12 2l129 61v487h-240q-8 0 -12 -6l-47 -47q-6 -4 -6 -12v-432z " />
<glyph unicode="e" horiz-adv-x="960" d="M76 276v472q0 84 59 143l74 74q59 59 145 59h264q86 0 144 -59l76 -74q59 -59 59 -143v-269l-74 -73h-487v-115q0 -6 6 -12l37 -37q4 -6 12 -6h191q8 0 12 6l90 90l176 -174l-98 -99q-57 -59 -144 -59h-264q-86 0 -145 59l-74 74q-59 59 -59 143zM336 641h301v92 q0 6 -6 12l-37 37q-4 6 -12 6h-191q-8 0 -12 -6l-37 -37q-6 -6 -6 -12v-92z" />
<glyph unicode="f" horiz-adv-x="626" d="M10 788v164l74 72h70v133q0 84 59 143l76 74q57 60 143 60h111l73 -74v-162h-147q-8 0 -12 -6l-37 -37q-6 -6 -6 -12v-119h186v-236h-186v-788h-260v788h-144z" />
<glyph unicode="g" horiz-adv-x="993" d="M76 291v457q0 84 61 143l74 74q59 59 143 59h275q84 0 143 -59l74 -74q61 -59 61 -143v-832q0 -78 -57 -137l-86 -86q-57 -59 -146 -60h-411l-76 72v166h453q8 0 12 6l45 43q6 6 6 14v127l-78 -34q-55 -27 -116 -27h-99q-84 0 -143 59l-74 74q-61 59 -61 158zM336 291 q0 -6 6 -12l37 -37q4 -4 12 -4h58q4 0 8 2l190 88v405q0 8 -6 12l-37 37q-6 6 -12 6h-201q-6 0 -12 -6l-37 -37q-6 -6 -6 -12v-442z" />
<glyph unicode="h" horiz-adv-x="1030" d="M106 0v1393l74 73h187v-503l77 34q53 27 115 27h98q86 0 146 -59l74 -74q59 -61 59 -143v-748h-260v731q0 8 -4 14l-37 37q-6 4 -12 4h-56q-8 0 -14 -2l-186 -88v-696h-261z" />
<glyph unicode="i" horiz-adv-x="436" d="M80 1087v277h285v-277h-285zM92 0v1024h260v-1024h-260z" />
<glyph unicode="j" horiz-adv-x="444" d="M-72 -133h107q8 0 14 6l37 37q6 6 6 14v1100h260v-1118q0 -80 -57 -139l-78 -80q-63 -57 -143 -58h-146v238zM78 1090v274h287v-274h-287z" />
<glyph unicode="k" horiz-adv-x="1003" d="M121 0v1393l74 73h186v-714l348 272h119l123 -123l-416 -323l446 -461l-116 -117h-125l-379 406v-406h-260z" />
<glyph unicode="l" horiz-adv-x="561" d="M92 276v1119l74 73h186v-1175q0 -8 6 -14l37 -37q6 -6 15 -6h143v-236h-182q-84 0 -144 59l-61 62q-41 37 -57.5 71.5t-16.5 83.5z" />
<glyph unicode="m" horiz-adv-x="1552" d="M104 0v1024h236l10 -55l64 30q53 25 114 25h105q86 0 145 -59l35 -35l148 69q53 25 114 25h105q86 0 143 -59l76 -74q59 -59 59 -143v-748h-260v733q0 6 -6 12l-37 37q-4 4 -12 4h-60q-6 0 -12 -2l-160 -73v-711h-260v733q0 6 -6 12l-37 37q-4 4 -12 4h-59q-6 0 -13 -2 l-159 -75v-709h-261z" />
<glyph unicode="n" horiz-adv-x="1038" d="M106 0v1024h234l12 -68l92 43q56 25 117 25h103q86 0 145 -59l74 -74q59 -59 59 -143v-748h-258v733q0 6 -6 12l-37 37q-6 4 -12 4h-60q-8 0 -14 -2l-188 -88v-696h-261z" />
<glyph unicode="o" d="M76 276v472q0 84 59 143l74 74q59 59 145 59h287q86 0 145 -59l74 -74q59 -59 60 -143v-472q0 -84 -60 -143l-74 -74q-59 -59 -145 -59h-287q-86 0 -145 59l-74 74q-59 59 -59 143zM336 291q0 -6 4 -12l37 -37q6 -6 14 -6h213q8 0 12 6l39 37q4 6 4 12v442q0 6 -4 12 l-39 37q-4 6 -12 6h-213q-8 0 -14 -6l-37 -37q-4 -6 -4 -12v-442z" />
<glyph unicode="p" horiz-adv-x="1021" d="M117 -369v1393h233l12 -68l93 43q55 25 114 25h101q84 0 143 -59l74 -74q61 -59 61 -143v-472q0 -84 -61 -143l-74 -74q-57 -59 -143 -59h-293v-295l-74 -74h-186zM377 238h256q6 0 12 4l37 37q6 6 6 12v442q0 6 -6 12l-37 37q-4 6 -12 6h-55q-6 0 -13 -4l-188 -88v-458z " />
<glyph unicode="q" horiz-adv-x="1011" d="M76 276v472q0 84 61 143l74 74q59 59 143 59h275q84 0 143 -59l74 -74q61 -59 61 -143v-1041l-73 -74h-187v428l-78 -36q-55 -25 -116 -25h-99q-86 0 -143 59l-74 74q-61 59 -61 143zM336 291q0 -6 6 -12l37 -37q4 -4 12 -4h55q6 0 13 2l188 88v405q0 6 -6 12l-37 37 q-6 6 -12 6h-201q-6 0 -12 -6l-37 -37q-6 -6 -6 -12v-442z" />
<glyph unicode="r" horiz-adv-x="692" d="M90 0v1024h225l17 -96l84 63q43 33 127 33h119v-238h-109q-8 0 -12 -4l-191 -137v-645h-260z" />
<glyph unicode="s" horiz-adv-x="888" d="M70 72v164h432q6 0 12 6l37 37q4 6 4 12v24q0 8 -6 13l-387 196q-92 47 -92 148v76q0 84 59 143l74 74q59 59 145 59h352l74 -72v-164h-391q-6 0 -12 -6l-37 -39q-4 -4 -4 -12v-14q0 -8 6 -12l352 -179q127 -66 127 -190v-55q0 -88 -72 -160l-55 -55q-66 -66 -174 -66 h-371z" />
<glyph unicode="t" horiz-adv-x="686" d="M20 788v164l74 72h70v225h260v-225h203v-236h-203v-497q0 -8 4 -12l39 -39q4 -4 12 -4h148v-164l-74 -72h-111q-84 0 -145 57l-74 76q-59 59 -59 141v514h-144z" />
<glyph unicode="u" horiz-adv-x="1028" d="M96 276v748h260v-733q0 -6 6 -12l37 -37q6 -4 13 -4h61q6 0 12 2l189 88v696h258v-1024h-232l-12 68l-92 -43q-55 -25 -117 -25h-104q-84 0 -144 59l-73 74q-61 59 -62 143z" />
<glyph unicode="v" horiz-adv-x="1089" d="M20 969l119 55h135l256 -788h31l254 788h137l119 -55l-334 -969h-383z" />
<glyph unicode="w" horiz-adv-x="1576" d="M18 965l125 59h131l168 -721h9l182 721h309l180 -721h8l170 721h132l124 -59l-266 -965h-323l-179 674h-6l-174 -674h-323z" />
<glyph unicode="x" horiz-adv-x="1017" d="M20 963l134 61h135l219 -299l211 299h135l131 -61l-317 -449l329 -451l-133 -63h-135l-219 301l-221 -301h-135l-131 61l329 451z" />
<glyph unicode="y" horiz-adv-x="1005" d="M18 969l119 55h135l222 -721h12l229 721h133l119 -55l-334 -975q-119 -332 -448 -352l-37 208q102 6 140 30t65 93l10 27h-31z" />
<glyph unicode="z" horiz-adv-x="978" d="M76 72v223l483 475v18h-453v164l74 72h631l76 -72v-209l-492 -483v-24h508v-164l-74 -72h-679z" />
<glyph unicode="{" horiz-adv-x="747" d="M61 590v164l166 116v375q1 87 64 148l201 200l196 -194l-174 -172q-4 -6 -4 -13v-462l-111 -80l111 -80v-463q0 -6 4 -12l172 -170l-192 -199l-205 207q-61 55 -62 143v375z" />
<glyph unicode="|" horiz-adv-x="407" d="M61 -270v1790h285v-1790h-285z" />
<glyph unicode="}" horiz-adv-x="747" d="M61 -53l172 170q6 6 7 12v463l108 80l-108 80v462q0 6 -7 13l-172 172l195 194l203 -200q61 -61 61 -148v-375l168 -116v-164l-168 -117v-375q0 -88 -59 -143l-205 -207z" />
<glyph unicode="~" horiz-adv-x="1198" d="M61 543q104 158 177 231.5t168 81.5q25 2 43 2q57 0 106 -22.5t129 -85.5q88 -68 123 -68q29 0 58.5 29.5t95.5 115.5q8 10 12 17l166 -111q-41 -109 -96.5 -183.5t-119 -109t-135.5 -34.5q-96 0 -194 67q-10 8 -33 23q-70 49 -95.5 64t-45.5 15q-8 0 -21 -4 q-80 -16 -168 -155z" />
<glyph unicode="&#xa1;" horiz-adv-x="436" d="M61 797v303h314v-303h-314zM76 104l18 652h248l18 -652v-438h-284v438z" />
<glyph unicode="&#xa2;" horiz-adv-x="962" d="M59 268v488q0 86 64 149l76 76q61 61 151 61h51v95h193v-95h51q90 0 152 -61l102 -102l-184 -187l-94 96q-6 4 -13 5h-14v-562h12q8 0 15 5l94 96l184 -187l-102 -102q-61 -61 -152 -61h-51v-95h-193v95h-51q-90 0 -151 61l-76 76q-63 63 -64 149zM334 285q0 -6 4 -13 l37 -36q6 -5 14 -5h12v562h-12q-8 0 -14 -5l-37 -36q-4 -6 -4 -13v-454z" />
<glyph unicode="&#xa3;" horiz-adv-x="1134" d="M61 246l146 143q4 6 4 12v187h-125v256h125v172q0 84 61 145l160 158q60 59 148 59h139q88 0 149 -59l183 -182l-193 -195l-174 174q-6 6 -12 6h-43q-8 0 -13 -6l-120 -119q-6 -6 -7 -12v-141h357v-170l-86 -86h-271v-215q0 -57 -20 -94l-4 -9q-2 -4 -2 -6q0 -6 8 -6h57 h27h32.5h41.5h444v-258h-680q-88 0 -149 61z" />
<glyph unicode="&#xa4;" horiz-adv-x="1515" />
<glyph unicode="&#xa5;" horiz-adv-x="1282" d="M59 1362l152 70h121l299 -711h16l299 711h121l152 -70l-220 -504h84v-258h-196l-45 -102h-64v-58h305v-256h-305v-184h-278v184h-303v256h303v58h-64l-45 102h-194v258h82z" />
<glyph unicode="&#xa6;" horiz-adv-x="407" d="M61 -270v766h285v-766h-285zM61 752v768h285v-768h-285z" />
<glyph unicode="&#xa7;" horiz-adv-x="868" d="M61 18h433q6 0 12 5l37 36q6 6 6 13v24q0 8 -8 13l-387 196q-92 47 -93 150v73q0 84 60 144l24 24l13 13l-4 2q-92 47 -93 149v74q0 84 60 143l74 74q59 59 145 59h352l76 -71v-164h-391q-8 0 -12 -6l-39 -37q-4 -6 -4 -14v-15q0 -8 8 -12l350 -178q129 -66 129 -191v-55 q0 -88 -72 -160l-4 -4q-2 -2 -18 -16l18 -13q76 -61 76 -157v-56q0 -86 -72 -159l-55 -56q-70 -66 -174 -65h-373l-74 72v165zM334 498q0 -20 18 -29l123 -57q16 2 27 12l22 22q12 12 13 27v25q-1 18 -19 28l-117 54h-6q-16 0 -26 -13l-25 -24q-10 -10 -10 -25v-20z" />
<glyph unicode="&#xa8;" horiz-adv-x="686" d="M84 1307v182h201v-182h-201zM403 1307v182h201v-182h-201z" />
<glyph unicode="&#xa9;" horiz-adv-x="1425" d="M61 715.5q0 273.5 190.5 465t461 191.5t461 -191.5t190.5 -465t-190.5 -465t-461 -191.5t-461 191.5t-190.5 465zM246 715.5q0 -195.5 137 -334.5t329.5 -139t330 139t137.5 336q0 127 -62.5 236.5t-170 173t-234.5 63.5q-193 0 -330 -139.5t-137 -335zM399 528v375 q0 57 39 96l84 84q41 41 94 41h181q53 0 92 -41l117 -114l-129 -131l-99 96q-4 6 -12 6h-119q-8 0 -14 -6l-45 -43q-4 -6 -4 -12v-324q0 -8 4 -14l45 -43q6 -6 12 -6h121q8 0 12 6l99 96l129 -129l-117 -117q-39 -39 -92 -39h-181q-53 0 -94 39l-84 84q-39 39 -39 96z" />
<glyph unicode="&#xaa;" horiz-adv-x="667" d="M53 995v68q0 57 43 98l54 56q41 41 102 40h170v25q0 6 -6 12l-21 21q-4 6 -12 6h-297v119l55 53h273q61 0 102 -43l53 -53q43 -41 43 -99v-491h-174l-4 22l-6 -2q-41 -20 -88 -20h-94q-61 0 -103 41l-49 49q-41 41 -41 98zM244 1012q0 -8 6 -13l14 -14q4 -6 12 -6h58 q8 0 14 2l74 37v67h-139q-8 0 -13 -6l-20 -20q-6 -6 -6 -12v-35z" />
<glyph unicode="&#xab;" horiz-adv-x="1210" d="M61 416v243l412 383l164 -165l-279 -340l279 -338l-164 -166zM573 416v243l412 383l166 -165l-281 -340l281 -338l-166 -166z" />
<glyph unicode="&#xac;" horiz-adv-x="1515" />
<glyph unicode="&#xad;" horiz-adv-x="854" d="M61 469v264h730v-264h-730z" />
<glyph unicode="&#xae;" horiz-adv-x="1425" d="M61 715.5q0 273.5 190.5 465t461 191.5t461 -191.5t190.5 -465t-190.5 -465t-461 -191.5t-461 191.5t-190.5 465zM246 715.5q0 -195.5 137 -334.5t329.5 -139t330 139t137.5 336q0 127 -62.5 236.5t-170 173t-234.5 63.5q-193 0 -330 -139.5t-137 -335zM438 358v699 l60 59h321q53 0 92 -41l41 -41q39 -37 39 -96v-147q0 -57 -39 -97l-41 -41q0 -2 -4 -4l-2 -2l101 -209l-80 -80h-92l-117 256h-92v-256h-187zM625 801h163q8 0 13 6l4 2q4 6 4 14v84q0 7 -4 13l-4 2q-4 6 -13 6h-163v-127z" />
<glyph unicode="&#xaf;" horiz-adv-x="710" d="M84 1372v170h539v-170h-539z" />
<glyph unicode="&#xb0;" horiz-adv-x="757" d="M59 1344.5q0 132.5 93.5 225.5t225.5 93t225 -93t93 -225.5t-93 -225.5t-225 -93t-225.5 93t-93.5 225.5zM246 1344.5q0 -52.5 40 -91.5t91 -39t91 39t40 91.5t-40 91.5t-91 39t-91 -39t-40 -91.5z" />
<glyph unicode="&#xb1;" horiz-adv-x="1093" d="M59 -12v262h971v-262h-971zM59 623v262h344v295h281v-295h346v-262h-346v-295h-281v295h-344z" />
<glyph unicode="&#xb2;" horiz-adv-x="735" d="M53 1257l88 89q49 49 119 49h160q70 0 117 -49l61 -62q49 -49 49 -117v-86q0 -94 -78 -133l-321 -162v-110h432v-117l-57 -55h-566v278q0 102 105 158l295 150v75v2l-2 2l-43 41q-8 10 -8.5 11.5t4.5 1.5h-129h-3l-2 -2l-90 -95z" />
<glyph unicode="&#xb3;" horiz-adv-x="694" d="M39 618l127 127l63 -61q4 -6 13 -6h170q8 0 12 6l16 14q4 6 4 13v143q0 8 -4 12l-45 45q-6 6 -14 7h-229v172h241q6 0 13 6l28 28q4 6 4 13v55q0 8 -4 12l-14 15q-6 6 -14 6h-158q-8 0 -15 -6l-61 -62l-127 129l70 70q41 41 100 41h223q59 0 101 -41l49 -49 q41 -41 41 -99v-86q0 -57 -41 -100l-23 -23l29 -30q41 -41 41 -99v-176q0 -55 -41 -98l-49 -49q-41 -41 -103 -41h-231q-61 0 -102 41z" />
<glyph unicode="&#xb4;" horiz-adv-x="501" d="M59 1300l246 291l139 -127l-268 -270z" />
<glyph unicode="&#xb6;" horiz-adv-x="1064" d="M59 874v275q0 86 62 147l78 76q59 62 149 62h565l88 -88v-1565h-280v1393h-64v-1393h-282v809h-27q-90 0 -149 61l-78 76q-61 61 -62 147z" />
<glyph unicode="&#xb7;" horiz-adv-x="436" d="M61 446v304h314v-304h-314z" />
<glyph unicode="&#xb8;" horiz-adv-x="538" d="M82 -109l72 154h215l-33 -65q20 -6 39 -13q49 -23 77.5 -65.5t28.5 -94.5q0 -72 -54 -126t-142 -54h-152v160h135q10 0 17.5 8t7.5 19q0 8 -6 16t-19 8q-29 0 -96 -35z" />
<glyph unicode="&#xb9;" horiz-adv-x="491" d="M47 1241l37 76l209 78h88l61 -62v-829h-190v682l-162 -62z" />
<glyph unicode="&#xba;" horiz-adv-x="681" d="M55 995v308q0 57 43 100l47 47q42 43 103 43l186 -2q61 0 103 -41l49 -47q41 -43 41 -100v-308q0 -57 -41 -98l-49 -49q-41 -41 -103 -41h-186q-61 0 -103 41l-47 49q-43 41 -43 98zM246 1012q0 -8 6 -13l14 -14q6 -6 13 -6h124q8 0 13 6l14 14q6 4 6 13v276q0 6 -6 12 l-14 15q-4 6 -13 6h-124q-8 0 -13 -6l-14 -15q-6 -6 -6 -12v-276z" />
<glyph unicode="&#xbb;" horiz-adv-x="1210" d="M61 199l279 338l-279 340l166 165l410 -383v-243l-410 -383zM573 199l279 338l-279 340l166 165l410 -383v-243l-410 -383z" />
<glyph unicode="&#xbc;" horiz-adv-x="1542" d="M74 1229l35 76l210 77h89l61 -61v-829h-190v679l-164 -59zM166 -33l975 1467h233l-973 -1467h-235zM827 248v74l293 569h178l62 -62v-471h106v-110l-61 -62h-45v-184h-193v184h-278zM1061 358h106v195h-6z" />
<glyph unicode="&#xbd;" horiz-adv-x="1691" d="M78 1229l35 76l211 77h88l61 -61v-829h-190v679l-164 -59zM170 -33l975 1467h233l-975 -1467h-233zM985 752l88 88q49 49 119 49h160q70 0 118 -49l60 -62q49 -49 49 -119v-84q0 -94 -78 -133l-313 -159q-8 -2 -8 -11v-102h432v-117l-58 -55h-565v276q0 104 105 158 l286 148q8 4 9 12v61q0 8 -7 15l-45 43q-6 6 -12 6h-108q-8 0 -13 -6l-88 -90z" />
<glyph unicode="&#xbe;" horiz-adv-x="1646" d="M63 604l127 127l64 -61q4 -6 12 -6h170q8 0 13 6l16 14q4 6 4 12v144q0 8 -4 12l-45 45q-6 6 -14 6h-230v172h242q6 0 12 6l29 29q4 6 4 12v56q0 8 -4 12l-15 14q-6 6 -14 6h-158q-8 0 -14 -6l-61 -61l-127 129l69 69q42 41 101 41h223q59 0 100 -41l49 -49 q41 -41 41 -98v-86q0 -57 -41 -100l-22 -23l28 -31q41 -41 41 -98v-176q0 -55 -41 -98l-49 -50q-41 -41 -102 -40h-231q-61 0 -103 40zM281 -33l972 1467h236l-975 -1467h-233zM928 248v74l293 569h176l61 -62v-471h107v-110l-62 -62h-45v-184h-190v184h-281zM1159 358h109 v195h-6z" />
<glyph unicode="&#xbf;" horiz-adv-x="1003" d="M59 14v146q0 141 99 192l215 109q10 4 10 16v277h274v-287q0 -156 -159 -238l-156 -82q-8 -4 -8 -8v-4v-117v-4v-2q0 -2 6 -8l80 -80q6 -8 16 -8h166q12 0 19 8l133 133l188 -186l-131 -131q-43 -41 -82 -58.5t-96 -17.5h-227q-57 0 -96.5 17.5t-80.5 58.5l-96 96 q-29 27 -44 52.5t-22.5 56t-7.5 69.5zM362 797v303h314v-303h-314z" />
<glyph unicode="&#xc0;" horiz-adv-x="1288" d="M25 68l440 1366h358l441 -1366l-148 -68h-125l-133 426h-426l-135 -426h-127zM453 1821l137 129l246 -291l-115 -107zM512 684h264l-129 414h-6z" />
<glyph unicode="&#xc1;" horiz-adv-x="1288" d="M25 68l440 1366h358l441 -1366l-146 -68h-127l-133 426h-426l-135 -426h-127zM455 1659l245 291l138 -129l-269 -269zM512 684h264l-129 414h-6z" />
<glyph unicode="&#xc2;" horiz-adv-x="1288" d="M25 68l440 1366h358l441 -1366l-146 -68h-127l-133 426h-426l-135 -426h-127zM334 1659l231 274h160l231 -274l-114 -107l-197 197l-196 -197zM512 684h264l-129 414h-6z" />
<glyph unicode="&#xc3;" horiz-adv-x="1288" d="M25 68l440 1366h358l441 -1366l-146 -68h-127l-133 426h-426l-135 -426h-127zM289 1731q2 4 20.5 31.5t35.5 51t44 52t58.5 46t64.5 21.5h25q68 0 157 -69q57 -47 80 -47q4 0 8 1t9.5 5t9.5 7t10 9t11 12.5t12.5 16.5l13.5 18t16 21.5t19 25.5l114 -78 q-27 -70 -62.5 -116.5t-76.5 -68t-84 -21.5q-63 0 -129 45q-18 12 -34.5 24.5t-26 19.5t-17.5 13t-13 9t-9 4t-8 1t-17 -2q-45 -10 -106 -121zM512 684h264l-129 414h-6z" />
<glyph unicode="&#xc4;" horiz-adv-x="1288" d="M25 68l440 1366h358l441 -1366l-146 -68h-127l-133 426h-426l-135 -426h-127zM385 1663v184h201v-184h-201zM512 684h264l-129 414h-6zM705 1663v184h200v-184h-200z" />
<glyph unicode="&#xc5;" horiz-adv-x="1288" d="M25 68l440 1366h358l441 -1366l-146 -68h-127l-133 426h-426l-135 -426h-127zM436 1790q0 43 16.5 81t44 65.5t66.5 43t82 15.5q88 0 148.5 -59.5t60.5 -145.5q0 -57 -27.5 -104.5t-76 -75t-105.5 -27.5t-105 27.5t-76 75t-28 104.5zM512 684h264l-129 414h-6z M598 1788.5q0 -19.5 13.5 -32.5t33 -13t32.5 13t13 32.5t-13 34t-32.5 14.5t-33 -14.5t-13.5 -34z" />
<glyph unicode="&#xc6;" horiz-adv-x="1611" d="M25 68l440 1366h997l86 -86v-170h-626v-332h522v-258h-522v-275q0 -6 6 -12l39 -39q4 -6 12 -6h569v-170l-86 -86h-532q-88 0 -148 61l-75 76q-63 61 -64 146v143h-211l-135 -426h-127zM512 684h131v393h-6z" />
<glyph unicode="&#xc7;" horiz-adv-x="1200" d="M115 365v704q0 86 63 148l158 157q59 60 147 60h340q88 0 148 -60l184 -184l-192 -193l-177 174q-4 6 -12 7h-242q-8 0 -12 -7l-121 -118q-6 -6 -6 -15v-643q0 -8 6 -14l121 -119q4 -6 12 -6h242q8 0 12 6l177 174l192 -192l-184 -185q-59 -59 -148 -59h-106l-19 -35 q6 0 39 -12q51 -23 79 -66t28 -94q0 -72 -53.5 -126t-141.5 -54h-151v160h133q12 0 19 8t7 18q0 8 -7 16.5t-17 8.5q-31 0 -96 -35l-93 88l60 123h-21q-88 0 -147 59l-158 158q-63 61 -63 148z" />
<glyph unicode="&#xc8;" horiz-adv-x="1118" d="M147 283v868q0 84 64 145l76 78q59 60 147 60h533l86 -86v-170h-570q-8 0 -12 -7l-39 -38q-6 -6 -6 -13v-274h522v-258h-522v-275q0 -6 6 -12l39 -39q4 -6 12 -6h570v-170l-86 -86h-533q-88 0 -147 61l-76 76q-63 61 -64 146zM436 1821l139 129l246 -291l-114 -107z" />
<glyph unicode="&#xc9;" horiz-adv-x="1118" d="M147 283v868q0 84 64 145l76 78q59 60 147 60h533l86 -86v-170h-570q-8 0 -12 -7l-39 -38q-6 -6 -6 -13v-274h522v-258h-522v-275q0 -6 6 -12l39 -39q4 -6 12 -6h570v-170l-86 -86h-533q-88 0 -147 61l-76 76q-63 61 -64 146zM438 1659l246 291l139 -129l-270 -269z" />
<glyph unicode="&#xca;" horiz-adv-x="1118" d="M147 283v868q0 84 64 145l76 78q59 60 147 60h533l86 -86v-170h-570q-8 0 -12 -7l-39 -38q-6 -6 -6 -13v-274h522v-258h-522v-275q0 -6 6 -12l39 -39q4 -6 12 -6h570v-170l-86 -86h-533q-88 0 -147 61l-76 76q-63 61 -64 146zM319 1659l232 274h158l233 -274l-117 -107 l-194 197l-197 -197z" />
<glyph unicode="&#xcb;" horiz-adv-x="1118" d="M147 283v868q0 84 64 145l76 78q59 60 147 60h533l86 -86v-170h-570q-8 0 -12 -7l-39 -38q-6 -6 -6 -13v-274h522v-258h-522v-275q0 -6 6 -12l39 -39q4 -6 12 -6h570v-170l-86 -86h-533q-88 0 -147 61l-76 76q-63 61 -64 146zM371 1663v184h198v-184h-198zM690 1663v184 h199v-184h-199z" />
<glyph unicode="&#xcc;" horiz-adv-x="514" d="M63 1821l138 129l245 -291l-114 -107zM117 0v1348l86 86h190v-1434h-276z" />
<glyph unicode="&#xcd;" horiz-adv-x="514" d="M66 1659l245 291l138 -129l-269 -269zM117 0v1348l86 86h190v-1434h-276z" />
<glyph unicode="&#xce;" horiz-adv-x="514" d="M-53 1659l231 274h160l231 -274l-114 -107l-197 197l-197 -197zM119 0v1348l86 86h190v-1434h-276z" />
<glyph unicode="&#xcf;" horiz-adv-x="514" d="M-2 1663v184h201v-184h-201zM119 0v1348l86 86h190v-1434h-276zM317 1663v184h201v-184h-201z" />
<glyph unicode="&#xd0;" horiz-adv-x="1347" d="M51 586v264h154v498l86 86h575q88 0 148 -60l160 -157q61 -61 61 -148v-704q0 -86 -61 -148l-160 -158q-59 -59 -148 -59h-661v586h-154zM483 256h334q8 0 14 6l119 119q6 6 6 14v643q0 9 -6 15l-119 118q-6 6 -14 7h-334v-328h297v-264h-297v-330z" />
<glyph unicode="&#xd1;" horiz-adv-x="1366" d="M145 0v1348l86 86h293l408 -957h10v957h277v-1348l-86 -86h-302l-395 944h-14v-944h-277zM326 1731q4 4 21.5 31.5t35.5 51t44 52t57.5 46t64.5 21.5h24q68 0 158 -69q57 -47 80 -47q4 0 8 1t9.5 5t9.5 7t10 9t11 12.5t12.5 16.5l13.5 18t16 21.5t19 25.5l114 -78 q-39 -102 -97 -154t-126 -52q-63 0 -129 45q-14 10 -29.5 21t-25 17.5t-17.5 13.5t-12 10t-9 5t-8 3t-6 1q-6 0 -18 -2q-45 -10 -104 -121z" />
<glyph unicode="&#xd2;" horiz-adv-x="1357" d="M117 365v704q0 86 61 148l158 157q61 60 149 60h385q88 0 150 -60l158 -157q61 -61 61 -148v-704q0 -86 -61 -148l-158 -158q-61 -59 -150 -59h-385q-88 0 -149 59l-158 158q-61 61 -61 148zM393 395q0 -8 6 -14l121 -119q6 -6 12 -6h291q6 0 13 6l120 119q6 6 7 14v643 q-1 9 -7 15l-120 118q-6 6 -13 7h-291q-6 0 -12 -7l-121 -118q-6 -6 -6 -15v-643zM485 1821l138 129l245 -291l-114 -107z" />
<glyph unicode="&#xd3;" horiz-adv-x="1357" d="M117 365v704q0 86 61 148l158 157q61 60 149 60h385q88 0 150 -60l158 -157q61 -61 61 -148v-704q0 -86 -61 -148l-158 -158q-61 -59 -150 -59h-385q-88 0 -149 59l-158 158q-61 61 -61 148zM393 395q0 -8 6 -14l121 -119q6 -6 12 -6h291q6 0 13 6l120 119q6 6 7 14v643 q-1 9 -7 15l-120 118q-6 6 -13 7h-291q-6 0 -12 -7l-121 -118q-6 -6 -6 -15v-643zM487 1659l246 291l137 -129l-268 -269z" />
<glyph unicode="&#xd4;" horiz-adv-x="1357" d="M117 365v704q0 86 61 148l158 157q61 60 149 60h385q88 0 150 -60l158 -157q61 -61 61 -148v-704q0 -86 -61 -148l-158 -158q-61 -59 -150 -59h-385q-88 0 -149 59l-158 158q-61 61 -61 148zM367 1659l231 274h160l231 -274l-115 -107l-196 197l-197 -197zM393 395 q0 -8 6 -14l121 -119q6 -6 12 -6h291q6 0 13 6l120 119q6 6 7 14v643q-1 9 -7 15l-120 118q-6 6 -13 7h-291q-6 0 -12 -7l-121 -118q-6 -6 -6 -15v-643z" />
<glyph unicode="&#xd5;" horiz-adv-x="1357" d="M117 365v704q0 86 61 148l158 157q61 60 149 60h385q88 0 150 -60l158 -157q61 -61 61 -148v-704q0 -86 -61 -148l-158 -158q-61 -59 -150 -59h-385q-88 0 -149 59l-158 158q-61 61 -61 148zM322 1731q4 4 21 31.5t35.5 51t44.5 52t57.5 46t64.5 21.5h24q68 0 158 -69 q57 -47 80 -47q4 0 8 1t8 3t8.5 6t8.5 8l10 10t10 12.5t11.5 15.5t12.5 17t14 20.5t17 22.5l115 -78q-27 -70 -62.5 -116.5t-75.5 -68t-85 -21.5q-63 0 -129 45q-18 12 -34.5 24.5t-26 19.5t-17.5 13l-12 9t-8.5 4t-8.5 1q-6 0 -18 -2q-45 -10 -104 -121zM393 395 q0 -8 6 -14l121 -119q6 -6 12 -6h291q6 0 13 6l120 119q6 6 7 14v643q-1 9 -7 15l-120 118q-6 6 -13 7h-291q-6 0 -12 -7l-121 -118q-6 -6 -6 -15v-643z" />
<glyph unicode="&#xd6;" horiz-adv-x="1357" d="M117 365v704q0 86 61 148l158 157q61 60 149 60h385q88 0 150 -60l158 -157q61 -61 61 -148v-704q0 -86 -61 -148l-158 -158q-61 -59 -150 -59h-387q-86 0 -147 59l-158 158q-61 61 -61 148zM393 395q0 -8 6 -14l121 -119q6 -6 12 -6h291q6 0 13 6l120 119q4 6 5 14v643 q-1 9 -5 15l-120 118q-6 6 -13 7h-291q-6 0 -12 -7l-121 -118q-6 -6 -6 -15v-643zM418 1663v184h200v-184h-200zM737 1663v184h201v-184h-201z" />
<glyph unicode="&#xd7;" horiz-adv-x="995" d="M59 350l248 250l-248 246l189 190l248 -248l247 248l189 -190l-246 -246l248 -250l-191 -188l-247 248l-248 -248z" />
<glyph unicode="&#xd8;" horiz-adv-x="1357" d="M117 365v704q0 86 61 148l158 157q61 59 149 60h301l33 102h260l-55 -168q41 -39 51 -49l103 -102q61 -61 61 -148v-704q0 -86 -61 -148l-158 -158q-61 -59 -150 -59h-297l-32 -102h-262l55 165q-4 2 -17.5 14.5t-21.5 22.5l-117 117q-61 61 -61 148zM393 395q0 -8 6 -14 l17 -14l14 -15l270 826h-168q-6 0 -12 -7l-121 -118q-6 -6 -6 -15v-643zM659 256h164q6 0 13 6l120 119q6 6 7 14v643q-1 9 -7 15l-6 4q-12 14 -20 22z" />
<glyph unicode="&#xd9;" horiz-adv-x="1341" d="M154 283v1065l86 86h192v-1121q0 -6 4 -12l39 -39q6 -6 12 -6h375q6 0 12 6l39 39q4 6 5 12v1035l88 86h190v-1151q0 -84 -61 -146l-76 -76q-61 -61 -150 -61h-469q-88 0 -149 61l-76 76q-61 61 -61 146zM477 1821l139 129l246 -291l-117 -107z" />
<glyph unicode="&#xda;" horiz-adv-x="1341" d="M154 283v1065l86 86h192v-1121q0 -6 4 -12l39 -39q6 -6 12 -6h375q6 0 12 6l39 39q4 6 5 12v1035l88 86h190v-1151q0 -84 -61 -146l-76 -76q-61 -61 -150 -61h-469q-88 0 -149 61l-76 76q-61 61 -61 146zM479 1659l246 291l139 -129l-270 -269z" />
<glyph unicode="&#xdb;" horiz-adv-x="1341" d="M154 283v1065l86 86h192v-1121q0 -6 4 -12l39 -39q6 -6 12 -6h375q6 0 12 6l39 39q4 6 5 12v1035l88 86h190v-1151q0 -84 -61 -146l-76 -76q-61 -61 -150 -61h-469q-88 0 -149 61l-76 76q-61 61 -61 146zM358 1659l234 274h158l231 -274l-115 -107l-196 197l-197 -197z " />
<glyph unicode="&#xdc;" horiz-adv-x="1341" d="M154 283v1065l86 86h192v-1121q0 -6 4 -12l39 -39q6 -6 12 -6h375q6 0 12 6l39 39q4 6 5 12v1035l88 86h190v-1151q0 -84 -61 -146l-76 -76q-61 -61 -150 -61h-469q-88 0 -149 61l-76 76q-61 61 -61 146zM410 1663v184h200v-184h-200zM729 1663v184h201v-184h-201z" />
<glyph unicode="&#xdd;" horiz-adv-x="1193" d="M16 1364l152 70h121l299 -713h16l299 713h121l152 -70l-392 -901h-49v-463h-278v463h-49zM406 1659l245 291l137 -129l-268 -269z" />
<glyph unicode="&#xde;" horiz-adv-x="1228" d="M147 0v1434h285v-222h395q90 0 152 -61l76 -76q63 -63 63 -149v-310q0 -86 -63 -149l-76 -76q-61 -61 -152 -61h-395v-330h-285zM432 594h350q2 0 4 2l43 43q2 2 2 6v252q0 4 -2 6l-43 43q-2 2 -4 2h-350v-354z" />
<glyph unicode="&#xdf;" horiz-adv-x="1228" d="M145 0v1147q0 86 64 149l76 76q61 62 151 62h299q88 0 150 -62l78 -76q61 -63 61 -149v-209q0 -88 -61 -150l-11 -8l19 -18q63 -63 63 -150v-325q0 -86 -63 -150l-76 -76q-61 -61 -152 -61h-268v248h230q8 0 12 6l37 37q6 6 6 12v293q0 6 -6 12l-37 37q-4 4 -12 6h-230 v248h221q6 0 13 6l36 37q4 4 5 12v176q0 6 -5 13l-36 37q-6 6 -13 6h-221q-8 0 -12 -6l-37 -37q-6 -6 -6 -13v-1130h-275z" />
<glyph unicode="&#xe0;" horiz-adv-x="989" d="M76 276v101q0 84 61 143l84 84q59 59 144 60h276v61q0 6 -4 12l-45 45q-6 6 -14 6h-451v164l74 72h413q86 0 146 -59l82 -82q59 -59 59 -144v-739h-237l-7 41l-28 -12q-61 -29 -127 -29h-148q-86 0 -143 59l-76 74q-59 59 -59 143zM309 1411l140 129l245 -291l-116 -106z M336 291q0 -6 6 -12l37 -37q4 -6 12 -6h109q6 0 12 4l129 61v125h-240q-8 0 -12 -4l-47 -47q-6 -6 -6 -13v-71z" />
<glyph unicode="&#xe1;" horiz-adv-x="989" d="M76 276v101q0 84 61 143l84 84q59 59 144 60h276v61q0 6 -4 12l-45 45q-6 6 -14 6h-451v164l74 72h413q86 0 146 -59l82 -82q59 -59 59 -144v-739h-237l-7 41l-28 -12q-59 -29 -127 -29h-148q-86 0 -143 59l-76 74q-59 59 -59 143zM311 1249l246 291l139 -129l-270 -268z M336 291q0 -6 6 -12l37 -37q4 -6 12 -6h109q6 0 12 4l129 61v125h-240q-8 0 -12 -4l-47 -47q-6 -6 -6 -13v-71z" />
<glyph unicode="&#xe2;" horiz-adv-x="989" d="M76 276v101q0 84 61 143l84 84q59 59 144 60h276v61q0 6 -4 12l-45 45q-6 6 -14 6h-451v164l74 72h413q86 0 146 -59l82 -82q59 -59 59 -144v-739h-237l-7 41l-28 -12q-59 -29 -127 -29h-148q-86 0 -143 59l-76 74q-59 59 -59 143zM190 1249l234 275h158l231 -275 l-115 -106l-196 196l-197 -196zM336 291q0 -6 6 -12l37 -37q4 -6 12 -6h109q6 0 12 4l129 61v125h-240q-8 0 -12 -4l-47 -47q-6 -6 -6 -13v-71z" />
<glyph unicode="&#xe3;" horiz-adv-x="989" d="M76 276v101q0 84 61 143l84 84q59 59 144 60h276v61q0 6 -4 12l-45 45q-6 6 -14 6h-451v164l74 72h413q86 0 146 -59l82 -82q59 -59 59 -144v-739h-237l-7 41l-28 -12q-59 -29 -127 -29h-148q-86 0 -143 59l-76 74q-59 59 -59 143zM145 1321q4 4 21.5 31.5t36 51t44 52.5 t57.5 46.5t65 21.5h24q68 0 158 -70q57 -47 80 -47q4 0 9 1t10 5t9.5 7t9.5 9.5t10 12.5t12 16t13.5 18.5t16.5 21.5t18 26l115 -78q-39 -102 -97.5 -154.5t-125.5 -52.5q-63 0 -127 45q-23 14 -42.5 28.5t-28.5 21.5t-17 13.5t-12.5 7.5t-9.5 1t-17 -2q-44 -10 -105 -121z M336 291q0 -6 6 -12l37 -37q4 -6 12 -6h109q6 0 12 4l129 61v125h-240q-8 0 -12 -4l-47 -47q-6 -6 -6 -13v-71z" />
<glyph unicode="&#xe4;" horiz-adv-x="989" d="M76 276v101q0 84 61 143l84 84q59 59 144 60h276v61q0 6 -4 12l-45 45q-6 6 -14 6h-451v164l74 72h413q86 0 146 -59l82 -82q59 -59 59 -144v-739h-237l-7 41l-28 -12q-61 -29 -127 -29h-148q-86 0 -143 59l-76 74q-59 59 -59 143zM242 1253v185h200v-185h-200zM336 291 q0 -6 6 -12l37 -37q4 -6 12 -6h109q6 0 12 4l129 61v125h-240q-8 0 -12 -4l-47 -47q-6 -6 -6 -13v-71zM561 1253v185h201v-185h-201z" />
<glyph unicode="&#xe5;" horiz-adv-x="989" d="M76 276v101q0 84 61 143l84 84q59 59 144 60h276v61q0 6 -4 12l-45 45q-6 6 -14 6h-451v164l74 72h413q86 0 146 -59l82 -82q59 -59 59 -144v-739h-237l-7 41l-28 -12q-59 -29 -127 -29h-148q-86 0 -143 59l-76 74q-59 59 -59 143zM293 1380q0 57 27.5 104.5t76 74 t105.5 26.5q88 0 148.5 -59.5t60.5 -145.5q0 -57 -28 -104t-76 -74.5t-105 -27.5q-88 0 -148.5 60t-60.5 146zM336 291q0 -6 6 -12l37 -37q4 -6 12 -6h109q6 0 12 4l129 61v125h-240q-8 0 -12 -4l-47 -47q-6 -6 -6 -13v-71zM455 1379.5q0 -19.5 14 -33t32.5 -13.5t33 13.5 t14.5 33t-14.5 33.5t-33 14t-32.5 -14t-14 -33.5z" />
<glyph unicode="&#xe6;" horiz-adv-x="1658" d="M76 276v101q0 84 61 143l84 84q59 59 144 60h276v61q0 6 -4 12l-45 45q-6 6 -14 6h-451v164l74 72h413q86 0 146 -59l12 -13q4 -4 7 -4t7 4l13 13q59 59 143 59h264q86 0 146 -59l73 -74q59 -59 60 -143v-269l-74 -73h-487v-115q0 -6 6 -12l37 -37q6 -6 12 -6h190 q8 0 15 6l90 90l176 -174l-98 -99q-59 -59 -146 -59h-250q-23 0 -49 14l-6 2v-16h-237l-7 41l-28 -12q-59 -29 -127 -29h-148q-86 0 -143 59l-76 74q-59 59 -59 143zM336 291q0 -6 6 -12l37 -37q4 -6 12 -6h109q6 0 12 4l129 61v125h-240q-8 0 -12 -4l-47 -47q-6 -6 -6 -13 v-71zM924 641h301v92q0 6 -4 12l-37 37q-6 4 -15 4h-190q-6 0 -12 -4l-37 -37q-6 -6 -6 -12v-92z" />
<glyph unicode="&#xe7;" horiz-adv-x="909" d="M76 276v472q0 84 59 143l74 74q59 59 145 59h287q86 0 145 -59l97 -99l-174 -174l-93 90q-4 6 -12 6h-215q-6 0 -12 -6l-37 -37q-4 -6 -4 -12v-442q0 -6 4 -12l37 -37q6 -6 12 -6h215q8 0 12 6l93 90l174 -174l-97 -99q-59 -59 -145 -59h-104l-15 -29q4 0 39 -12 q51 -23 79 -66t28 -94q0 -47 -22.5 -87t-68 -66.5t-106.5 -26.5h-152v160h136q12 0 19 8t7 18q0 8 -7 16.5t-19 8.5q-29 0 -95 -35l-92 88l56 119h-5q-61 8 -110 57l-74 74q-59 59 -59 143z" />
<glyph unicode="&#xe8;" horiz-adv-x="960" d="M76 276v472q0 84 59 143l74 74q59 59 145 59h264q86 0 144 -59l76 -74q59 -59 59 -143v-269l-74 -73h-487v-115q0 -6 6 -12l37 -37q4 -6 12 -6h191q8 0 12 6l90 90l176 -174l-98 -99q-57 -59 -144 -59h-264q-86 0 -145 59l-74 74q-59 59 -59 143zM289 1411l139 129 l246 -291l-115 -106zM336 641h301v92q0 6 -6 12l-37 37q-4 6 -12 6h-191q-8 0 -12 -6l-37 -37q-6 -6 -6 -12v-92z" />
<glyph unicode="&#xe9;" horiz-adv-x="960" d="M76 276v472q0 84 59 143l74 74q59 59 145 59h264q86 0 144 -59l76 -74q59 -59 59 -143v-269l-74 -73h-487v-115q0 -6 6 -12l37 -37q4 -6 12 -6h191q8 0 12 6l90 90l176 -174l-98 -99q-57 -59 -144 -59h-264q-86 0 -145 59l-74 74q-59 59 -59 143zM291 1249l246 291 l139 -129l-270 -268zM336 641h301v92q0 6 -6 12l-37 37q-4 6 -12 6h-191q-8 0 -12 -6l-37 -37q-6 -6 -6 -12v-92z" />
<glyph unicode="&#xea;" horiz-adv-x="960" d="M76 276v472q0 84 59 143l74 74q59 59 145 59h264q86 0 144 -59l76 -74q59 -59 59 -143v-269l-74 -73h-487v-115q0 -6 6 -12l37 -37q4 -6 12 -6h191q8 0 12 6l90 90l176 -174l-98 -99q-57 -59 -144 -59h-264q-86 0 -145 59l-74 74q-59 59 -59 143zM170 1249l233 275h158 l232 -275l-115 -106l-197 196l-196 -196zM336 641h301v92q0 6 -6 12l-37 37q-4 6 -12 6h-191q-8 0 -12 -6l-37 -37q-6 -6 -6 -12v-92z" />
<glyph unicode="&#xeb;" horiz-adv-x="960" d="M76 276v472q0 84 59 143l74 74q59 59 145 59h264q86 0 144 -59l76 -74q59 -59 59 -143v-269l-74 -73h-487v-115q0 -6 6 -12l37 -37q4 -6 12 -6h191q8 0 12 6l90 90l176 -174l-98 -99q-57 -59 -144 -59h-264q-86 0 -145 59l-74 74q-59 59 -59 143zM221 1253v185h201v-185 h-201zM336 641h301v92q0 6 -6 12l-37 37q-4 6 -12 6h-191q-8 0 -12 -6l-37 -37q-6 -6 -6 -12v-92zM543 1253v185h198v-185h-198z" />
<glyph unicode="&#xec;" horiz-adv-x="405" d="M16 1411l140 129l245 -291l-116 -106zM78 0v1024h260v-1024h-260z" />
<glyph unicode="&#xed;" horiz-adv-x="405" d="M18 1249l246 291l139 -129l-270 -268zM78 0v1024h260v-1024h-260z" />
<glyph unicode="&#xee;" horiz-adv-x="405" d="M-100 1249l233 275h158l231 -275l-114 -106l-197 196l-197 -196zM80 0v1024h260v-1024h-260z" />
<glyph unicode="&#xef;" horiz-adv-x="405" d="M-49 1253v185h201v-185h-201zM80 0v1024h260v-1024h-260zM270 1253v185h201v-185h-201z" />
<glyph unicode="&#xf0;" horiz-adv-x="1085" d="M59 295v338q0 90 64 153l76 76q63 63 151 64h103q61 0 118 -27l76 -35v137l-69 -53l-78 99l135 104l-6 6t-11 10l-12 13q-6 6 -14 6h-238q-8 0 -14 -6l-94 -95l-185 185l103 102q61 62 151 62h316q90 0 151 -62l19 -18q27 -23 39 -39l92 69l84 -102l-101 -76q6 -27 7 -59 v-852q0 -92 -64 -156l-76 -76q-63 -63 -151 -63h-281q-88 0 -151 63l-76 76q-63 63 -64 156zM334 303q0 -8 6 -12l35 -35q4 -6 12 -6h207q8 0 14 6l35 35q4 4 4 12v283l-192 90q-4 2 -13 2h-55q-8 0 -14 -6l-33 -35q-6 -4 -6 -12v-322z" />
<glyph unicode="&#xf1;" horiz-adv-x="1038" d="M106 0v1024h234l12 -68l92 43q56 25 117 25h105q84 0 143 -59l74 -74q59 -59 59 -143v-748h-258v733q0 6 -6 12l-37 37q-6 4 -12 4h-60q-8 0 -14 -2l-188 -88v-696h-261zM164 1321q4 4 21.5 31.5t36 51t44 52.5t57 46.5t64.5 21.5h25q68 0 157 -70q57 -47 80 -47 q4 0 8.5 1t8.5 3t8 6t8 8.5t10 10.5t10.5 12t11.5 15.5t12 17.5t14.5 20t17.5 23l114 -78q-39 -102 -97 -154.5t-126 -52.5q-63 0 -129 45q-20 14 -39.5 28.5t-29 21.5t-17.5 13.5t-12 7.5t-9 1t-18 -2q-45 -10 -104 -121z" />
<glyph unicode="&#xf2;" d="M76 276v472q0 84 59 143l74 74q59 59 145 59h287q86 0 145 -59l74 -74q59 -59 60 -143v-472q0 -84 -60 -143l-74 -74q-59 -59 -145 -59h-287q-86 0 -145 59l-74 74q-59 59 -59 143zM305 1411l137 129l246 -291l-115 -106zM336 291q0 -6 4 -12l37 -37q6 -6 14 -6h213 q8 0 12 6l39 37q4 6 4 12v442q0 6 -4 12l-39 37q-4 6 -12 6h-213q-8 0 -14 -6l-37 -37q-4 -6 -4 -12v-442z" />
<glyph unicode="&#xf3;" d="M76 276v472q0 84 59 143l74 74q59 59 145 59h287q86 0 145 -59l74 -74q59 -59 60 -143v-472q0 -84 -60 -143l-74 -74q-59 -59 -145 -59h-287q-86 0 -145 59l-74 74q-59 59 -59 143zM307 1249l246 291l137 -129l-268 -268zM336 291q0 -6 4 -12l37 -37q6 -6 14 -6h213 q8 0 12 6l39 37q4 6 4 12v442q0 6 -4 12l-39 37q-4 6 -12 6h-213q-8 0 -14 -6l-37 -37q-4 -6 -4 -12v-442z" />
<glyph unicode="&#xf4;" d="M76 276v472q0 84 59 143l74 74q59 59 145 59h287q86 0 145 -59l74 -74q59 -59 60 -143v-472q0 -84 -60 -143l-74 -74q-59 -59 -145 -59h-287q-86 0 -145 59l-74 74q-59 59 -59 143zM186 1249l232 275h160l231 -275l-115 -106l-196 196l-197 -196zM336 291q0 -6 4 -12 l37 -37q6 -6 14 -6h213q8 0 12 6l39 37q4 6 4 12v442q0 6 -4 12l-39 37q-4 6 -12 6h-213q-8 0 -14 -6l-37 -37q-4 -6 -4 -12v-442z" />
<glyph unicode="&#xf5;" d="M76 276v472q0 84 59 143l74 74q59 59 145 59h287q86 0 145 -59l74 -74q59 -59 60 -143v-472q0 -84 -60 -143l-74 -74q-59 -59 -145 -59h-287q-86 0 -145 59l-74 74q-59 59 -59 143zM141 1321q4 4 21.5 31.5t36 51t44 52.5t57.5 46.5t65 21.5h24q68 0 158 -70 q57 -47 80 -47q4 0 8 1t9 5t9 7t10.5 9.5t11.5 12.5t12 16t13.5 18.5t16.5 21.5t18 26l115 -78q-27 -70 -62.5 -117t-75.5 -68.5t-85 -21.5q-63 0 -129 45q-20 14 -40 28.5t-29 21.5t-17.5 13.5t-12.5 7.5t-9 1t-17 -2q-46 -10 -105 -121zM336 291q0 -6 4 -12l37 -37 q6 -6 14 -6h213q8 0 14 6l37 37q4 6 4 12v442q0 6 -4 12l-39 37q-4 6 -12 6h-213q-8 0 -14 -6l-37 -37q-4 -6 -4 -12v-442z" />
<glyph unicode="&#xf6;" d="M76 276v472q0 84 59 143l74 74q59 59 145 59h287q86 0 145 -59l74 -74q59 -59 60 -143v-472q0 -84 -60 -143l-74 -74q-59 -59 -145 -59h-287q-86 0 -145 59l-74 74q-59 59 -59 143zM238 1253v185h200v-185h-200zM336 291q0 -6 4 -12l37 -37q6 -6 14 -6h213q8 0 12 6 l39 37q4 6 4 12v442q0 6 -4 12l-39 37q-4 6 -12 6h-213q-8 0 -14 -6l-37 -37q-4 -6 -4 -12v-442zM557 1253v185h201v-185h-201z" />
<glyph unicode="&#xf7;" horiz-adv-x="1093" d="M61 467v264h971v-264h-971zM389 106v304h313v-304h-313zM389 791v303h313v-303h-313z" />
<glyph unicode="&#xf8;" d="M76 276v472q0 84 59 143l74 74q59 59 145 59h205l35 104h211l-45 -139q12 -10 26 -24l74 -74q59 -59 60 -143v-472q0 -84 -60 -143l-74 -74q-59 -59 -145 -59h-207l-35 -104h-211l45 141q-12 10 -24 22l-74 74q-59 59 -59 143zM336 344l145 444h-57q-25 0 -39 -14 l-33 -33q-16 -16 -16 -36v-277v-37v-18v-8.5v-10.5v-10zM510 236h59q25 0 41 16l33 33q15 14 19 39v272v23.5v23.5v21q0 12 -3 26z" />
<glyph unicode="&#xf9;" horiz-adv-x="1028" d="M96 276v748h260v-733q0 -6 6 -12l37 -37q6 -4 13 -4h61q6 0 12 2l189 88v696h258v-1024h-232l-12 68l-92 -43q-55 -25 -117 -25h-104q-84 0 -144 59l-73 74q-61 59 -62 143zM322 1411l137 129l246 -291l-115 -106z" />
<glyph unicode="&#xfa;" horiz-adv-x="1028" d="M96 276v748h260v-733q0 -6 6 -12l37 -37q6 -4 13 -4h61q6 0 12 2l189 88v696h258v-1024h-232l-12 68l-92 -43q-55 -25 -117 -25h-104q-84 0 -144 59l-73 74q-61 59 -62 143zM324 1249l245 291l138 -129l-269 -268z" />
<glyph unicode="&#xfb;" horiz-adv-x="1028" d="M96 276v748h260v-733q0 -6 6 -12l37 -37q6 -4 13 -4h61q6 0 12 2l189 88v696h258v-1024h-232l-12 68l-92 -43q-55 -25 -117 -25h-104q-84 0 -144 59l-73 74q-61 59 -62 143zM203 1249l231 275h160l231 -275l-114 -106l-197 196l-197 -196z" />
<glyph unicode="&#xfc;" horiz-adv-x="1028" d="M96 276v748h260v-733q0 -6 6 -12l37 -37q6 -4 13 -4h61q6 0 12 2l189 88v696h258v-1024h-232l-12 68l-92 -43q-55 -25 -117 -25h-104q-84 0 -144 59l-73 74q-61 59 -62 143zM254 1253v185h201v-185h-201zM573 1253v185h201v-185h-201z" />
<glyph unicode="&#xfd;" horiz-adv-x="1005" d="M18 969l119 55h135l222 -721h12l229 721h133l119 -55l-334 -975q-119 -332 -448 -352l-37 208q102 6 140 30t65 93l10 27h-31zM313 1249l246 291l137 -129l-268 -268z" />
<glyph unicode="&#xfe;" horiz-adv-x="1019" d="M117 -367v1801h260v-467l78 37q55 25 114 24h101q84 0 143 -59l74 -74q61 -59 61 -143v-476q0 -84 -61 -143l-74 -74q-59 -59 -143 -59h-293v-293l-74 -74h-186zM377 236h256q6 0 12 6l37 37q6 6 6 12v446q0 7 -6 13l-37 36q-4 4 -12 5h-55q-2 0 -4 1l-1 1q-2 0 -8 -5 l-188 -88v-464z" />
<glyph unicode="&#xff;" horiz-adv-x="1005" d="M18 969l119 55h135l222 -721h12l229 721h133l119 -55l-334 -975q-119 -332 -448 -352l-37 208q102 6 140 30t65 93l10 27h-31zM244 1253v185h200v-185h-200zM563 1253v185h201v-185h-201z" />
<glyph unicode="&#x152;" horiz-adv-x="1931" d="M117 365v704q0 86 61 148l158 157q61 59 149 60h385q88 0 150 -60l33 -33q4 -4 7 -4t7 4l33 33q59 60 147 60h533l86 -86v-170h-570q-8 0 -12 -7l-39 -38q-6 -6 -6 -13v-274h522v-258h-522v-275q0 -6 6 -12l39 -39q4 -6 12 -6h570v-170l-86 -86h-533q-88 0 -147 61 l-33 31q-4 4 -7 4t-7 -4l-33 -33q-61 -59 -150 -59h-387q-86 0 -147 59l-158 158q-61 61 -61 148zM393 395q0 -8 6 -12l121 -121q6 -6 12 -6h291q6 0 13 6l120 119q4 6 5 12v649q-1 5 -5 11l-120 118q-6 6 -13 7h-291q-6 0 -12 -7l-121 -118q-6 -6 -6 -15v-643z" />
<glyph unicode="&#x153;" horiz-adv-x="1544" d="M76 276v472q0 84 59 143l74 74q59 59 145 59h287q86 0 145 -59l5 -4l2 4q59 59 145 59h264q86 0 144 -59l75 -74q59 -59 60 -143v-269l-74 -73h-487v-115q0 -6 6 -12l37 -37q4 -6 12 -6h190q8 0 13 6l90 90l176 -174l-98 -99q-57 -59 -144 -59h-264q-86 0 -145 59l-2 4 l-5 -4q-59 -59 -145 -59h-287q-86 0 -145 59l-74 74q-59 59 -59 143zM336 291q0 -6 4 -12l37 -37q6 -6 14 -6h213q8 0 14 6l37 37q4 4 4 8v450q0 4 -4 8l-37 37q-6 6 -14 6h-213q-8 0 -14 -6l-37 -37q-4 -6 -4 -12v-442zM920 641h301v92q-1 6 -7 12l-36 37q-4 6 -13 6h-190 q-8 0 -12 -6l-37 -37q-6 -6 -6 -12v-92z" />
<glyph unicode="&#x178;" horiz-adv-x="1193" d="M16 1364l152 70h121l299 -713h16l299 713h121l152 -70l-392 -901h-49v-463h-278v463h-49zM336 1663v184h201v-184h-201zM655 1663v184h201v-184h-201z" />
<glyph unicode="&#x2c6;" horiz-adv-x="780" d="M78 1298l231 275h158l233 -275l-114 -106l-197 197l-196 -197z" />
<glyph unicode="&#x2dc;" horiz-adv-x="886" d="M86 1378q4 4 21.5 32t36 51.5t44 52t57 46t64.5 21.5h25q68 0 158 -70q59 -47 79 -47q4 0 9.5 1t10.5 5.5t9 7.5t10 9t10.5 12t12.5 16.5t13 18.5t15.5 21.5t18.5 25.5l115 -78q-25 -70 -62 -117t-77 -68.5t-85 -21.5q-63 0 -127 45q-16 10 -31.5 21.5t-23.5 17.5 t-16 13.5t-13.5 10.5t-9.5 5t-7 3t-7 1t-19 -2q-43 -10 -104 -121z" />
<glyph unicode="&#x2000;" />
<glyph unicode="&#x2001;" horiz-adv-x="1995" />
<glyph unicode="&#x2002;" />
<glyph unicode="&#x2003;" horiz-adv-x="1995" />
<glyph unicode="&#x2004;" horiz-adv-x="665" />
<glyph unicode="&#x2005;" horiz-adv-x="498" />
<glyph unicode="&#x2006;" horiz-adv-x="332" />
<glyph unicode="&#x2007;" horiz-adv-x="332" />
<glyph unicode="&#x2008;" horiz-adv-x="249" />
<glyph unicode="&#x2009;" horiz-adv-x="399" />
<glyph unicode="&#x200a;" horiz-adv-x="110" />
<glyph unicode="&#x2010;" horiz-adv-x="854" d="M61 469v264h730v-264h-730z" />
<glyph unicode="&#x2011;" horiz-adv-x="854" d="M61 469v264h730v-264h-730z" />
<glyph unicode="&#x2012;" horiz-adv-x="854" d="M61 469v264h730v-264h-730z" />
<glyph unicode="&#x2013;" horiz-adv-x="985" d="M61 469v264h863v-264h-863z" />
<glyph unicode="&#x2014;" horiz-adv-x="1327" d="M61 469v264h1203v-264h-1203z" />
<glyph unicode="&#x2018;" horiz-adv-x="499" d="M61 1155v184q0 68 29 129l66 140h250l-82 -176h51v-277h-314z" />
<glyph unicode="&#x2019;" horiz-adv-x="499" d="M94 1155l82 176h-51v277h313v-185q0 -68 -28 -129l-66 -139h-250z" />
<glyph unicode="&#x201a;" horiz-adv-x="499" d="M94 -193l82 177h-51v276h313v-184q0 -68 -28 -129l-66 -140h-250z" />
<glyph unicode="&#x201c;" horiz-adv-x="866" d="M61 1155v184q0 66 29 129l66 140h250l-82 -176h49v-277h-312zM430 1155v184q0 66 29 129l65 140h250l-82 -176h49v-277h-311z" />
<glyph unicode="&#x201d;" horiz-adv-x="866" d="M92 1155l82 176h-49v277h311v-185q0 -66 -28 -129l-66 -139h-250zM461 1155l82 176h-49v277h311v-185q0 -66 -29 -129l-65 -139h-250z" />
<glyph unicode="&#x201e;" horiz-adv-x="866" d="M94 -193l82 177h-51v276h313v-184q0 -68 -28 -129l-66 -140h-250zM461 -193l82 177h-51v276h313v-184q0 -68 -29 -129l-65 -140h-250z" />
<glyph unicode="&#x2022;" horiz-adv-x="569" d="M61 373v434h449v-434h-449z" />
<glyph unicode="&#x2026;" horiz-adv-x="1171" d="M61 -96v303h314v-303h-314zM430 -96v303h313v-303h-313zM797 -96v303h313v-303h-313z" />
<glyph unicode="&#x202f;" horiz-adv-x="399" />
<glyph unicode="&#x2039;" horiz-adv-x="698" d="M61 416v243l412 383l164 -165l-279 -338l279 -340l-164 -166z" />
<glyph unicode="&#x203a;" horiz-adv-x="698" d="M61 199l279 338l-279 340l166 165l410 -383v-243l-410 -383z" />
<glyph unicode="&#x205f;" horiz-adv-x="498" />
<glyph unicode="&#x20ac;" horiz-adv-x="1157" d="M63 399v258h127v68h-127v258h127v113q0 84 62 147l78 76q59 59 147 59h533l86 -86v-170h-570q-8 0 -12 -6l-39 -39q-6 -4 -6 -12v-82h444v-172l-88 -86h-356v-68h393v-172l-86 -86h-307v-84q0 -8 6 -12l39 -41q4 -4 12 -4h570v-170l-86 -88h-533q-88 0 -147 61l-78 76 q-61 61 -62 148v114h-127z" />
<glyph unicode="&#x2122;" horiz-adv-x="1771" d="M59 1264v112l58 58h549l57 -58v-112h-240v-711h-186v711h-238zM784 553v823l58 58h223l178 -643h4l180 643h224l57 -58v-823h-186v612h-9l-170 -612h-194l-170 612h-8v-612h-187z" />
<glyph unicode="&#x25fc;" horiz-adv-x="1024" d="M0 0v1024h1024v-1024h-1024z" />
<glyph unicode="&#xfb01;" horiz-adv-x="1032" d="M10 788v164l74 72h70v133q0 84 59 143l76 74q57 60 143 60h111l73 -74v-162h-147q-8 0 -12 -6l-37 -37q-6 -6 -6 -12v-119h186v-236h-186v-788h-260v788h-144zM678 1087v277h285v-277h-285zM690 0v1024h260v-1024h-260z" />
<glyph unicode="&#xfb02;" horiz-adv-x="1187" d="M10 788v164l74 72h70v133q0 84 59 143l76 74q57 60 143 60h111l73 -74v-162h-147q-8 0 -12 -6l-37 -37q-6 -6 -6 -12v-119h186v-236h-186v-788h-260v788h-144zM719 276v1119l74 73h186v-1175q0 -8 6 -14l37 -37q6 -6 14 -6h144v-236h-183q-84 0 -143 59l-61 62 q-41 37 -57.5 71.5t-16.5 83.5z" />
</font>
</defs>
</svg>
