<?xml version="1.0" standalone="no"?>
<!DOCTYPE svg PUBLIC "-//W3C//DTD SVG 1.1//EN" "http://www.w3.org/Graphics/SVG/1.1/DTD/svg11.dtd" >
<svg xmlns="http://www.w3.org/2000/svg">
<metadata></metadata>
<defs>
<font id="bordaregular_3" horiz-adv-x="403" >
<font-face units-per-em="2048" ascent="1622" descent="-426" />
<missing-glyph horiz-adv-x="614" />
<glyph horiz-adv-x="0" />
<glyph unicode="&#xd;" horiz-adv-x="681" />
<glyph unicode=" "  horiz-adv-x="614" />
<glyph unicode="&#x09;" horiz-adv-x="614" />
<glyph unicode="&#xa0;" horiz-adv-x="614" />
<glyph unicode="!" d="M88 0v225h225v-225h-225zM102 1016v418h197v-418l-18 -649h-160z" />
<glyph unicode="&#x22;" horiz-adv-x="698" d="M84 1339v209h197v-209l-19 -252h-160zM416 1339v209h196v-209l-18 -252h-158z" />
<glyph unicode="#" horiz-adv-x="1316" d="M76 479v115l53 51h213l47 223h-313v115l53 51h295l84 400h186l-84 -400h244l84 400h186l-86 -400h203v-166h-237l-48 -223h285v-166h-319l-103 -479h-186l102 479h-243l-103 -479h-184l100 479h-229zM526 645h244l47 223h-244z" />
<glyph unicode="$" horiz-adv-x="1101" d="M80 53v121h407v500l-321 164q-45 23 -65.5 56.5t-20.5 88.5v119q0 53 14.5 86t46.5 67l115 115q39 37 69.5 50.5t80.5 13.5h81v96h129v-96h289l53 -54v-120h-342v-453l267 -135q139 -72 139 -209v-125q0 -98 -80 -178l-86 -86q-74 -74 -192 -74h-48v-96h-129v96h-352z M270 1020q0 -37 37 -55l180 -93v388h-49q-37 0 -59 -25l-84 -86q-25 -25 -25 -55v-74zM616 174h48q37 0 59 23l86 86q25 24 25 55v123q0 37 -37 55l-181 92v-434z" />
<glyph unicode="%" horiz-adv-x="1355" d="M84 940v295q0 43 31 72l45 47q30 28 71 28h181q41 0 69 -28l47 -47q29 -29 29 -72v-295q0 -41 -29 -72l-47 -45q-29 -31 -69 -30h-181q-41 0 -71 30l-45 45q-31 31 -31 72zM174 -33l860 1499h152l-860 -1499h-152zM203 948q0 -12 6 -18l27 -27q8 -8 14 -8h141q8 0 15 8 l28 27q6 6 6 18v279q0 12 -6 18l-28 27q-6 8 -15 8h-141q-6 0 -14 -8l-27 -27q-6 -6 -6 -18v-279zM801 190v297q0 41 28 70l48 47q28 29 69 29h180q41 0 72 -29l45 -47q29 -29 29 -70v-297q0 -41 -29 -69l-45 -47q-31 -29 -72 -29h-180q-41 0 -69 29l-48 47q-29 29 -28 69z M918 199q0 -12 6 -19l26 -26q8 -8 17 -9h141q6 0 14 9l27 26q6 6 6 19v280q0 13 -6 19l-27 26q-8 6 -14 6h-141q-8 0 -17 -6l-26 -26q-6 -6 -6 -19v-280z" />
<glyph unicode="&#x26;" horiz-adv-x="1280" d="M76 256v129q0 74 51 125l256 256l-164 170q-51 53 -51 125v113q0 74 51 124l82 82q53 51 125 52h174q72 0 123 -52l82 -82q53 -51 53 -124v-113q0 -68 -49 -121l-174 -176l311 -326l176 176l84 -86v-84l-135 -135l135 -141v-105l-76 -75l-186 194l-135 -133 q-51 -53 -125 -53h-350q-72 0 -125 53l-82 80q-51 53 -51 127zM264 268q0 -23 17 -37l49 -49q14 -16 39 -16h282q23 0 39 16l129 129l-311 326l-227 -227q-16 -16 -17 -37v-105zM356 1073q1 -21 17 -37l137 -141l143 143q14 16 15 35v88q0 20 -17 37l-47 49q-16 14 -39 15 h-104q-25 0 -39 -15l-49 -49q-16 -16 -17 -37v-88z" />
<glyph unicode="'" horiz-adv-x="374" d="M88 1339v209h197v-209l-19 -252h-160z" />
<glyph unicode="(" horiz-adv-x="618" d="M86 92v1174q0 72 51 123l170 167q51 52 121 52h107v-181h-62q-23 0 -39 -14l-137 -137q-16 -16 -16 -39v-1116q0 -23 16 -39l139 -137q16 -14 37 -15h62v-178h-107q-70 0 -121 51l-149 148q-41 39 -56.5 67.5t-15.5 73.5z" />
<glyph unicode=")" horiz-adv-x="618" d="M86 -70h61q27 0 41 17l138 135q16 16 16 39v1116q0 23 -16 39l-138 137q-16 14 -41 14h-61v181h107q72 0 122 -52l168 -167q51 -51 52 -123v-1174q0 -45 -14.5 -73.5t-55.5 -67.5l-150 -148q-51 -51 -122 -51h-107v178z" />
<glyph unicode="*" horiz-adv-x="999" d="M78 868l166 97l121 57l-121 57l-166 97l78 135l168 -97l108 -73l-12 129v192h158v-192l-11 -127l107 71l166 97l80 -135l-168 -97l-119 -57l119 -57l168 -97l-80 -137l-166 96l-107 74l11 -129v-192h-158v192l12 129l-108 -74l-168 -96z" />
<glyph unicode="+" horiz-adv-x="1087" d="M78 508v182h368v375h193v-375h369v-182h-369v-375h-193v375h-368z" />
<glyph unicode="," horiz-adv-x="442" d="M104 -186l78 172h-57v213h227v-148q0 -61 -26 -117l-56 -120h-166z" />
<glyph unicode="-" horiz-adv-x="839" d="M84 510v182h674v-182h-674z" />
<glyph unicode="." d="M88 -57v223h225v-223h-225z" />
<glyph unicode="/" horiz-adv-x="837" d="M90 0l471 1434h193l-471 -1434h-193z" />
<glyph unicode="0" horiz-adv-x="999" d="M76 256v866q0 72 51 123l82 82q51 51 123 51h338q72 0 123 -51l81 -82q51 -51 52 -123v-866q0 -72 -52 -123l-81 -82q-51 -51 -123 -51h-338q-72 0 -123 51l-82 82q-51 51 -51 123zM260 268q0 -20 16 -37l50 -49q16 -16 39 -16h270q25 0 41 16l49 49q16 16 16 37v842 q0 21 -16 37l-49 49q-16 16 -41 16h-270q-23 0 -39 -16l-50 -49q-16 -16 -16 -37v-842z" />
<glyph unicode="1" horiz-adv-x="632" d="M33 1178l39 84l315 116h105l65 -63v-1317h-184v1182l-301 -113z" />
<glyph unicode="2" horiz-adv-x="1040" d="M74 -2v408q0 139 141 210l498 254q37 18 37 54v129q0 27 -25 51l-84 86q-20 23 -55 22h-205q-35 0 -57 -22l-105 -107l-127 127l105 105q37 37 68.5 50t82.5 13h270q49 0 81 -13t69 -50l102 -105q35 -35 49.5 -68.5t14.5 -86.5v-150q0 -121 -76 -160l-563 -284 q-35 -18 -35 -53v-244h729v-111l-57 -55h-858z" />
<glyph unicode="3" horiz-adv-x="962" d="M41 125l125 123l67 -68q14 -16 39 -16h326q25 0 41 16l47 49q16 16 16 37v273q0 20 -16 36l-100 103q-14 14 -39 14h-338v168h356q25 0 41 14l72 74q16 18 16 39v123q0 23 -16 39l-49 47q-16 16 -41 16h-305q-25 0 -41 -16l-68 -68l-123 125l74 74q51 51 123 51h375 q72 0 122 -51l82 -82q51 -51 52 -123v-147q0 -72 -52 -123l-84 -86l95 -92q49 -51 49 -123v-295q0 -74 -49 -125l-82 -82q-53 -51 -123 -51h-395q-70 0 -123 51z" />
<glyph unicode="4" horiz-adv-x="1028" d="M45 373v88l473 917h223l64 -63v-840h180v-102l-63 -64h-117v-311h-184v311h-510zM258 475h363v672h-11z" />
<glyph unicode="5" horiz-adv-x="942" d="M74 735l80 580l63 63h549l65 -63v-103h-503l-56 -401h344q72 0 123 -51l82 -82q51 -51 51 -125v-297q0 -74 -51 -125l-82 -82q-51 -51 -123 -51h-337q-72 0 -123 51l-74 76l123 123l67 -68q16 -16 39 -16h271q25 0 41 16l49 49q16 16 16 37v277q0 20 -16 37l-49 49 q-16 16 -41 16h-416z" />
<glyph unicode="6" horiz-adv-x="960" d="M74 264v858q0 72 51 123l82 82q51 51 123 51h338q72 0 123 -51l73 -74l-123 -125l-67 68q-16 16 -41 16h-271q-25 0 -38 -16l-50 -49q-16 -16 -16 -37v-324l158 74q51 25 104 25h109q41 0 66.5 -11.5t56.5 -42.5l82 -81q51 -51 51 -129v-357q0 -80 -51 -129l-82 -82 q-31 -33 -57.5 -43t-65.5 -10h-299q-39 0 -65.5 10t-57.5 43l-82 82q-51 49 -51 129zM258 264q0 -18 16 -35l48 -47q14 -16 40 -16h234q27 0 41 16l47 47q16 16 16 35v357q0 18 -16 36l-47 48q-14 14 -41 14h-70q-18 0 -30 -6l-238 -113v-336z" />
<glyph unicode="7" horiz-adv-x="825" d="M33 1210v105l63 63h625l63 -63v-66l-383 -1251h-186l363 1212h-545z" />
<glyph unicode="8" horiz-adv-x="999" d="M76 258v293q0 74 51 125l55 53l-45 45q-51 51 -51 125v223q0 72 51 123l82 82q51 51 123 51h317q72 0 123 -51l82 -82q51 -51 51 -123v-223q0 -74 -51 -125l-45 -45l55 -53q51 -51 52 -125v-293q0 -74 -52 -125l-81 -82q-51 -51 -123 -51h-338q-72 0 -123 51l-82 82 q-51 51 -51 125zM260 270q0 -23 16 -39l50 -49q16 -14 39 -14h272q23 0 39 14l49 49q16 16 16 39v271q0 21 -16 37l-49 49q-14 14 -37 16h-277q-23 -2 -36 -16l-50 -49q-16 -16 -16 -37v-271zM270 911q0 -23 17 -39l49 -49q14 -14 37 -14h256q23 0 37 14l49 49q16 16 16 39 v199q0 21 -16 37l-49 49q-16 16 -39 16h-252q-23 0 -39 -16l-49 -49q-16 -16 -17 -37v-199z" />
<glyph unicode="9" horiz-adv-x="960" d="M74 791v323q0 78 51 129l82 82q12 12 23.5 21.5t22.5 15.5t22.5 9t25 5t29.5 2h299q41 0 66.5 -11t56.5 -42l82 -82q51 -51 51 -129v-858q0 -74 -51 -125l-82 -82q-51 -49 -123 -49h-338q-72 0 -123 49l-74 76l123 123l68 -68q16 -14 41 -14h270q23 0 39 14l49 49 q16 16 16 39v355l-157 -74q-51 -25 -105 -25h-108q-41 0 -66.5 12.5t-56.5 43.5l-82 79q-51 51 -51 132zM258 788q0 -18 16 -34l48 -47q14 -16 38 -15h72q18 0 31 4l237 113v303q0 21 -16 37l-47 47q-14 14 -41 14h-234q-27 0 -40 -14l-48 -47q-16 -16 -16 -37v-324z" />
<glyph unicode=":" d="M88 -18v225h225v-225h-225zM88 817v225h225v-225h-225z" />
<glyph unicode=";" horiz-adv-x="442" d="M104 -186l78 172h-57v213h227v-148q0 -61 -26 -117l-56 -120h-166zM125 809v225h227v-225h-227z" />
<glyph unicode="&#x3c;" horiz-adv-x="1126" d="M80 426v221l897 434l67 -161l-737 -357v-51l737 -356l-67 -162z" />
<glyph unicode="=" horiz-adv-x="1087" d="M80 322v182h930v-182h-930zM80 692v182h930v-182h-930z" />
<glyph unicode="&#x3e;" horiz-adv-x="1126" d="M82 156l737 356v51l-737 357l68 161l897 -434v-221l-897 -432z" />
<glyph unicode="?" horiz-adv-x="983" d="M88 1264l105 106q39 37 69.5 50.5t81.5 13.5h244q49 0 80.5 -13.5t70.5 -50.5l103 -104q35 -35 48 -69t13 -87v-156q0 -123 -76 -159l-231 -119q-39 -18 -39 -58v-249h-184v256q0 139 141 213l168 86q37 20 37 55v127q0 29 -23 51l-84 86q-23 20 -57 21h-178 q-35 0 -58 -21l-104 -106zM352 0v225h228v-225h-228z" />
<glyph unicode="@" horiz-adv-x="1499" d="M88 72v753q0 61 45 105l158 157q43 46 104 46h711q59 0 104 -46l158 -157q43 -43 45 -105v-463q0 -61 -43 -104l-160 -158q-43 -45 -104 -45h-209l-8 51l-60 -28q-45 -23 -92 -23h-121q-57 0 -98 41l-61 62q-41 41 -41 98v84q0 57 41 98l69 68q41 41 99 41h260v80 q0 16 -13 28l-41 41q-10 10 -28 11h-344v96l43 43h329q55 0 97 -41l69 -68q39 -41 41 -98v-440h52q23 0 36 16l117 131q14 16 14 37v424q0 18 -14 33l-137 135q-16 16 -39 16h-633q-23 0 -39 -14l-137 -137q-14 -14 -14 -35v-713q0 -20 14 -37l139 -137q16 -12 35 -12h604 v-142h-641q-63 0 -104 43l-158 158q-45 43 -45 107zM569 268q0 -16 13 -28l32 -33q12 -12 31 -12h88q14 0 27 6l125 57v152h-232q-18 0 -30 -13l-41 -41q-12 -12 -13 -28v-60z" />
<glyph unicode="A" horiz-adv-x="1288" d="M45 49l447 1385h301l446 -1385l-104 -49h-80l-144 457h-536l-146 -457h-79zM428 631h428l-199 629h-30z" />
<glyph unicode="B" horiz-adv-x="1228" d="M172 0v1372l64 62h585q72 0 121 -50l82 -81q49 -51 49 -123v-293q0 -63 -31 -103l-22 -22q-4 -4 -4 -8t4 -9l70 -69q51 -49 51 -121v-301q0 -72 -51 -123l-82 -82q-49 -49 -121 -49h-715zM362 174h480q25 0 41 16l51 52q16 16 16 39v247q0 21 -16 39l-51 49 q-16 16 -41 17h-480v-459zM362 809h414q25 0 41 14l51 51q16 16 17 39v240q-1 23 -17 39l-51 51q-16 16 -41 17h-414v-451z" />
<glyph unicode="C" horiz-adv-x="1200" d="M133 340v754q0 72 51 120l168 170q51 50 121 50h363q70 0 120 -50l162 -161l-133 -133l-154 153q-16 16 -40 17h-273q-25 0 -41 -17l-137 -137q-16 -16 -16 -39v-700q0 -23 16 -39l137 -138q16 -16 41 -16h273q25 0 40 16l154 154l133 -133l-162 -162q-49 -49 -120 -49 h-363q-70 0 -121 49l-168 170q-51 49 -51 121z" />
<glyph unicode="D" horiz-adv-x="1296" d="M172 0v1372l64 62h591q70 0 119 -50l170 -170q49 -49 49 -120v-754q0 -72 -49 -121l-170 -170q-49 -49 -119 -49h-655zM362 174h420q25 0 41 16l138 138q16 16 16 39v700q0 23 -16 39l-140 137q-14 16 -39 17h-420v-1086z" />
<glyph unicode="E" horiz-adv-x="1095" d="M150 254v926q0 72 49 123l82 81q48 50 120 50h545l62 -62v-112h-562q-25 0 -40 -17l-52 -51q-16 -16 -16 -39v-348h557v-176h-557v-348q0 -23 16 -39l52 -52q16 -16 40 -16h562v-113l-62 -61h-545q-72 0 -120 49l-82 82q-49 51 -49 123z" />
<glyph unicode="F" horiz-adv-x="1079" d="M170 2v1178q0 72 51 123l82 81q49 50 121 50h506l63 -62v-112h-526q-25 0 -39 -17l-51 -51q-16 -16 -17 -39v-387h519v-174h-519v-590h-190z" />
<glyph unicode="G" horiz-adv-x="1269" d="M131 340v756q0 72 49 121l170 167q50 50 103 50h376q72 0 121 -52l162 -159l-133 -133l-154 153q-20 20 -47 19h-262q-25 0 -41 -17l-139 -137q-16 -16 -17 -39v-702q0 -23 17 -39l141 -138q18 -20 47 -18h260q25 0 41 16l140 138q16 16 16 39v253h-324v113l62 62h450 v-455q0 -72 -49 -121l-170 -170q-47 -47 -104 -47h-375q-72 0 -121 49l-170 170q-49 49 -49 121z" />
<glyph unicode="H" horiz-adv-x="1388" d="M172 0v1372l61 62h127v-607h664v545l63 62h127v-1434h-190v653h-664v-653h-188z" />
<glyph unicode="I" horiz-adv-x="514" d="M162 0v1372l63 62h127v-1434h-190z" />
<glyph unicode="J" horiz-adv-x="659" d="M41 -78h156q27 0 43 17l49 47q14 18 14 41v1220h-262v113l61 61h392v-1421q0 -41 -11.5 -65.5t-38.5 -53.5l-82 -82q-55 -53 -122 -53h-199v176z" />
<glyph unicode="K" horiz-adv-x="1206" d="M174 0v1372l64 62h127v-648l569 648h78l84 -82l-521 -600l582 -670l-84 -82h-76l-542 612l-90 -104v-508h-191z" />
<glyph unicode="L" horiz-adv-x="1038" d="M170 61v1311l63 62h127v-1260h631v-174h-758z" />
<glyph unicode="M" horiz-adv-x="1806" d="M156 0v1370l63 64h303l367 -1260h26l367 1260h303l64 -64v-1370h-191v1260h-39l-387 -1260h-260l-383 1260h-43v-1260h-190z" />
<glyph unicode="N" horiz-adv-x="1366" d="M162 0v1372l61 62h264l508 -1260h19v1260h188v-1373l-61 -61h-260l-510 1260h-21v-1260h-188z" />
<glyph unicode="O" horiz-adv-x="1357" d="M133 340v754q0 72 49 120l170 170q51 50 121 50h414q70 0 121 -50l170 -170q49 -49 49 -120v-754q0 -72 -49 -121l-170 -170q-51 -49 -121 -49h-414q-70 0 -121 49l-170 170q-49 49 -49 121zM322 367q0 -23 18 -39l137 -138q16 -16 41 -16h324q25 0 41 16l137 138 q18 16 18 39v700q0 23 -18 39l-137 137q-16 16 -41 17h-324q-25 0 -41 -17l-137 -137q-18 -16 -18 -39v-700z" />
<glyph unicode="P" horiz-adv-x="1202" d="M170 0v1372l61 62h609q70 0 118 -50l82 -81q51 -51 52 -123v-334q0 -72 -52 -121l-82 -82q-49 -51 -118 -51h-482v-592h-188zM358 768h437q25 0 39 16l51 50q16 18 16 38v281q0 23 -16 39l-49 51q-16 16 -41 17h-437v-492z" />
<glyph unicode="Q" horiz-adv-x="1400" d="M135 338v756q0 72 49 120l170 168q49 52 119 52h416q70 0 119 -52l170 -168q49 -49 49 -120v-756q0 -68 -43 -113l-35 -37l186 -188l-82 -78h-86l-143 144l-31 -31q-45 -37 -104 -37h-416q-68 0 -119 51l-170 168q-49 49 -49 121zM324 367q0 -23 16 -41l139 -136 q14 -16 39 -16h326q25 0 41 16l137 136q16 18 16 41v700q0 21 -16 39l-137 135q-16 16 -41 16h-326q-25 0 -39 -16l-139 -135q-16 -18 -16 -39v-700z" />
<glyph unicode="R" horiz-adv-x="1239" d="M172 0v1372l61 62h607q72 0 121 -50l81 -81q51 -51 52 -123v-299q0 -70 -52 -121l-81 -82q-20 -20 -43 -29l-35 -2l268 -567l-80 -80h-90l-297 631h-324v-631h-188zM360 803h435q25 0 41 16l51 51q16 16 16 39v244q0 23 -16 39l-51 51q-16 16 -41 17h-435v-457z" />
<glyph unicode="S" horiz-adv-x="1120" d="M90 53v121h584q37 0 59 23l84 86q25 25 25 55v121q0 37 -37 57l-629 322q-45 23 -65.5 56.5t-20.5 88.5v119q0 53 13.5 86t48.5 67l114 115q37 37 68 50.5t80 13.5h499l56 -54v-123h-520q-37 0 -60 -22l-86 -86q-23 -25 -22 -55v-78q0 -33 34 -51l578 -293 q139 -72 139 -209v-125q0 -98 -80 -178l-86 -86q-74 -74 -192 -74h-529z" />
<glyph unicode="T" horiz-adv-x="1130" d="M49 1260v112l62 62h907l61 -62v-112h-420v-1260h-190v1260h-420z" />
<glyph unicode="U" horiz-adv-x="1341" d="M172 254v1118l64 62h126v-1153q0 -23 17 -39l51 -52q16 -16 41 -16h412q25 0 41 16l51 52q16 16 16 39v1091l62 62h127v-1180q0 -72 -50 -123l-81 -82q-49 -49 -121 -49h-502q-72 0 -121 49l-82 82q-49 51 -51 123z" />
<glyph unicode="V" horiz-adv-x="1282" d="M47 1384l105 50h79l373 -1260h72l373 1260h79l105 -50l-418 -1384h-348z" />
<glyph unicode="W" horiz-adv-x="1978" d="M39 1384l102 50h82l295 -1260h39l279 1260h307l276 -1260h39l297 1260h80l104 -50l-350 -1384h-299l-293 1260h-16l-295 -1260h-297z" />
<glyph unicode="X" horiz-adv-x="1146" d="M47 1352l82 82h80l369 -560l356 560h86l80 -82l-414 -639l416 -631l-82 -82h-82l-365 557l-362 -557h-82l-80 82l414 639z" />
<glyph unicode="Y" horiz-adv-x="1193" d="M45 1384l105 50h79l322 -764h90l320 764h81l105 -50l-387 -888h-70v-496h-188v496h-70z" />
<glyph unicode="Z" horiz-adv-x="1173" d="M90 61v222l774 923v54h-733v112l64 62h796l62 -62v-225l-772 -924v-49h802v-113l-63 -61h-866z" />
<glyph unicode="[" horiz-adv-x="559" d="M86 -193v1674l64 63h323v-117l-63 -63h-131v-1440h129l65 -61v-119h-323z" />
<glyph unicode="\" horiz-adv-x="833" d="M90 1434h184l471 -1434h-184z" />
<glyph unicode="]" horiz-adv-x="559" d="M86 -137l64 61h129v1440h-129l-64 63v117h324l63 -63v-1674l-65 -63h-322v119z" />
<glyph unicode="^" horiz-adv-x="1255" d="M82 569l428 887h233l431 -889l-170 -69l-347 716h-61l-346 -716z" />
<glyph unicode="_" horiz-adv-x="1165" d="M78 -172h1009v-164h-1009v164z" />
<glyph unicode="`" horiz-adv-x="501" d="M84 1468l104 97l230 -271l-82 -75z" />
<glyph unicode="a" horiz-adv-x="989" d="M88 252v113q0 72 49 120l94 93q49 49 119 49h359v125q0 20 -17 36l-59 60q-16 16 -41 16h-449v111l52 49h430q70 0 120 -51l91 -90q51 -49 51 -121v-762h-162l-12 72l-97 -45q-55 -27 -116 -27h-160q-72 0 -121 51l-82 80q-49 51 -49 121zM264 264q0 -23 19 -39l49 -49 q16 -16 41 -16h127q18 0 32 8l177 82v219h-326q-25 0 -41 -16l-59 -62q-18 -16 -19 -39v-88z" />
<glyph unicode="b" horiz-adv-x="1011" d="M119 252v1165l51 51h125v-544l164 75q49 25 102 25h109q70 0 121 -51l81 -82q49 -49 50 -121v-518q0 -72 -50 -121l-81 -82q-51 -49 -121 -49h-299q-70 0 -121 49l-82 82q-49 49 -49 121zM297 264q0 -23 16 -39l49 -51q16 -14 41 -14h234q25 0 41 14l49 51q16 16 16 39 v496q0 21 -16 37l-49 51q-16 16 -41 16h-68q-18 0 -34 -8l-238 -113v-479z" />
<glyph unicode="c" horiz-adv-x="909" d="M90 252v520q0 70 49 121l82 80q49 51 121 51h315q70 0 119 -51l72 -72l-119 -119l-65 66q-14 16 -39 16h-250q-25 0 -41 -16l-51 -49q-16 -16 -17 -39v-496q0 -23 17 -39l51 -49q16 -16 41 -16h250q25 0 39 16l67 66l119 -119l-74 -72q-49 -51 -119 -51h-315 q-72 0 -121 51l-82 80q-49 51 -49 121z" />
<glyph unicode="d" horiz-adv-x="1007" d="M88 252v508q0 72 49 123l94 90q49 51 119 51h359v444h129l49 -49v-1419h-162l-12 72l-97 -45q-55 -27 -116 -27h-160q-70 0 -121 49l-82 82q-49 51 -49 121zM264 264q0 -23 19 -39l49 -49q16 -16 41 -16h127q18 0 35 6l174 84v614h-326q-25 0 -41 -16l-59 -60 q-18 -18 -19 -38v-486z" />
<glyph unicode="e" horiz-adv-x="960" d="M88 252v520q0 70 49 121l82 80q49 51 121 51h289q70 0 121 -51l81 -80q49 -51 50 -121v-278l-52 -50h-565v-180q0 -23 19 -39l49 -49q16 -16 41 -16h223q25 0 41 16l65 66l119 -119l-71 -72q-51 -51 -121 -51h-289q-72 0 -121 51l-82 80q-49 51 -49 121zM264 602h441v158 q-1 23 -19 39l-49 49q-16 16 -41 16h-223q-25 0 -41 -16l-49 -49q-18 -16 -19 -39v-158z" />
<glyph unicode="f" horiz-adv-x="626" d="M35 864v111l51 49h107v158q0 70 49 121l82 81q48 50 120 50h99l49 -50v-110h-115q-25 0 -41 -17l-49 -49q-18 -16 -18 -39v-145h204v-160h-204v-864h-176v864h-158z" />
<glyph unicode="g" horiz-adv-x="999" d="M88 268v510q0 39 10.5 62.5t38.5 52.5l82 82q51 49 121 49h299q70 0 121 -51l82 -80q49 -51 49 -121v-878q0 -68 -47 -119l-94 -92q-29 -29 -54.5 -39.5t-64.5 -10.5h-430l-51 48v112h448q23 0 39 14l59 60q16 16 17 39v192l-162 -75q-49 -23 -102 -23h-109 q-70 0 -121 51l-82 80q-49 51 -49 137zM264 264q0 -23 19 -39l49 -49q16 -16 41 -16h69q16 0 31 6l240 113v481q-1 23 -17 39l-49 49q-16 16 -41 16h-233q-25 0 -41 -16l-49 -49q-18 -16 -19 -39v-496z" />
<glyph unicode="h" horiz-adv-x="1034" d="M123 0v1417l49 51h127v-544l162 75q51 25 104 25h109q70 0 121 -51l79 -82q51 -49 52 -121v-770h-178v760q0 20 -17 37l-49 51q-16 16 -41 16h-70q-18 0 -32 -8l-240 -113v-743h-176z" />
<glyph unicode="i" horiz-adv-x="436" d="M121 1176v202h207v-202h-207zM135 0v1024h178v-1024h-178z" />
<glyph unicode="j" horiz-adv-x="444" d="M-37 -211h72q23 0 39 16l51 52q16 16 16 39v1128h178v-1141q0 -68 -47 -121l-84 -84q-53 -49 -120 -49h-105v160zM129 1176v204h205v-204h-205z" />
<glyph unicode="k" horiz-adv-x="1003" d="M133 0v1417l51 51h127v-800l457 356h86l82 -82l-457 -352l496 -512l-80 -78h-88l-445 477l-51 -76v-401h-178z" />
<glyph unicode="l" horiz-adv-x="557" d="M123 254v1163l51 51h125v-1204q0 -23 18 -39l52 -51q16 -14 39 -14h110v-160h-143q-70 0 -121 49l-74 74q-33 33 -45 60.5t-12 70.5z" />
<glyph unicode="m" horiz-adv-x="1581" d="M109 0v1024h159l15 -86l133 63q51 23 104 23h115q70 0 121 -51l63 -64l197 92q51 23 104 23h115q70 0 121 -51l80 -80q51 -51 51 -121v-772h-178v760q0 23 -17 39l-49 49q-16 16 -41 16h-76q-18 0 -32 -8l-207 -96v-760h-178v760q0 23 -17 39l-49 49q-16 16 -41 16h-76 q-18 0 -32 -8l-207 -96v-760h-178z" />
<glyph unicode="n" horiz-adv-x="1038" d="M121 0v1024h155l19 -100l166 77q49 23 102 23h115q70 0 121 -51l82 -80q49 -51 49 -121v-772h-178v760q0 23 -17 39l-49 49q-16 16 -41 16h-74q-18 0 -34 -8l-238 -111v-745h-178z" />
<glyph unicode="o" horiz-adv-x="997" d="M90 252v520q0 70 49 121l82 80q51 51 121 51h315q70 0 121 -51l82 -80q49 -51 49 -121v-520q0 -70 -49 -121l-82 -80q-51 -51 -121 -51h-315q-70 0 -121 51l-82 80q-49 51 -49 121zM268 264q0 -23 17 -39l49 -49q16 -16 41 -16h250q25 0 41 16l49 49q16 16 16 39v496 q0 23 -16 39l-49 49q-16 16 -41 16h-250q-25 0 -41 -16l-49 -49q-16 -16 -17 -39v-496z" />
<glyph unicode="p" horiz-adv-x="1021" d="M129 -369v1393h156l18 -100l166 77q49 23 102 23h109q70 0 121 -49l82 -82q49 -51 49 -121v-518q0 -72 -49 -123l-82 -80q-49 -51 -121 -51h-375v-317l-49 -52h-127zM305 160h342q25 0 41 16l49 49q16 16 17 39v496q-1 23 -17 39l-49 49q-16 16 -41 16h-67q-18 0 -35 -8 l-240 -111v-585z" />
<glyph unicode="q" horiz-adv-x="1011" d="M88 254v518q0 70 49 121l82 82q51 49 121 49h299q70 0 121 -49l82 -82q49 -51 49 -121v-1089l-51 -50h-127v465l-162 -75q-49 -23 -102 -23h-109q-72 0 -121 51l-82 80q-49 51 -49 123zM264 264q0 -23 19 -39l49 -49q16 -16 41 -16h67q18 0 35 8l238 111v481 q-1 23 -17 39l-49 49q-16 16 -41 16h-233q-25 0 -41 -16l-49 -49q-18 -16 -19 -39v-496z" />
<glyph unicode="r" horiz-adv-x="673" d="M117 0v1024h147l25 -150l164 125q32 25 106 25h76v-160h-68q-25 0 -39 -10l-233 -172v-682h-178z" />
<glyph unicode="s" horiz-adv-x="888" d="M88 49v111h428q25 0 41 16l49 49q16 16 17 39v43q0 27 -27 41l-434 221q-74 37 -74 119v84q0 70 51 121l80 80q51 51 121 51h365l51 -49v-111h-383q-25 0 -41 -16l-49 -51q-16 -16 -17 -39v-33q0 -27 27 -41l397 -201q111 -57 111 -164v-61q0 -76 -64 -139l-61 -62 q-57 -57 -152 -57h-385z" />
<glyph unicode="t" horiz-adv-x="681" d="M39 864v111l49 49h109v236h176v-236h223v-160h-223v-600q0 -23 16 -39l51 -51q16 -14 41 -14h115v-111l-51 -49h-96q-70 0 -121 49l-82 82q-49 49 -49 121v612h-158z" />
<glyph unicode="u" horiz-adv-x="1028" d="M111 252v772h178v-760q0 -23 16 -39l49 -49q16 -16 41 -16h74q18 0 35 8l237 111v745h179v-1024h-156l-19 100l-165 -77q-49 -23 -103 -23h-115q-70 0 -120 51l-82 80q-49 51 -49 121z" />
<glyph unicode="v" horiz-adv-x="1054" d="M37 987l76 37h96l287 -864h61l285 864h96l78 -37l-340 -987h-299z" />
<glyph unicode="w" horiz-adv-x="1607" d="M23 983l88 41h86l215 -864h34l230 864h254l229 -864h35l215 864h88l86 -41l-270 -983h-271l-235 864h-12l-232 -864h-270z" />
<glyph unicode="x" horiz-adv-x="980" d="M37 983l88 41h96l271 -369l260 369h94l88 -41l-334 -469l346 -473l-88 -41h-96l-270 369l-271 -369h-96l-86 41l346 471z" />
<glyph unicode="y" horiz-adv-x="1005" d="M37 987l78 37h96l281 -864h20l285 864h96l76 -37l-344 -1003q-16 -45 -28.5 -73t-47.5 -85t-74 -93t-106.5 -72t-149.5 -46l-24 143q102 16 150 61.5t81 123.5l18 57h-67z" />
<glyph unicode="z" horiz-adv-x="978" d="M88 49v205l604 592v18h-571v111l49 49h647l51 -49v-189l-602 -593v-33h621v-111l-49 -49h-699z" />
<glyph unicode="{" horiz-adv-x="718" d="M84 608v125l178 125v426q0 74 51 123l176 176l138 -135l-156 -152q-16 -18 -16 -39v-477l-150 -108l150 -109v-477q0 -20 16 -39l154 -151l-133 -138l-181 183q-49 45 -49 118v424z" />
<glyph unicode="|" horiz-adv-x="374" d="M88 -283v1815h197v-1815h-197z" />
<glyph unicode="}" horiz-adv-x="718" d="M92 -104l154 151q16 18 16 39v477l152 109l-152 108v477q0 20 -16 37l-154 154l135 135l179 -176q49 -49 49 -123v-426l178 -125v-125l-178 -125v-424q0 -72 -49 -120l-179 -181z" />
<glyph unicode="~" horiz-adv-x="1181" d="M84 547q86 133 152.5 200.5t148.5 73.5q25 2 43 2q51 0 95 -20.5t122 -83.5q104 -82 158 -82q41 0 83 37t105 121l109 -72q-57 -141 -137 -212t-170 -71q-88 0 -179 64q-14 10 -39.5 27.5t-36 24.5t-28.5 19.5t-26.5 17.5t-23 12t-22.5 9t-19 4.5t-22 2.5q-16 0 -35 -5 q-81 -18 -167 -151z" />
<glyph unicode="&#xa1;" d="M88 874v226h225v-226h-225zM102 84l19 649h160l18 -649v-418h-197v418z" />
<glyph unicode="&#xa2;" horiz-adv-x="940" d="M82 252v520q0 74 51 125l82 82q51 51 123 51h90v100h137v-100h90q72 0 123 -51l74 -76l-123 -125l-67 70q-16 14 -41 14h-56v-700h56q25 0 41 14l67 70l125 -125l-76 -76q-53 -51 -123 -51h-90v-100h-137v100h-90q-70 0 -123 51l-82 82q-51 51 -51 125zM266 264 q0 -23 17 -39l49 -49q16 -14 41 -14h55v700h-55q-25 0 -41 -14l-49 -49q-16 -16 -17 -39v-496z" />
<glyph unicode="&#xa3;" horiz-adv-x="1122" d="M88 215l125 123q16 16 16 39v254h-133v174h133v233q0 72 52 121l168 168q50 49 120 49l150 2q70 0 121 -51l159 -160l-131 -133l-153 152q-16 16 -41 16h-60q-25 0 -41 -16l-137 -137q-16 -16 -16 -39v-205h381v-113l-64 -61h-317v-281q0 -55 -27 -90l-26 -29 q-2 -4 -2 -6q0 -4 6 -6l61 -29q41 -12 94 -12h516v-176h-671q-72 0 -121 51z" />
<glyph unicode="&#xa4;" horiz-adv-x="1464" />
<glyph unicode="&#xa5;" horiz-adv-x="1269" d="M84 1382l106 50h80l320 -760h92l319 760h80l107 -50l-248 -565h117v-174h-193l-55 -127h-78v-117h326v-176h-326v-223h-190v223h-326v176h326v117h-78l-55 127h-193v174h117z" />
<glyph unicode="&#xa6;" horiz-adv-x="374" d="M88 -283v721h197v-721h-197zM88 809v723h197v-723h-197z" />
<glyph unicode="&#xa7;" horiz-adv-x="868" d="M74 -70h426q25 0 41 15l51 51q16 16 16 39v41q0 29 -26 41l-437 223q-72 37 -71 119v82q0 72 49 121l51 51q16 18 27 22l-56 27q-72 37 -71 119v84q0 72 49 120l82 82q49 50 121 50h364l49 -50v-110h-381q-27 0 -41 -17l-51 -49q-16 -18 -16 -39v-32q0 -29 26 -43 l398 -201q111 -55 110 -164v-61q0 -76 -61 -140l-31 -30q-14 -12 -30 -23l43 -25q80 -55 79 -143v-63q0 -76 -61 -138l-61 -61q-59 -57 -152 -57h-385l-51 47v112zM258 496q0 -35 33 -52l201 -98q29 2 47 21l41 41q20 20 20 47v43q0 35 -33 51l-188 92h-10q-31 0 -50 -20 l-40 -43q-20 -20 -21 -48v-34z" />
<glyph unicode="&#xa8;" horiz-adv-x="686" d="M92 1327v143h154v-143h-154zM442 1327v143h154v-143h-154z" />
<glyph unicode="&#xa9;" horiz-adv-x="1495" d="M84 717q0 182 89 335.5t241.5 242.5t333 89t333 -89t241.5 -242.5t89 -335.5t-89 -337t-241.5 -244t-333 -89t-333 89t-241.5 244t-89 337zM215 717q0 -223 156.5 -382t376 -159t377 159t157.5 382t-157.5 380.5t-376.5 157.5q-143 0 -266.5 -71.5t-195 -196.5 t-71.5 -270zM446 516v399q0 49 31 80l92 90q33 33 74 33h195q43 0 75 -33l101 -100l-90 -92l-90 90q-6 6 -15 6h-157q-6 0 -13 -6l-67 -68q-4 -4 -4 -14v-371q0 -8 4 -14l67 -65q6 -8 13 -9h157q8 0 15 9l90 88l90 -93l-101 -100q-33 -33 -75 -33h-195q-41 0 -74 33l-92 90 q-31 31 -31 80z" />
<glyph unicode="&#xaa;" horiz-adv-x="667" d="M76 989v70q0 49 33 82l57 57q35 35 82 35h211v59q0 14 -10 25l-31 31q-10 8 -25 8h-282v84l36 37h271q49 0 82 -35l57 -56q33 -35 33 -81v-482h-119l-8 39l-45 -22q-37 -16 -78 -17h-98q-47 0 -82 33l-51 51q-33 33 -33 82zM207 999q0 -12 10 -22l25 -25q10 -10 24 -10 h72q12 0 20 6l101 47v117h-185q-16 0 -24 -10l-33 -31q-10 -10 -10 -22v-50z" />
<glyph unicode="&#xab;" horiz-adv-x="1138" d="M80 428v219l385 359l106 -109l-295 -358l295 -361l-106 -108zM567 428v219l385 359l107 -109l-295 -358l295 -361l-107 -108z" />
<glyph unicode="&#xac;" horiz-adv-x="1464" />
<glyph unicode="&#xad;" horiz-adv-x="839" d="M84 510v182h674v-182h-674z" />
<glyph unicode="&#xae;" horiz-adv-x="1495" d="M84 717q0 182 89 335.5t241.5 242.5t333 89t333 -89t241.5 -242.5t89 -335.5t-89 -337t-241.5 -244t-333 -89t-333 89t-241.5 244t-89 337zM215 717q0 -223 156.5 -382t376 -159t377 159t157.5 382t-157.5 380.5t-377 157.5t-376 -157.5t-156.5 -380.5zM487 344v727 l45 43h330q43 0 76 -33l43 -43q31 -33 31 -80v-157q0 -49 -31 -80l-43 -45q-12 -10 -16 -12h-15l127 -263l-59 -57h-64l-139 299h-151v-299h-134zM621 778h223q8 0 14 6l21 23q6 4 6 16v111q0 12 -6 18l-21 21q-6 6 -14 6h-223v-201z" />
<glyph unicode="&#xaf;" horiz-adv-x="710" d="M92 1393v129h526v-129h-526z" />
<glyph unicode="&#xb0;" horiz-adv-x="751" d="M70 1345q0 128 90 217t217 89t217 -89t90 -217t-90 -217.5t-217 -89.5t-217 89.5t-90 217.5zM203 1344.5q0 -68.5 52 -121t120.5 -52.5t121 52.5t52.5 121t-52.5 121t-121 52.5t-120.5 -52.5t-52 -121z" />
<glyph unicode="&#xb1;" horiz-adv-x="1087" d="M78 -4v182h930v-182h-930zM78 664v182h368v315h193v-315h369v-182h-369v-316h-193v316h-368z" />
<glyph unicode="&#xb2;" horiz-adv-x="735" d="M76 516v258q0 92 92 139l307 158q6 2 11.5 3t6.5 1t1 2l-2 15v82q0 14 -13 24l-43 43q-23 23 -28 23h-136q-16 0 -26 -11l-72 -73l-92 90l72 71q43 43 98 43h168q57 0 98 -43l64 -63q41 -41 41 -102v-89q0 -82 -62 -112l-338 -172q-6 -2 -11 -4t-6 -2h-1q2 -4 2 -15v-145 h450v-82l-41 -39h-540z" />
<glyph unicode="&#xb3;" horiz-adv-x="694" d="M72 604l90 88l45 -45q10 -10 24 -10h195q14 0 25 10l24 25q10 10 10 22v162q0 12 -10 23l-57 57q-8 8 -25 8h-213v121h226q14 0 24 10l39 41q10 10 10 23v67q0 12 -10 23l-25 26q-10 8 -24 9h-182q-14 0 -25 -9l-45 -47l-90 90l53 52q35 34 82 34h231q47 0 82 -34l49 -50 q35 -35 35 -81v-91q0 -49 -32 -84l-46 -45l50 -51q35 -33 34 -82v-182q0 -49 -34 -82l-50 -51q-35 -35 -81 -35h-244q-47 0 -82 35z" />
<glyph unicode="&#xb4;" horiz-adv-x="501" d="M84 1294l231 271l103 -97l-250 -249z" />
<glyph unicode="&#xb6;" horiz-adv-x="1036" d="M80 887v291q0 74 49 122l82 82q51 52 123 52h557l63 -64v-1595h-192v1480h-152v-1480h-192v856h-84q-72 0 -123 51l-82 82q-49 49 -49 123z" />
<glyph unicode="&#xb7;" d="M88 485v224h225v-224h-225z" />
<glyph unicode="&#xb8;" horiz-adv-x="538" d="M104 -96l64 129h156l-37 -72h14q14 0 39 -2q59 -16 93 -57t34 -97q0 -68 -49 -116.5t-131 -48.5h-129v110h118q14 0 27.5 8.5t22 21.5t8.5 30q0 12 -5 22t-13.5 17.5t-17.5 11.5t-19 4q-39 0 -101 -33z" />
<glyph unicode="&#xb9;" horiz-adv-x="491" d="M74 1251l26 58l199 75h72l45 -45v-823h-133v723l-181 -68z" />
<glyph unicode="&#xba;" horiz-adv-x="681" d="M76 989v320q0 49 33 84l51 49q35 35 82 35h194q49 0 82 -35l51 -49q35 -35 35 -84v-320q0 -49 -35 -82l-51 -51q-33 -33 -82 -33h-194q-47 0 -82 33l-51 51q-33 33 -33 82zM207 999q0 -12 10 -22l25 -25q10 -10 24 -10h146q14 0 24 10l25 25q10 10 10 22v299q0 13 -10 23 l-25 27q-10 8 -24 8h-146q-14 0 -24 -8l-25 -27q-10 -10 -10 -23v-299z" />
<glyph unicode="&#xbb;" horiz-adv-x="1138" d="M82 178l295 359l-295 360l108 109l383 -359v-219l-383 -358zM569 178l295 359l-295 360l109 109l383 -359v-219l-383 -358z" />
<glyph unicode="&#xbc;" horiz-adv-x="1542" d="M80 1249l26 58l199 73h72l45 -45v-823h-133v723l-180 -68zM197 -33l974 1467h168l-974 -1467h-168zM860 240v59l295 569h148l45 -45v-510h110v-73l-45 -45h-65v-195h-131v195h-310zM1020 313h197v379z" />
<glyph unicode="&#xbd;" horiz-adv-x="1691" d="M82 1249l27 58l200 73h70l45 -45v-823h-131v723l-182 -68zM201 -33l975 1467h165l-974 -1467h-166zM1028 -2v260q0 92 92 139l301 154q23 10 23 31v71q0 18 -14 31l-46 45q-18 16 -34 16h-121q-20 0 -33 -12l-70 -71l-92 92l72 71q43 41 98 41h168q57 0 98 -41l64 -63 q41 -43 41 -103v-90q0 -80 -62 -110l-331 -168q-23 -12 -23 -33v-137h451v-82l-41 -41h-541z" />
<glyph unicode="&#xbe;" horiz-adv-x="1646" d="M78 600l90 88l45 -45q10 -10 25 -10h192q16 0 25 10l26 25q10 10 11 22v162q0 12 -11 22l-57 58q-10 8 -25 8h-213v121h226q14 0 24 10l39 41q10 10 10 23v67q0 12 -10 23l-26 26q-8 8 -25 9h-180q-14 0 -25 -9l-45 -47l-90 90l53 54q35 32 82 32h232q47 0 81 -32l50 -52 q35 -35 34 -82v-90q0 -49 -34 -84l-43 -45l49 -51q35 -33 35 -82v-182q0 -49 -35 -82l-49 -51q-35 -35 -82 -35h-244q-47 0 -82 35zM311 -33l975 1467h168l-975 -1467h-168zM967 240v59l293 569h149l45 -45v-510h111v-73l-45 -45h-66v-195h-133v195h-309zM1124 313h197v381z " />
<glyph unicode="&#xbf;" horiz-adv-x="983" d="M80 -12v157q0 121 76 160l231 119q39 18 39 55v252h184v-258q0 -137 -139 -211l-170 -88q-37 -18 -37 -53v-129q0 -29 23 -49l86 -86q23 -23 55 -23h178q35 0 58 23l104 104l127 -125l-104 -106q-39 -37 -71 -51.5t-81 -14.5h-244q-49 0 -80.5 14.5t-68.5 51.5l-105 104 q-35 35 -48 69t-13 85zM403 874v226h228v-226h-228z" />
<glyph unicode="&#xc0;" horiz-adv-x="1288" d="M45 49l447 1385h301l446 -1385l-104 -49h-80l-144 457h-536l-146 -457h-79zM428 631h428l-199 629h-30zM475 1878l105 96l229 -272l-82 -76z" />
<glyph unicode="&#xc1;" horiz-adv-x="1288" d="M45 49l447 1385h301l446 -1385l-104 -49h-80l-144 457h-536l-146 -457h-79zM428 631h428l-199 629h-30zM477 1702l230 272l104 -96l-252 -252z" />
<glyph unicode="&#xc2;" horiz-adv-x="1288" d="M45 49l447 1385h301l446 -1385l-104 -49h-80l-144 457h-536l-146 -457h-79zM344 1702l229 270h140l229 -270l-82 -76l-217 217l-217 -217zM428 631h428l-199 629h-30z" />
<glyph unicode="&#xc3;" horiz-adv-x="1288" d="M45 49l447 1385h301l446 -1385l-104 -49h-80l-144 457h-536l-146 -457h-79zM295 1786q2 2 20.5 29.5t27.5 40t30.5 38t38 39t40 25.5t48.5 14h24q37 0 68 -14t84 -55q72 -57 106 -58q27 0 55.5 25.5t73.5 87.5l78 -51q-78 -188 -205 -189q-59 0 -120 43q-25 18 -52.5 39 t-38 28t-22.5 13t-25 6q-12 0 -28 -4q-56 -13 -117 -117zM428 631h428l-199 629h-30z" />
<glyph unicode="&#xc4;" horiz-adv-x="1288" d="M45 49l447 1385h301l446 -1385l-104 -49h-80l-144 457h-536l-146 -457h-79zM391 1735v143h154v-143h-154zM428 631h428l-199 629h-30zM741 1735v143h154v-143h-154z" />
<glyph unicode="&#xc5;" horiz-adv-x="1288" d="M45 49l447 1385h303l444 -1385l-104 -49h-80l-144 457h-536l-146 -457h-79zM430 631h426l-199 629h-30zM446 1843q0 84 57.5 140.5t139.5 56.5t139.5 -56.5t57.5 -139.5t-57.5 -140t-139.5 -57q-53 0 -98 26.5t-72 71.5t-27 98zM565 1843q0 -20 10.5 -38.5t28 -30 t39 -11.5t39.5 11.5t28.5 30t10.5 38.5q0 33 -22.5 56.5t-55.5 23.5t-55.5 -23.5t-22.5 -56.5z" />
<glyph unicode="&#xc6;" horiz-adv-x="1597" d="M45 49l447 1385h960l64 -64v-115h-670v-448h557v-180h-557v-344q0 -23 16 -39l49 -49q16 -16 41 -17h564v-115l-64 -63h-545q-72 0 -123 51l-82 82q-49 49 -49 121v199h-276l-144 -453h-81zM434 631h219v624h-22z" />
<glyph unicode="&#xc7;" horiz-adv-x="1200" d="M133 340v754q0 72 51 120l168 170q51 50 121 50h363q70 0 120 -50l162 -161l-133 -133l-154 153q-16 16 -40 17h-273q-25 0 -41 -17l-137 -137q-16 -16 -16 -39v-700q0 -23 16 -39l137 -138q16 -16 41 -16h273q25 0 40 16l154 154l133 -133l-162 -162q-49 -49 -120 -49 h-174l-27 -49h10q4 0 43 -4q61 -14 94 -56.5t33 -97.5q0 -43 -20.5 -81t-62.5 -61.5t-97 -23.5h-129v113h121q14 0 26.5 8t20.5 21.5t8 27.5q0 27 -16.5 41.5t-38.5 14.5h-11q-31 0 -90 -31l-71 69l51 109h-33q-70 0 -121 49l-168 170q-51 49 -51 121z" />
<glyph unicode="&#xc8;" horiz-adv-x="1095" d="M150 254v926q0 72 49 123l82 81q48 50 120 50h545l62 -62v-112h-562q-25 0 -40 -17l-52 -51q-16 -16 -16 -39v-348h557v-176h-557v-348q0 -23 16 -39l52 -52q16 -16 40 -16h562v-113l-62 -61h-545q-72 0 -120 49l-82 82q-49 51 -49 123zM442 1878l105 96l229 -272 l-82 -76z" />
<glyph unicode="&#xc9;" horiz-adv-x="1095" d="M150 254v926q0 72 49 123l82 81q48 50 120 50h545l62 -62v-112h-562q-25 0 -40 -17l-52 -51q-16 -16 -16 -39v-348h557v-176h-557v-348q0 -23 16 -39l52 -52q16 -16 40 -16h562v-113l-62 -61h-545q-72 0 -120 49l-82 82q-49 51 -49 123zM442 1702l230 272l104 -96 l-252 -252z" />
<glyph unicode="&#xca;" horiz-adv-x="1095" d="M150 254v926q0 72 49 123l82 81q48 50 120 50h545l62 -62v-112h-562q-25 0 -40 -17l-52 -51q-16 -16 -16 -39v-348h557v-176h-557v-348q0 -23 16 -39l52 -52q16 -16 40 -16h562v-113l-62 -61h-545q-72 0 -120 49l-82 82q-49 51 -49 123zM311 1702l228 270h141l227 -270 l-82 -76l-215 217l-217 -217z" />
<glyph unicode="&#xcb;" horiz-adv-x="1095" d="M150 254v926q0 72 49 123l82 81q48 50 120 50h545l62 -62v-112h-562q-25 0 -40 -17l-52 -51q-16 -16 -16 -39v-348h557v-176h-557v-348q0 -23 16 -39l52 -52q16 -16 40 -16h562v-113l-62 -61h-545q-72 0 -120 49l-82 82q-49 51 -49 123zM358 1735v143h152v-143h-152z M709 1735v143h153v-143h-153z" />
<glyph unicode="&#xcc;" horiz-adv-x="514" d="M90 1878l105 96l229 -272l-82 -76zM162 0v1372l63 62h127v-1434h-190z" />
<glyph unicode="&#xcd;" horiz-adv-x="514" d="M90 1702l229 272l105 -96l-252 -252zM160 0v1372l63 62h127v-1434h-190z" />
<glyph unicode="&#xce;" horiz-adv-x="514" d="M-41 1702l229 270h140l229 -270l-82 -76l-217 217l-217 -217zM162 0v1372l63 62h127v-1434h-190z" />
<glyph unicode="&#xcf;" horiz-adv-x="514" d="M6 1735v143h154v-143h-154zM162 0v1372l63 62h127v-1434h-190zM356 1735v143h154v-143h-154z" />
<glyph unicode="&#xd0;" horiz-adv-x="1353" d="M59 625v184h170v561l62 64h592q72 0 123 -52l170 -168q49 -49 49 -122v-750q0 -74 -49 -123l-170 -168q-51 -51 -123 -51h-654v625h-170zM422 178h418q23 0 39 17l137 135q16 16 16 39v696q0 23 -16 39l-137 135q-16 16 -39 16h-418v-446h309v-184h-309v-447z" />
<glyph unicode="&#xd1;" horiz-adv-x="1366" d="M162 0v1372l61 62h264l508 -1260h19v1260h188v-1373l-61 -61h-260l-510 1260h-21v-1260h-188zM334 1786q2 2 20.5 29.5t27.5 40t30.5 38t38 39t40 25.5t48.5 14h24q37 0 68 -14t84 -55q72 -57 106 -58q27 0 55.5 25.5t73.5 87.5l78 -51q-78 -188 -205 -189q-59 0 -121 43 q-25 18 -52 39t-37.5 28t-22.5 13t-25 6q-12 0 -28 -4q-56 -13 -117 -117z" />
<glyph unicode="&#xd2;" horiz-adv-x="1357" d="M133 340v754q0 72 49 120l170 170q51 50 121 50h414q70 0 121 -50l170 -170q49 -49 49 -120v-754q0 -72 -49 -121l-170 -170q-51 -49 -121 -49h-414q-70 0 -121 49l-170 170q-49 49 -49 121zM322 367q0 -23 18 -39l137 -138q16 -16 41 -16h324q25 0 41 16l137 138 q18 16 18 39v700q0 23 -18 39l-137 137q-16 16 -41 17h-324q-25 0 -41 -17l-137 -137q-18 -16 -18 -39v-700zM512 1878l104 96l230 -272l-82 -76z" />
<glyph unicode="&#xd3;" horiz-adv-x="1357" d="M133 340v754q0 72 49 120l170 170q51 50 121 50h414q70 0 121 -50l170 -170q49 -49 49 -120v-754q0 -72 -49 -121l-170 -170q-51 -49 -121 -49h-414q-70 0 -121 49l-170 170q-49 49 -49 121zM322 367q0 -23 18 -39l137 -138q16 -16 41 -16h324q25 0 41 16l137 138 q18 16 18 39v700q0 23 -18 39l-137 137q-16 16 -41 17h-324q-25 0 -41 -17l-137 -137q-18 -16 -18 -39v-700zM514 1702l229 272l105 -96l-252 -252z" />
<glyph unicode="&#xd4;" horiz-adv-x="1357" d="M133 340v754q0 72 49 120l170 170q51 50 121 50h414q70 0 121 -50l170 -170q49 -49 49 -120v-754q0 -72 -49 -121l-170 -170q-51 -49 -121 -49h-414q-70 0 -121 49l-170 170q-49 49 -49 121zM322 367q0 -23 18 -39l137 -138q16 -16 41 -16h324q25 0 41 16l137 138 q18 16 18 39v700q0 23 -18 39l-137 137q-16 16 -41 17h-324q-25 0 -41 -17l-137 -137q-18 -16 -18 -39v-700zM381 1702l229 270h140l229 -270l-82 -76l-217 217l-217 -217z" />
<glyph unicode="&#xd5;" horiz-adv-x="1357" d="M133 340v754q0 72 49 120l170 170q51 50 121 50h414q70 0 121 -50l170 -170q49 -49 49 -120v-754q0 -72 -49 -121l-170 -170q-51 -49 -121 -49h-414q-70 0 -121 49l-170 170q-49 49 -49 121zM322 367q0 -23 18 -39l137 -138q16 -16 41 -16h324q25 0 41 16l137 138 q18 16 18 39v700q0 23 -18 39l-137 137q-16 16 -41 17h-324q-25 0 -41 -17l-137 -137q-18 -16 -18 -39v-700zM332 1786q2 2 20.5 29.5t27.5 40t30.5 38t38 39t40 25.5t48.5 14h24q37 0 67.5 -14t84.5 -55q72 -57 106 -58q27 0 55.5 25.5t73.5 87.5l78 -51 q-78 -188 -205 -189q-59 0 -121 43q-25 18 -52 39t-37.5 28t-23 13t-24.5 6t-28 -4q-56 -13 -117 -117z" />
<glyph unicode="&#xd6;" horiz-adv-x="1357" d="M133 340v754q0 72 49 120l170 170q51 50 121 50h414q70 0 121 -50l170 -170q49 -49 49 -120v-754q0 -72 -49 -121l-170 -170q-51 -49 -121 -49h-414q-70 0 -121 49l-170 170q-49 49 -49 121zM322 367q0 -23 18 -39l137 -138q16 -16 41 -16h324q25 0 41 16l137 138 q18 16 18 39v700q0 23 -18 39l-137 137q-16 16 -41 17h-324q-25 0 -41 -17l-137 -137q-18 -16 -18 -39v-700zM428 1735v143h154v-143h-154zM778 1735v143h154v-143h-154z" />
<glyph unicode="&#xd7;" horiz-adv-x="962" d="M88 334l266 266l-264 264l127 129l266 -266l265 266l129 -129l-267 -264l267 -266l-129 -129l-265 266l-266 -266z" />
<glyph unicode="&#xd8;" horiz-adv-x="1357" d="M131 342v750q0 74 51 122l168 168q51 51 123 52h350l33 102h184l-47 -143q23 -14 49 -43l136 -136q51 -49 51 -122v-750q0 -74 -51 -123l-170 -168q-49 -51 -121 -51h-352l-33 -102h-185l48 143q-29 23 -37 33l-146 145q-51 49 -51 123zM324 369q0 -23 16 -39l76 -74 l14 -14l334 1013h-246q-25 0 -39 -16l-139 -135q-16 -16 -16 -39v-696zM594 178h248q25 0 39 17l139 135q16 16 16 39v696q0 23 -16 39l-70 67q-12 12 -24 21z" />
<glyph unicode="&#xd9;" horiz-adv-x="1341" d="M172 254v1118l64 62h126v-1153q0 -23 17 -39l51 -52q16 -16 41 -16h412q25 0 41 16l51 52q16 16 16 39v1091l62 62h127v-1180q0 -72 -50 -123l-81 -82q-49 -49 -121 -49h-502q-72 0 -121 49l-82 82q-49 51 -51 123zM504 1878l104 96l232 -272l-84 -76z" />
<glyph unicode="&#xda;" horiz-adv-x="1341" d="M172 254v1118l64 62h126v-1153q0 -23 17 -39l51 -52q16 -16 41 -16h412q25 0 41 16l51 52q16 16 16 39v1091l62 62h127v-1180q0 -72 -50 -123l-81 -82q-49 -49 -121 -49h-502q-72 0 -121 49l-82 82q-49 51 -51 123zM506 1702l229 272l105 -96l-252 -252z" />
<glyph unicode="&#xdb;" horiz-adv-x="1341" d="M172 254v1118l64 62h126v-1153q0 -23 17 -39l51 -52q16 -16 41 -16h412q25 0 41 16l51 52q16 16 16 39v1091l62 62h127v-1180q0 -72 -50 -123l-81 -82q-49 -49 -121 -49h-502q-72 0 -121 49l-82 82q-49 51 -51 123zM373 1702l229 270h139l230 -270l-82 -76l-217 217 l-217 -217z" />
<glyph unicode="&#xdc;" horiz-adv-x="1341" d="M172 254v1118l64 62h126v-1153q0 -23 17 -39l51 -52q16 -16 41 -16h412q25 0 41 16l51 52q16 16 16 39v1091l62 62h127v-1180q0 -72 -50 -123l-81 -82q-49 -49 -121 -49h-502q-72 0 -121 49l-82 82q-49 51 -51 123zM420 1735v143h153v-143h-153zM770 1735v143h154v-143 h-154z" />
<glyph unicode="&#xdd;" horiz-adv-x="1193" d="M45 1384l105 50h79l322 -764h90l320 764h81l105 -50l-387 -888h-70v-496h-188v496h-70zM430 1702l229 272l105 -96l-252 -252z" />
<glyph unicode="&#xde;" horiz-adv-x="1228" d="M168 0v1434h197v-238h477q72 0 123 -51l82 -82q51 -51 51 -123v-332q0 -72 -51 -123l-82 -82q-51 -51 -123 -51h-477v-352h-197zM365 535h432q23 0 37 14l51 53q16 14 16 33v278q0 21 -16 35l-51 51q-14 14 -37 15h-432v-479z" />
<glyph unicode="&#xdf;" horiz-adv-x="1228" d="M168 0v1178q0 72 49 122l82 82q51 52 125 52h317q74 0 125 -52l82 -82q51 -51 51 -122v-226q0 -74 -51 -123l-45 -45l53 -55q51 -51 52 -125v-348q0 -72 -52 -123l-79 -82q-51 -51 -125 -51h-275v166h242q23 0 39 16l49 49q16 16 16 37v326q0 20 -16 37l-49 49 q-16 16 -39 16h-242v166h234q23 0 37 17l49 47q16 18 16 39v200q0 20 -16 37l-49 49q-14 16 -39 17h-252q-25 0 -39 -17l-49 -49q-16 -16 -17 -37v-1165h-184z" />
<glyph unicode="&#xe0;" horiz-adv-x="989" d="M88 252v113q0 72 49 120l94 93q49 49 119 49h359v125q0 20 -17 36l-59 60q-16 16 -41 16h-449v111l52 49h430q70 0 120 -51l91 -90q51 -49 51 -121v-762h-162l-12 72l-97 -45q-55 -27 -116 -27h-160q-70 0 -121 51l-82 80q-49 51 -49 121zM264 264q0 -23 19 -39l49 -49 q16 -16 41 -16h127q18 0 32 8l177 82v219h-326q-25 0 -41 -16l-59 -62q-18 -16 -19 -39v-88zM334 1468l104 97l230 -273l-82 -75z" />
<glyph unicode="&#xe1;" horiz-adv-x="989" d="M88 252v113q0 72 49 120l94 93q49 49 119 49h359v125q0 20 -17 36l-59 60q-16 16 -41 16h-449v111l52 49h430q70 0 120 -51l91 -90q51 -49 51 -121v-762h-162l-12 72l-97 -45q-55 -27 -116 -27h-160q-72 0 -121 51l-82 80q-49 51 -49 121zM264 264q0 -23 19 -39l49 -49 q16 -16 41 -16h127q18 0 32 8l177 82v219h-326q-25 0 -41 -16l-59 -62q-18 -16 -19 -39v-88zM334 1292l231 273l103 -97l-252 -251z" />
<glyph unicode="&#xe2;" horiz-adv-x="989" d="M88 252v113q0 72 49 120l94 93q49 49 119 49h359v125q0 20 -17 36l-59 60q-16 16 -41 16h-449v111l52 49h430q70 0 120 -51l91 -90q51 -49 51 -121v-762h-162l-12 72l-97 -45q-55 -27 -116 -27h-160q-72 0 -121 51l-82 80q-49 51 -49 121zM203 1292l229 271h139l230 -271 l-84 -75l-215 217l-217 -217zM264 264q0 -23 19 -39l49 -49q16 -16 41 -16h127q18 0 32 8l177 82v219h-326q-25 0 -41 -16l-59 -62q-18 -16 -19 -39v-88z" />
<glyph unicode="&#xe3;" horiz-adv-x="989" d="M88 252v113q0 72 49 120l94 93q49 49 119 49h359v125q0 20 -17 36l-59 60q-16 16 -41 16h-449v111l52 49h430q70 0 120 -51l91 -90q51 -49 51 -121v-762h-162l-12 72l-97 -45q-55 -27 -116 -27h-160q-72 0 -121 51l-82 80q-49 51 -49 121zM154 1376q0 2 19.5 30t28.5 41 t30.5 37.5t38 38t40 26t45.5 14.5q16 2 27 2q35 0 66.5 -15.5t85.5 -56.5q72 -57 106 -57q27 0 55.5 25.5t73.5 86.5l78 -51q-78 -188 -205 -188q-59 0 -121 43q-25 18 -52.5 38.5t-37.5 27.5t-23.5 13.5t-25.5 6.5q-10 0 -27 -4q-55 -13 -118 -115zM264 264q0 -23 19 -39 l49 -49q16 -16 41 -16h127q18 0 32 8l177 82v219h-326q-25 0 -41 -16l-59 -62q-18 -16 -19 -39v-88z" />
<glyph unicode="&#xe4;" horiz-adv-x="989" d="M88 252v113q0 72 49 120l94 93q49 49 119 49h359v125q0 20 -17 36l-59 60q-16 16 -41 16h-449v111l52 49h430q70 0 120 -51l91 -90q51 -49 51 -121v-762h-162l-12 72l-97 -45q-55 -27 -116 -27h-160q-72 0 -121 51l-82 80q-49 51 -49 121zM250 1325v143h151v-143h-151z M264 264q0 -23 19 -39l49 -49q16 -16 41 -16h127q18 0 32 8l177 82v219h-326q-25 0 -41 -16l-59 -62q-18 -16 -19 -39v-88zM600 1325v143h154v-143h-154z" />
<glyph unicode="&#xe5;" horiz-adv-x="989" d="M88 252v113q0 72 49 120l94 93q49 49 119 49h359v125q0 20 -17 36l-59 60q-16 16 -41 16h-449v111l52 49h430q72 0 120 -51l91 -90q51 -49 51 -121v-762h-162l-12 72l-97 -45q-55 -27 -116 -27h-160q-70 0 -121 51l-82 80q-49 51 -49 121zM266 264q0 -23 17 -39l49 -49 q16 -16 41 -16h127q18 0 35 8l174 82v219h-326q-25 0 -39 -16l-61 -62q-16 -16 -17 -39v-88zM305 1435q0 83 57.5 139t139.5 56q53 0 98 -25.5t70.5 -70.5t25.5 -98q0 -84 -56 -140.5t-138 -56.5t-139.5 56.5t-57.5 139.5zM424 1436q0 -23 10 -41.5t27.5 -29.5t39 -11t40 11 t29 29.5t10.5 41.5q0 31 -22.5 55.5t-55.5 24.5t-55.5 -25t-22.5 -55z" />
<glyph unicode="&#xe6;" horiz-adv-x="1658" d="M88 252v113q0 72 49 120l94 93q49 49 119 49h359v123q0 23 -17 38l-59 60q-16 16 -41 16h-449v111l52 49h430q70 0 120 -51l48 -47q4 -2 7 -2t7 2l47 47q49 51 119 51h291q70 0 120 -51l80 -80q51 -51 52 -121v-278l-52 -50h-565v-180q0 -23 16 -39l52 -49q16 -16 39 -16 h225q25 0 41 16l65 66l119 -119l-72 -72q-51 -51 -120 -51h-283q-35 0 -63 25l-31 30v-55h-162l-12 72l-97 -45q-55 -27 -116 -27h-160q-72 0 -121 51l-82 80q-49 51 -49 121zM264 264q0 -23 19 -39l49 -49q16 -16 41 -16h127q18 0 32 8l177 82v219h-326q-25 0 -41 -16 l-59 -62q-18 -16 -19 -39v-88zM899 602h438v158q0 23 -16 39l-49 49q-16 16 -41 16h-225q-25 0 -39 -16l-52 -49q-16 -16 -16 -39v-158z" />
<glyph unicode="&#xe7;" horiz-adv-x="909" d="M90 252v520q0 70 49 121l82 80q49 51 121 51h315q70 0 119 -51l72 -72l-119 -119l-65 66q-14 16 -39 16h-250q-25 0 -41 -16l-51 -49q-16 -16 -17 -39v-496q0 -23 17 -39l51 -49q16 -16 41 -16h250q25 0 39 16l65 66l121 -119l-74 -72q-49 -51 -119 -51h-165l-21 -41h14 q14 0 39 -2q59 -14 92 -56t33 -98q0 -43 -19.5 -80.5t-61.5 -61t-97 -23.5h-131v110h121q23 0 39 17.5t16 41.5q0 16 -8 28.5t-20.5 19t-24.5 8.5q-35 2 -101 -33l-73 72l47 100h-14q-55 4 -101 49l-82 80q-49 51 -49 121z" />
<glyph unicode="&#xe8;" horiz-adv-x="960" d="M88 252v520q0 70 49 121l82 80q49 51 121 51h289q72 0 121 -51l81 -80q49 -51 50 -121v-278l-50 -50h-567v-180q0 -23 19 -39l49 -49q16 -16 41 -16h223q25 0 41 16l65 66l119 -119l-71 -72q-51 -51 -121 -51h-289q-72 0 -121 51l-82 80q-49 51 -49 121zM264 602h441v158 q-1 23 -19 39l-49 49q-16 16 -41 16h-223q-25 0 -41 -16l-49 -49q-18 -16 -19 -39v-158zM311 1468l105 97l231 -273l-84 -75z" />
<glyph unicode="&#xe9;" horiz-adv-x="960" d="M88 252v520q0 70 49 121l82 80q49 51 121 51h289q72 0 121 -51l81 -80q49 -51 50 -121v-278l-50 -50h-567v-180q0 -23 19 -39l49 -49q16 -16 41 -16h223q25 0 41 16l65 66l119 -119l-71 -72q-51 -51 -121 -51h-289q-72 0 -121 51l-82 80q-49 51 -49 121zM264 602h441v158 q-1 23 -19 39l-49 49q-16 16 -41 16h-223q-25 0 -41 -16l-49 -49q-18 -16 -19 -39v-158zM313 1292l230 273l104 -97l-252 -251z" />
<glyph unicode="&#xea;" horiz-adv-x="960" d="M88 252v520q0 70 49 121l82 80q49 51 121 51h289q70 0 121 -51l81 -80q49 -51 50 -121v-278l-52 -50h-565v-180q0 -23 19 -39l49 -49q16 -16 41 -16h223q25 0 41 16l65 66l119 -119l-71 -72q-51 -51 -121 -51h-289q-72 0 -121 51l-82 80q-49 51 -49 121zM180 1292 l230 271h139l229 -271l-82 -75l-217 217l-217 -217zM264 602h441v158q-1 23 -19 39l-49 49q-16 16 -41 16h-223q-25 0 -41 -16l-49 -49q-18 -16 -19 -39v-158z" />
<glyph unicode="&#xeb;" horiz-adv-x="960" d="M88 252v520q0 70 49 121l82 80q49 51 121 51h289q70 0 121 -51l81 -80q49 -51 50 -121v-278l-52 -50h-565v-180q0 -23 19 -39l49 -49q16 -16 41 -16h223q25 0 41 16l65 66l119 -119l-71 -72q-51 -51 -121 -51h-289q-72 0 -121 51l-82 80q-49 51 -49 121zM227 1325v143 h154v-143h-154zM264 602h441v158q-1 23 -19 39l-49 49q-16 16 -41 16h-223q-25 0 -41 -16l-49 -49q-18 -16 -19 -39v-158zM578 1325v143h153v-143h-153z" />
<glyph unicode="&#xec;" d="M35 1448l104 96l230 -272l-82 -74zM121 0v1024h176v-1024h-176z" />
<glyph unicode="&#xed;" d="M35 1272l231 272l103 -96l-252 -250zM121 0v1024h176v-1024h-176z" />
<glyph unicode="&#xee;" d="M-96 1272l227 270h141l228 -270l-82 -74l-215 215l-217 -215zM121 0v1024h176v-1024h-176z" />
<glyph unicode="&#xef;" d="M-49 1307v141h151v-141h-151zM121 0v1024h176v-1024h-176zM301 1307v141h154v-141h-154z" />
<glyph unicode="&#xf0;" horiz-adv-x="1085" d="M78 264v363q0 78 51 129l82 82q20 20 38.5 31.5t38 16.5t46.5 5h108q55 0 107 -25l158 -73v286l-111 -84l-55 72l155 121q-8 18 -20 29l-35 34q-16 16 -39 17h-272q-23 0 -39 -17l-68 -67l-125 125l76 73q51 52 123 52h338q72 0 125 -52l47 -47q23 -20 31 -35l110 84 l60 -75l-121 -92q4 -16 4 -39v-914q0 -78 -51 -129l-80 -82q-23 -20 -41.5 -31.5t-37.5 -16.5t-46 -5h-301q-39 0 -65.5 11.5t-57.5 41.5l-82 82q-51 51 -51 129zM264 266q0 -18 17 -35l47 -49q14 -14 39 -14h235q27 0 41 14l47 49q16 16 17 35v340l-238 111q-14 8 -33 8 h-69q-25 0 -39 -14l-47 -49q-16 -16 -17 -35v-361z" />
<glyph unicode="&#xf1;" horiz-adv-x="1038" d="M121 0v1024h155l19 -100l166 77q49 23 102 23h115q70 0 121 -51l82 -80q49 -51 49 -121v-772h-178v760q0 23 -17 39l-49 49q-16 16 -41 16h-74q-18 0 -34 -8l-238 -111v-745h-178zM141 1346q2 2 20.5 29.5t28 39.5t31 38t37.5 39t40 25.5t46 14.5h27q35 0 66.5 -14.5 t84.5 -57.5q72 -55 107 -55q27 0 55.5 25.5t73.5 87.5l78 -52q-78 -188 -205 -188q-59 0 -121 43q-25 18 -52.5 38.5t-37.5 28t-23.5 13.5t-25.5 6q-10 0 -27 -4q-56 -13 -119 -117z" />
<glyph unicode="&#xf2;" horiz-adv-x="997" d="M90 252v520q0 70 49 121l82 80q51 51 121 51h315q70 0 121 -51l82 -80q49 -51 49 -121v-520q0 -70 -49 -121l-82 -80q-51 -51 -121 -51h-315q-70 0 -121 51l-82 80q-49 51 -49 121zM268 264q0 -23 17 -39l49 -49q16 -16 41 -16h250q25 0 41 16l49 49q16 16 16 39v496 q0 23 -16 39l-49 49q-16 16 -41 16h-250q-25 0 -41 -16l-49 -49q-16 -16 -17 -39v-496zM332 1468l104 97l230 -273l-82 -75z" />
<glyph unicode="&#xf3;" horiz-adv-x="997" d="M90 252v520q0 70 49 121l82 80q51 51 121 51h315q70 0 121 -51l82 -80q49 -51 49 -121v-520q0 -70 -49 -121l-82 -80q-51 -51 -121 -51h-315q-70 0 -121 51l-82 80q-49 51 -49 121zM268 264q0 -23 17 -39l49 -49q16 -16 41 -16h250q25 0 41 16l49 49q16 16 16 39v496 q0 23 -16 39l-49 49q-16 16 -41 16h-250q-25 0 -41 -16l-49 -49q-16 -16 -17 -39v-496zM334 1292l229 273l105 -97l-252 -251z" />
<glyph unicode="&#xf4;" horiz-adv-x="997" d="M90 252v520q0 70 49 121l82 80q51 51 121 51h315q70 0 121 -51l82 -80q49 -51 49 -121v-520q0 -70 -49 -121l-82 -80q-51 -51 -121 -51h-315q-70 0 -121 51l-82 80q-49 51 -49 121zM201 1292l229 271h139l230 -271l-82 -75l-217 217l-217 -217zM268 264q0 -23 17 -39 l49 -49q16 -16 41 -16h250q25 0 41 16l49 49q16 16 16 39v496q0 23 -16 39l-49 49q-16 16 -41 16h-250q-25 0 -41 -16l-49 -49q-16 -16 -17 -39v-496z" />
<glyph unicode="&#xf5;" horiz-adv-x="997" d="M90 252v520q0 70 49 121l82 80q51 51 121 51h315q70 0 121 -51l82 -80q49 -51 49 -121v-520q0 -70 -49 -121l-82 -80q-51 -51 -121 -51h-315q-70 0 -121 51l-82 80q-49 51 -49 121zM152 1376q2 2 20 30t27.5 41t31 37.5t38 38t40 26t47.5 14.5q14 2 25 2q37 0 67.5 -15.5 t83.5 -56.5q72 -57 107 -57q27 0 55.5 25.5t73.5 86.5l78 -51q-78 -188 -205 -188q-59 0 -121 43q-25 18 -52.5 38.5t-37.5 27.5t-22.5 13.5t-24.5 6.5t-29 -4q-55 -13 -116 -115zM268 264q0 -23 17 -39l49 -49q16 -16 41 -16h250q25 0 41 16l49 49q16 16 16 39v496 q0 23 -16 39l-49 49q-16 16 -41 16h-250q-25 0 -41 -16l-49 -49q-16 -16 -17 -39v-496z" />
<glyph unicode="&#xf6;" horiz-adv-x="997" d="M90 252v520q0 70 49 121l82 80q51 51 121 51h315q70 0 121 -51l82 -80q49 -51 49 -121v-520q0 -70 -49 -121l-82 -80q-51 -51 -121 -51h-315q-70 0 -121 51l-82 80q-49 51 -49 121zM248 1325v143h153v-143h-153zM268 264q0 -23 17 -39l49 -49q16 -16 41 -16h250 q25 0 41 16l49 49q16 16 16 39v496q0 23 -16 39l-49 49q-16 16 -41 16h-250q-25 0 -41 -16l-49 -49q-16 -16 -17 -39v-496zM598 1325v143h154v-143h-154z" />
<glyph unicode="&#xf7;" horiz-adv-x="1087" d="M80 508v182h930v-182h-930zM432 127v225h227v-225h-227zM432 848v223h227v-223h-227z" />
<glyph unicode="&#xf8;" horiz-adv-x="997" d="M90 252v520q0 70 49 121l82 80q51 51 121 51h250l35 104h149l-39 -122q18 -10 41 -33l82 -80q49 -51 49 -121v-520q0 -70 -49 -121l-82 -80q-51 -51 -121 -51h-251l-35 -104h-150l41 122q-20 10 -41 33l-82 80q-49 51 -49 121zM268 264q0 -23 17 -39l32 -32l222 671h-164 q-25 0 -41 -16l-49 -49q-16 -16 -17 -39v-496zM459 160h166q25 0 41 16l49 49q16 16 16 39v496q0 23 -16 39l-35 35z" />
<glyph unicode="&#xf9;" horiz-adv-x="1028" d="M111 252v772h178v-760q0 -23 16 -39l49 -49q16 -16 41 -16h74q18 0 35 8l237 111v745h179v-1024h-156l-19 100l-165 -77q-49 -23 -103 -23h-115q-70 0 -120 51l-82 80q-49 51 -49 121zM346 1468l105 97l229 -273l-82 -75z" />
<glyph unicode="&#xfa;" horiz-adv-x="1028" d="M111 252v772h178v-760q0 -23 16 -39l49 -49q16 -16 41 -16h74q18 0 35 8l237 111v745h179v-1024h-156l-19 100l-165 -77q-49 -23 -103 -23h-115q-70 0 -120 51l-82 80q-49 51 -49 121zM348 1292l230 273l104 -97l-252 -251z" />
<glyph unicode="&#xfb;" horiz-adv-x="1028" d="M111 252v772h178v-760q0 -23 16 -39l49 -49q16 -16 41 -16h74q18 0 35 8l237 111v745h179v-1024h-156l-19 100l-165 -77q-49 -23 -103 -23h-115q-70 0 -120 51l-82 80q-49 51 -49 121zM215 1292l229 271h140l229 -271l-82 -75l-217 217l-217 -217z" />
<glyph unicode="&#xfc;" horiz-adv-x="1028" d="M111 252v772h178v-760q0 -23 16 -39l49 -49q16 -16 41 -16h74q18 0 35 8l237 111v745h179v-1024h-156l-19 100l-165 -77q-49 -23 -103 -23h-115q-70 0 -120 51l-82 80q-49 51 -49 121zM262 1325v143h154v-143h-154zM612 1325v143h154v-143h-154z" />
<glyph unicode="&#xfd;" horiz-adv-x="1005" d="M37 987l78 37h96l281 -864h20l285 864h96l76 -37l-344 -1003q-10 -31 -18.5 -49.5t-28 -57.5t-39 -66.5t-52 -63.5t-68.5 -59.5t-88 -44t-112 -28.5l-24 143q102 16 150 61.5t81 123.5l18 57h-67zM338 1300l229 273l105 -96l-252 -252z" />
<glyph unicode="&#xfe;" horiz-adv-x="1103" d="M131 -367v1801h178v-506l162 76q49 23 102 22h109q70 0 121 -49l82 -82q49 -49 49 -121v-522q0 -70 -49 -121l-82 -82q-49 -49 -121 -49h-373v-317l-51 -50h-127zM309 160h340q25 0 41 16l49 49q18 16 19 39v498q-1 23 -19 39l-49 49q-16 16 -41 16h-69q-18 0 -33 -6 l-238 -112v-588z" />
<glyph unicode="&#xff;" horiz-adv-x="1005" d="M37 987l78 37h96l281 -864h20l285 864h96l76 -37l-344 -1003q-16 -45 -28.5 -73t-47.5 -85t-74 -93t-106.5 -72t-149.5 -46l-24 143q102 16 150 61.5t79 123.5l20 57h-67zM252 1333v144h154v-144h-154zM602 1333v144h154v-144h-154z" />
<glyph unicode="&#x152;" horiz-adv-x="1980" d="M131 342v750q0 74 51 122l168 168q51 51 123 52h414q72 0 121 -52l82 -79q4 6 22 24l55 55q51 52 123 52h545l63 -64v-115h-563q-25 0 -41 -16l-49 -49q-16 -16 -16 -39v-344h557v-180h-557v-344q0 -23 16 -39l49 -49q16 -16 41 -17h563v-115l-63 -63h-545q-72 0 -123 51 l-55 55q-18 18 -22 25l-80 -80q-51 -51 -123 -51h-414q-72 0 -123 51l-168 168q-51 49 -51 123zM324 369q0 -23 16 -39l139 -135q14 -16 39 -17h324q25 0 39 17l139 135q14 16 16 37v700q-2 21 -16 37l-139 135q-14 16 -39 16h-324q-25 0 -39 -16l-139 -137q-16 -14 -16 -37 v-696z" />
<glyph unicode="&#x153;" horiz-adv-x="1599" d="M90 252v520q0 70 49 121l82 80q51 51 121 51h315q70 0 121 -51l43 -41l41 41q51 51 121 51h291q70 0 119 -51l82 -80q49 -51 49 -121v-278l-49 -50h-566v-180q0 -23 17 -39l49 -49q16 -16 41 -16h225q25 0 39 16l66 66l120 -119l-73 -72q-49 -51 -119 -51h-291 q-70 0 -121 51l-41 41l-43 -41q-51 -51 -121 -51h-315q-70 0 -121 51l-82 80q-49 51 -49 121zM268 264q0 -23 17 -39l49 -49q16 -16 41 -16h250q25 0 41 16l49 49q16 16 16 37v500q0 21 -16 37l-49 49q-16 16 -41 16h-250q-25 0 -41 -16l-49 -49q-16 -16 -17 -39v-496z M909 602h439v158q-1 23 -17 39l-51 49q-14 16 -39 16h-225q-25 0 -41 -16l-49 -49q-16 -16 -17 -39v-158z" />
<glyph unicode="&#x178;" horiz-adv-x="1193" d="M45 1384l105 50h79l322 -764h90l320 764h81l105 -50l-387 -888h-70v-496h-188v496h-70zM344 1735v143h154v-143h-154zM694 1735v143h154v-143h-154z" />
<glyph unicode="&#x2c6;" horiz-adv-x="780" d="M92 1292l230 271h139l229 -271l-84 -75l-215 215l-217 -215z" />
<glyph unicode="&#x2dc;" horiz-adv-x="886" d="M94 1380q0 2 19.5 30t28 40t30 37.5t38.5 38t40.5 25t46.5 14.5q14 2 27 2q35 0 65.5 -14.5t83.5 -57.5q72 -55 107 -55q29 0 57.5 25.5t73.5 86.5l77 -51q-80 -188 -206 -188q-57 0 -121 43q-25 16 -51.5 36.5t-38 29t-23.5 13.5t-24 5q-10 0 -27 -4q-56 -13 -119 -115z " />
<glyph unicode="&#x2000;" horiz-adv-x="1020" />
<glyph unicode="&#x2001;" horiz-adv-x="2040" />
<glyph unicode="&#x2002;" horiz-adv-x="1020" />
<glyph unicode="&#x2003;" horiz-adv-x="2040" />
<glyph unicode="&#x2004;" horiz-adv-x="680" />
<glyph unicode="&#x2005;" horiz-adv-x="510" />
<glyph unicode="&#x2006;" horiz-adv-x="340" />
<glyph unicode="&#x2007;" horiz-adv-x="340" />
<glyph unicode="&#x2008;" horiz-adv-x="255" />
<glyph unicode="&#x2009;" horiz-adv-x="408" />
<glyph unicode="&#x200a;" horiz-adv-x="113" />
<glyph unicode="&#x2010;" horiz-adv-x="839" d="M84 510v182h674v-182h-674z" />
<glyph unicode="&#x2011;" horiz-adv-x="839" d="M84 510v182h674v-182h-674z" />
<glyph unicode="&#x2012;" horiz-adv-x="839" d="M84 510v182h674v-182h-674z" />
<glyph unicode="&#x2013;" horiz-adv-x="974" d="M82 510v182h815v-182h-815z" />
<glyph unicode="&#x2014;" horiz-adv-x="1331" d="M76 510v182h1177v-182h-1177z" />
<glyph unicode="&#x2018;" horiz-adv-x="442" d="M88 1190v147q0 61 27 117l57 119h166l-80 -170h57v-213h-227z" />
<glyph unicode="&#x2019;" horiz-adv-x="442" d="M102 1190l80 170h-59v213h227v-148q0 -61 -26 -116l-56 -119h-166z" />
<glyph unicode="&#x201a;" horiz-adv-x="442" d="M104 -186l78 172h-57v213h227v-148q0 -61 -26 -117l-56 -120h-166z" />
<glyph unicode="&#x201c;" horiz-adv-x="759" d="M84 1190v147q0 61 27 117l57 119h166l-80 -170h57v-213h-227zM412 1190v147q0 61 24 117l58 119h165l-79 -170h57v-213h-225z" />
<glyph unicode="&#x201d;" horiz-adv-x="749" d="M102 1190l80 170h-57v213h225v-148q0 -59 -24 -116l-58 -119h-166zM428 1190l80 170h-57v213h227v-148q0 -59 -27 -116l-57 -119h-166z" />
<glyph unicode="&#x201e;" horiz-adv-x="757" d="M100 -186l78 172h-57v213h227v-148q0 -61 -26 -117l-58 -120h-164zM424 -186l80 172h-58v213h226v-148q0 -61 -25 -117l-57 -120h-166z" />
<glyph unicode="&#x2022;" horiz-adv-x="542" d="M86 408v364h371v-364h-371z" />
<glyph unicode="&#x2026;" horiz-adv-x="1110" d="M80 -57v223h227v-223h-227zM442 -57v223h228v-223h-228zM805 -57v223h227v-223h-227z" />
<glyph unicode="&#x202f;" horiz-adv-x="408" />
<glyph unicode="&#x2039;" horiz-adv-x="663" d="M86 428v219l383 359l109 -109l-295 -358l295 -361l-109 -108z" />
<glyph unicode="&#x203a;" horiz-adv-x="663" d="M86 178l295 359l-295 360l109 109l383 -359v-219l-383 -358z" />
<glyph unicode="&#x205f;" horiz-adv-x="510" />
<glyph unicode="&#x20ac;" horiz-adv-x="1157" d="M80 455v174h137v125h-137v176h137v194q0 72 49 121l82 82q49 49 121 49h545l61 -61v-113h-561q-25 0 -41 -16l-51 -49q-16 -18 -16 -39v-168h475v-113l-64 -63h-411v-125h419v-113l-61 -61h-358v-172q0 -20 16 -39l51 -49q16 -16 41 -17h561v-112l-61 -64h-545 q-72 0 -121 51l-82 82q-49 49 -49 121v199h-137z" />
<glyph unicode="&#x2122;" horiz-adv-x="1802" d="M72 1309v82l45 43h555l43 -43v-82h-254v-758h-133v758h-256zM809 551v840l43 43h192l218 -719h18l217 719h193l43 -43v-840h-134v700h-38l-211 -700h-158l-209 700h-41v-700h-133z" />
<glyph unicode="&#x25fc;" horiz-adv-x="1024" d="M0 0v1024h1024v-1024h-1024z" />
<glyph unicode="&#xfb01;" horiz-adv-x="1032" d="M35 864v111l51 49h107v170q0 72 49 121l82 82q48 49 120 49h99l49 -49v-111h-115q-25 0 -41 -14l-49 -51q-18 -16 -18 -39v-158h204v-160h-204v-872h-176v872h-158zM717 1176v202h205v-202h-205zM731 0v1024h178v-1024h-178z" />
<glyph unicode="&#xfb02;" horiz-adv-x="1183" d="M35 864v111l51 49h107v170q0 72 49 121l82 82q48 49 120 49h99l49 -49v-111h-115q-25 0 -41 -14l-49 -51q-18 -16 -18 -39v-158h204v-160h-204v-872h-176v872h-158zM752 254v1163l51 51h125v-1204q0 -23 18 -39l51 -51q16 -14 39 -14h111v-160h-143q-70 0 -121 49l-74 74 q-33 33 -45 60.5t-12 70.5z" />
</font>
</defs>
</svg>
