<?xml version="1.0" standalone="no"?>
<!DOCTYPE svg PUBLIC "-//W3C//DTD SVG 1.1//EN" "http://www.w3.org/Graphics/SVG/1.1/DTD/svg11.dtd" >
<svg xmlns="http://www.w3.org/2000/svg">
<metadata></metadata>
<defs>
<font id="bordaregular_10" horiz-adv-x="360" >
<font-face units-per-em="2048" ascent="1587" descent="-461" />
<missing-glyph horiz-adv-x="614" />
<glyph horiz-adv-x="0" />
<glyph unicode="&#xd;" horiz-adv-x="681" />
<glyph unicode=" "  horiz-adv-x="614" />
<glyph unicode="&#x09;" horiz-adv-x="614" />
<glyph unicode="&#xa0;" horiz-adv-x="614" />
<glyph unicode="!" d="M129 0l25 109h100l-23 -109h-102zM250 403l119 641l82 390h67l-82 -387l-155 -644h-31z" />
<glyph unicode="&#x22;" horiz-adv-x="630" d="M377 1133l29 210l32 160h68l-33 -160l-61 -210h-35zM696 1133l29 210l35 160h67l-32 -160l-62 -210h-37z" />
<glyph unicode="#" horiz-adv-x="1323" d="M209 524l6 31l18 16h263l161 379h-358l8 31l19 16h352l184 437h53l-186 -437h418l186 437h53l-186 -437h238l-11 -47h-245l-162 -379h326l-9 -47h-338l-223 -524h-53l223 524h-416l-223 -524h-53l223 524h-268zM549 571h418l161 379h-417z" />
<glyph unicode="$" horiz-adv-x="1099" d="M113 18l8 37h420l141 668l-326 186q-37 20 -37 60q0 16 5 39l28 131q8 45 22.5 69.5t47.5 51.5l153 124q37 31 58.5 40.5t60.5 9.5h140l22 104h45l-22 -104h331l15 -19l-8 -37h-351l-131 -616l275 -156q80 -45 80 -125q0 -20 -5 -43l-28 -137q-10 -45 -31.5 -76.5 t-67.5 -68.5l-112 -95q-74 -61 -172 -61h-101l-22 -104h-45l22 104h-401zM389 1024q0 -66 57 -96l248 -144l127 594h-102q-72 0 -127 -45l-113 -96q-57 -49 -69 -107l-19 -86q-2 -10 -2 -20zM586 55h100q72 0 125 45l115 95q59 47 71 106l29 137q2 10 2 23q0 63 -57 96 l-248 143z" />
<glyph unicode="%" horiz-adv-x="1458" d="M254 -35l1182 1501h63l-1182 -1501h-63zM317 922q0 10 2 22l70 326q8 35 35 57l61 51q29 25 60 25h196q31 0 50 -25l40 -51q12 -16 13 -35q0 -10 -2 -22l-70 -326q-6 -35 -35 -57l-61 -51q-29 -25 -60 -25h-196q-31 0 -49 25l-41 51q-12 16 -13 35zM369 928q0 -4 4 -10 l41 -52q8 -10 12 -10h2h199h2q4 0 18 10l62 52q8 8 12 26l70 326q2 12 2 16q-1 4 -5 10l-40 52q-8 10 -13 10h-2h-198h-3q-4 0 -18 -10l-61 -52q-8 -8 -13 -26l-69 -326q-2 -12 -2 -16zM922 141q0 10 2 23l67 323q8 37 37 60l62 51q28 25 59 25h197q31 0 49 -25l41 -51 q12 -16 12 -37q0 -8 -2 -23l-70 -323q-8 -37 -35 -60l-61 -49q-31 -25 -59 -24h-199q-29 0 -49 24l-39 49q-12 16 -12 37zM971 147q0 -4 6 -10l39 -51q10 -10 14 -10h2h197h3h1q4 0 16 10l64 51q8 8 12 27l70 323q2 14 2 17q0 6 -4 10l-41 51q-8 12 -13 13h-4h-196h-2 q-4 0 -19 -13l-61 -51q-10 -6 -15 -27l-67 -323q-4 -12 -4 -17z" />
<glyph unicode="&#x26;" horiz-adv-x="1282" d="M137 178q0 14 4 35l31 141q12 53 53 90l398 328l-174 236q-23 27 -23 53q0 14 6 35l25 123q12 53 53 88l111 90q27 23 44 30t46 7h190q29 0 43 -7.5t33 -29.5l72 -90q20 -25 20 -54q0 -14 -6 -34l-25 -123q-12 -51 -55 -88l-285 -236l344 -459l234 193l14 -19l-8 -41 l-211 -174l135 -180l-12 -61l-10 -8l-160 213l-242 -201q-29 -23 -46 -30t-46 -7h-385q-29 0 -43 7t-33 30l-71 90q-20 25 -21 53zM201 201q0 -33 18 -56l53 -67q23 -31 70 -31h332q47 0 84 31l237 196l-342 459l-374 -311q-39 -31 -50 -72l-26 -131q-2 -10 -2 -18z M489 1083q1 -30 19 -55l162 -217l264 219q37 33 45 72l25 110q2 10 2 19q0 33 -19 55l-53 68q-23 31 -72 30h-135q-47 0 -84 -30l-80 -68q-39 -33 -49 -74l-22 -110q-2 -10 -3 -19z" />
<glyph unicode="'" horiz-adv-x="329" d="M387 1133l29 210l35 160h67l-33 -160l-61 -210h-37z" />
<glyph unicode="(" horiz-adv-x="589" d="M127 4q0 12 6 33l273 1284q10 53 51 86l225 184q27 23 43 29t45 6h43l-12 -59h-4q-47 0 -86 -31l-197 -162q-41 -33 -51 -76l-262 -1239q-2 -8 -2 -18q0 -33 18 -57l133 -166q27 -27 70 -27h2l-12 -59h-43q-18 0 -29.5 3t-21 10t-23.5 24l-146 182q-20 29 -20 53z" />
<glyph unicode=")" horiz-adv-x="589" d="M66 -268l12 59h2q55 0 92 35l193 158q41 33 49 75l264 1239q2 10 2 19q0 33 -21 57l-127 162q-25 31 -73 31h-4l14 59h41q29 0 43 -6t31 -29l147 -184q18 -25 19 -51q0 -12 -5 -35l-272 -1284q-10 -49 -51 -86l-225 -182q-27 -23 -44.5 -30t-43.5 -7h-43z" />
<glyph unicode="*" horiz-adv-x="927" d="M287 854l145 74l217 94l-176 94l-115 74l48 59l106 -69l164 -131l31 223l30 147h60l-31 -147l-66 -223l220 131l133 69l22 -59l-145 -74l-217 -94l178 -94l113 -74l-48 -61l-104 69l-164 131l-29 -223l-32 -147h-60l33 149l64 223l-220 -133l-135 -69z" />
<glyph unicode="+" horiz-adv-x="1081" d="M225 567l13 64h403l88 409h62l-86 -409h403l-12 -64h-406l-86 -409h-63l88 409h-404z" />
<glyph unicode="," d="M84 -176l111 164h-70l25 121h102l-21 -93q-12 -55 -43 -100l-63 -92h-41z" />
<glyph unicode="-" horiz-adv-x="819" d="M236 569l14 64h590l-15 -64h-589z" />
<glyph unicode="." d="M129 0l25 109h100l-23 -109h-102z" />
<glyph unicode="/" horiz-adv-x="782" d="M133 0l776 1434h56l-775 -1434h-57z" />
<glyph unicode="0" horiz-adv-x="999" d="M147 178q0 14 5 35l202 950q10 53 54 88l108 88q18 16 30.5 23.5t26 10.5t33.5 3h371q29 0 43 -7t33 -30l69 -88q20 -27 21 -53q0 -14 -4 -35l-203 -950q-10 -53 -53 -88l-109 -88q-27 -25 -44 -31t-46 -6h-371q-29 0 -43 7t-32 30l-70 88q-20 27 -21 53zM205 199 q0 -31 20 -56l51 -67q25 -31 74 -31h318q47 0 84 31l82 67q41 33 49 74l198 942q2 8 2 19q0 30 -18 55l-53 67q-23 31 -72 31h-317q-49 0 -86 -31l-80 -67q-41 -33 -49 -74l-201 -942q-2 -8 -2 -18z" />
<glyph unicode="1" horiz-adv-x="589" d="M309 1221l29 43l328 112h69l23 -28l-287 -1348h-55l282 1327l-385 -133z" />
<glyph unicode="2" horiz-adv-x="1046" d="M104 0l80 377q25 113 152 170l606 280q39 18 67.5 50t34.5 65l31 145q2 12 2 25q0 43 -26 78l-72 96q-14 18 -44 31.5t-61 13.5h-225q-72 0 -123 -45l-77 -65l-31 39l82 65q39 33 61.5 42t61.5 9h297q41 0 59 -9t43 -42l88 -113q29 -35 29 -71q0 -20 -9 -51l-34 -164 q-18 -94 -66 -115l-688 -313q-39 -18 -66.5 -51t-33.5 -64l-72 -338h801l-6 -25l-25 -20h-836z" />
<glyph unicode="3" horiz-adv-x="933" d="M86 70l43 34l23 -28q25 -31 73 -31h379q47 0 84 31l82 67q39 33 49 74l66 315q2 8 2 19q0 33 -19 55l-98 125q-23 31 -72 31h-307l8 45h330q49 0 86 33l113 94q39 33 47 74l33 151q2 8 2 19q0 31 -19 55l-53 67q-25 31 -72 31h-358q-47 0 -84 -31l-35 -28l-29 35l41 32 q14 12 24.5 19.5t21 11.5t21 5t24.5 1h409q31 0 44 -7t32 -30l72 -88q18 -27 18 -53q0 -14 -4 -35l-33 -159q-12 -53 -55 -89l-166 -141l117 -149q20 -27 20 -52q0 -14 -4 -36l-70 -324q-12 -53 -53 -88l-108 -88q-27 -23 -44.5 -30t-45.5 -7h-433q-29 0 -43 7t-32 30z" />
<glyph unicode="4" horiz-adv-x="1046" d="M160 369l12 53l694 954h166l23 -28l-205 -963h199l-5 -16l-34 -29h-170l-72 -340h-55l71 340h-600zM207 385h588l200 946h-96z" />
<glyph unicode="5" horiz-adv-x="925" d="M139 70l43 34l23 -28q25 -31 71 -31h318q49 0 86 31l82 67q39 33 49 74l68 318v18q0 33 -19 55l-51 68q-25 31 -74 31h-436l-43 55l205 584l37 30h538l25 -28l-4 -17h-543l-205 -579h463q29 0 43 -6.5t33 -28.5l70 -90q20 -27 20 -52q0 -14 -4 -36l-70 -326 q-12 -53 -53 -88l-109 -88q-18 -16 -31.5 -23.5t-25.5 -10.5t-33 -3h-370q-31 0 -44.5 7t-31.5 30z" />
<glyph unicode="6" horiz-adv-x="960" d="M152 182q0 16 6 39l198 942q12 53 54 88l108 88q18 16 31.5 23.5t27 10.5t31.5 3h373q29 0 42 -7t32 -30l26 -32l-43 -35l-22 28q-25 31 -72 31h-317q-49 0 -86 -31l-82 -67q-39 -33 -49 -76l-99 -467l305 129q47 20 89 21h120q27 0 40.5 -7.5t33.5 -31.5l70 -90 q20 -25 20 -56q0 -16 -6 -39l-84 -395q-12 -59 -53 -94l-109 -88q-31 -27 -47 -33t-45 -6h-330q-27 0 -40 6t-33 33l-70 88q-20 25 -20 55zM207 195q0 -27 20 -52l54 -67q23 -29 73 -29h275q51 0 86 29l80 67q41 33 49 68l88 418q2 8 2 16q-1 26 -21 53l-53 68 q-23 29 -72 27h-88q-37 0 -65 -13l-336 -143l-90 -426q-2 -8 -2 -16z" />
<glyph unicode="7" horiz-adv-x="800" d="M276 0l680 1329h-622l4 19l35 28h620l23 -28l-6 -35l-682 -1313h-52z" />
<glyph unicode="8" horiz-adv-x="999" d="M150 180q0 12 4 35l69 322q10 53 53 88l132 106l-78 98q-20 27 -21 54q0 14 6 35l52 245q12 53 53 88l108 88q18 16 31.5 23.5t26 10.5t32.5 3h351q29 0 43 -7t30 -30l72 -88q20 -27 21 -53q0 -14 -7 -35l-51 -245q-12 -53 -53 -89l-119 -98l86 -106q20 -27 21 -52 q0 -14 -4 -36l-70 -322q-10 -53 -53 -88l-109 -88q-27 -25 -44 -31t-46 -6h-371q-29 0 -43 6t-32 31l-70 88q-20 27 -20 53zM209 201q0 -31 18 -56l52 -67q25 -31 73 -31h318q47 0 86 31l80 67q41 33 49 74l67 313v19q0 32 -18 55l-51 68q-23 29 -68 31h-330q-45 -2 -79 -31 l-80 -68q-41 -33 -50 -74l-67 -313v-18zM369 903q0 -31 18 -55l53 -68q23 -27 66 -30h307q47 4 80 30l82 68q39 33 49 74l49 237q2 8 2 19q0 30 -18 55l-53 67q-25 31 -72 31h-297q-47 0 -84 -31l-82 -67q-39 -33 -49 -74l-49 -237q-2 -8 -2 -19z" />
<glyph unicode="9" horiz-adv-x="960" d="M172 70l43 34l23 -28q23 -31 71 -31h318q49 0 86 31l82 67q39 33 47 74l108 510l-305 -131q-47 -18 -90 -18h-119q-27 0 -40 6t-34 32l-69 89q-20 25 -21 55q0 16 4 39l76 356q14 59 56 94l108 88q20 18 33.5 25.5t26 10.5t30.5 3h330q29 0 42 -7t34 -32l69 -88 q20 -25 21 -55q0 -16 -6 -39l-201 -942q-10 -53 -51 -88l-109 -90q-29 -20 -46 -27.5t-46 -7.5h-371q-29 0 -43 7t-30 28zM328 770q0 -27 20 -53l51 -66q25 -29 74 -28h88q37 0 66 12l334 143l83 387v17q0 26 -18 51l-53 67q-23 29 -74 29h-276q-49 0 -84 -29l-82 -67 q-39 -33 -47 -68l-80 -379q-2 -8 -2 -16z" />
<glyph unicode=":" d="M129 0l25 109h100l-23 -109h-102zM324 915l24 109h101l-23 -109h-102z" />
<glyph unicode=";" d="M84 -176l111 164h-70l25 121h102l-21 -93q-12 -55 -43 -100l-63 -92h-41zM322 915l22 109h102l-24 -109h-100z" />
<glyph unicode="&#x3c;" horiz-adv-x="1112" d="M203 459l33 157l958 422l10 -51l-917 -401l-23 -97l750 -401l-31 -51z" />
<glyph unicode="=" horiz-adv-x="1081" d="M184 371l15 63h870l-12 -63h-873zM268 762l15 63h870l-14 -63h-871z" />
<glyph unicode="&#x3e;" horiz-adv-x="1112" d="M133 88l920 401l20 97l-747 401l30 51l781 -422l-33 -159l-961 -420z" />
<glyph unicode="?" horiz-adv-x="956" d="M389 0l25 109h100l-22 -109h-103zM408 1317l79 65q29 23 46.5 33t33.5 14.5t45 4.5h267q39 0 57 -9.5t45 -42.5l88 -112q27 -35 27 -72q0 -20 -6 -51l-37 -170q-18 -94 -66 -115l-287 -131q-39 -18 -67.5 -50t-34.5 -65l-45 -213h-55l45 213q25 113 151 172l207 97 q39 18 67.5 50t35.5 64l30 144q2 14 2 26q0 45 -26 78l-74 94q-14 16 -44 29.5t-61 13.5h-194q-70 0 -123 -43l-76 -63z" />
<glyph unicode="@" horiz-adv-x="1591" d="M135 18q0 12 4 33l176 826q10 49 47 79l211 172q18 14 29.5 21.5t23 9.5t29.5 2h777q27 0 39 -6t28 -27l137 -172q18 -25 19 -47q0 -12 -4 -32l-109 -508q-8 -47 -47 -78l-209 -172q-27 -20 -41 -26.5t-41 -6.5h-180l4 82l-147 -64q-43 -18 -80 -18h-133q-37 0 -62 29 l-51 67q-16 20 -16 43q0 12 4 29l18 92q10 43 43 70l92 76q35 29 74 28h340l33 150v12q0 20 -13 39l-45 57q-16 20 -51 21h-329l6 35l20 14h334q37 0 59 -29l60 -76q16 -20 16 -43q0 -10 -4 -26l-113 -537h95q47 0 84 31l184 151q39 33 47 72l98 465q2 8 2 18q0 31 -18 54 l-121 151q-25 31 -70 31h-702q-47 0 -84 -31l-184 -151q-39 -31 -47 -72l-168 -784q-2 -8 -2 -19q0 -31 20 -53l119 -152q25 -31 72 -30h606l-10 -51h-646q-27 0 -39 6t-28 26l-137 172q-18 23 -19 47zM594 244q0 -20 14 -37l39 -51q16 -20 51 -21h113q25 0 47 10l191 80 l51 246h-322q-33 0 -59 -20l-72 -60q-27 -23 -33 -49l-18 -86q-2 -6 -2 -12z" />
<glyph unicode="A" horiz-adv-x="1288" d="M82 20l756 1414h221l155 -1414l-47 -20h-16l-51 500h-699l-264 -500h-16zM430 555h664l-84 823h-146z" />
<glyph unicode="B" horiz-adv-x="1228" d="M199 0l299 1407l32 27h611q27 0 40 -6.5t31 -28.5l70 -90q20 -25 21 -49q0 -14 -5 -35l-69 -322q-10 -51 -51 -86l-66 -53q-4 -2 -4 -6v-2t2 -6l100 -125q18 -25 19 -52q0 -12 -4 -34l-70 -330q-12 -51 -51 -84l-109 -90q-29 -23 -44 -29t-44 -6h-708zM270 55h609 q51 0 90 33l80 66q43 35 51 77l61 285q2 10 2 21q0 32 -20 57l-53 68q-24 32 -71 32h-3h-610zM418 750h536q49 0 88 30l82 68q41 33 52 78l57 276q2 10 2 19q0 34 -18 59l-54 66q-24 32 -73 32h-3h-536z" />
<glyph unicode="C" horiz-adv-x="1200" d="M219 268q0 14 6 35l174 827q12 51 52 84l225 185q27 23 43 29t43 6h397q29 0 42 -6.5t32 -28.5l100 -127l-55 -45l-94 119q-26 32 -73 32h-3h-317q-49 0 -89 -32l-196 -160q-43 -35 -51 -78l-166 -782q-2 -8 -2 -19q0 -33 18 -59l129 -160q25 -33 76 -33h317q49 0 88 33 l148 119l35 -45l-156 -127q-27 -23 -43 -29t-43 -6h-397q-29 0 -42.5 6t-31.5 29l-145 184q-20 25 -21 49z" />
<glyph unicode="D" horiz-adv-x="1296" d="M199 0l299 1407l32 27h617q27 0 40 -6.5t32 -28.5l145 -185q20 -25 20 -49q0 -14 -4 -35l-176 -827q-10 -51 -51 -84l-225 -184q-27 -23 -42.5 -29t-43.5 -6h-643zM270 55h543q49 0 88 33l199 160q41 35 49 78l166 782q2 8 2 18q-1 35 -19 60l-129 160q-24 32 -72 32h-3 h-541z" />
<glyph unicode="E" horiz-adv-x="1067" d="M193 174q0 14 6 35l215 1016q10 51 51 84l108 90q27 23 43.5 29t45.5 6h563l20 -27l-4 -29h-553q-49 0 -88 -32l-82 -66q-41 -35 -49 -78l-98 -459h610l-10 -53h-613l-96 -459q-2 -10 -2 -18q0 -35 21 -59l51 -66q27 -33 76 -33h550l-6 -28l-32 -27h-564q-29 0 -42 6 t-29 29l-72 90q-20 25 -20 49z" />
<glyph unicode="F" horiz-adv-x="1079" d="M205 2l258 1223q12 51 51 84l109 90q29 23 44 29t44 6h522l22 -27l-6 -29h-510q-51 0 -90 -32l-80 -66q-41 -35 -51 -78l-106 -500h569l-12 -55h-568l-137 -645h-59z" />
<glyph unicode="G" horiz-adv-x="1323" d="M215 268q0 14 4 35l176 830q12 51 51 84l226 184q36 31 61 33h418q29 0 42 -6.5t32 -28.5l100 -127l-53 -45l-96 119q-26 34 -79 34h-3h-11h-297q-49 0 -88 -32l-196 -160q-43 -35 -51 -78l-166 -784q-2 -8 -2 -19q0 -33 18 -59l129 -160q27 -35 82 -35h8h299q49 0 88 33 l197 160q41 35 51 78l76 354h-357l7 29l32 26h387l-90 -432q-12 -51 -51 -84l-225 -184q-37 -31 -64 -33h-417q-29 0 -42.5 6t-29.5 29l-145 184q-20 25 -21 49z" />
<glyph unicode="H" horiz-adv-x="1388" d="M197 0l299 1407l30 27h33l-139 -664h874l136 637l32 27h33l-305 -1434h-60l152 715h-874l-152 -715h-59z" />
<glyph unicode="I" horiz-adv-x="514" d="M225 0l299 1407l33 27h33l-305 -1434h-60z" />
<glyph unicode="J" horiz-adv-x="659" d="M39 -264l12 55h105q55 0 92 33l82 65q37 37 47 78l299 1411h-287l6 29l31 27h322l-318 -1489q-6 -31 -16.5 -47.5t-34.5 -36.5l-107 -88q-29 -23 -45 -30t-43 -7h-145z" />
<glyph unicode="K" horiz-adv-x="1198" d="M199 0l299 1407l32 27h33l-178 -834l911 834h19l20 -25l-704 -653l477 -731l-31 -25h-16l-479 711l-215 -199l-109 -512h-59z" />
<glyph unicode="L" horiz-adv-x="1038" d="M211 27l293 1380l33 27h32l-293 -1379h691l-11 -55h-725z" />
<glyph unicode="M" horiz-adv-x="1839" d="M172 0l299 1407l33 27h229l154 -1377h82l739 1377h227l23 -27l-299 -1407h-60l293 1378h-155l-736 -1378h-174l-147 1378h-156l-293 -1378h-59z" />
<glyph unicode="N" horiz-adv-x="1366" d="M186 0l299 1407l33 27h195l293 -1379h124l293 1379h60l-299 -1407l-33 -27h-201l-284 1378h-127l-293 -1378h-60z" />
<glyph unicode="O" horiz-adv-x="1357" d="M215 268q0 14 4 35l176 827q10 51 51 84l224 185q29 23 44 29t44 6h452q29 0 42.5 -6.5t31.5 -28.5l146 -185q20 -25 20 -49q0 -14 -6 -35l-174 -827q-12 -51 -51 -84l-226 -184q-27 -23 -43 -29t-43 -6h-454q-27 0 -40.5 6t-31.5 29l-145 184q-20 25 -21 49zM283 307 q0 -33 18 -59l129 -160q25 -33 76 -33h373q49 0 88 33l196 160q43 35 51 78l166 782q2 8 2 18q0 35 -18 60l-129 160q-24 32 -73 32h-3h-373q-49 0 -88 -32l-198 -160q-41 -35 -49 -78l-166 -782q-2 -8 -2 -19z" />
<glyph unicode="P" horiz-adv-x="1202" d="M201 0l299 1407l32 27h631q29 0 42.5 -6.5t29.5 -28.5l72 -90q18 -25 18 -49q0 -14 -4 -35l-78 -367q-10 -51 -51 -84l-109 -90q-27 -23 -43 -29t-43 -6h-600l-137 -649h-59zM410 705h559q49 0 88 32l82 66q41 35 49 78l69 321q2 8 3 19q-1 34 -21 59l-51 66 q-26 32 -73 32h-3h-559z" />
<glyph unicode="Q" horiz-adv-x="1400" d="M211 270q0 14 4 37l176 823q10 51 51 84l224 185q18 16 30.5 23.5t25 9.5t32.5 2h452q29 0 42.5 -6.5t29.5 -28.5l147 -185q18 -25 19 -49q0 -12 -4 -35l-174 -823q-12 -53 -52 -86l-98 -80l160 -204l-23 -19h-30l-148 188l-86 -69q-27 -20 -43 -27.5t-45 -7.5h-452 q-29 0 -42.5 7t-29.5 28l-146 184q-20 25 -20 49zM279 309q0 -33 18 -57l129 -162q25 -33 74 -33h374q49 0 89 33l196 162q41 33 51 78l166 778q2 10 2 20q0 33 -20 58l-127 162q-26 30 -73 30h-3h-373q-51 0 -90 -30l-196 -162q-41 -35 -52 -78l-163 -778q-2 -10 -2 -21z " />
<glyph unicode="R" horiz-adv-x="1239" d="M199 0l299 1407l32 27h631q29 0 42.5 -6.5t31.5 -28.5l70 -90q20 -25 20 -49q0 -14 -6 -35l-70 -328q-10 -51 -51 -84l-108 -90q-35 -29 -64 -33h-82l174 -657l-41 -33h-16l-180 690h-475l-148 -690h-59zM416 743h559q51 0 88 31l82 68q41 35 51 78l59 282q2 8 2 19 q0 34 -18 59l-53 66q-26 32 -73 32h-3h-559z" />
<glyph unicode="S" horiz-adv-x="1120" d="M123 18l8 37h565q72 0 125 45l115 95q59 47 72 106l28 137q2 10 2 23q0 63 -57 96l-614 352q-37 20 -37 60q0 16 4 39l28 131q8 45 22.5 69.5t47.5 51.5l154 124q27 23 43 32t32.5 13.5t43.5 4.5h516l14 -19l-8 -37h-498q-72 0 -127 -45l-113 -96q-57 -49 -69 -107 l-19 -86q-2 -10 -2 -20q0 -66 58 -96l563 -322q80 -45 80 -125q0 -20 -4 -43l-29 -137q-10 -45 -31.5 -76.5t-64.5 -70.5l-115 -93q-74 -61 -172 -61h-547z" />
<glyph unicode="T" horiz-adv-x="1130" d="M369 1378l6 29l33 27h927l21 -27l-6 -29h-461l-293 -1378h-59l292 1378h-460z" />
<glyph unicode="U" horiz-adv-x="1341" d="M238 174q0 14 4 35l254 1198l32 27h33l-256 -1203q-2 -8 -2 -18q0 -35 21 -59l53 -66q25 -33 74 -33h471q51 0 90 33l80 66q41 35 51 77l250 1176l30 27h35l-262 -1225q-10 -51 -49 -84l-111 -90q-27 -23 -42 -29t-44 -6h-551q-29 0 -42 6t-29 29l-72 90q-18 25 -18 49z " />
<glyph unicode="V" horiz-adv-x="1239" d="M381 1413l47 21h16l115 -1379h141l701 1379h14l41 -21l-729 -1413h-219z" />
<glyph unicode="W" horiz-adv-x="2019" d="M354 1413l52 21h12l49 -1381h123l616 1381h217l31 -1379h123l635 1379h12l41 -21l-657 -1413h-207l-41 1378h-113l-626 -1378h-209z" />
<glyph unicode="X" horiz-adv-x="1144" d="M94 29l596 692l-303 684l35 29h14l301 -678l576 678h18l25 -29l-596 -694l303 -682l-35 -29h-16l-297 676l-582 -676h-14z" />
<glyph unicode="Y" horiz-adv-x="1193" d="M387 1415l43 19h21l172 -836h200l529 836h18l37 -19l-565 -872h-101l-114 -543h-62l117 543h-100z" />
<glyph unicode="Z" horiz-adv-x="1173" d="M123 27l41 192l1061 1012l32 147h-802l6 29l33 27h806l23 -27l-43 -197l-1061 -1011l-31 -144h879l-6 -28l-33 -27h-883z" />
<glyph unicode="[" horiz-adv-x="526" d="M74 -246l379 1780l32 27h248l-6 -31l-35 -29h-182l-365 -1714h183l22 -27l-6 -32h-248z" />
<glyph unicode="\" horiz-adv-x="782" d="M438 1434h45l166 -1434h-45z" />
<glyph unicode="]" horiz-adv-x="526" d="M68 -272l8 32l33 27h184l364 1714h-184l-22 29l8 31h248l20 -27l-377 -1780l-35 -26h-247z" />
<glyph unicode="^" horiz-adv-x="1228" d="M233 565l607 869h157l236 -869l-53 -22l-226 833h-96l-579 -833z" />
<glyph unicode="_" horiz-adv-x="1163" d="M43 -274l8 41h957l-9 -41h-956z" />
<glyph unicode="`" horiz-adv-x="501" d="M436 1479l64 49l155 -244l-41 -31z" />
<glyph unicode="a" horiz-adv-x="989" d="M152 182q0 14 6 37l26 127q10 53 54 88l127 105q20 16 32.5 23t25.5 10t34 3h477l45 213q2 10 2 21q0 33 -18 57l-64 78q-25 33 -74 33h-444l6 31l21 16h454q31 0 45.5 -7t32.5 -30l80 -102q20 -27 20 -54q0 -14 -4 -36l-168 -795h-49l4 115l-213 -92q-55 -23 -106 -23 h-182q-29 0 -43.5 7t-32.5 30l-74 92q-20 27 -20 53zM213 205q0 -33 18 -58l54 -67q27 -33 75 -33h156q35 0 68 14l264 113l76 354h-449q-49 0 -88 -30l-98 -82q-41 -33 -49 -76l-27 -115v-20z" />
<glyph unicode="b" horiz-adv-x="1011" d="M182 182q0 14 4 37l263 1233l20 16h41l-129 -598l315 134q45 18 90 18h123q20 0 32.5 -2t22 -10.5t21.5 -24.5l74 -92q20 -27 20 -53q0 -14 -4 -35l-125 -586q-12 -55 -55 -90l-111 -92q-29 -23 -46 -30t-46 -7h-340q-29 0 -43 7t-33 30l-73 92q-20 27 -21 53zM242 205 q0 -33 20 -58l53 -69q25 -31 76 -31h283q49 0 88 31l84 69q41 33 49 76l123 576q2 10 2 18q-1 32 -21 57l-53 70q-25 31 -70 31h-6h-88q-37 0 -69 -14l-342 -146l-127 -592q-2 -10 -2 -18z" />
<glyph unicode="c" horiz-adv-x="909" d="M154 182q0 14 4 37l125 586q10 55 53 90l113 92q29 23 46 30t46 7h356q31 0 45 -7t33 -30l26 -35l-45 -37l-22 29q-25 33 -74 33h-301q-49 0 -88 -33l-84 -67q-41 -35 -49 -78l-123 -574q-2 -10 -2 -20q0 -33 18 -58l56 -67q25 -33 73 -33h302q51 0 88 33l36 29l29 -37 l-43 -35q-27 -23 -44 -30t-48 -7h-356q-31 0 -45.5 7t-32.5 30l-72 92q-20 27 -20 53z" />
<glyph unicode="d" horiz-adv-x="1007" d="M152 182q0 14 4 37l123 574q12 55 55 90l125 102q20 16 33.5 24.5t26.5 10.5t34 2h475l96 446h41l13 -14l-310 -1454h-49l4 115l-213 -92q-53 -23 -106 -23h-182q-29 0 -43.5 7t-32.5 30l-74 92q-20 27 -20 53zM211 205q0 -33 20 -58l54 -69q27 -31 75 -31h154 q37 0 70 14l264 113l172 801h-451q-49 0 -88 -31l-98 -80q-41 -35 -49 -78l-121 -563q-2 -10 -2 -18z" />
<glyph unicode="e" horiz-adv-x="960" d="M158 219l123 586q12 55 55 90l110 92q29 23 46.5 30t48.5 7h327q29 0 43.5 -7t32.5 -30l74 -92q20 -27 20 -53q0 -14 -4 -37l-61 -287l-21 -16h-680l-57 -277q-2 -10 -2 -20q0 -33 18 -58l56 -67q25 -33 73 -33h273q49 0 88 33l35 29l28 -37l-41 -35q-29 -23 -46 -30 t-48 -7h-325q-31 0 -45.5 7t-32.5 30l-72 92q-22 26 -22 51q0 16 6 39zM283 549h641l53 250q2 10 2 20q-1 33 -21 58l-53 67q-27 33 -76 33h-272q-49 0 -88 -33l-82 -67q-41 -35 -51 -78z" />
<glyph unicode="f" horiz-adv-x="626" d="M248 0l209 977h-178l6 33l20 14h162l39 190q12 55 55 91l111 92q29 23 46 30t48 7h80l12 -17l-6 -31h-70q-49 0 -88 -30l-82 -70q-41 -33 -51 -76l-39 -186h230l-9 -47h-231l-207 -977h-57z" />
<glyph unicode="g" horiz-adv-x="1011" d="M102 -354l9 32h444q47 0 84 29l100 82q39 31 49 74l62 291l-313 -134q-47 -20 -93 -20h-122q-29 0 -43.5 7t-32.5 30l-74 92q-18 25 -18 59q0 20 6 50l125 585q2 8 4 15.5t5 13.5t4 9t7 8t7 7.5t10.5 8.5t13.5 10l110 92q29 23 46.5 30t48.5 7h338q29 0 44 -7t33 -30 l72 -92q20 -27 21 -53q0 -14 -5 -37l-200 -946q-12 -53 -56 -90l-124 -103q-14 -12 -24.5 -18t-21 -10.5t-20.5 -5.5t-27 -1h-454zM211 205q0 -33 20 -58l54 -67q27 -33 75 -33h91q35 0 67 14l342 148l127 592q2 8 2 18q0 33 -20 58l-54 69q-25 31 -73 31h-285 q-49 0 -88 -31l-84 -69q-39 -33 -49 -76l-123 -576q-2 -10 -2 -20z" />
<glyph unicode="h" horiz-adv-x="1042" d="M150 0l307 1452l20 16h39l-127 -598l316 134q45 18 90 18h123q29 0 43 -6t32 -31l74 -92q20 -27 20 -53q0 -14 -4 -35l-172 -805h-55l170 799q2 10 2 18q0 33 -20 57l-54 70q-25 31 -70 31h-5h-88q-37 0 -70 -14l-342 -146l-174 -815h-55z" />
<glyph unicode="i" horiz-adv-x="436" d="M195 0l217 1024h55l-217 -1024h-55zM457 1305l20 96h86l-20 -96h-86z" />
<glyph unicode="j" horiz-adv-x="444" d="M-70 -371l11 47h18q43 0 86 31l86 72q39 31 49 76l250 1169h55l-249 -1176q-12 -53 -56 -90l-110 -92q-29 -23 -46.5 -30t-46.5 -7h-47zM473 1305l21 96h88l-21 -96h-88z" />
<glyph unicode="k" horiz-adv-x="1003" d="M150 0l309 1452l20 16h39l-196 -923l716 479h41l15 -18l-600 -400l440 -583l-29 -23h-35l-417 580l-144 -97l-102 -483h-57z" />
<glyph unicode="l" horiz-adv-x="552" d="M213 184q0 14 4 35l262 1233l21 16h39l-265 -1245q-2 -8 -2 -18q0 -33 21 -55l55 -72q27 -31 72 -31h65l-10 -47h-92q-29 0 -43 7t-35 30l-72 90q-20 29 -20 57z" />
<glyph unicode="m" horiz-adv-x="1626" d="M111 0l217 1024h45l-4 -131l260 111q47 20 92 20h129q20 0 32.5 -3t21.5 -10t24 -24l84 -108l295 125q47 20 92 20h129q31 0 45 -7t33 -30l71 -92q20 -27 21 -53q0 -14 -4 -37l-172 -805h-56l170 799q2 10 2 20q0 33 -20 58l-53 67q-25 33 -74 33h-96q-37 0 -70 -14 l-303 -129l-178 -834h-56l170 799q2 10 3 20q0 33 -21 58l-53 67q-25 33 -74 33h-96q-37 0 -70 -14l-303 -132l-178 -831h-55z" />
<glyph unicode="n" horiz-adv-x="1038" d="M139 0l217 1024h43l-6 -147l299 127q47 20 92 20h129q31 0 45.5 -7t32.5 -30l72 -92q20 -27 20 -53q0 -14 -4 -37l-172 -805h-55l170 799q2 10 2 20q0 33 -18 58l-56 67q-25 33 -73 33h-97q-37 0 -69 -14l-342 -148l-174 -815h-56z" />
<glyph unicode="o" horiz-adv-x="997" d="M150 182q0 14 4 37l125 586q10 55 53 90l112 92q29 23 46.5 30t46.5 7h356q31 0 45 -7t33 -30l71 -92q20 -27 21 -53q0 -14 -4 -37l-125 -586q-10 -55 -53 -90l-113 -92q-27 -23 -44 -30t-48 -7h-357q-31 0 -45 7t-32 30l-72 92q-20 27 -20 53zM209 205q0 -33 18 -58 l56 -67q25 -33 73 -33h301q51 0 88 33l84 67q41 35 52 78l120 574q2 10 3 20q-1 33 -19 58l-55 67q-25 33 -74 33h-301q-49 0 -88 -33l-84 -67q-41 -35 -49 -78l-123 -574q-2 -10 -2 -20z" />
<glyph unicode="p" horiz-adv-x="1021" d="M72 -369l297 1393h43l-6 -147l301 127q47 20 90 20h123q20 0 32.5 -3t21.5 -10t23 -24l72 -92q20 -27 21 -53q0 -14 -5 -37l-124 -586q-12 -55 -54 -90l-112 -92q-20 -16 -32.5 -23.5t-26 -10.5t-34.5 -3h-495l-74 -352l-20 -17h-41zM217 47h467q49 0 88 33l84 67 q41 35 49 78l123 576q2 8 2 18q0 33 -20 58l-54 67q-25 33 -73 33h-90q-37 0 -70 -14l-342 -148z" />
<glyph unicode="q" horiz-adv-x="1011" d="M152 182q0 14 4 37l125 586q12 55 55 90l110 92q29 23 46.5 30t48.5 7h338q20 0 32.5 -3t21.5 -10t23 -24l72 -92q20 -27 21 -53q0 -14 -5 -37l-245 -1157l-21 -17h-39l111 523l-313 -134q-47 -20 -93 -20h-122q-29 0 -43.5 7t-32.5 30l-74 92q-20 27 -20 53zM211 205 q0 -33 20 -58l54 -67q27 -33 75 -33h91q35 0 67 14l342 148l127 592q2 8 2 18q0 33 -20 58l-54 69q-25 31 -73 31h-285q-49 0 -88 -31l-84 -69q-39 -35 -49 -76l-123 -576q-2 -10 -2 -20z" />
<glyph unicode="r" horiz-adv-x="651" d="M154 0l217 1024h32l-8 -227l324 213q23 14 80 14h14l-10 -47h-8q-49 0 -80 -19l-348 -221l-158 -737h-55z" />
<glyph unicode="s" horiz-adv-x="888" d="M117 16l6 31h420q49 0 88 33l84 67q41 35 49 78l14 70q2 6 2 14q0 47 -39 70l-450 258q-31 16 -31 49q0 10 4 25l19 94q12 55 55 90l111 92q29 23 46 30t48 7h381l12 -16l-6 -31h-371q-51 0 -88 -33l-84 -70q-39 -35 -49 -75l-12 -60q-2 -8 -2 -16q0 -45 38 -68l414 -235 q61 -35 62 -96q0 -14 -2 -29l-17 -70q-12 -61 -71 -110l-84 -70q-55 -45 -132 -45h-403z" />
<glyph unicode="t" horiz-adv-x="677" d="M276 977l7 31l20 16h162l51 250h57l-53 -250h252l-10 -47h-252l-160 -754q-2 -8 -2 -18q0 -33 19 -58l55 -69q25 -31 74 -31h69l-6 -31l-20 -16h-80q-31 0 -45.5 7t-32.5 30l-72 92q-20 27 -20 53q0 14 4 37l162 758h-179z" />
<glyph unicode="u" horiz-adv-x="1028" d="M170 182q0 14 4 37l172 805h55l-170 -799q-2 -10 -2 -20q0 -33 21 -58l53 -67q25 -33 76 -33h96q35 0 68 14l344 148l172 815h57l-219 -1024h-43l6 147l-299 -127q-47 -20 -92 -20h-129q-29 0 -44 7t-32 30l-74 92q-20 27 -20 53z" />
<glyph unicode="v" horiz-adv-x="1005" d="M279 1016l18 8h39l123 -977h106l537 977h39l16 -8l-565 -1016h-180z" />
<glyph unicode="w" horiz-adv-x="1654" d="M244 1010l35 14h26l47 -977h127l479 977h177l63 -977h127l463 977h24l29 -14l-493 -1010h-195l-72 977h-92l-487 -977h-193z" />
<glyph unicode="x" horiz-adv-x="929" d="M63 10l476 502l-265 502l25 10h39l246 -469l430 469h39l18 -10l-463 -502l262 -502l-24 -10h-39l-244 469l-442 -469h-39z" />
<glyph unicode="y" horiz-adv-x="1005" d="M154 -377q190 53 325 277l56 100h-121l-135 1016l20 8h39l127 -977h96l545 977h37l16 -8l-581 -1047q-4 -6 -23.5 -42t-35 -58.5t-44.5 -63.5t-59.5 -71.5t-69.5 -63t-88 -57.5t-104 -39v49z" />
<glyph unicode="z" horiz-adv-x="978" d="M113 16l39 179l825 669l22 113h-645l6 31l21 16h670l12 -16l-35 -160l-825 -672l-27 -129h703l-7 -31l-18 -16h-727z" />
<glyph unicode="{" horiz-adv-x="679" d="M256 637l14 70l224 137l106 499q12 52 51 87l174 141l37 -49l-153 -125q-41 -33 -50 -76l-106 -496l-244 -153l180 -152l-106 -495q-2 -10 -2 -21q0 -33 20 -57l99 -125l-58 -49l-112 145q-18 25 -19 49q0 12 4 35l107 498z" />
<glyph unicode="|" horiz-adv-x="329" d="M66 -301l393 1849h67l-393 -1849h-67z" />
<glyph unicode="}" horiz-adv-x="679" d="M100 -178l154 125q41 35 49 78l105 495l245 152l-180 153l107 496q2 8 2 18q0 33 -21 58l-100 125l59 49l111 -141q20 -27 20 -52q0 -14 -4 -35l-106 -499l166 -137l-15 -70l-223 -137l-107 -498q-8 -33 -18 -49t-35 -37l-172 -143z" />
<glyph unicode="~" horiz-adv-x="1161" d="M236 553q53 61 95 103t95 77t98 39q25 2 39 2q43 0 75 -19.5t97 -78.5q109 -102 193 -103q106 0 248 150l20 -16q-152 -215 -295 -215q-72 0 -139 55q-12 10 -47 38.5t-45.5 37t-36 27t-39.5 23.5t-35.5 11t-44.5 6q-27 0 -57 -8q-84 -18 -203 -145z" />
<glyph unicode="&#xa1;" d="M74 -334l82 389l155 641h31l-119 -643l-82 -387h-67zM338 991l24 109h101l-25 -109h-100z" />
<glyph unicode="&#xa2;" horiz-adv-x="909" d="M156 190q0 14 4 37l121 570q12 53 53 88l108 90q29 23 45.5 29t44.5 6h148l22 110h58l-25 -110h146q29 0 43 -6t32 -29l25 -35l-43 -35l-23 29q-23 31 -71 31h-119l-193 -906h119q49 0 86 31l35 29l27 -35l-39 -35q-29 -23 -45.5 -29t-44.5 -6h-146l-24 -110h-56l25 110 h-147q-20 0 -31.5 2t-22 10.5t-22.5 22.5l-70 90q-20 27 -20 51zM215 213q0 -31 18 -55l54 -68q23 -31 71 -31h119l193 906h-119q-49 0 -86 -31l-82 -68q-39 -33 -47 -73l-121 -562v-18z" />
<glyph unicode="&#xa3;" horiz-adv-x="1107" d="M164 170l115 92q41 35 51 78l73 352h-147l12 56h148l67 323q12 51 52 84l225 184q18 14 30.5 21.5t25 10.5t30.5 3h164q29 0 42 -6t31 -29l101 -127l-56 -45l-94 119q-27 33 -76 33h-84q-49 0 -88 -33l-196 -160q-41 -35 -51 -77l-64 -301h418l-6 -29l-33 -27h-391 l-80 -375q-10 -51 -51 -84l-70 -57q-4 -4 -4 -10q0 -2 2 -4l53 -70q27 -31 76 -31h623l-11 -55h-663q-29 0 -42 6t-32 29z" />
<glyph unicode="&#xa4;" horiz-adv-x="1392" />
<glyph unicode="&#xa5;" horiz-adv-x="1255" d="M301 283l12 55h355l45 207h-101l-37 160h-184l10 55h162l-145 653l43 19h18l174 -832h201l528 832h19l37 -19l-426 -653h164l-13 -55h-186l-105 -160h-100l-43 -207h356l-12 -55h-356l-62 -283h-59l61 283h-356z" />
<glyph unicode="&#xa6;" horiz-adv-x="329" d="M66 -301l137 653h69l-139 -653h-67zM319 895l140 653h67l-139 -653h-68z" />
<glyph unicode="&#xa7;" horiz-adv-x="868" d="M45 -231l6 32h420q49 0 88 31l84 70q41 33 49 75l17 70q2 8 2 16q0 45 -39 68l-453 258q-29 18 -29 49q0 12 3 27l20 94q12 53 53 88l113 92q31 27 51 33l-115 68q-31 16 -30 49q0 10 4 24l20 95q10 55 53 90l111 92q16 12 26.5 19.5t20.5 11.5t20.5 5t26.5 1h381l13 -17 l-7 -30h-370q-49 0 -88 -33l-84 -70q-39 -33 -50 -76l-12 -59q-2 -8 -2 -16q0 -45 39 -68l414 -235q61 -35 61 -97q0 -14 -2 -28l-16 -70q-12 -61 -72 -111l-84 -69q-27 -20 -57 -33l74 -41q63 -35 63 -98q0 -12 -4 -29l-14 -70q-12 -59 -74 -108l-84 -70q-55 -45 -129 -45 h-406zM254 477q0 -47 39 -69l276 -158q49 2 86 33l84 67q41 35 49 78l15 70q2 8 2 14q0 47 -39 70l-260 149h-19q-49 0 -88 -33l-84 -69q-39 -35 -47 -78l-14 -59v-15z" />
<glyph unicode="&#xa8;" horiz-adv-x="686" d="M391 1356l19 84h84l-19 -84h-84zM788 1356l19 84h84l-19 -84h-84z" />
<glyph unicode="&#xa9;" horiz-adv-x="1597" d="M254 571q0 72 14 146q41 186 166 345t301.5 250t360.5 91q244 0 397.5 -153.5t153.5 -387.5q0 -72 -17 -145q-39 -188 -164 -346t-301 -250t-362 -92q-242 0 -395.5 153.5t-153.5 388.5zM305 582q0 -217 142.5 -359.5t367.5 -142.5q258 0 483.5 186.5t280.5 450.5 q14 68 14 133q0 217 -142.5 359.5t-365.5 142.5q-260 0 -484 -186.5t-282 -448.5q-14 -68 -14 -135zM616 475q0 10 2 23l95 438q6 33 30 53l121 98q29 25 56 25h213q29 0 45 -25l61 -75l-43 -37l-61 78q-6 8 -11 8h-2h-213h-1h-3t-12 -8l-121 -99q-6 -6 -8 -18l-94 -438 q0 -4 -2 -9v-4q0 -2 4 -6l78 -100q6 -6 10 -6h2h213h3h1q2 0 12 6l94 78l29 -35l-94 -78q-29 -23 -55 -22h-213q-27 0 -45 22l-78 98q-12 14 -13 33z" />
<glyph unicode="&#xaa;" horiz-adv-x="667" d="M313 956q0 10 2 25l17 72q6 37 35 59l71 59q31 25 60 25h268l25 115q2 4 2 8q0 14 -13 29l-35 45q-12 16 -38 16h-265l9 33l16 12h264q31 0 49 -24l47 -60q12 -14 13 -35q0 -8 -2 -22l-101 -469h-39l2 65l-114 -51q-35 -14 -66 -14h-104q-29 0 -49 24l-41 54 q-12 16 -13 34zM360 975q0 -16 11 -29l32 -41q12 -14 39 -14h88q20 0 37 6l150 64l41 190h-254q-27 0 -45 -16l-58 -48q-20 -16 -24 -36l-15 -68q-2 -4 -2 -8z" />
<glyph unicode="&#xab;" horiz-adv-x="1036" d="M201 444l39 187l413 321l19 -24l-404 -391l238 -390l-29 -24zM651 444l39 187l414 321l18 -24l-403 -391l237 -390l-28 -24z" />
<glyph unicode="&#xac;" horiz-adv-x="1392" />
<glyph unicode="&#xad;" horiz-adv-x="819" d="M236 569l14 64h590l-15 -64h-589z" />
<glyph unicode="&#xae;" horiz-adv-x="1597" d="M254 571q0 72 14 146q41 186 166 345t301.5 250t360.5 91q244 0 397.5 -153.5t153.5 -387.5q0 -72 -17 -145q-39 -188 -164 -346t-301 -250t-362 -92q-242 0 -395.5 153.5t-153.5 388.5zM305 582q0 -217 142.5 -359.5t367.5 -142.5q258 0 483.5 186.5t280.5 450.5 q14 68 14 133q0 217 -142.5 359.5t-365.5 142.5q-260 0 -484 -186.5t-282 -448.5q-14 -68 -14 -135zM627 322l164 768l26 22h342q27 0 45 -22l37 -50q12 -14 12 -32q0 -8 -2 -21l-37 -174q-8 -33 -32 -55l-58 -47q-29 -23 -37 -23h-30l90 -338l-35 -28h-22l-91 366h-241 l-78 -366h-53zM770 743h313q4 0 15 11l59 47q6 6 10 24l33 150q2 12 2 14q0 4 -4 8l-37 50q-8 8 -10 8h-2h-313z" />
<glyph unicode="&#xaf;" horiz-adv-x="710" d="M406 1423l14 68h506l-15 -68h-505z" />
<glyph unicode="&#xb0;" horiz-adv-x="743" d="M360 1284q0 29 9 59q25 121 128 206t224 85q102 0 167.5 -64.5t65.5 -164.5q0 -29 -6 -62q-25 -119 -128 -203.5t-224 -84.5q-102 0 -169 64.5t-67 164.5zM418 1298q0 -31 9 -59.5t26.5 -52t40 -41t52 -26.5t62.5 -9q61 0 123 32t106 86t56 115q6 25 6 48q0 80 -54 134 t-136 54q-94 0 -180.5 -69.5t-104.5 -166.5q-6 -23 -6 -45z" />
<glyph unicode="&#xb1;" horiz-adv-x="1081" d="M106 10l13 64h872l-14 -64h-871zM258 725l12 63h404l74 345h63l-74 -345h406l-15 -63h-405l-72 -346h-63l74 346h-404z" />
<glyph unicode="&#xb2;" horiz-adv-x="735" d="M219 532l49 232q14 74 94 110l361 166q47 23 55 60l19 86q2 8 2 14q0 23 -15 41l-39 47q-27 33 -55 33h-141q-41 0 -68 -23l-51 -43l-27 33l56 47q39 33 78 33h176q18 0 27.5 -3t18.5 -9t19 -21l53 -67q16 -23 17 -47q0 -14 -4 -33l-21 -94q-12 -61 -57 -80l-395 -183 q-47 -20 -56 -59l-41 -194h476l-7 -29l-20 -17h-504z" />
<glyph unicode="&#xb3;" horiz-adv-x="694" d="M242 582l39 32l16 -20q12 -16 39 -16h225q27 0 45 16l49 39q20 18 25 37l41 188v8q0 14 -10 29l-58 74q-12 14 -39 16h-190l10 45h203q27 0 45 17l68 55q20 18 24 37l19 90q2 4 2 8q0 16 -11 29l-32 41q-12 14 -39 14h-211q-27 0 -45 -14l-27 -23l-27 33l33 26 q29 25 60 25h243q29 0 49 -25l41 -53q12 -16 13 -35q0 -10 -2 -24l-21 -94q-8 -35 -35 -60l-92 -76l66 -81q12 -16 12 -37q0 -8 -4 -23l-39 -192q-8 -37 -35 -60l-65 -51q-29 -25 -60 -25h-256q-31 0 -49 25z" />
<glyph unicode="&#xb4;" horiz-adv-x="501" d="M393 1284l258 244l43 -49l-274 -226z" />
<glyph unicode="&#xb6;" horiz-adv-x="997" d="M297 866q0 14 6 35l68 322q10 51 51 86l108 90q29 23 45.5 29t45.5 6h544l21 -29l-348 -1641h-64l342 1610h-280l-342 -1610h-64l197 926h-164q-29 0 -43 7.5t-31 29.5l-72 88q-20 27 -20 51z" />
<glyph unicode="&#xb7;" d="M244 543l22 108h101l-23 -108h-100z" />
<glyph unicode="&#xb8;" horiz-adv-x="538" d="M115 -344l8 41h100q39 0 76 30.5t45 73.5q4 14 4 27q0 37 -24.5 54.5t-55.5 19.5h-12q-29 0 -100 -27l-35 45l67 96h70l-59 -79q31 8 77 8q41 -2 71 -17.5t43 -39t13 -54.5q0 -16 -4 -33q-6 -31 -21.5 -56.5t-39 -46t-55 -31.5t-68.5 -11h-100z" />
<glyph unicode="&#xb9;" horiz-adv-x="491" d="M383 1268l20 30l199 70h45l17 -22l-172 -814h-48l168 785l-225 -78z" />
<glyph unicode="&#xba;" horiz-adv-x="681" d="M313 956q0 10 4 25l72 338q8 37 35 57l63 54q31 24 60 24h207q29 0 49 -24l41 -54q12 -14 12 -35q0 -10 -2 -22l-72 -338q-8 -37 -34 -59l-66 -54q-29 -25 -57 -24h-207q-31 0 -49 24l-41 54q-14 16 -15 34zM362 975q0 -16 11 -29l30 -41q12 -14 39 -14h176q25 0 46 14 l47 41q23 16 26 37l70 332q2 6 2 10q0 15 -10 29l-33 39q-12 16 -39 16h-174q-27 0 -45 -16l-47 -39q-23 -18 -27 -39l-69 -332q-2 -4 -3 -8z" />
<glyph unicode="&#xbb;" horiz-adv-x="1036" d="M141 147l404 390l-238 391l29 24l276 -321l-39 -187l-413 -321zM592 147l403 392l-237 389l28 24l277 -321l-39 -187l-414 -321z" />
<glyph unicode="&#xbc;" horiz-adv-x="1542" d="M240 -35l1288 1469h67l-1288 -1469h-67zM360 1278l23 33l199 67h43l18 -22l-174 -813h-45l166 784l-225 -78zM961 227l10 39l413 570h105l18 -21l-121 -565h119l-6 -23l-26 -22h-95l-45 -205h-45l43 205h-352zM1014 250h327l113 534h-51z" />
<glyph unicode="&#xbd;" horiz-adv-x="1691" d="M238 -35l1288 1469h67l-1288 -1469h-67zM360 1278l21 33l199 67h45l16 -22l-172 -813h-47l168 784l-225 -78zM1085 0l50 233q16 72 94 109l362 166q45 23 54 61l18 84q2 8 2 15q0 23 -14 41l-39 47q-27 35 -56 35h-141q-41 0 -67 -25l-52 -43l-26 35l55 45q39 33 78 33 h176q25 0 37 -6.5t29 -26.5l53 -68q16 -20 16 -47q0 -12 -4 -31l-20 -94q-12 -61 -58 -82l-395 -180q-47 -23 -55 -61l-41 -195h477l-8 -29l-19 -16h-506z" />
<glyph unicode="&#xbe;" horiz-adv-x="1646" d="M223 594l39 33l17 -23q12 -14 38 -14h226q27 0 45 14l49 41q20 16 25 37l38 186q2 4 2 11q0 14 -10 26l-57 74q-12 16 -39 16h-190l10 45h200q29 0 48 17l65 57q23 16 27 37l18 88v10q0 14 -10 29l-31 39q-12 16 -39 16h-211q-27 0 -47 -16l-24 -21l-27 33l33 25 q28 24 59 24h244q29 0 47 -24l43 -54q12 -14 12 -34q0 -10 -2 -23l-20 -96q-8 -35 -35 -57l-92 -78l63 -82q14 -16 15 -35q0 -10 -4 -23l-41 -194q-8 -35 -35 -57l-64 -54q-31 -25 -59 -24h-256q-31 0 -49 24zM346 -35l1288 1469h68l-1288 -1469h-68zM1069 227l8 39l414 570 h106l17 -21l-119 -565h117l-4 -23l-27 -22h-96l-43 -205h-47l45 205h-355zM1122 250h326l115 534h-52z" />
<glyph unicode="&#xbf;" horiz-adv-x="956" d="M92 -98q0 18 6 49l37 172q20 92 68 115l286 131q39 16 67 49t34 65l45 211h57l-47 -211q-23 -113 -149 -172l-209 -96q-39 -18 -66.5 -51t-34.5 -64l-32 -145q-2 -12 -2 -25q0 -43 26 -77l74 -95q14 -18 44 -31.5t60 -13.5h195q68 0 125 45l76 64l30 -39l-82 -68 q-39 -33 -61.5 -41t-60.5 -8h-267q-29 0 -44 3t-28.5 13.5t-29.5 32.5l-90 115q-27 35 -27 72zM674 989l24 111h101l-23 -111h-102z" />
<glyph unicode="&#xc0;" horiz-adv-x="1288" d="M82 20l756 1414h221l155 -1414l-47 -20h-16l-51 500h-699l-264 -500h-16zM430 555h664l-84 823h-146zM934 1960l63 49l154 -244l-41 -30z" />
<glyph unicode="&#xc1;" horiz-adv-x="1288" d="M82 20l756 1414h221l155 -1414l-47 -20h-16l-51 500h-699l-264 -500h-16zM430 555h664l-84 823h-146zM889 1765l258 244l43 -49l-272 -225z" />
<glyph unicode="&#xc2;" horiz-adv-x="1288" d="M82 20l756 1414h221l155 -1414l-47 -20h-16l-51 500h-699l-264 -500h-16zM430 555h664l-84 823h-146zM741 1765l279 265h113l167 -265l-40 -30l-193 245l-299 -245z" />
<glyph unicode="&#xc3;" horiz-adv-x="1288" d="M82 20l756 1414h221l155 -1414l-47 -20h-16l-51 500h-699l-264 -500h-16zM430 555h664l-84 823h-146zM707 1868q135 156 211 162h28q31 0 54.5 -13.5t70.5 -58.5q76 -72 135 -72q74 0 178 111l21 -17q-111 -160 -213 -159q-51 0 -102 41q-18 16 -46 40.5t-40.5 35 t-33 18.5t-40.5 8q-18 0 -41 -4q-74 -17 -162 -111z" />
<glyph unicode="&#xc4;" horiz-adv-x="1288" d="M82 20l756 1414h221l155 -1414l-47 -20h-16l-51 500h-699l-264 -500h-16zM430 555h664l-84 823h-146zM797 1839l16 84h84l-16 -84h-84zM1192 1839l18 84h84l-18 -84h-84z" />
<glyph unicode="&#xc5;" horiz-adv-x="1288" d="M82 20l756 1414h221l155 -1414l-47 -20h-16l-51 500h-699l-264 -500h-16zM430 555h664l-84 823h-146zM872 1882q0 20 5 41q16 78 79.5 130t137.5 52q61 0 101 -40t40 -101q0 -20 -4 -41q-16 -78 -80 -130t-135 -52q-43 0 -75 17.5t-50.5 50t-18.5 73.5zM928 1896 q0 -43 26.5 -72.5t71.5 -29.5q35 0 67.5 18.5t54 48t30.5 62.5q2 14 2 27q0 43 -27 72.5t-72 29.5q-51 0 -95 -39t-54 -90q-4 -14 -4 -27z" />
<glyph unicode="&#xc6;" horiz-adv-x="1581" d="M80 23l756 1411h907l22 -29l-6 -35h-735l-131 -622h610l-14 -62h-610l-97 -450q-2 -8 -2 -19q0 -33 21 -55l51 -68q25 -31 74 -31h555l-8 -34l-35 -29h-566q-29 0 -43 7t-32 30l-70 88q-20 27 -20 53q0 14 4 35l59 279h-367l-260 -492h-20zM436 555h348l172 815h-90z" />
<glyph unicode="&#xc7;" horiz-adv-x="1200" d="M219 268q0 14 6 35l174 827q12 51 52 84l225 185q27 23 43 29t43 6h397q29 0 42 -6.5t32 -28.5l100 -127l-55 -45l-94 119q-27 33 -76 32h-317q-49 0 -89 -32l-196 -160q-43 -35 -51 -78l-166 -782q-2 -8 -2 -19q0 -33 18 -59l129 -160q27 -33 76 -33h317q49 0 88 33 l148 119l35 -45l-156 -127q-27 -23 -43 -29t-43 -6h-278l-52 -70q31 8 78 9q61 -4 94 -34t33 -77q0 -16 -4 -33q-6 -31 -21.5 -56.5t-39 -46t-55 -31.5t-68.5 -11h-101l9 41h100q25 0 50.5 14t46 38t24.5 52q4 14 4 27q0 37 -23.5 54.5t-56.5 19.5h-14q-35 0 -99 -27l-34 45 l59 86h-49q-29 0 -42.5 6t-31.5 29l-145 184q-20 25 -21 49z" />
<glyph unicode="&#xc8;" horiz-adv-x="1067" d="M193 174q0 14 6 35l215 1016q10 51 51 84l108 90q27 23 43.5 29t45.5 6h563l20 -27l-4 -29h-553q-49 0 -88 -32l-82 -66q-41 -35 -49 -78l-98 -459h610l-10 -53h-611l-98 -459q-2 -10 -2 -18q0 -35 21 -59l51 -66q27 -33 76 -33h550l-6 -28l-32 -27h-564q-29 0 -42 6 t-29 29l-72 90q-20 25 -20 49zM872 1960l64 49l154 -244l-39 -30z" />
<glyph unicode="&#xc9;" horiz-adv-x="1067" d="M193 174q0 14 6 35l215 1016q10 51 51 84l108 90q27 23 43.5 29t45.5 6h563l20 -27l-4 -29h-553q-49 0 -88 -32l-82 -66q-41 -35 -49 -78l-98 -459h610l-10 -53h-611l-98 -459q-2 -10 -2 -18q0 -35 21 -59l51 -66q27 -33 76 -33h550l-6 -28l-32 -27h-564q-29 0 -42 6 t-29 29l-72 90q-20 25 -20 49zM829 1765l258 244l43 -49l-274 -225z" />
<glyph unicode="&#xca;" horiz-adv-x="1067" d="M193 174q0 14 6 35l215 1016q10 51 51 84l108 90q27 23 43.5 29t45.5 6h563l20 -27l-4 -29h-553q-49 0 -88 -32l-82 -66q-41 -35 -49 -78l-98 -459h610l-10 -53h-611l-98 -459q-2 -10 -2 -18q0 -35 21 -59l51 -66q27 -33 76 -33h550l-6 -28l-32 -27h-564q-29 0 -42 6 t-29 29l-72 90q-20 25 -20 49zM680 1765l278 265h115l166 -265l-41 -30l-192 245l-299 -245z" />
<glyph unicode="&#xcb;" horiz-adv-x="1067" d="M193 174q0 14 6 35l215 1016q10 51 51 84l108 90q27 23 43.5 29t45.5 6h563l20 -27l-4 -29h-553q-49 0 -88 -32l-82 -66q-41 -35 -49 -78l-98 -459h610l-10 -53h-613l-96 -459q-2 -10 -2 -18q0 -35 21 -59l51 -66q27 -33 76 -33h550l-6 -28l-32 -27h-564q-29 0 -42 6 t-29 29l-72 90q-20 25 -20 49zM735 1839l19 84h84l-19 -84h-84zM1130 1839l19 84h84l-19 -84h-84z" />
<glyph unicode="&#xcc;" horiz-adv-x="514" d="M225 0l299 1407l33 27h33l-305 -1434h-60zM545 1960l63 49l154 -244l-41 -30z" />
<glyph unicode="&#xcd;" horiz-adv-x="514" d="M225 0l299 1407l33 27h33l-305 -1434h-60zM500 1765l258 244l43 -49l-273 -225z" />
<glyph unicode="&#xce;" horiz-adv-x="514" d="M225 0l299 1407l33 27h33l-305 -1434h-60zM352 1765l279 265h112l168 -265l-41 -30l-192 245l-299 -245z" />
<glyph unicode="&#xcf;" horiz-adv-x="514" d="M225 0l299 1407l33 27h33l-305 -1434h-60zM408 1839l16 84h84l-16 -84h-84zM803 1839l18 84h84l-18 -84h-84z" />
<glyph unicode="&#xd0;" horiz-adv-x="1366" d="M217 686l14 62h193l139 657l37 29h617q29 0 43 -7.5t30 -29.5l148 -185q20 -25 20 -51q0 -14 -6 -35l-174 -819q-10 -53 -51 -86l-226 -184q-27 -23 -44 -30t-46 -7h-645l146 686h-195zM346 63h539q47 0 86 31l196 162q39 33 50 74l163 774q2 8 2 18q0 33 -18 56 l-129 161q-25 31 -72 31h-538l-133 -622h329l-14 -62h-328z" />
<glyph unicode="&#xd1;" horiz-adv-x="1366" d="M186 0l299 1407l31 27h197l293 -1379h124l293 1379h60l-299 -1407l-33 -27h-201l-284 1378h-127l-293 -1378h-60zM743 1868q135 156 211 162h29q31 0 54.5 -13.5t70.5 -58.5q76 -72 135 -72q74 0 178 111l21 -17q-111 -160 -213 -159q-53 0 -103 41q-16 12 -33.5 28.5 t-27.5 25.5t-23.5 19.5t-23.5 16.5t-23.5 9t-27.5 3q-18 0 -41 -4q-74 -17 -162 -111z" />
<glyph unicode="&#xd2;" horiz-adv-x="1357" d="M215 268q0 14 4 35l176 827q10 51 51 84l224 185q29 23 44 29t44 6h452q29 0 42.5 -6.5t31.5 -28.5l146 -185q20 -25 20 -49q0 -14 -6 -35l-174 -827q-12 -51 -51 -84l-226 -184q-27 -23 -43 -29t-43 -6h-454q-27 0 -40.5 6t-31.5 29l-145 184q-20 25 -21 49zM283 307 q0 -33 18 -59l129 -160q25 -33 76 -33h373q49 0 88 33l196 160q43 35 51 78l166 782q2 8 2 18q0 35 -18 60l-129 160q-25 33 -76 32h-373q-49 0 -88 -32l-198 -160q-41 -35 -49 -78l-166 -782q-2 -8 -2 -19zM969 1960l63 49l154 -244l-41 -30z" />
<glyph unicode="&#xd3;" horiz-adv-x="1357" d="M215 268q0 14 4 35l176 827q10 51 51 84l224 185q20 14 32.5 21t25 10.5t30.5 3.5h452q29 0 42.5 -6.5t31.5 -28.5l146 -185q20 -25 20 -49q0 -14 -6 -35l-174 -827q-12 -51 -51 -84l-226 -184q-27 -23 -43 -29t-43 -6h-454q-27 0 -40.5 6t-31.5 29l-145 184 q-20 25 -21 49zM283 307q0 -33 18 -59l129 -160q25 -33 76 -33h373q49 0 88 33l196 160q43 35 51 78l166 782q2 8 2 18q0 35 -18 60l-129 160q-25 33 -76 32h-373q-49 0 -88 -32l-198 -160q-41 -35 -49 -78l-166 -782q-2 -8 -2 -19zM924 1765l258 244l43 -49l-273 -225z" />
<glyph unicode="&#xd4;" horiz-adv-x="1357" d="M215 268q0 14 4 35l176 827q10 51 51 84l224 185q29 23 44 29t44 6h452q29 0 42.5 -6.5t31.5 -28.5l146 -185q20 -25 20 -49q0 -14 -6 -35l-174 -827q-12 -51 -51 -84l-226 -184q-27 -23 -43 -29t-43 -6h-454q-27 0 -40.5 6t-31.5 29l-145 184q-20 25 -21 49zM283 307 q0 -33 18 -59l129 -160q25 -33 76 -33h373q49 0 88 33l196 160q43 35 51 78l166 782q2 8 2 18q0 35 -18 60l-129 160q-25 33 -76 32h-373q-49 0 -88 -32l-198 -160q-41 -35 -49 -78l-166 -782q-2 -8 -2 -19zM776 1765l279 265h112l168 -265l-41 -30l-192 245l-299 -245z" />
<glyph unicode="&#xd5;" horiz-adv-x="1357" d="M215 268q0 14 4 35l176 827q10 51 51 84l224 185q29 23 44 29t44 6h452q29 0 42.5 -6.5t31.5 -28.5l146 -185q20 -25 20 -49q0 -14 -6 -35l-174 -827q-12 -51 -51 -84l-226 -184q-27 -23 -43 -29t-43 -6h-454q-27 0 -40.5 6t-31.5 29l-145 184q-20 25 -21 49zM283 307 q0 -35 18 -59l129 -160q25 -33 76 -33h373q49 0 88 33l196 160q43 35 51 78l166 782q2 8 2 18q0 35 -18 60l-129 160q-25 33 -76 32h-373q-49 0 -88 -32l-198 -160q-41 -35 -49 -78l-166 -782q-2 -8 -2 -19zM741 1868q135 156 211 162h29q31 0 54.5 -13.5t70.5 -58.5 q76 -72 135 -72q74 0 178 111l21 -17q-111 -160 -213 -159q-53 0 -103 41q-20 16 -46.5 40.5t-39 35t-33 18.5t-40.5 8q-18 0 -41 -4q-74 -17 -162 -111z" />
<glyph unicode="&#xd6;" horiz-adv-x="1357" d="M215 268q0 14 4 35l176 827q10 51 51 84l224 185q29 23 44 29t44 6h452q29 0 42.5 -6.5t31.5 -28.5l146 -185q20 -25 20 -49q0 -14 -6 -35l-174 -827q-12 -51 -51 -84l-226 -184q-27 -23 -43 -29t-43 -6h-454q-27 0 -40.5 6t-31.5 29l-145 184q-20 25 -21 49zM283 307 q0 -35 18 -59l129 -160q25 -33 76 -33h373q49 0 88 33l196 160q43 35 51 78l166 782q2 8 2 18q0 35 -18 60l-129 160q-25 33 -76 32h-373q-49 0 -88 -32l-198 -160q-41 -35 -49 -78l-166 -782q-2 -8 -2 -19zM831 1839l17 84h84l-17 -84h-84zM1227 1839l18 84h84l-18 -84h-84 z" />
<glyph unicode="&#xd7;" horiz-adv-x="919" d="M195 309l352 291l-228 289l48 41l229 -291l350 291l33 -41l-352 -289l229 -291l-49 -41l-227 291l-353 -291z" />
<glyph unicode="&#xd8;" horiz-adv-x="1357" d="M211 272q0 14 6 35l174 819q10 53 51 86l226 185q27 23 44 30t46 7h420l55 102h72l-58 -106q18 -6 39 -33l146 -185q20 -25 20 -51q0 -14 -4 -35l-174 -819q-10 -53 -53 -86l-224 -184q-29 -23 -45 -30t-45 -7h-432l-55 -102h-72l60 110q-12 6 -29 29l-148 184 q-20 25 -20 51zM287 311q0 -31 18 -55l129 -162q7 -6 15 -12l696 1288h-361q-47 0 -86 -31l-196 -161q-39 -33 -49 -74l-164 -774q-2 -8 -2 -19zM508 63h373q47 0 86 31l196 162q39 33 49 74l164 774q2 8 2 18q0 33 -20 56l-127 161q-8 10 -23 19z" />
<glyph unicode="&#xd9;" horiz-adv-x="1341" d="M238 174q0 14 4 35l254 1198l32 27h33l-256 -1203q-2 -8 -2 -18q0 -35 21 -59l53 -66q25 -33 74 -33h471q51 0 90 33l80 66q41 35 51 77l250 1176l30 27h35l-262 -1225q-10 -51 -49 -84l-111 -90q-27 -23 -42 -29t-44 -6h-551q-29 0 -42 6t-29 29l-72 90q-18 25 -18 49z M956 1960l66 49l154 -244l-41 -30z" />
<glyph unicode="&#xda;" horiz-adv-x="1341" d="M238 174q0 14 4 35l254 1198l32 27h33l-256 -1203q-2 -8 -2 -18q0 -35 21 -59l53 -66q25 -33 74 -33h471q51 0 90 33l80 66q41 35 51 77l250 1176l30 27h33l-260 -1225q-10 -51 -49 -84l-111 -90q-27 -23 -42 -29t-44 -6h-551q-29 0 -42 6t-29 29l-72 90q-18 25 -18 49z M913 1765l258 244l43 -49l-272 -225z" />
<glyph unicode="&#xdb;" horiz-adv-x="1341" d="M238 174q0 14 4 35l254 1198l32 27h33l-256 -1203q-2 -8 -2 -18q0 -35 21 -59l53 -66q25 -33 74 -33h471q51 0 90 33l80 66q41 35 51 77l250 1176l30 27h35l-262 -1225q-10 -51 -49 -84l-111 -90q-27 -23 -42 -29t-44 -6h-551q-29 0 -42 6t-29 29l-72 90q-18 25 -18 49z M766 1765l278 265h113l168 -265l-41 -30l-194 245l-297 -245z" />
<glyph unicode="&#xdc;" horiz-adv-x="1341" d="M238 174q0 14 4 35l254 1198l32 27h33l-256 -1203q-2 -8 -2 -18q0 -35 21 -59l53 -66q25 -33 74 -33h471q51 0 90 33l80 66q41 35 51 77l250 1176l30 27h35l-262 -1225q-10 -51 -49 -84l-111 -90q-27 -23 -42 -29t-44 -6h-551q-29 0 -42 6t-29 29l-72 90q-18 25 -18 49z M819 1839l19 84h84l-19 -84h-84zM1217 1839l18 84h84l-19 -84h-83z" />
<glyph unicode="&#xdd;" horiz-adv-x="1193" d="M387 1415l43 19h21l172 -836h200l529 836h18l37 -19l-565 -872h-101l-114 -543h-62l117 543h-100zM840 1765l258 244l43 -49l-273 -225z" />
<glyph unicode="&#xde;" horiz-adv-x="1228" d="M197 0l303 1434h69l-55 -260h594q29 0 43 -6.5t33 -28.5l69 -90q20 -27 21 -52q0 -14 -4 -36l-78 -363q-10 -53 -53 -86l-109 -90q-27 -23 -44 -30t-46 -7h-594l-82 -385h-67zM358 449h555q49 0 86 30l82 68q39 33 49 74l68 317v18q0 33 -18 58l-54 65q-23 31 -71 31 h-555z" />
<glyph unicode="&#xdf;" horiz-adv-x="1228" d="M203 0l260 1221q10 53 53 88l109 88q27 23 44 30t46 7h348q16 0 25.5 -1t18.5 -5.5t15 -11.5t17 -19l69 -88q20 -27 21 -54q0 -14 -4 -34l-51 -246q-12 -53 -54 -88l-119 -96l86 -109q20 -27 21 -51q0 -14 -4 -37l-82 -381q-12 -53 -53 -88l-109 -88q-27 -23 -44 -30 t-46 -7h-285l11 45h258q47 0 84 33l82 65q39 33 49 76l78 371q2 8 2 18q0 31 -19 56l-53 67q-25 33 -72 31h-258l10 45h254q43 2 78 31l82 67q39 33 47 74l51 235q2 10 2 21q0 31 -18 55l-53 68q-25 31 -72 31h-297q-47 0 -86 -31l-80 -68q-41 -33 -49 -76l-258 -1214h-55z " />
<glyph unicode="&#xe0;" horiz-adv-x="989" d="M152 182q0 14 6 37l26 127q10 53 54 88l127 105q20 16 32.5 23t25.5 10t34 3h477l45 213q2 10 2 21q0 33 -18 57l-64 78q-25 33 -74 33h-444l6 31l21 16h454q31 0 45.5 -7t32.5 -30l80 -102q20 -27 20 -54q0 -14 -4 -36l-168 -795h-49l4 115l-213 -92q-55 -23 -106 -23 h-182q-29 0 -43.5 7t-32.5 30l-74 92q-20 27 -20 53zM213 205q0 -33 18 -58l54 -67q27 -33 75 -33h156q35 0 68 14l264 113l76 354h-449q-49 0 -88 -30l-98 -82q-41 -33 -49 -76l-25 -115q-2 -10 -2 -20zM707 1552l63 50l154 -244l-39 -31z" />
<glyph unicode="&#xe1;" horiz-adv-x="989" d="M152 182q0 14 6 37l26 127q10 53 54 88l127 105q20 16 32.5 23t25.5 10t34 3h477l45 213q2 10 2 21q0 33 -18 57l-64 78q-25 33 -74 33h-444l6 31l21 16h454q31 0 45.5 -7t32.5 -30l80 -102q20 -27 20 -54q0 -14 -4 -36l-168 -795h-49l4 115l-213 -92q-55 -23 -106 -23 h-182q-29 0 -43.5 7t-32.5 30l-74 92q-20 27 -20 53zM213 205q0 -33 18 -58l54 -67q27 -33 75 -33h156q35 0 68 14l264 113l76 354h-449q-49 0 -88 -30l-98 -82q-41 -33 -51 -76l-25 -115v-20zM664 1358l258 244l43 -50l-275 -225z" />
<glyph unicode="&#xe2;" horiz-adv-x="989" d="M152 182q0 14 6 37l26 127q10 53 54 88l127 105q20 16 32.5 23t25.5 10t34 3h477l45 213q2 10 2 21q0 33 -18 57l-64 78q-25 33 -74 33h-444l6 31l21 16h454q31 0 45.5 -7t32.5 -30l80 -102q20 -27 20 -54q0 -14 -4 -36l-168 -795h-49l4 115l-213 -92q-55 -23 -106 -23 h-182q-29 0 -43.5 7t-32.5 30l-74 92q-20 27 -20 53zM213 205q0 -33 18 -58l54 -67q27 -33 75 -33h156q35 0 68 14l264 113l76 354h-449q-49 0 -88 -30l-98 -82q-41 -33 -49 -76l-27 -115v-20zM514 1358l279 262h114l166 -262l-41 -31l-192 244l-299 -244z" />
<glyph unicode="&#xe3;" horiz-adv-x="989" d="M152 182q0 14 6 37l26 127q10 53 54 88l127 105q20 16 32.5 23t25.5 10t34 3h477l45 213q2 10 2 21q0 33 -18 57l-64 78q-25 33 -74 33h-444l6 31l21 16h454q31 0 45.5 -7t32.5 -30l80 -102q20 -27 20 -54q0 -14 -4 -36l-168 -795h-49l4 115l-213 -92q-55 -23 -106 -23 h-182q-29 0 -43.5 7t-32.5 30l-74 92q-20 27 -20 53zM213 205q0 -33 18 -58l54 -67q27 -33 75 -33h156q35 0 68 14l264 113l76 354h-449q-49 0 -88 -30l-98 -82q-41 -33 -49 -76l-27 -117v-18zM479 1458q135 156 211 162q18 2 29 2q31 0 54.5 -14.5t70.5 -57.5 q76 -74 135 -73q74 0 178 110l21 -14q-111 -162 -213 -162q-51 0 -103 43q-18 14 -46 40t-40 35t-31.5 18t-42.5 9q-18 0 -40 -6q-74 -14 -160 -108z" />
<glyph unicode="&#xe4;" horiz-adv-x="989" d="M152 182q0 14 6 37l26 127q10 53 54 88l127 105q20 16 32.5 23t25.5 10t34 3h477l45 213q2 10 2 21q0 33 -18 57l-64 78q-25 33 -74 33h-444l6 31l21 16h454q31 0 45.5 -7t32.5 -30l80 -102q20 -27 20 -54q0 -14 -4 -36l-168 -795h-49l4 115l-213 -92q-55 -23 -106 -23 h-182q-29 0 -43.5 7t-32.5 30l-74 92q-20 27 -20 53zM213 205q0 -33 18 -58l54 -67q27 -33 75 -33h156q35 0 68 14l264 113l76 354h-449q-49 0 -88 -30l-98 -82q-41 -33 -51 -76l-25 -115v-20zM569 1430l19 83h84l-19 -83h-84zM965 1430l18 83h84l-18 -83h-84z" />
<glyph unicode="&#xe5;" horiz-adv-x="989" d="M152 182q0 14 6 37l26 127q10 53 54 88l127 105q20 16 32.5 23t25.5 10t34 3h477l45 213q2 10 2 21q0 33 -18 57l-64 78q-25 33 -74 33h-444l6 31l21 16h454q31 0 45.5 -7t32.5 -30l80 -102q20 -27 20 -54q0 -14 -4 -36l-168 -795h-49l4 115l-213 -92q-55 -23 -106 -23 h-182q-29 0 -43.5 7t-32.5 30l-74 92q-20 27 -20 53zM213 205q0 -33 18 -58l54 -67q27 -33 75 -33h156q35 0 68 14l264 113l76 354h-449q-49 0 -88 -30l-98 -82q-41 -33 -49 -76l-25 -115q-2 -10 -2 -20zM645 1475q0 20 6 41q16 76 78.5 129t136.5 53q41 0 74 -18.5 t50.5 -51.5t17.5 -74q0 -18 -4 -38q-8 -39 -30 -73t-50.5 -58.5t-64.5 -39t-71 -14.5q-41 0 -73.5 18.5t-51 51.5t-18.5 74zM700 1487q0 -43 28 -73t71 -30q35 0 67.5 19.5t54 48.5t29.5 64q2 12 2 26q0 43 -26.5 73t-71.5 30q-51 0 -95 -40t-54 -92q-4 -12 -5 -26z" />
<glyph unicode="&#xe6;" horiz-adv-x="1658" d="M152 182q0 14 6 37l26 127q10 53 54 88l127 105q20 16 32.5 23t25.5 10t34 3h477l45 213q2 10 2 21q0 33 -18 57l-64 78q-25 33 -74 33h-444l6 31l21 16h454q20 0 32.5 -3t23 -10t22.5 -24l76 -98q4 -4 7 -4t7 4l119 98q29 23 46 30t46 7h328q31 0 45 -7t33 -30l71 -92 q20 -27 21 -53q0 -14 -4 -37l-62 -287l-18 -16h-680l-60 -277q-2 -10 -2 -20q0 -33 21 -58l53 -67q25 -33 74 -33h272q49 0 88 33l37 29l29 -37l-43 -35q-29 -23 -46.5 -30t-45.5 -7h-328q-31 0 -45 7t-33 30l-55 72l-23 -109h-49l4 115l-213 -92q-55 -23 -106 -23h-182 q-29 0 -43.5 7t-32.5 30l-74 92q-20 27 -20 53zM213 205q0 -33 18 -58l54 -67q27 -33 75 -33h156q35 0 68 14l264 113l76 354h-449q-49 0 -88 -30l-98 -82q-41 -33 -51 -76l-25 -115v-20zM985 549h639l53 250q2 10 2 20q0 33 -18 58l-55 67q-25 33 -74 33h-272 q-49 0 -89 -33l-84 -67q-41 -35 -49 -78z" />
<glyph unicode="&#xe7;" horiz-adv-x="909" d="M154 182q0 14 4 37l125 586q10 55 53 90l113 92q29 23 46 30t46 7h356q31 0 45 -7t33 -30l26 -35l-45 -37l-22 29q-25 33 -74 33h-301q-49 0 -88 -33l-84 -67q-41 -35 -49 -78l-123 -574q-2 -10 -2 -20q0 -33 18 -58l56 -67q25 -33 73 -33h302q51 0 88 33l36 29l29 -37 l-43 -35q-27 -23 -44 -30t-48 -7h-254l-43 -57q39 10 78 10q61 -4 94 -35t33 -78q0 -14 -4 -30q-12 -63 -62.5 -104.5t-122.5 -41.5h-100l8 41h101q39 0 75.5 31t44.5 74q4 14 4 26q0 37 -24.5 54.5t-54.5 19.5h-13q-33 0 -100 -29l-35 45l49 74h-30q-31 0 -45.5 7t-32.5 30 l-72 92q-20 27 -20 53z" />
<glyph unicode="&#xe8;" horiz-adv-x="960" d="M152 182q0 14 6 37l123 586q12 55 55 90l110 92q29 23 46.5 30t48.5 7h327q29 0 43.5 -7t32.5 -30l74 -92q20 -27 20 -53q0 -14 -4 -37l-61 -287l-21 -16h-680l-57 -277q-2 -10 -2 -20q0 -33 18 -58l56 -67q25 -33 73 -33h273q49 0 88 33l35 29l28 -37l-41 -35 q-29 -23 -46 -30t-48 -7h-325q-31 0 -45.5 7t-32.5 30l-72 92q-23 27 -22 53zM283 549h641l53 250q2 10 2 20q-1 33 -21 58l-53 67q-25 33 -76 33h-272q-49 0 -88 -33l-82 -67q-41 -35 -51 -78zM682 1552l63 50l156 -244l-41 -31z" />
<glyph unicode="&#xe9;" horiz-adv-x="960" d="M152 182q0 14 6 37l123 586q12 55 55 90l110 92q29 23 46.5 30t48.5 7h327q20 0 31.5 -3t22 -10t22.5 -24l74 -92q20 -27 20 -53q0 -14 -4 -37l-61 -287l-21 -16h-680l-57 -277q-2 -10 -2 -20q0 -33 18 -58l56 -67q25 -33 73 -33h273q49 0 88 33l35 29l28 -37l-41 -35 q-29 -23 -46 -30t-48 -7h-325q-31 0 -45.5 7t-32.5 30l-72 92q-23 27 -22 53zM283 549h641l53 250q2 10 2 20q-1 33 -21 58l-53 67q-27 33 -76 33h-272q-49 0 -88 -33l-82 -67q-41 -35 -51 -78zM639 1358l258 244l43 -50l-274 -225z" />
<glyph unicode="&#xea;" horiz-adv-x="960" d="M152 182q0 14 6 37l123 586q12 55 55 90l110 92q29 23 46.5 30t48.5 7h327q29 0 43.5 -7t32.5 -30l74 -92q20 -27 20 -53q0 -14 -4 -37l-61 -287l-21 -16h-680l-57 -277q-2 -10 -2 -20q0 -33 18 -58l56 -67q25 -33 73 -33h273q49 0 88 33l35 29l28 -37l-41 -35 q-29 -23 -46 -30t-48 -7h-325q-31 0 -45.5 7t-32.5 30l-72 92q-23 27 -22 53zM283 549h641l53 250q2 10 2 20q-1 33 -21 58l-53 67q-27 33 -76 33h-272q-49 0 -88 -33l-82 -67q-41 -35 -51 -78zM489 1358l279 262h115l166 -262l-41 -31l-193 244l-299 -244z" />
<glyph unicode="&#xeb;" horiz-adv-x="960" d="M152 182q0 14 6 37l123 586q12 55 55 90l110 92q29 23 46.5 30t48.5 7h327q29 0 43.5 -7t32.5 -30l74 -92q20 -27 20 -53q0 -14 -4 -37l-61 -287l-21 -16h-680l-57 -277q-2 -10 -2 -20q0 -33 18 -58l56 -67q25 -33 73 -33h273q49 0 88 33l35 29l28 -37l-41 -35 q-29 -23 -46 -30t-48 -7h-325q-31 0 -45.5 7t-32.5 30l-72 92q-23 27 -22 53zM283 549h641l53 250q2 10 2 20q-1 33 -21 58l-53 67q-27 33 -76 33h-272q-49 0 -88 -33l-82 -67q-41 -35 -51 -78zM545 1430l18 83h84l-18 -83h-84zM942 1430l16 83h84l-16 -83h-84z" />
<glyph unicode="&#xec;" horiz-adv-x="403" d="M180 0l217 1024h58l-219 -1024h-56zM379 1503l65 49l154 -243l-41 -31z" />
<glyph unicode="&#xed;" horiz-adv-x="403" d="M180 0l217 1024h58l-219 -1024h-56zM336 1309l258 243l43 -49l-275 -225z" />
<glyph unicode="&#xee;" horiz-adv-x="403" d="M180 0l217 1024h58l-219 -1024h-56zM188 1309l277 262h115l168 -262l-41 -31l-195 244l-297 -244z" />
<glyph unicode="&#xef;" horiz-adv-x="403" d="M178 0l217 1024h58l-220 -1024h-55zM240 1380l18 84h84l-18 -84h-84zM637 1380l18 84h84l-18 -84h-84z" />
<glyph unicode="&#xf0;" horiz-adv-x="1085" d="M145 182q0 16 5 39l83 395q14 59 56 95l108 90q20 16 33.5 24.5t26 11.5t30.5 3h119q43 0 82 -21l250 -129l106 504l-194 -129l-19 33l220 145q-2 27 -19 47l-51 68q-25 31 -74 31h-317q-47 0 -86 -31l-33 -29l-29 35l41 33q18 16 30.5 23t26 10.5t33.5 3.5h371 q29 0 43 -7.5t33 -29.5l70 -88q12 -16 16 -29l156 102l18 -34l-172 -113q0 -6 -2 -14l-213 -1000q-12 -59 -53 -92l-109 -90q-31 -25 -47 -32t-45 -7h-330q-27 0 -41 7t-32 32l-72 90q-18 23 -19 53zM201 195q0 -27 20 -52l53 -67q20 -29 72 -29h277q51 0 86 29l79 67 q41 33 48 68l92 426l-275 143q-25 12 -61 13h-86q-51 2 -86 -27l-82 -68q-39 -33 -47 -67l-88 -420q-2 -8 -2 -16z" />
<glyph unicode="&#xf1;" horiz-adv-x="1038" d="M139 0l217 1024h43l-6 -147l299 127q47 20 92 20h129q20 0 32.5 -3t23 -10t22.5 -24l72 -92q20 -27 20 -53q0 -14 -4 -37l-172 -805h-55l170 799q2 10 2 20q0 33 -18 58l-56 67q-25 33 -73 33h-97q-37 0 -69 -14l-342 -148l-174 -815h-56zM399 1382q135 154 211 162h29 q31 0 54.5 -13t70.5 -58q76 -72 135 -72q74 0 178 110l21 -16q-111 -160 -213 -160q-51 0 -103 41q-18 16 -45.5 41t-40 35t-33 18.5t-40.5 8.5q-18 0 -41 -4q-74 -17 -160 -111z" />
<glyph unicode="&#xf2;" horiz-adv-x="997" d="M150 182q0 14 4 37l125 586q12 55 53 90l112 92q29 23 46.5 30t46.5 7h356q31 0 45 -7t33 -30l71 -92q20 -27 21 -53q0 -14 -4 -37l-125 -586q-10 -55 -53 -90l-113 -92q-27 -23 -44 -30t-48 -7h-357q-31 0 -45 7t-32 30l-72 92q-20 27 -20 53zM209 205q0 -33 20 -58 l54 -67q25 -33 73 -33h301q51 0 88 33l84 67q41 35 52 78l120 574q2 10 3 20q-1 33 -19 58l-55 67q-25 33 -74 33h-301q-49 0 -88 -33l-84 -67q-41 -35 -49 -78l-123 -574q-2 -10 -2 -20zM698 1552l64 50l156 -244l-41 -31z" />
<glyph unicode="&#xf3;" horiz-adv-x="997" d="M150 182q0 14 4 37l125 586q10 55 53 90l112 92q29 23 46.5 30t46.5 7h356q31 0 45 -7t33 -30l71 -92q20 -27 21 -53q0 -14 -4 -37l-125 -586q-10 -55 -53 -90l-113 -92q-27 -23 -44 -30t-48 -7h-357q-31 0 -45 7t-32 30l-72 92q-20 27 -20 53zM209 205q0 -33 18 -58 l56 -67q25 -33 73 -33h301q51 0 88 33l84 67q41 35 52 78l120 574q2 10 3 20q-1 33 -19 58l-55 67q-25 33 -74 33h-301q-49 0 -88 -33l-84 -67q-41 -35 -49 -78l-123 -574q-2 -10 -2 -20zM655 1358l258 244l43 -50l-274 -225z" />
<glyph unicode="&#xf4;" horiz-adv-x="997" d="M150 182q0 14 4 37l125 586q10 55 53 90l112 92q29 23 46.5 30t46.5 7h356q31 0 45 -7t33 -30l71 -92q20 -27 21 -53q0 -14 -4 -37l-125 -586q-10 -55 -53 -90l-113 -92q-27 -23 -44 -30t-48 -7h-357q-31 0 -45 7t-32 30l-72 92q-20 27 -20 53zM209 205q0 -33 18 -58 l56 -67q25 -33 73 -33h301q51 0 88 33l84 67q41 35 52 78l120 574q2 10 3 20q-1 33 -19 58l-55 67q-25 33 -74 33h-301q-49 0 -88 -33l-84 -67q-41 -35 -49 -78l-123 -574q-2 -10 -2 -20zM506 1358l278 262h115l166 -262l-39 -31l-195 244l-296 -244z" />
<glyph unicode="&#xf5;" horiz-adv-x="997" d="M150 182q0 14 4 37l125 586q10 55 53 90l112 92q29 23 46.5 30t46.5 7h356q31 0 45 -7t33 -30l71 -92q20 -27 21 -53q0 -14 -4 -37l-125 -586q-10 -55 -53 -90l-113 -92q-27 -23 -44 -30t-48 -7h-357q-31 0 -45 7t-32 30l-72 92q-20 27 -20 53zM209 205q0 -33 18 -58 l56 -67q25 -33 73 -33h301q51 0 88 33l84 67q41 35 52 76l120 576q2 10 3 20q-1 33 -19 58l-55 67q-25 33 -74 33h-301q-49 0 -88 -33l-84 -67q-41 -35 -49 -78l-123 -576q-2 -8 -2 -18zM471 1458q135 156 213 162q16 2 27 2q31 0 54 -14.5t71 -57.5q78 -74 137 -73 q74 0 178 110l20 -14q-113 -162 -213 -162q-53 0 -104 43q-18 14 -46 40t-40 35t-31.5 18t-42.5 9q-18 0 -41 -6q-71 -14 -159 -108z" />
<glyph unicode="&#xf6;" horiz-adv-x="997" d="M150 182q0 14 4 37l125 586q10 55 53 90l112 92q29 23 46.5 30t46.5 7h356q31 0 45 -7t33 -30l71 -92q20 -27 21 -53q0 -14 -4 -37l-125 -586q-10 -55 -53 -90l-113 -92q-27 -23 -44 -30t-48 -7h-357q-31 0 -45 7t-32 30l-72 92q-20 27 -20 53zM209 205q0 -33 18 -58 l56 -67q25 -33 73 -33h301q51 0 88 33l84 67q41 35 52 78l120 574q2 10 3 20q-1 33 -19 58l-55 67q-25 33 -74 33h-301q-49 0 -88 -33l-84 -67q-41 -35 -49 -78l-123 -574q-2 -10 -2 -20zM561 1430l19 83h84l-19 -83h-84zM958 1430l17 83h84l-17 -83h-84z" />
<glyph unicode="&#xf7;" horiz-adv-x="1081" d="M225 567l13 64h872l-14 -64h-871zM522 158l25 110h100l-24 -110h-101zM686 932l25 108h100l-23 -108h-102z" />
<glyph unicode="&#xf8;" horiz-adv-x="997" d="M150 182q0 14 4 37l125 586q12 55 53 90l112 92q29 23 46.5 30t46.5 7h317l55 104h62l-58 -104q31 -4 58 -37l71 -92q20 -27 21 -53q0 -14 -4 -37l-125 -586q-10 -55 -53 -90l-113 -92q-27 -23 -44 -30t-48 -7h-316l-57 -104h-59l55 104q-31 4 -57 37l-72 92 q-20 27 -20 53zM209 205q0 -33 18 -58l56 -67q14 -18 45 -29l499 926h-272q-49 0 -88 -33l-84 -67q-41 -35 -49 -78l-123 -574q-2 -10 -2 -20zM385 47h272q51 0 88 33l84 67q42 35 52 78l120 574q2 10 3 20q0 33 -19 58l-55 67q-14 18 -45 29z" />
<glyph unicode="&#xf9;" horiz-adv-x="1028" d="M170 182q0 14 4 37l172 805h55l-170 -799q-2 -10 -2 -20q0 -33 21 -58l53 -67q25 -33 76 -33h96q35 0 68 14l344 148l172 815h57l-219 -1024h-43l6 147l-299 -127q-47 -20 -92 -20h-129q-29 0 -43 7t-33 30l-74 92q-20 27 -20 53zM713 1552l63 50l156 -244l-41 -31z" />
<glyph unicode="&#xfa;" horiz-adv-x="1028" d="M170 182q0 14 4 37l172 805h55l-170 -799q-2 -10 -2 -20q0 -33 21 -58l53 -67q25 -33 76 -33h96q35 0 68 14l344 148l172 815h57l-219 -1024h-43l6 147l-299 -127q-47 -20 -92 -20h-129q-29 0 -44 7t-32 30l-74 92q-20 27 -20 53zM670 1358l258 244l43 -50l-275 -225z " />
<glyph unicode="&#xfb;" horiz-adv-x="1028" d="M170 182q0 14 4 37l172 805h55l-170 -799q-2 -10 -2 -20q0 -33 21 -58l53 -67q25 -33 76 -33h96q35 0 68 14l344 148l172 815h57l-219 -1024h-43l6 147l-299 -127q-47 -20 -92 -20h-129q-29 0 -44 7t-32 30l-74 92q-20 27 -20 53zM520 1358l279 262h114l166 -262l-39 -31 l-194 244l-297 -244z" />
<glyph unicode="&#xfc;" horiz-adv-x="1028" d="M170 182q0 14 4 37l172 805h55l-170 -799q-2 -10 -2 -20q0 -33 21 -58l53 -67q25 -33 76 -33h96q35 0 68 14l344 148l172 815h57l-219 -1024h-43l6 147l-299 -127q-47 -20 -92 -20h-129q-29 0 -44 7t-32 30l-74 92q-20 27 -20 53zM575 1430l19 83h84l-19 -83h-84z M973 1430l16 83h84l-16 -83h-84z" />
<glyph unicode="&#xfd;" horiz-adv-x="1005" d="M154 -377q190 53 325 277l56 100h-121l-135 1016l20 8h39l127 -977h96l545 977h37l16 -8l-581 -1047q-4 -6 -23.5 -42t-35 -58.5t-44.5 -63.5t-59.5 -71.5t-69.5 -63t-88 -57.5t-104 -39v49zM666 1376l258 244l43 -49l-275 -225z" />
<glyph unicode="&#xfe;" horiz-adv-x="1228" d="M72 -369l383 1803h57l-121 -564l316 134q47 20 90 20h123q16 0 25 -1t18.5 -5t16.5 -11.5t17 -19.5l72 -92q20 -27 21 -53q0 -14 -5 -37l-124 -586q-12 -55 -56 -90l-110 -92q-29 -23 -46.5 -30t-46.5 -7h-495l-74 -352l-20 -17h-41zM217 47h467q49 0 88 31l84 69 q41 33 49 76l123 578q2 8 2 18q0 33 -20 58l-54 67q-25 33 -73 33h-90q-37 0 -70 -14l-342 -148z" />
<glyph unicode="&#xff;" horiz-adv-x="1005" d="M154 -377q190 53 325 277l56 100h-121l-135 1016l20 8h39l127 -977h96l545 977h37l16 -8l-581 -1047q-4 -6 -23.5 -42t-35 -58.5t-44.5 -63.5t-59.5 -71.5t-69.5 -63t-88 -57.5t-104 -39v49zM571 1450l19 84h84l-19 -84h-84zM969 1450l16 84h84l-16 -84h-84z" />
<glyph unicode="&#x152;" horiz-adv-x="2056" d="M211 272q0 14 6 35l174 819q10 53 51 86l226 185q27 23 44 30t46 7h452q29 0 43.5 -7.5t32.5 -29.5l121 -152q12 33 47 64l109 88q18 16 31.5 23t26 10.5t32.5 3.5h565l23 -29l-7 -35h-555q-49 0 -86 -31l-82 -67q-39 -33 -47 -74l-96 -450h610l-14 -62h-610l-94 -450 q-2 -8 -3 -19q0 -33 19 -55l53 -68q25 -31 72 -31h555l-6 -34l-35 -29h-567q-14 0 -24.5 1t-19 5t-15.5 11.5t-15 19.5l-72 88q-20 27 -20 53v10l-185 -151q-29 -23 -45 -30t-45 -7h-454q-29 0 -43.5 7t-30.5 30l-148 184q-20 25 -20 51zM287 311q0 -31 18 -55l129 -162 q25 -31 72 -31h375q47 0 86 31l196 162q39 33 47 74l166 774q2 8 2 18q0 33 -20 56l-127 161q-25 31 -74 31h-373q-47 0 -86 -31l-196 -161q-39 -33 -49 -74l-164 -774q-2 -8 -2 -19z" />
<glyph unicode="&#x153;" horiz-adv-x="1681" d="M150 182q0 14 4 37l125 586q12 55 53 90l112 92q29 23 46.5 30t46.5 7h356q31 0 45 -7t33 -30l78 -100l120 100q29 23 46.5 30t46.5 7h327q31 0 45.5 -7t32.5 -30l72 -92q20 -27 20 -53q0 -14 -4 -37l-61 -287l-19 -16h-680l-59 -277q-2 -10 -2 -20q0 -33 20 -58l54 -67 q25 -33 73 -33h273q51 0 88 33l37 29l28 -37l-43 -35q-27 -23 -44 -30t-48 -7h-328q-29 0 -44 7t-33 30l-78 100l-121 -100q-27 -23 -44 -30t-48 -7h-357q-31 0 -45 7t-32 30l-72 92q-20 27 -20 53zM209 205q0 -33 20 -58l54 -67q25 -33 73 -33h303q49 0 86 33l84 67 q41 35 52 78l120 574q2 10 3 20q-1 33 -19 58l-55 67q-25 33 -74 33h-301q-49 0 -88 -33l-84 -67q-41 -35 -49 -78l-123 -574q-2 -10 -2 -20zM1006 549h639l53 250q2 10 2 20q-1 33 -19 58l-55 67q-25 33 -74 33h-272q-49 0 -88 -33l-84 -67q-41 -35 -49 -78z" />
<glyph unicode="&#x178;" horiz-adv-x="1193" d="M387 1415l43 19h21l172 -836h200l529 836h18l37 -19l-565 -872h-101l-114 -543h-62l117 543h-100zM748 1839l16 84h84l-17 -84h-83zM1143 1839l18 84h84l-18 -84h-84z" />
<glyph unicode="&#x2c6;" horiz-adv-x="780" d="M383 1284l276 262h115l166 -262l-39 -33l-194 246l-297 -246z" />
<glyph unicode="&#x2dc;" horiz-adv-x="886" d="M401 1382q135 154 211 162h29q31 0 54.5 -13t70.5 -58q76 -72 135 -72q74 0 178 110l21 -16q-111 -160 -213 -160q-51 0 -103 41q-18 16 -45.5 41t-40 35t-33 18.5t-40.5 8.5q-18 0 -41 -4q-74 -17 -160 -111z" />
<glyph unicode="&#x2000;" horiz-adv-x="1052" />
<glyph unicode="&#x2001;" horiz-adv-x="2105" />
<glyph unicode="&#x2002;" horiz-adv-x="1052" />
<glyph unicode="&#x2003;" horiz-adv-x="2105" />
<glyph unicode="&#x2004;" horiz-adv-x="701" />
<glyph unicode="&#x2005;" horiz-adv-x="526" />
<glyph unicode="&#x2006;" horiz-adv-x="350" />
<glyph unicode="&#x2007;" horiz-adv-x="350" />
<glyph unicode="&#x2008;" horiz-adv-x="263" />
<glyph unicode="&#x2009;" horiz-adv-x="421" />
<glyph unicode="&#x200a;" horiz-adv-x="116" />
<glyph unicode="&#x2010;" horiz-adv-x="819" d="M236 569l14 64h590l-15 -64h-589z" />
<glyph unicode="&#x2011;" horiz-adv-x="819" d="M236 569l14 64h590l-15 -64h-589z" />
<glyph unicode="&#x2012;" horiz-adv-x="819" d="M236 569l14 64h590l-15 -64h-589z" />
<glyph unicode="&#x2013;" horiz-adv-x="962" d="M229 569l15 64h743l-14 -64h-744z" />
<glyph unicode="&#x2014;" horiz-adv-x="1337" d="M217 569l12 64h1145l-14 -64h-1143z" />
<glyph unicode="&#x2018;" d="M391 1239l19 94q12 53 43 99l63 92h41l-111 -164h70l-24 -121h-101z" />
<glyph unicode="&#x2019;" d="M381 1239l111 164h-70l24 121h101l-19 -92q-12 -53 -43 -101l-63 -92h-41z" />
<glyph unicode="&#x201a;" d="M84 -176l111 164h-70l25 121h102l-21 -93q-12 -55 -43 -100l-63 -92h-41z" />
<glyph unicode="&#x201c;" horiz-adv-x="606" d="M381 1239l18 94q12 53 43 99l64 92h41l-111 -164h70l-25 -121h-100zM643 1239l21 94q12 53 43 99l63 92h41l-111 -164h70l-25 -121h-102z" />
<glyph unicode="&#x201d;" horiz-adv-x="581" d="M381 1239l111 164h-70l24 121h101l-19 -92q-12 -53 -43 -101l-63 -92h-41zM643 1239l111 164h-70l27 121h100l-20 -92q-10 -53 -43 -101l-62 -92h-43z" />
<glyph unicode="&#x201e;" horiz-adv-x="600" d="M74 -176l110 164h-69l24 121h103l-21 -93q-12 -53 -43 -100l-63 -92h-41zM336 -176l113 164h-70l24 121h101l-19 -93q-12 -55 -43 -100l-63 -92h-43z" />
<glyph unicode="&#x2022;" horiz-adv-x="507" d="M221 459l55 262h259l-56 -262h-258z" />
<glyph unicode="&#x2026;" horiz-adv-x="1024" d="M106 0l23 109h100l-22 -109h-101zM459 0l24 109h101l-23 -109h-102zM815 0l23 109h100l-23 -109h-100z" />
<glyph unicode="&#x202f;" horiz-adv-x="421" />
<glyph unicode="&#x2039;" horiz-adv-x="614" d="M215 444l39 187l414 321l18 -24l-403 -391l237 -390l-28 -24z" />
<glyph unicode="&#x203a;" horiz-adv-x="614" d="M156 147l403 390l-237 391l28 24l277 -321l-39 -187l-414 -321z" />
<glyph unicode="&#x205f;" horiz-adv-x="526" />
<glyph unicode="&#x20ac;" horiz-adv-x="1157" d="M219 532l12 56h150l45 209h-152l13 55h149l68 313q10 51 51 84l109 90q27 23 43 29t43 6h565l20 -26l-6 -29h-551q-49 0 -88 -33l-82 -65q-41 -35 -51 -78l-61 -291h520l-6 -29l-33 -26h-492l-45 -209h461l-6 -29l-33 -27h-434l-61 -294q-2 -10 -2 -21q0 -33 18 -57 l53 -68q25 -31 76 -31h551l-6 -28l-33 -27h-565q-27 0 -40 6t-32 29l-70 90q-20 25 -20 49q0 14 4 35l68 317h-150z" />
<glyph unicode="&#x2122;" horiz-adv-x="1851" d="M381 1376l8 35l27 23h569l16 -23l-6 -35h-280l-176 -829h-56l179 829h-281zM961 547l182 864l28 23h148l94 -832h37l446 832h150l16 -23l-182 -864h-55l176 829h-84l-444 -829h-107l-90 829h-84l-178 -829h-53z" />
<glyph unicode="&#x25fc;" horiz-adv-x="1024" d="M0 0v1024h1024v-1024h-1024z" />
<glyph unicode="&#xfb01;" horiz-adv-x="1032" d="M244 -20l213 997h-178l6 31l20 16h162l47 223q10 53 53 88l113 92q10 10 19.5 16.5t17.5 10.5t16 7t17.5 3h21.5h80l12 -14l-6 -33h-67q-51 0 -89 -31l-84 -69q-41 -33 -49 -76l-47 -217h230l-9 -47h-231l-211 -997h-57zM793 0l217 1024h55l-217 -1024h-55zM1055 1305 l20 96h86l-20 -96h-86z" />
<glyph unicode="&#xfb02;" horiz-adv-x="1179" d="M244 -20l213 997h-178l6 33l20 14h162l47 223q10 53 53 88l113 92q18 16 31.5 24.5t27 10.5t33.5 2l80 2l12 -16l-6 -33h-67q-51 0 -89 -31l-84 -69q-41 -33 -49 -76l-47 -217h230l-9 -47h-231l-211 -997h-57zM840 184q0 14 4 35l262 1233l20 16h39l-264 -1245 q-2 -8 -2 -18q0 -33 21 -55l55 -72q27 -31 72 -31h65l-10 -47h-92q-20 0 -32.5 3t-22 10t-23.5 24l-72 90q-20 29 -20 57z" />
</font>
</defs>
</svg>
