<?xml version="1.0" standalone="no"?>
<!DOCTYPE svg PUBLIC "-//W3C//DTD SVG 1.1//EN" "http://www.w3.org/Graphics/SVG/1.1/DTD/svg11.dtd" >
<svg xmlns="http://www.w3.org/2000/svg">
<metadata></metadata>
<defs>
<font id="bordaregular" horiz-adv-x="1085" >
<font-face units-per-em="2048" ascent="1610" descent="-438" />
<missing-glyph horiz-adv-x="614" />
<glyph horiz-adv-x="0" />
<glyph unicode="&#xd;" horiz-adv-x="681" />
<glyph unicode=" "  horiz-adv-x="614" />
<glyph unicode="&#x09;" horiz-adv-x="614" />
<glyph unicode="&#xa0;" horiz-adv-x="614" />
<glyph unicode="!" horiz-adv-x="389" d="M102 0v186h187v-186h-187zM119 1026v408h153v-408l-18 -647h-117z" />
<glyph unicode="&#x22;" horiz-adv-x="675" d="M96 1341v193h154v-193l-19 -239h-118zM424 1341v193h154v-193l-19 -239h-117z" />
<glyph unicode="#" horiz-adv-x="1318" d="M82 494v88l39 39h229l60 274h-328v88l39 39h315l88 412h142l-88 -412h301l88 412h141l-88 -412h213v-127h-240l-59 -274h299v-127h-326l-104 -494h-141l104 494h-301l-105 -494h-141l105 494h-242zM492 621h301l59 274h-301z" />
<glyph unicode="$" horiz-adv-x="1099" d="M90 41v94h412v555l-336 172q-41 20 -58.5 49t-17.5 80v123q0 49 12.5 80t42.5 63l119 117q18 18 32.5 29.5t31 19t33 9.5t38.5 2h103v98h100v-98h303l43 -41v-95h-346v-505l281 -144q129 -66 129 -194v-129q0 -92 -74 -168l-90 -88q-68 -70 -180 -70h-66v-98h-100v98 h-369zM236 1028q0 -51 51 -76l215 -108v454h-68q-49 0 -78 -30l-88 -90q-33 -33 -32 -72v-78zM602 135h66q47 0 77 31l89 88q32 33 32 72v127q0 51 -51 77l-213 109v-504z" />
<glyph unicode="%" horiz-adv-x="1388" d="M94 942v305q0 39 27 66l49 49q26 27 63 27h187q37 0 65 -27l47 -49q27 -27 27 -66v-305q0 -41 -27 -68l-47 -47q-29 -29 -65 -28h-187q-37 0 -63 28l-49 47q-27 27 -27 68zM190 946q0 -14 7 -20l34 -35q8 -8 17 -8h160q6 0 16 8l35 35q6 6 6 20v295q0 15 -6 23l-35 34 q-10 8 -16 9h-160q-8 0 -17 -9l-34 -34q-6 -8 -7 -23v-295zM201 -35l860 1501h123l-860 -1501h-123zM827 182v305q0 39 27 66l49 49q27 27 66 27h184q39 0 66 -27l47 -49q29 -27 28 -66v-305q0 -41 -28 -67l-47 -47q-27 -29 -66 -29h-184q-39 0 -66 29l-49 47q-27 27 -27 67 zM924 186q0 -14 6 -20l35 -35q8 -8 16 -8h160q6 0 16 8l35 35q6 6 6 22v293q0 15 -6 23l-35 35q-10 8 -16 8h-160q-8 0 -16 -8l-35 -35q-6 -8 -6 -23v-295z" />
<glyph unicode="&#x26;" horiz-adv-x="1280" d="M82 242v133q0 68 47 112l279 281l-183 193q-47 47 -47 112v115q0 68 47 112l84 86q47 45 111 46h178q63 0 111 -46l86 -86q45 -45 45 -112v-115q0 -63 -45 -110l-193 -197l354 -369l181 181l63 -62v-72l-147 -147l147 -154v-90l-53 -53l-193 201l-155 -158 q-29 -27 -52.5 -36t-60.5 -9h-362q-37 0 -60.5 9t-50.5 36l-84 86q-47 45 -47 113zM227 252q0 -29 23 -49l55 -56q20 -20 51 -20h299q32 0 52 20l151 152l-354 371l-254 -256q-23 -23 -23 -49v-113zM324 1083q0 -26 20 -49l162 -168l168 168q20 23 20 49v95q0 29 -20 49 l-56 55q-20 20 -53 21h-112q-33 0 -54 -21l-53 -55q-23 -20 -22 -49v-95z" />
<glyph unicode="'" horiz-adv-x="360" d="M102 1341v193h154v-193l-18 -239h-119z" />
<glyph unicode="(" horiz-adv-x="608" d="M98 74v1210q0 66 43 111l176 174q27 27 49.5 36t59.5 9h84v-139h-41q-33 0 -53 -21l-146 -145q-23 -23 -22 -52v-1157q0 -29 22 -51l148 -147q25 -18 51 -19h41v-139h-84q-61 0 -109 47l-161 160q-35 33 -46.5 57.5t-11.5 65.5z" />
<glyph unicode=")" horiz-adv-x="608" d="M98 -117h41q37 0 56 25l143 141q23 23 22 51v1157q0 29 -22 52l-145 145q-20 20 -54 21h-41v139h84q25 0 42.5 -4t32.5 -14.5t34 -26.5l174 -174q45 -45 45 -111v-1210q0 -39 -12.5 -64.5t-44.5 -58.5l-162 -160q-47 -47 -109 -47h-84v139z" />
<glyph unicode="*" horiz-adv-x="974" d="M88 862l154 90l147 70l-147 70l-154 88l64 110l151 -86l137 -94l-12 160v178h123v-178l-12 -158l135 92l149 86l66 -110l-156 -88l-145 -70l145 -70l156 -90l-66 -110l-149 88l-135 92l14 -160v-178h-125v178l12 162l-137 -94l-151 -88z" />
<glyph unicode="+" d="M88 528v142h381v387h149v-387h381v-142h-381v-387h-149v387h-381z" />
<glyph unicode="," horiz-adv-x="413" d="M111 -182l79 168h-63v184h186v-131q0 -59 -26 -111l-51 -110h-125z" />
<glyph unicode="-" horiz-adv-x="831" d="M94 530v142h645v-142h-645z" />
<glyph unicode="." horiz-adv-x="389" d="M102 -39v186h187v-186h-187z" />
<glyph unicode="/" horiz-adv-x="819" d="M104 0l471 1434h148l-471 -1434h-148z" />
<glyph unicode="0" horiz-adv-x="999" d="M86 244v893q0 66 47 112l84 84q27 27 49.5 36t59.5 9h350q37 0 59.5 -9t48.5 -36l84 -84q47 -47 47 -112v-893q0 -68 -47 -113l-84 -84q-18 -18 -33.5 -27.5t-33 -13.5t-41.5 -4h-350q-37 0 -59.5 9t-49.5 36l-84 84q-47 45 -47 113zM227 252q0 -27 23 -49l55 -56 q20 -20 53 -20h285q33 0 53 20l56 56q23 23 22 49v874q1 29 -22 52l-56 55q-20 20 -53 20h-285q-33 0 -53 -20l-55 -55q-23 -23 -23 -52v-874z" />
<glyph unicode="1" horiz-adv-x="618" d="M39 1194l33 70l311 114h94l51 -51v-1327h-141v1229l-317 -119z" />
<glyph unicode="2" horiz-adv-x="1042" d="M84 0v397q0 129 133 197l514 264q49 25 49 74v133q0 37 -28 70l-88 90q-29 29 -76 28h-211q-47 0 -76 -28l-92 -95l-96 97l92 92q35 37 62.5 48t74.5 11h281q45 0 73.5 -11t63.5 -48l106 -107q31 -33 44.5 -63.5t13.5 -79.5v-156q0 -113 -66 -145l-582 -293 q-49 -27 -49 -76v-274h754v-82l-45 -43h-852z" />
<glyph unicode="3" horiz-adv-x="952" d="M51 106l94 95l56 -56q20 -20 53 -20h342q33 0 53 20l56 56q23 23 22 49v287q0 29 -22 49l-109 108q-20 20 -53 23h-328v125h348q33 0 53 20l78 82q23 23 23 49v133q0 29 -23 52l-55 55q-20 20 -53 20h-322q-33 0 -53 -20l-55 -55l-95 94l62 61q27 27 49 36t59 9h387 q37 0 59.5 -9t49.5 -36l84 -84q47 -47 47 -112v-154q0 -63 -47 -111l-100 -104l110 -111q47 -45 47 -110v-305q0 -68 -47 -113l-84 -84q-27 -27 -49 -36t-59 -9h-408q-37 0 -59.5 9t-48.5 36z" />
<glyph unicode="4" horiz-adv-x="1034" d="M57 373v78l480 927h202l54 -51v-881h186v-73l-53 -54h-133v-319h-142v319h-540zM213 446h438v807h-18z" />
<glyph unicode="5" horiz-adv-x="935" d="M80 745l80 582l53 51h547l51 -51v-74h-514l-66 -460h383q25 0 43.5 -4.5t34 -14.5t33.5 -29l84 -83q45 -45 45 -111v-309q0 -68 -45 -113l-84 -84q-27 -27 -50.5 -36t-60.5 -9h-348q-37 0 -60.5 9t-49.5 36l-60 61l94 95l54 -56q20 -20 53 -20h287q31 0 53 20l53 56 q23 23 23 49v291q0 29 -23 49l-53 55q-20 20 -53 21h-424z" />
<glyph unicode="6" horiz-adv-x="960" d="M86 250v887q0 66 47 112l84 84q27 27 49.5 36t59.5 9h350q37 0 59.5 -9t48.5 -36l62 -61l-94 -94l-56 55q-20 20 -53 20h-285q-33 0 -53 -20l-55 -55q-23 -23 -23 -52v-370l199 92q49 25 98 24h113q25 0 41 -4t32.5 -14t34.5 -31l84 -84q45 -45 45 -118v-371 q0 -72 -45 -119l-84 -84q-29 -29 -51 -38t-57 -9h-311q-35 0 -57.5 9t-51.5 38l-84 84q-47 47 -47 119zM227 246q0 -23 23 -45l53 -56q20 -18 53 -18h250q33 0 51 18l56 56q23 23 22 45v381q1 25 -22 45l-54 55q-20 18 -53 18h-78q-23 0 -41 -8l-260 -121v-370z" />
<glyph unicode="7" horiz-adv-x="817" d="M39 1251v76l51 51h623l53 -51v-55l-389 -1272h-141l374 1251h-571z" />
<glyph unicode="8" horiz-adv-x="999" d="M86 244v305q0 66 47 110l72 72l-62 64q-47 45 -47 110v232q0 66 47 112l84 84q27 27 49.5 36t59.5 9h330q37 0 59.5 -9t48.5 -36l84 -84q47 -45 47 -112v-232q0 -66 -47 -110l-61 -64l71 -72q47 -45 47 -110v-305q0 -68 -47 -113l-84 -84q-18 -18 -33.5 -27.5t-33 -13.5 t-41.5 -4h-350q-37 0 -59.5 9t-49.5 36l-84 84q-47 45 -47 113zM227 252q0 -27 23 -49l55 -56q20 -20 53 -20h285q33 0 53 20l56 56q23 23 22 49v287q1 29 -22 49l-56 55q-18 18 -49 21h-293q-31 -2 -49 -21l-55 -55q-23 -20 -23 -49v-287zM238 915q0 -29 22 -49l55 -55 q18 -18 50 -20h272q31 2 49 20l55 55q23 20 23 49v211q0 29 -23 52l-55 55q-20 20 -53 20h-264q-33 0 -54 -20l-55 -55q-23 -23 -22 -52v-211z" />
<glyph unicode="9" horiz-adv-x="960" d="M86 795v333q0 72 47 117l84 86q29 29 51.5 38t57.5 9h311q35 0 57.5 -9t50.5 -38l84 -86q45 -45 45 -117v-886q0 -68 -45 -113l-84 -84q-47 -45 -108 -45h-350q-37 0 -59.5 9t-49.5 36l-61 61l94 95l55 -56q20 -20 53 -20h285q33 0 53 20l56 56q23 23 22 49v409l-198 -92 q-49 -25 -99 -24h-112q-35 0 -57.5 10t-51.5 39l-84 84q-47 45 -47 119zM227 788q0 -25 23 -45l53 -55q20 -18 53 -18h78q23 0 41 8l260 123v332q1 22 -22 45l-56 55q-18 18 -51 18h-250q-33 0 -53 -18l-53 -55q-23 -23 -23 -45v-345z" />
<glyph unicode=":" horiz-adv-x="389" d="M102 -12v186h187v-186h-187zM102 850v186h187v-186h-187z" />
<glyph unicode=";" horiz-adv-x="413" d="M111 -182l79 168h-63v184h186v-131q0 -59 -26 -111l-51 -110h-125zM127 844v186h186v-186h-186z" />
<glyph unicode="&#x3c;" horiz-adv-x="1122" d="M88 436v201l889 430l53 -125l-772 -371v-67l772 -371l-53 -125z" />
<glyph unicode="=" d="M88 338v143h909v-143h-909zM88 715v143h909v-143h-909z" />
<glyph unicode="&#x3e;" horiz-adv-x="1122" d="M92 133l770 371v67l-770 371l53 125l887 -430v-201l-887 -428z" />
<glyph unicode="?" horiz-adv-x="974" d="M100 1282l93 92q37 35 64.5 47.5t74.5 12.5h252q47 0 74.5 -12.5t62.5 -47.5l106 -106q16 -16 26.5 -31.5t18 -33t10.5 -36t3 -45.5v-161q0 -111 -66 -144l-241 -123q-49 -27 -50 -76v-237h-143v242q0 129 133 198l174 90q51 27 51 74v133q0 39 -30 70l-88 88 q-29 29 -76 29h-182q-47 0 -78 -29l-90 -92zM365 0v186h184v-186h-184z" />
<glyph unicode="@" horiz-adv-x="1529" d="M100 63v779q0 57 39 96l164 164q41 39 94 39h733q53 0 95 -39l164 -164q39 -39 38 -96v-477q0 -57 -38 -97l-164 -162q-39 -41 -95 -40h-198l-10 61l-86 -41q-41 -20 -86 -20h-125q-49 0 -86 36l-64 64q-37 37 -37 88v88q0 53 37 88l72 72q37 37 86 37h289v102 q0 20 -17 37l-45 45q-16 14 -39 14h-340v76l35 33h330q51 0 88 -37l70 -70q37 -37 36 -88v-473h66q33 0 51 21l129 137q20 23 21 49v438q0 27 -21 45l-143 142q-20 20 -51 20h-656q-31 0 -51 -18l-143 -142q-20 -20 -21 -49v-735q0 -29 23 -49l141 -141q20 -18 49 -19h606 v-113h-643q-53 0 -94 41l-164 162q-39 39 -39 96zM557 264q0 -20 16 -37l39 -37q14 -16 39 -16h97q18 0 32 8l142 66v182h-263q-25 0 -38 -14l-48 -47q-16 -16 -16 -37v-68z" />
<glyph unicode="A" horiz-adv-x="1288" d="M55 39l449 1395h276l449 -1395l-84 -39h-60l-147 471h-592l-147 -471h-60zM389 606h506l-217 692h-72z" />
<glyph unicode="B" horiz-adv-x="1228" d="M180 0v1382l49 52h596q35 0 57.5 -9.5t49.5 -35.5l84 -84q45 -45 45 -109v-305q0 -59 -33 -94l-33 -35q-4 -4 -4 -7t4 -7l88 -89q45 -45 45 -110v-311q0 -63 -45 -109l-84 -84q-18 -18 -32.5 -27.5t-31.5 -13.5t-42 -4h-713zM326 135h524q33 0 53 21l58 57q23 23 22 51 v260q1 28 -22 51l-58 58q-20 20 -53 20h-524v-518zM326 788h456q33 0 54 21l55 57q25 23 24 52v251q1 29 -24 52l-55 57q-20 20 -54 20h-456v-510z" />
<glyph unicode="C" horiz-adv-x="1200" d="M141 328v778q0 66 45 108l174 175q14 14 25.5 22t24 13.5t27 7.5t32.5 2h373q37 0 59.5 -9.5t48.5 -35.5l150 -150l-105 -102l-141 141q-23 20 -55 20h-287q-33 0 -55 -20l-146 -145q-23 -23 -22 -52v-729q0 -29 22 -51l146 -145q23 -20 55 -21h287q33 0 55 21l141 141 l105 -102l-150 -150q-27 -27 -49 -36t-59 -9h-373q-37 0 -59.5 9t-49.5 36l-174 174q-45 43 -45 109z" />
<glyph unicode="D" horiz-adv-x="1296" d="M180 0v1382l49 52h600q35 0 57.5 -9.5t49.5 -35.5l174 -175q45 -43 45 -108v-778q0 -66 -45 -109l-174 -174q-27 -27 -48.5 -36t-58.5 -9h-649zM326 135h460q33 0 54 21l147 145q23 23 23 51v729q0 29 -23 52l-147 145q-20 20 -54 20h-460v-1163z" />
<glyph unicode="E" d="M150 238v958q0 63 45 109l84 84q27 27 49 36t57 9h551l51 -52v-84h-559q-33 0 -53 -20l-58 -57q-23 -23 -22 -52v-385h575v-135h-575v-385q0 -29 22 -51l58 -57q20 -20 53 -21h559v-84l-51 -51h-551q-25 0 -42 4t-31.5 13.5t-32.5 27.5l-84 84q-45 45 -45 109z" />
<glyph unicode="F" horiz-adv-x="1079" d="M180 2v1194q0 63 45 109l84 84q27 27 49.5 36t57.5 9h512l51 -52v-84h-520q-33 0 -53 -20l-58 -57q-23 -23 -22 -52v-424h536v-135h-536v-608h-146z" />
<glyph unicode="G" horiz-adv-x="1286" d="M139 328v780q0 66 43 109l176 174q43 43 86 43h392q37 0 59.5 -9.5t46.5 -35.5l152 -150l-105 -102l-143 141q-23 23 -58 22h-6h-274q-33 0 -55 -20l-146 -145q-23 -23 -22 -52v-731q0 -29 22 -51l148 -145q23 -23 59 -23h6h273q33 0 55 21l145 145q23 23 23 53v287h-334 v84l51 51h428v-448q0 -66 -43 -109l-176 -174q-43 -43 -88 -43h-389q-37 0 -59.5 9t-47.5 36l-176 174q-43 43 -43 109z" />
<glyph unicode="H" horiz-adv-x="1388" d="M180 0v1382l49 52h97v-625h735v573l49 52h96v-1434h-145v674h-735v-674h-146z" />
<glyph unicode="I" horiz-adv-x="514" d="M182 0v1382l49 52h97v-1434h-146z" />
<glyph unicode="J" horiz-adv-x="659" d="M59 -121h140q35 0 57 21l55 55q20 23 21 51v1284h-273v86l52 49h366v-1443q0 -37 -9 -59.5t-34 -47.5l-84 -84q-27 -27 -49 -37t-59 -10h-183v135z" />
<glyph unicode="K" horiz-adv-x="1202" d="M182 0v1382l51 52h97v-709l624 709h58l63 -64l-534 -616l600 -691l-66 -63h-57l-572 645l-116 -135v-510h-148z" />
<glyph unicode="L" horiz-adv-x="1038" d="M180 51v1331l51 52h95v-1299h651v-135h-746z" />
<glyph unicode="M" horiz-adv-x="1816" d="M160 0v1382l51 52h278l394 -1299h45l393 1299h278l52 -52v-1382h-148v1298h-78l-405 -1298h-232l-403 1298h-80v-1298h-145z" />
<glyph unicode="N" horiz-adv-x="1366" d="M170 0v1382l49 52h242l534 -1299h54v1299h145v-1383l-49 -51h-242l-532 1298h-56v-1298h-145z" />
<glyph unicode="O" horiz-adv-x="1357" d="M139 328v778q0 66 43 108l174 175q14 14 25.5 22t25 13.5t27 7.5t31.5 2h426q37 0 59.5 -9.5t46.5 -35.5l177 -175q43 -43 43 -108v-778q0 -66 -43 -109l-177 -174q-25 -27 -47 -36t-59 -9h-426q-37 0 -59.5 9t-49.5 36l-174 174q-43 43 -43 109zM285 352q0 -29 22 -51 l146 -145q23 -20 55 -21h340q33 0 55 21l146 145q23 23 22 51v729q1 29 -22 52l-146 145q-23 20 -55 20h-340q-33 0 -55 -20l-146 -145q-23 -23 -22 -52v-729z" />
<glyph unicode="P" horiz-adv-x="1202" d="M180 0v1382l51 52h615q35 0 57.5 -9.5t48.5 -35.5l84 -84q45 -45 45 -109v-346q0 -66 -45 -109l-84 -84q-27 -27 -49 -36t-57 -9h-520v-612h-146zM326 748h477q33 0 53 20l57 55q23 23 23 54v292q0 29 -23 52l-57 57q-20 20 -53 20h-477v-550z" />
<glyph unicode="Q" horiz-adv-x="1400" d="M141 328v778q0 66 45 108l174 175q14 14 25.5 22t24 13.5t26 7.5t31.5 2h428q25 0 41 -4.5t31.5 -13.5t33.5 -27l175 -175q45 -43 45 -108v-778q0 -63 -39 -105l-52 -51l191 -192l-59 -60h-68l-160 160l-43 -43q-41 -37 -96 -37h-428q-35 0 -57.5 9t-49.5 36l-174 174 q-45 43 -45 109zM287 354q0 -31 24 -53l146 -145q20 -20 53 -21h342q33 0 53 21l148 145q23 23 22 53v725q1 31 -22 54l-148 145q-20 20 -53 20h-342q-33 0 -53 -20l-146 -145q-25 -23 -24 -54v-725z" />
<glyph unicode="R" horiz-adv-x="1239" d="M182 0v1382l51 52h615q37 0 58.5 -9.5t47.5 -35.5l86 -84q43 -45 43 -109v-309q0 -66 -43 -109l-86 -86q-23 -23 -47 -30h-51l285 -599l-66 -63h-65l-308 649h-374v-649h-146zM328 782h477q33 0 55 23l55 55q23 23 23 51v258q0 29 -23 52l-55 57q-23 20 -55 20h-477v-516 z" />
<glyph unicode="S" horiz-adv-x="1120" d="M98 41v94h578q47 0 78 31l88 88q33 33 32 72v127q0 51 -53 77l-649 332q-39 20 -56.5 49t-17.5 80v123q0 49 12.5 80t43.5 63l118 117q35 37 63 48.5t73 11.5h503l43 -41v-95h-512q-49 0 -77 -30l-89 -90q-33 -33 -32 -72v-80q0 -49 51 -74l596 -303q129 -66 129 -194 v-129q0 -92 -76 -168l-88 -88q-70 -70 -180 -70h-535z" />
<glyph unicode="T" horiz-adv-x="1130" d="M57 1298v84l52 52h911l51 -52v-84h-434v-1298h-145v1298h-435z" />
<glyph unicode="U" horiz-adv-x="1341" d="M180 238v1144l49 52h97v-1170q0 -29 22 -51l55 -57q23 -20 56 -21h432q33 0 55 21l55 57q23 23 23 51v1118l51 52h94v-1196q0 -63 -43 -109l-86 -84q-27 -27 -48 -36t-58 -9h-518q-37 0 -58.5 9t-48.5 36l-86 84q-43 45 -43 109z" />
<glyph unicode="V" horiz-adv-x="1267" d="M59 1395l84 39h60l385 -1299h94l385 1299h59l84 -39l-424 -1395h-305z" />
<glyph unicode="W" horiz-adv-x="1992" d="M43 1395l84 39h59l310 -1299h67l295 1299h275l292 -1299h68l311 1299h60l84 -39l-353 -1395h-268l-307 1298h-49l-307 -1298h-269z" />
<glyph unicode="X" horiz-adv-x="1146" d="M61 63l426 658l-426 649l66 64h55l396 -598l380 598h64l63 -64l-426 -657l426 -650l-63 -63h-59l-392 598l-387 -598h-57z" />
<glyph unicode="Y" horiz-adv-x="1193" d="M59 1395l82 39h62l329 -789h127l330 789h62l82 -39l-383 -885h-80v-510h-148v510h-80z" />
<glyph unicode="Z" horiz-adv-x="1173" d="M98 51v211l797 952v84h-756v84l51 52h801l49 -52v-215l-794 -952v-80h825v-84l-49 -51h-872z" />
<glyph unicode="[" horiz-adv-x="548" d="M100 -211v1708l52 53h299v-88l-52 -51h-149v-1534h147l54 -49v-88h-297z" />
<glyph unicode="\" horiz-adv-x="817" d="M104 1434h138l471 -1434h-138z" />
<glyph unicode="]" horiz-adv-x="548" d="M100 -172l54 49h147v1534h-149l-52 51v88h299l52 -53v-1708l-54 -49h-297v88z" />
<glyph unicode="^" horiz-adv-x="1247" d="M92 567l426 881h209l426 -881l-129 -55l-365 758h-73l-365 -758z" />
<glyph unicode="_" horiz-adv-x="1163" d="M86 -193h993v-122h-993v122z" />
<glyph unicode="`" horiz-adv-x="501" d="M96 1473l88 79l222 -262l-66 -61z" />
<glyph unicode="a" horiz-adv-x="989" d="M96 242v116q0 66 45 111l97 96q27 27 50 36t58 9h397v154q0 29 -22 51l-66 66q-20 20 -53 20h-446v84l39 39h438q25 0 42 -4t32.5 -14.5t33.5 -26.5l95 -96q45 -45 45 -111v-772h-123l-15 86l-129 -61q-53 -25 -112 -25h-166q-37 0 -59.5 9t-49.5 36l-86 86 q-45 45 -45 111zM233 252q0 -29 23 -51l55 -58q23 -20 56 -20h135q25 0 45 8l196 94v262h-366q-33 0 -53 -20l-68 -68q-23 -23 -23 -51v-96z" />
<glyph unicode="b" horiz-adv-x="1011" d="M127 242v1188l39 38h98v-561l203 94q47 23 98 23h113q37 0 59.5 -10t48.5 -37l86 -84q45 -45 46 -111v-540q0 -66 -46 -111l-86 -86q-27 -27 -49 -36t-59 -9h-311q-37 0 -59.5 9t-49.5 36l-86 86q-45 45 -45 111zM264 250q0 -29 23 -51l55 -56q22 -22 52 -22h3h250 q33 0 53 22l58 56q23 23 22 51v522q1 28 -22 51l-56 58q-23 20 -55 20h-76q-25 0 -45 -10l-262 -123v-518z" />
<glyph unicode="c" horiz-adv-x="909" d="M98 242v540q0 66 45 111l86 86q18 16 34 26.5t33 14.5t42 4h330q35 0 58.5 -9t47.5 -36l60 -61l-91 -91l-53 54q-23 20 -55 20h-266q-33 0 -54 -20l-57 -58q-23 -20 -22 -51v-520q0 -31 22 -51l57 -58q20 -20 54 -20h266q33 0 55 20l53 54l93 -93l-60 -59 q-27 -27 -50.5 -36t-57.5 -9h-330q-37 0 -59.5 9t-49.5 36l-86 86q-45 45 -45 111z" />
<glyph unicode="d" horiz-adv-x="1007" d="M96 242v530q0 66 45 111l97 94q27 27 50 37t58 10h397v444h101l37 -38v-1430h-123l-15 86l-129 -61q-53 -25 -112 -25h-166q-37 0 -59.5 10t-49.5 35l-86 86q-45 45 -45 111zM233 250q0 -29 23 -51l55 -56q22 -22 53 -22h3h135q25 0 45 10l196 94v676h-366q-33 0 -53 -20 l-68 -68q-23 -23 -23 -51v-512z" />
<glyph unicode="e" horiz-adv-x="960" d="M96 242v540q0 66 45 111l86 86q27 27 49.5 36t59.5 9h301q25 0 42 -4t32.5 -14.5t33.5 -26.5l86 -86q45 -45 46 -111v-280l-39 -39h-605v-211q0 -29 23 -51l55 -58q23 -20 56 -20h239q33 0 53 20l56 54l90 -91l-60 -61q-27 -27 -49 -36t-59 -9h-301q-37 0 -59.5 9 t-49.5 36l-86 86q-45 45 -45 111zM233 584h506v188q1 31 -22 51l-58 58q-20 20 -53 20h-239q-33 0 -56 -20l-55 -58q-23 -20 -23 -51v-188z" />
<glyph unicode="f" horiz-adv-x="626" d="M45 901v84l39 39h125v168q0 66 45 111l84 86q14 12 25.5 21t24.5 14.5t26.5 7.5t31.5 2h95l39 -39v-84h-101q-33 0 -55 -21l-55 -55q-23 -23 -23 -51v-160h213v-123h-213v-901h-137v901h-164z" />
<glyph unicode="g" horiz-adv-x="1003" d="M96 258v535q0 37 9.5 55t35.5 45l86 86q16 16 32.5 26.5t34 14.5t42.5 4h311q37 0 59.5 -9t49.5 -36l86 -86q45 -45 45 -111v-901q0 -61 -43 -108l-99 -97q-27 -27 -49 -36t-57 -9h-440l-39 37v86h446q33 0 53 21l68 65q23 23 23 51v226l-203 -94q-47 -23 -98 -23h-113 q-37 0 -59.5 10t-49.5 37l-86 84q-45 45 -45 127zM233 252q0 -29 23 -51l55 -58q23 -20 56 -20h75q25 0 43 8l265 125v518q0 28 -23 51l-57 56q-20 20 -54 20h-249q-33 0 -56 -20l-55 -56q-23 -23 -23 -51v-522z" />
<glyph unicode="h" horiz-adv-x="1036" d="M133 0v1430l39 38h98v-561l203 94q47 23 98 23h113q25 0 42 -5t32.5 -14.5t34.5 -27.5l86 -84q45 -45 45 -111v-782h-138v772q0 29 -22 51l-57 58q-20 20 -54 20h-75q-25 0 -46 -10l-262 -123v-768h-137z" />
<glyph unicode="i" horiz-adv-x="436" d="M141 1219v167h166v-167h-166zM156 0v1024h137v-1024h-137z" />
<glyph unicode="j" horiz-adv-x="444" d="M-20 -248h53q27 0 53 21l57 57q23 23 23 51v1143h137v-1153q0 -63 -43 -109l-88 -88q-45 -45 -109 -45h-83v123zM152 1219v167h165v-167h-165z" />
<glyph unicode="k" horiz-adv-x="1003" d="M139 0v1430l39 38h98v-841l510 397h70l62 -59l-476 -369l516 -537l-61 -59h-70l-477 510l-74 -82v-428h-137z" />
<glyph unicode="l" horiz-adv-x="555" d="M139 242v1188l41 38h96v-1218q0 -29 23 -49l57 -60q23 -20 54 -20h96v-121h-127q-61 0 -109 45l-80 80q-29 29 -40 53.5t-11 63.5z" />
<glyph unicode="m" horiz-adv-x="1595" d="M109 0v1024h120l17 -100l170 77q47 23 98 23h119q37 0 59.5 -9t48.5 -36l80 -80l219 102q47 23 99 23h118q27 0 43.5 -4t33 -14.5t32.5 -26.5l86 -86q45 -45 45 -111v-782h-137v772q0 31 -23 51l-55 58q-23 20 -55 20h-82q-25 0 -43 -8l-232 -109v-784h-137v774 q0 29 -22 49l-56 58q-20 20 -53 20h-82q-25 0 -45 -8l-229 -109v-784h-137z" />
<glyph unicode="n" horiz-adv-x="1038" d="M127 0v1024h119l20 -117l201 94q47 23 98 23h119q25 0 42 -4t32.5 -14.5t34.5 -26.5l86 -86q45 -45 45 -111v-782h-138v772q0 31 -22 51l-55 58q-23 20 -56 20h-82q-25 0 -45 -8l-262 -125v-768h-137z" />
<glyph unicode="o" horiz-adv-x="997" d="M96 242v540q0 66 45 111l86 86q27 27 49.5 36t59.5 9h328q25 0 42 -4t33.5 -14.5t32.5 -26.5l86 -86q45 -45 45 -111v-540q0 -66 -45 -111l-86 -86q-27 -27 -49.5 -36t-58.5 -9h-328q-37 0 -59.5 9t-49.5 36l-86 86q-45 45 -45 111zM233 252q0 -31 23 -51l55 -58 q23 -20 56 -20h266q33 0 55 20l55 58q23 20 23 51v520q0 31 -23 51l-55 58q-23 20 -55 20h-266q-33 0 -56 -20l-55 -58q-23 -20 -23 -51v-520z" />
<glyph unicode="p" horiz-adv-x="1021" d="M137 -369v1393h119l20 -117l201 94q47 23 98 23h113q25 0 42.5 -4t32.5 -14.5t34 -26.5l86 -86q45 -45 45 -111v-540q0 -66 -45 -111l-86 -84q-27 -27 -49.5 -37t-59.5 -10h-414v-330l-38 -39h-99zM274 123h383q33 0 56 20l55 58q23 23 23 51v522q0 28 -23 51l-55 56 q-20 20 -49 20h-7h-75q-25 0 -43 -8l-265 -125v-645z" />
<glyph unicode="q" horiz-adv-x="1011" d="M96 242v540q0 66 45 111l86 86q16 16 32.5 26.5t34 14.5t42.5 4h311q37 0 59.5 -9t49.5 -36l86 -86q45 -45 45 -111v-1112l-39 -39h-98v486l-203 -94q-47 -23 -98 -23h-113q-37 0 -59.5 10t-49.5 37l-86 84q-45 45 -45 111zM233 252q0 -29 23 -51l55 -58q23 -20 56 -20 h75q25 0 45 10l263 123v518q0 28 -23 51l-55 56q-23 20 -56 20h-249q-33 0 -56 -20l-55 -56q-23 -23 -23 -51v-522z" />
<glyph unicode="r" horiz-adv-x="665" d="M129 0v1024h109l30 -176l203 153q28 23 96 23h56v-123h-50q-31 0 -49 -12l-258 -189v-700h-137z" />
<glyph unicode="s" horiz-adv-x="888" d="M96 39v84h426q33 0 53 20l58 58q23 20 22 51v51q0 37 -37 55l-458 234q-63 31 -64 104v86q0 66 45 111l86 86q27 27 49.5 36t59.5 9h371l38 -39v-84h-378q-33 0 -56 -20l-55 -58q-23 -23 -23 -51v-43q0 -37 37 -55l420 -211q102 -53 103 -152v-65q0 -70 -60 -129l-63 -64 q-53 -53 -142 -53h-391z" />
<glyph unicode="t" horiz-adv-x="679" d="M49 901v84l39 39h125v240h137v-240h234v-123h-234v-651q0 -29 23 -51l55 -56q23 -23 55 -22h101v-84l-41 -37h-92q-35 0 -58.5 9t-50.5 36l-84 86q-45 43 -45 111v659h-164z" />
<glyph unicode="u" horiz-adv-x="1028" d="M117 242v782h137v-772q0 -31 22 -51l56 -58q23 -20 55 -20h82q25 0 45 8l262 125v768h137v-1024h-118l-21 117l-201 -94q-47 -23 -98 -23h-119q-37 0 -59.5 9t-48.5 36l-86 86q-45 45 -45 111z" />
<glyph unicode="v" horiz-adv-x="1038" d="M45 997l57 27h76l301 -901h78l299 901h78l57 -27l-344 -997h-260z" />
<glyph unicode="w" horiz-adv-x="1622" d="M25 991l67 33h68l227 -901h66l243 901h230l241 -901h68l227 901h66l69 -33l-274 -991h-244l-252 901h-34l-250 -901h-246z" />
<glyph unicode="x" horiz-adv-x="964" d="M43 993l66 31h77l295 -401l283 401h78l63 -31l-340 -481l353 -481l-66 -31h-78l-293 401l-295 -401h-77l-64 31l352 481z" />
<glyph unicode="y" horiz-adv-x="1005" d="M45 997l57 27h78l299 -901h45l303 901h76l58 -27l-351 -1017q0 -4 -2 -11q-16 -45 -28.5 -73.5t-45 -83t-69.5 -91t-99.5 -71.5t-138.5 -49l-20 112q104 20 157.5 75.5t86.5 139.5l24 72h-86z" />
<glyph unicode="z" horiz-adv-x="978" d="M96 39v194l631 619v49h-596v84l39 39h653l41 -39v-178l-631 -621v-63h650v-84l-39 -39h-709z" />
<glyph unicode="{" horiz-adv-x="706" d="M96 618v107l185 129v451q0 65 43 110l168 164l104 -106l-143 -144q-23 -23 -23 -51v-483l-172 -123l172 -123v-483q0 -29 23 -52l143 -143l-104 -109l-168 170q-43 41 -43 109v448z" />
<glyph unicode="|" horiz-adv-x="360" d="M102 -289v1827h154v-1827h-154z" />
<glyph unicode="}" horiz-adv-x="706" d="M109 -129l145 143q23 23 22 52v483l170 123l-170 123v483q0 29 -22 51l-145 144l106 106l166 -164q45 -45 45 -110v-451l184 -129v-107l-184 -129v-448q0 -68 -45 -109l-166 -170z" />
<glyph unicode="~" horiz-adv-x="1175" d="M96 549q80 121 143.5 185.5t139.5 70.5q25 2 41 2q49 0 90 -20.5t119 -81.5q113 -88 176 -89q45 0 91 36t108 118l79 -53q-113 -260 -288 -260q-82 0 -168 61q-16 10 -41 28.5t-37 27t-30.5 20.5t-29 18t-25.5 13.5t-25.5 10.5t-24 5t-25.5 2q-18 0 -41 -4 q-82 -19 -170 -150z" />
<glyph unicode="&#xa1;" horiz-adv-x="389" d="M102 913v187h187v-187h-187zM119 74l18 647h117l18 -647v-408h-153v408z" />
<glyph unicode="&#xa2;" horiz-adv-x="929" d="M90 244v536q0 66 45 113l84 84q27 27 50.5 36t60.5 9h108v104h111v-104h108q18 0 31.5 -2t27 -7t26 -13.5t24.5 -22.5l61 -62l-94 -94l-55 56q-20 20 -53 20h-76v-770h76q33 0 53 20l55 56l94 -94l-61 -62q-27 -27 -50.5 -37t-58.5 -10h-108v-102h-111v102h-108 q-37 0 -60.5 10t-50.5 37l-84 84q-45 45 -45 113zM231 254q0 -29 23 -51l55 -56q20 -20 51 -20h78v770h-78q-31 0 -51 -20l-55 -56q-23 -23 -23 -51v-516z" />
<glyph unicode="&#xa3;" horiz-adv-x="1118" d="M100 651v135h140v263q0 66 43 108l174 174q27 27 49 36t59 9h154q35 0 57.5 -9t48.5 -36l150 -149l-103 -105l-143 144q-20 20 -53 20h-68q-33 0 -55 -20l-145 -146q-23 -23 -23 -51v-238h393v-86l-51 -49h-342v-313q0 -53 -29 -88l-37 -37q-2 -4 -2 -6q0 -4 7 -8l63 -41 q37 -18 88 -19h553v-135h-670q-25 0 -41 4t-31.5 13.5t-33.5 27.5l-150 150l113 114q25 23 25 52v286h-140z" />
<glyph unicode="&#xa4;" horiz-adv-x="1439" />
<glyph unicode="&#xa5;" horiz-adv-x="1265" d="M94 1393l84 39h60l329 -785h129l330 785h59l84 -39l-260 -594h131v-135h-190l-59 -138h-86v-147h335v-135h-335v-244h-146v244h-336v135h336v147h-86l-59 138h-191v135h131z" />
<glyph unicode="&#xa6;" horiz-adv-x="360" d="M102 -289v699h154v-699h-154zM102 838v700h154v-700h-154z" />
<glyph unicode="&#xa7;" horiz-adv-x="868" d="M82 -113h426q33 0 53 21l55 57q23 18 23 49v54q0 37 -35 55l-459 233q-63 31 -63 105v86q0 66 45 110l66 66q20 18 32 25l-80 40q-63 31 -63 105v86q0 66 45 111l86 84q27 27 49.5 37t59.5 10h368l39 -39v-84h-377q-35 0 -55 -21l-55 -57q-23 -23 -23 -51v-43 q0 -37 37 -56l418 -211q102 -53 102 -151v-66q0 -70 -57 -129l-45 -43q-14 -14 -37 -26l57 -31q82 -51 82 -137v-66q0 -70 -57 -129l-64 -63q-55 -53 -143 -54h-391l-39 37v86zM223 494q0 -41 41 -62l238 -117q35 0 57 23l51 51q25 25 25 55v54q0 41 -41 61l-221 111h-15 q-37 0 -59 -23l-51 -53q-25 -25 -25 -55v-45z" />
<glyph unicode="&#xa8;" horiz-adv-x="686" d="M94 1337v123h129v-123h-129zM461 1337v123h129v-123h-129z" />
<glyph unicode="&#xa9;" horiz-adv-x="1527" d="M94 716.5q0 184.5 89 340t244 245t336 89.5t335.5 -89.5t244 -245t89.5 -340t-89.5 -340t-244 -245.5t-335.5 -90t-336 90t-244 245.5t-89 340zM197 715.5q0 -236.5 166.5 -404.5t399 -168t399.5 168t167 404.5t-167 404.5t-399.5 168t-399 -168t-166.5 -404.5zM467 510 v412q0 45 29 71l92 94q30 29 67 29h201q37 0 68 -29l92 -94l-72 -73l-86 86q-8 6 -14 6h-176q-6 0 -13 -6l-77 -78q-6 -4 -7 -13v-4v-391v-4q0 -6 7 -12l75 -78q8 -6 15 -6h176q8 0 14 6l86 86l72 -74l-92 -92q-31 -31 -68 -31h-201q-37 0 -67 31l-92 92q-29 27 -29 72z" />
<glyph unicode="&#xaa;" horiz-adv-x="667" d="M86 987v70q0 45 31 73l57 60q31 31 74 31h229v77q0 14 -14 29l-35 35q-12 12 -31 12h-276v66l31 28h268q41 0 72 -30l57 -56q31 -31 31 -75v-478h-95l-8 48l-65 -31q-33 -16 -72 -17h-100q-41 0 -72 31l-51 51q-31 31 -31 76zM188 995q0 -16 13 -28l30 -31q12 -10 31 -10 h78q14 0 25 6l112 51v141h-209q-18 0 -30 -12l-37 -37q-12 -12 -13 -26v-54z" />
<glyph unicode="&#xab;" horiz-adv-x="1103" d="M88 434v207l371 346l80 -80l-306 -370l306 -369l-80 -80zM563 434v207l371 346l80 -80l-305 -370l305 -369l-80 -80z" />
<glyph unicode="&#xac;" horiz-adv-x="1439" />
<glyph unicode="&#xad;" horiz-adv-x="831" d="M94 530v142h645v-142h-645z" />
<glyph unicode="&#xae;" horiz-adv-x="1527" d="M94 716.5q0 184.5 89 340t244 245t336 89.5t335.5 -89.5t244 -245t89.5 -340t-89.5 -340t-244 -245.5t-335.5 -90t-336 90t-244 245.5t-89 340zM197 715.5q0 -236.5 166.5 -404.5t399 -168t399.5 168t167 404.5t-167 404.5t-399.5 168t-399 -168t-166.5 -404.5zM510 336 v741l37 37h334q37 0 67 -31l45 -45q27 -27 27 -71v-162q0 -43 -27 -72l-45 -45q-14 -14 -20 -16h-21l137 -287l-49 -49h-49l-147 321h-183v-321h-106zM616 766h254q6 0 13 8l30 31q6 6 7 18v125q-1 13 -7 19l-30 30q-6 8 -13 9h-254v-240z" />
<glyph unicode="&#xaf;" horiz-adv-x="710" d="M96 1403v108h518v-108h-518z" />
<glyph unicode="&#xb0;" horiz-adv-x="747" d="M74 1344.5q0 125.5 88 214t213 88.5t213 -88.5t88 -214t-88 -214t-213 -88.5t-213 88.5t-88 214zM182 1344.5q0 -76.5 57.5 -135t135.5 -58.5t136 58.5t58 135t-58 135t-136 58.5t-135.5 -58.5t-57.5 -135z" />
<glyph unicode="&#xb1;" d="M88 2v141h911v-141h-911zM88 684v143h381v324h149v-324h381v-143h-381v-326h-149v326h-381z" />
<glyph unicode="&#xb2;" horiz-adv-x="735" d="M86 520v252q0 84 84 129l313 160q4 2 11 4q10 6 13 8t3 12v5v6v82q0 20 -16 34l-45 45q-27 25 -41 25h-136q-27 0 -41 -14l-61 -64l-72 72l62 63q41 39 90 39h170q51 0 90 -39l65 -65q37 -37 37 -94v-90q0 -74 -55 -103l-344 -174q-2 -2 -8 -4q-10 -6 -13.5 -8t-3.5 -10 v-6.5v-6.5v-162h459v-63l-33 -33h-528z" />
<glyph unicode="&#xb3;" horiz-adv-x="694" d="M88 596l72 72l37 -39q12 -10 30 -11h203q18 0 31 11l31 30q12 12 12 27v170q0 14 -12 29l-64 61q-10 12 -31 12h-204v95h217q18 2 30 12l45 45q12 14 13 29v75q0 14 -13 27l-30 31q-12 12 -31 12h-191q-18 0 -30 -12l-37 -37l-72 70l45 43q31 30 72 30h235q41 0 72 -30 l51 -52q31 -31 31 -73v-93q0 -43 -31 -73l-53 -58l59 -61q31 -29 31 -74v-186q0 -43 -31 -74l-51 -51q-31 -31 -71 -31h-248q-41 0 -74 31z" />
<glyph unicode="&#xb4;" horiz-adv-x="501" d="M96 1290l223 262l87 -79l-244 -244z" />
<glyph unicode="&#xb6;" horiz-adv-x="1024" d="M90 891v303q0 66 43 109l86 86q27 27 49.5 36t59.5 9h553l51 -52v-1611h-150v1523h-194v-1523h-150v880h-110q-37 0 -59.5 9.5t-49.5 35.5l-86 84q-43 45 -43 111z" />
<glyph unicode="&#xb7;" horiz-adv-x="389" d="M102 504v186h187v-186h-187z" />
<glyph unicode="&#xb8;" horiz-adv-x="538" d="M115 -92l55 119h129l-39 -74q14 2 29.5 2t32.5 -2q63 -10 99 -51t36 -99q0 -68 -46 -113.5t-126 -45.5h-119v88h113q27 0 48 22.5t21 50.5q0 23 -11 39.5t-25.5 23.5t-30.5 9q-37 2 -103 -31z" />
<glyph unicode="&#xb9;" horiz-adv-x="491" d="M88 1257l23 50l194 71h62l39 -37v-821h-105v744l-190 -70z" />
<glyph unicode="&#xba;" horiz-adv-x="681" d="M86 987v326q0 45 31 73l51 52q31 30 72 30h198q43 0 74 -30l51 -52q29 -29 29 -73v-326q0 -45 -29 -76l-51 -51q-31 -31 -74 -31h-198q-41 0 -72 31l-51 51q-31 31 -31 76zM188 995q0 -16 13 -28l30 -29q12 -12 31 -12h154q20 0 30 12l31 29q12 12 12 28v310q0 14 -12 28 l-31 29q-10 12 -30 12h-154q-18 0 -31 -12l-30 -29q-12 -14 -13 -28v-310z" />
<glyph unicode="&#xbb;" horiz-adv-x="1103" d="M90 168l303 369l-303 370l80 80l371 -346v-207l-371 -346zM565 168l303 369l-303 370l80 80l371 -346v-207l-371 -346z" />
<glyph unicode="&#xbc;" horiz-adv-x="1542" d="M84 1257l25 52l192 71h61l39 -37v-821h-104v744l-191 -70zM215 -35l975 1469h135l-975 -1469h-135zM881 236v53l293 569h133l39 -37v-528h112v-57l-37 -39h-75v-197h-105v197h-323zM1001 293h240v399h-33z" />
<glyph unicode="&#xbd;" horiz-adv-x="1691" d="M84 1257l22 52l195 71h61l37 -37v-821h-102v744l-191 -70zM215 -35l975 1469h135l-975 -1469h-135zM1047 0v250q0 86 86 129l309 158q29 14 28 41v75q0 23 -18 39l-45 45q-23 23 -43 23h-129q-27 0 -43 -15l-59 -63l-74 74l63 61q39 39 90 39h170q51 0 91 -39l63 -65 q37 -37 37 -95v-90q0 -74 -53 -102l-340 -172q-29 -14 -29 -41v-158h459v-63l-33 -31h-530z" />
<glyph unicode="&#xbe;" horiz-adv-x="1646" d="M84 598l72 70l37 -37q12 -12 30 -13h205q18 0 29 13l30 28q12 12 13 29v168q0 16 -13 29l-61 63q-12 10 -31 10h-207v97h218q20 0 30 12l45 45q12 12 13 27v75q0 16 -13 29l-30 31q-10 10 -31 10h-191q-18 0 -30 -10l-37 -39l-70 70l43 45q31 30 74 30h233q43 0 74 -30 l51 -52q29 -31 29 -75v-93q0 -43 -29 -73l-55 -56l61 -61q31 -31 31 -76v-184q0 -45 -31 -76l-51 -51q-31 -31 -73 -31h-248q-41 0 -72 31zM326 -35l974 1469h136l-975 -1469h-135zM985 236v53l293 569h135l37 -37v-528h113v-57l-37 -39h-76v-197h-102v197h-324zM1106 293 h242v399h-35z" />
<glyph unicode="&#xbf;" horiz-adv-x="974" d="M90 -25v162q0 113 64 146l241 123q51 25 51 75v238h142v-242q0 -129 -131 -198l-176 -91q-49 -27 -50 -73v-135q0 -37 31 -68l86 -88q31 -31 78 -31h182q45 0 76 31l90 92l98 -98l-92 -92q-35 -37 -62.5 -48.5t-74.5 -11.5h-252q-47 0 -74.5 11.5t-64.5 48.5l-105 106 q-33 33 -45 63.5t-12 79.5zM424 913v187h184v-187h-184z" />
<glyph unicode="&#xc0;" horiz-adv-x="1288" d="M55 39l449 1395h276l449 -1395l-84 -39h-60l-147 471h-592l-147 -471h-60zM389 606h506l-217 692h-72zM489 1905l86 82l224 -265l-68 -59z" />
<glyph unicode="&#xc1;" horiz-adv-x="1288" d="M55 39l449 1395h276l449 -1395l-84 -39h-60l-147 471h-592l-147 -471h-60zM389 606h506l-217 692h-72zM487 1722l224 265l86 -82l-242 -242z" />
<glyph unicode="&#xc2;" horiz-adv-x="1288" d="M55 39l449 1395h276l449 -1395l-84 -39h-60l-147 471h-592l-147 -471h-60zM350 1722l228 269h131l227 -269l-68 -59l-225 225l-225 -225zM389 606h506l-217 692h-72z" />
<glyph unicode="&#xc3;" horiz-adv-x="1288" d="M55 39l449 1395h276l449 -1395l-84 -39h-60l-147 471h-592l-147 -471h-60zM299 1812q2 2 13.5 19.5t14.5 23t15 21.5t18.5 23.5t18.5 21.5t20.5 21.5t21.5 17.5t23.5 15t23.5 10.5t26 5.5q16 2 26 2q35 0 64.5 -14.5t83.5 -57.5q78 -61 120 -61q57 0 140 110l59 -39 q-78 -178 -196 -178q-57 0 -119 43q-23 16 -52.5 37.5t-41 30t-26.5 15.5t-32 7q-14 0 -31 -4q-61 -15 -124 -115zM389 606h506l-217 692h-72z" />
<glyph unicode="&#xc4;" horiz-adv-x="1288" d="M55 39l449 1395h276l449 -1395l-84 -39h-60l-147 471h-592l-147 -471h-60zM389 606h506l-217 692h-72zM395 1769v123h129v-123h-129zM762 1769v123h129v-123h-129z" />
<glyph unicode="&#xc5;" horiz-adv-x="1288" d="M55 39l449 1395h276l449 -1395l-84 -39h-60l-147 471h-592l-147 -471h-60zM389 606h506l-217 692h-70zM455 1870q0 82 54 137t134 55q51 0 95 -25.5t68.5 -69.5t24.5 -97q0 -80 -54 -136.5t-134 -56.5q-51 0 -95 26t-68.5 70t-24.5 97zM551 1870q0 -18 7 -35.5t19.5 -31 t30 -21.5t35.5 -8q27 0 48.5 13t32.5 35.5t11 47.5q0 39 -26.5 67.5t-65.5 28.5t-65.5 -28.5t-26.5 -67.5z" />
<glyph unicode="&#xc6;" horiz-adv-x="1591" d="M55 41l449 1393h944l51 -52v-88h-692v-508h575v-139h-575v-381q0 -29 22 -49l56 -57q23 -20 53 -21h561v-88l-51 -51h-553q-37 0 -59.5 9t-49.5 36l-84 86q-45 45 -45 111v225h-307l-145 -467h-62zM395 606h262v688h-45z" />
<glyph unicode="&#xc7;" horiz-adv-x="1200" d="M141 328v778q0 66 45 108l174 175q14 14 25.5 22t24 13.5t27 7.5t32.5 2h373q37 0 59.5 -9.5t48.5 -35.5l150 -150l-105 -102l-141 141q-23 20 -55 20h-287q-33 0 -55 -20l-146 -145q-23 -23 -22 -52v-729q0 -29 22 -51l146 -145q23 -20 55 -21h287q33 0 55 21l141 141 l105 -102l-150 -150q-27 -27 -49 -36t-59 -9h-209l-29 -55q14 2 29.5 2t32.5 -2q63 -12 99 -52t36 -98q0 -43 -19.5 -78.5t-59.5 -58.5t-93 -23h-119v89h113q29 0 49 21.5t20 51.5q0 18 -6 31.5t-16.5 22t-21.5 12.5t-23 4h-15q-29 0 -88 -29l-63 62l47 100h-37 q-37 0 -59.5 9t-49.5 36l-174 174q-45 43 -45 109z" />
<glyph unicode="&#xc8;" d="M152 238v958q0 63 45 109l84 84q27 27 49 36t57 9h551l51 -52v-84h-559q-33 0 -53 -20l-58 -57q-23 -23 -22 -52v-385h575v-135h-575v-385q0 -29 22 -51l58 -57q20 -20 53 -21h559v-84l-51 -51h-551q-35 0 -57.5 9t-48.5 36l-84 84q-45 45 -45 109zM449 1905l86 82 l223 -265l-66 -59z" />
<glyph unicode="&#xc9;" d="M152 238v958q0 63 45 109l84 84q27 27 49 36t57 9h551l51 -52v-84h-559q-33 0 -53 -20l-58 -57q-23 -23 -22 -52v-385h575v-135h-575v-385q0 -29 22 -51l58 -57q20 -20 53 -21h559v-84l-51 -51h-551q-25 0 -42 4t-31.5 13.5t-32.5 27.5l-84 84q-45 45 -45 109zM449 1722 l221 265l88 -82l-244 -242z" />
<glyph unicode="&#xca;" d="M150 238v958q0 63 45 109l84 84q27 27 49 36t57 9h551l51 -52v-84h-559q-33 0 -53 -20l-58 -57q-23 -23 -22 -52v-385h575v-135h-575v-385q0 -29 22 -51l58 -57q20 -20 53 -21h559v-84l-51 -51h-551q-35 0 -57.5 9t-48.5 36l-84 84q-45 45 -45 109zM309 1722l226 269h131 l227 -269l-66 -59l-227 225l-225 -225z" />
<glyph unicode="&#xcb;" d="M150 238v958q0 63 45 109l84 84q27 27 49 36t57 9h551l51 -52v-84h-559q-33 0 -53 -20l-58 -57q-23 -23 -22 -52v-385h575v-135h-575v-385q0 -29 22 -51l58 -57q20 -20 53 -21h559v-84l-51 -51h-551q-25 0 -42 4t-31.5 13.5t-32.5 27.5l-84 84q-45 45 -45 109zM352 1769 v123h129v-123h-129zM719 1769v123h129v-123h-129z" />
<glyph unicode="&#xcc;" horiz-adv-x="514" d="M102 1905l86 82l224 -265l-68 -59zM182 0v1382l51 52h95v-1434h-146z" />
<glyph unicode="&#xcd;" horiz-adv-x="514" d="M102 1722l224 265l86 -82l-242 -242zM184 0v1382l49 52h97v-1434h-146z" />
<glyph unicode="&#xce;" horiz-adv-x="514" d="M-33 1722l226 269h131l227 -269l-68 -59l-225 225l-225 -225zM184 0v1382l49 52h97v-1434h-146z" />
<glyph unicode="&#xcf;" horiz-adv-x="514" d="M8 1769v123h129v-123h-129zM182 0v1382l51 52h95v-1434h-146zM375 1769v123h129v-123h-129z" />
<glyph unicode="&#xd0;" horiz-adv-x="1357" d="M63 645v143h179v594l53 52h600q35 0 58.5 -9.5t50.5 -35.5l174 -175q45 -45 45 -110v-774q0 -66 -45 -111l-174 -174q-27 -27 -50.5 -36t-58.5 -9h-653v645h-179zM393 139h459q31 0 51 21l148 145q20 23 20 51v721q0 28 -20 51l-148 146q-20 20 -51 20h-459v-506h318 v-143h-318v-506z" />
<glyph unicode="&#xd1;" horiz-adv-x="1366" d="M170 0v1382l49 52h242l534 -1299h54v1299h145v-1383l-49 -51h-242l-532 1298h-56v-1298h-145zM338 1812q2 2 13 19.5t14.5 23t15.5 21.5t18.5 23.5t18.5 21.5t20 21.5t21.5 17.5t24 15t23.5 10.5t25 5.5q16 2 27 2q35 0 64.5 -14.5t83.5 -57.5q78 -61 120 -61 q57 0 140 110l59 -39q-78 -178 -197 -178q-57 0 -118 43q-23 16 -52.5 37.5t-41 30t-27 15.5t-31.5 7q-14 0 -31 -4q-62 -15 -125 -115z" />
<glyph unicode="&#xd2;" horiz-adv-x="1357" d="M139 328v778q0 66 43 108l174 175q14 14 25.5 22t25 13.5t27 7.5t31.5 2h426q37 0 59.5 -9.5t46.5 -35.5l177 -175q43 -43 43 -108v-778q0 -66 -43 -109l-177 -174q-25 -27 -47 -36t-59 -9h-426q-37 0 -59.5 9t-49.5 36l-174 174q-43 43 -43 109zM285 352q0 -29 22 -51 l146 -145q23 -20 55 -21h340q33 0 55 21l146 145q23 23 22 51v729q1 29 -22 52l-146 145q-23 20 -55 20h-340q-33 0 -55 -20l-146 -145q-23 -23 -22 -52v-729zM524 1905l86 82l224 -265l-68 -59z" />
<glyph unicode="&#xd3;" horiz-adv-x="1357" d="M139 328v778q0 66 43 108l174 175q12 10 21.5 18t19 13t19.5 8.5t22.5 4.5t26.5 1h426q37 0 59.5 -9.5t46.5 -35.5l177 -175q43 -43 43 -108v-778q0 -66 -43 -109l-177 -174q-25 -27 -47 -36t-59 -9h-426q-37 0 -59.5 9t-49.5 36l-174 174q-43 43 -43 109zM285 352 q0 -29 22 -51l146 -145q23 -20 55 -21h340q33 0 55 21l146 145q23 23 22 51v729q1 29 -22 52l-146 145q-23 20 -55 20h-340q-33 0 -55 -20l-146 -145q-23 -23 -22 -52v-729zM522 1722l223 265l86 -82l-241 -242z" />
<glyph unicode="&#xd4;" horiz-adv-x="1357" d="M139 328v778q0 66 43 108l174 175q14 14 25.5 22t25 13.5t27 7.5t31.5 2h426q37 0 59.5 -9.5t46.5 -35.5l177 -175q43 -43 43 -108v-778q0 -66 -43 -109l-177 -174q-25 -27 -47 -36t-59 -9h-426q-37 0 -59.5 9t-49.5 36l-174 174q-43 43 -43 109zM285 352q0 -29 22 -51 l146 -145q23 -20 55 -21h340q33 0 55 21l146 145q23 23 22 51v729q1 29 -22 52l-146 145q-23 20 -55 20h-340q-33 0 -55 -20l-146 -145q-23 -23 -22 -52v-729zM385 1722l227 269h131l228 -269l-68 -59l-225 225l-225 -225z" />
<glyph unicode="&#xd5;" horiz-adv-x="1357" d="M139 328v778q0 66 43 108l174 175q27 27 49.5 36t59.5 9h426q37 0 59.5 -9.5t46.5 -35.5l177 -175q43 -43 43 -108v-778q0 -66 -43 -109l-177 -174q-25 -27 -47 -36t-59 -9h-426q-37 0 -59.5 9t-49.5 36l-174 174q-43 43 -43 109zM285 352q0 -29 22 -51l146 -145 q23 -20 55 -21h340q33 0 55 21l146 145q23 23 22 51v729q1 29 -22 52l-146 145q-23 20 -55 20h-340q-33 0 -55 -20l-146 -145q-23 -23 -22 -52v-729zM334 1812q2 2 13 19.5t14.5 23t15.5 21.5t18 23.5t18.5 21.5t20.5 21.5t21.5 17.5t23.5 15t23.5 10.5t25.5 5.5q16 2 27 2 q25 0 44 -6.5t43 -21.5t60 -44q78 -61 121 -61q57 0 140 110l59 -39q-78 -178 -197 -178q-57 0 -118 43q-16 10 -33 22.5t-27 20.5t-21.5 16.5t-19.5 13.5t-17 9t-17.5 6t-16.5 2q-14 0 -31 -4q-62 -15 -125 -115z" />
<glyph unicode="&#xd6;" horiz-adv-x="1357" d="M139 328v778q0 66 43 108l174 175q14 14 25.5 22t25 13.5t27 7.5t31.5 2h426q37 0 59.5 -9.5t46.5 -35.5l177 -175q43 -43 43 -108v-778q0 -66 -43 -109l-177 -174q-25 -27 -47 -36t-59 -9h-426q-37 0 -59.5 9t-49.5 36l-174 174q-43 43 -43 109zM285 352q0 -29 22 -51 l146 -145q23 -20 55 -21h340q33 0 55 21l146 145q23 23 22 51v729q1 29 -22 52l-146 145q-23 20 -55 20h-340q-33 0 -55 -20l-146 -145q-23 -23 -22 -52v-729zM430 1769v123h129v-123h-129zM797 1769v123h129v-123h-129z" />
<glyph unicode="&#xd7;" horiz-adv-x="948" d="M102 326l275 274l-275 272l101 99l272 -273l273 273l100 -99l-275 -272l275 -274l-98 -99l-275 273l-274 -273z" />
<glyph unicode="&#xd8;" horiz-adv-x="1357" d="M137 330v774q0 66 45 110l176 175q27 27 49.5 36t59.5 9h373l32 102h148l-43 -131q20 -10 47 -39l154 -152q45 -45 45 -110v-774q0 -66 -45 -111l-177 -174q-27 -27 -49 -36t-59 -9h-379l-33 -102h-145l43 131q-23 16 -37 32l-160 158q-45 45 -45 111zM289 356 q0 -29 22 -51l105 -104q6 -7 14 -13l363 1106h-283q-33 0 -53 -20l-146 -146q-23 -23 -22 -51v-721zM561 139h289q33 0 53 21l146 145q23 23 22 51v721q1 28 -22 51l-101 101q-12 10 -24 18z" />
<glyph unicode="&#xd9;" horiz-adv-x="1341" d="M180 238v1144l49 52h97v-1170q0 -29 22 -51l55 -57q23 -20 56 -21h432q33 0 55 21l55 57q23 23 23 51v1118l51 52h94v-1196q0 -63 -43 -109l-86 -84q-25 -27 -47 -36t-59 -9h-518q-37 0 -58.5 9t-48.5 36l-86 84q-43 45 -43 109zM516 1905l86 82l223 -265l-67 -59z" />
<glyph unicode="&#xda;" horiz-adv-x="1341" d="M180 238v1144l49 52h97v-1170q0 -29 22 -51l55 -57q23 -20 56 -21h432q33 0 55 21l55 57q23 23 23 51v1118l51 52h94v-1196q0 -63 -43 -109l-86 -84q-27 -27 -48 -36t-58 -9h-518q-37 0 -58.5 9t-48.5 36l-86 84q-43 45 -43 109zM514 1722l223 265l86 -82l-241 -242z" />
<glyph unicode="&#xdb;" horiz-adv-x="1341" d="M180 238v1144l49 52h97v-1170q0 -29 22 -51l55 -57q23 -20 56 -21h432q33 0 55 21l55 57q23 23 23 51v1118l51 52h94v-1196q0 -63 -43 -109l-86 -84q-27 -27 -48 -36t-58 -9h-518q-25 0 -42.5 4t-32.5 13.5t-32 27.5l-86 84q-43 45 -43 109zM377 1722l227 269h131 l228 -269l-68 -59l-225 225l-226 -225z" />
<glyph unicode="&#xdc;" horiz-adv-x="1341" d="M180 238v1144l49 52h97v-1170q0 -29 22 -51l55 -57q23 -20 56 -21h432q33 0 55 21l55 57q23 23 23 51v1118l51 52h94v-1196q0 -63 -43 -109l-86 -84q-25 -27 -47 -36t-59 -9h-518q-37 0 -58.5 9t-48.5 36l-86 84q-43 45 -43 109zM422 1769v123h129v-123h-129zM788 1769 v123h130v-123h-130z" />
<glyph unicode="&#xdd;" horiz-adv-x="1193" d="M59 1395l82 39h62l329 -789h127l330 789h62l82 -39l-383 -885h-80v-510h-148v510h-80zM440 1722l224 265l86 -82l-242 -242z" />
<glyph unicode="&#xde;" horiz-adv-x="1228" d="M178 0v1434h154v-244h516q25 0 42 -4t33.5 -14.5t32.5 -28.5l86 -84q45 -45 45 -113v-340q0 -68 -45 -112l-86 -84q-27 -27 -49 -37.5t-59 -10.5h-516v-362h-154zM332 506h473q31 0 51 20l57 58q20 20 21 47v291q-1 27 -21 47l-57 57q-20 20 -51 21h-473v-541z" />
<glyph unicode="&#xdf;" horiz-adv-x="1228" d="M180 0v1192q0 66 45 111l84 83q29 29 51.5 38.5t59.5 9.5h330q25 0 42 -4.5t33.5 -14.5t32.5 -29l86 -83q45 -45 45 -111v-231q0 -68 -45 -113l-63 -62l73 -73q45 -45 45 -111v-360q0 -66 -45 -111l-86 -84q-27 -27 -49 -37t-59 -10h-279v127h246q33 0 53 20l56 56 q23 20 22 49v340q0 29 -22 49l-56 55q-20 23 -53 21h-246v127h240q31 2 49 20l55 56q23 23 23 49v213q0 29 -23 49l-55 55q-20 20 -53 21h-264q-33 0 -54 -21l-55 -55q-23 -20 -22 -49v-1182h-142z" />
<glyph unicode="&#xe0;" horiz-adv-x="989" d="M96 242v116q0 66 45 111l97 96q27 27 50 36t58 9h397v154q0 29 -22 51l-66 66q-20 20 -53 20h-446v84l39 39h438q25 0 42 -4t32.5 -14.5t33.5 -26.5l95 -96q45 -45 45 -111v-772h-123l-15 86l-129 -61q-53 -25 -112 -25h-166q-37 0 -59.5 9t-49.5 36l-86 86 q-45 45 -45 111zM233 252q0 -29 23 -51l55 -58q23 -20 56 -20h135q25 0 45 8l196 94v262h-366q-33 0 -53 -20l-68 -68q-23 -23 -23 -51v-96zM350 1497l86 80l223 -262l-67 -62z" />
<glyph unicode="&#xe1;" horiz-adv-x="989" d="M96 242v116q0 66 45 111l97 96q14 12 25 21.5t24.5 14.5t27 7t31.5 2h397v154q0 29 -22 51l-66 66q-20 20 -53 20h-446v84l39 39h438q25 0 42 -4t32.5 -14.5t33.5 -26.5l95 -96q45 -45 45 -111v-772h-123l-15 86l-129 -61q-53 -25 -112 -25h-166q-37 0 -59.5 9t-49.5 36 l-86 86q-45 45 -45 111zM233 252q0 -31 23 -51l55 -58q23 -20 56 -20h135q25 0 45 8l196 94v262h-366q-33 0 -53 -20l-68 -68q-23 -23 -23 -51v-96zM350 1315l221 262l86 -80l-241 -244z" />
<glyph unicode="&#xe2;" horiz-adv-x="989" d="M96 242v116q0 66 45 111l97 96q14 12 25 21.5t24.5 14.5t27 7t31.5 2h397v154q0 29 -22 51l-66 66q-20 20 -53 20h-446v84l39 39h438q25 0 42 -4t32.5 -14.5t33.5 -26.5l95 -96q45 -45 45 -111v-772h-123l-17 86l-127 -61q-53 -25 -112 -25h-166q-37 0 -59.5 9t-49.5 36 l-86 86q-45 45 -45 111zM211 1315l227 268h131l228 -268l-66 -62l-227 226l-225 -226zM233 252q0 -29 23 -51l55 -58q23 -20 56 -20h135q25 0 45 8l196 94v262h-366q-33 0 -53 -20l-68 -68q-23 -23 -23 -51v-96z" />
<glyph unicode="&#xe3;" horiz-adv-x="989" d="M96 242v116q0 66 45 111l97 96q14 12 25 21.5t24.5 14.5t27 7t31.5 2h397v154q0 29 -22 51l-66 66q-20 20 -53 20h-446v84l39 39h438q25 0 42 -4t32.5 -14.5t33.5 -26.5l95 -96q45 -45 45 -111v-772h-123l-15 86l-129 -61q-53 -25 -112 -25h-166q-37 0 -59.5 9t-49.5 36 l-86 86q-45 45 -45 111zM160 1405q2 2 13 18.5t14 21.5t15.5 21.5t18.5 23.5t18.5 21.5t21.5 21.5t21.5 17.5t22.5 15.5t23.5 10t25.5 5q16 2 27 2q25 0 44 -6t43 -21.5t60 -44.5q78 -61 121 -61q57 0 139 113l60 -41q-78 -178 -197 -179q-57 0 -119 43q-23 16 -52 39 t-40.5 31t-27 14.5t-31.5 6.5q-14 0 -31 -4q-62 -15 -125 -113zM233 252q0 -29 23 -51l55 -58q23 -20 56 -20h135q25 0 45 8l196 94v262h-366q-33 0 -53 -20l-68 -68q-23 -23 -23 -51v-96z" />
<glyph unicode="&#xe4;" horiz-adv-x="989" d="M96 242v116q0 66 45 111l97 96q27 27 50 36t58 9h397v154q0 29 -22 51l-66 66q-20 20 -53 20h-446v84l39 39h438q25 0 42 -4t32.5 -14.5t33.5 -26.5l95 -96q45 -45 45 -111v-772h-123l-15 86l-129 -61q-53 -25 -112 -25h-166q-37 0 -59.5 9t-49.5 36l-86 86 q-45 45 -45 111zM233 252q0 -31 23 -51l55 -58q23 -20 56 -20h135q25 0 45 8l196 94v262h-366q-33 0 -53 -20l-68 -68q-23 -23 -23 -51v-96zM256 1360v125h129v-125h-129zM623 1360v125h129v-125h-129z" />
<glyph unicode="&#xe5;" horiz-adv-x="989" d="M96 242v116q0 66 45 111l97 96q27 27 50 36t58 9h397v154q0 29 -20 51l-68 66q-20 20 -53 20h-446v84l39 39h438q25 0 42 -4t32.5 -14.5t33.5 -26.5l95 -96q45 -45 45 -111v-772h-123l-15 86l-129 -61q-53 -25 -110 -25h-168q-37 0 -59.5 9t-49.5 36l-86 86 q-45 45 -45 111zM233 252q0 -31 23 -51l57 -58q20 -20 54 -20h135q25 0 45 8l198 94l-2 262h-364q-33 0 -55 -20l-68 -68q-23 -23 -23 -51v-96zM315 1461q0 81 55.5 136.5t134.5 55.5t134 -55.5t55 -136.5t-55 -136t-134 -55t-134.5 55t-55.5 136zM412 1461 q0 -38 26.5 -67.5t65.5 -29.5q27 0 48 14.5t32.5 36t11.5 47.5q0 37 -26.5 67t-65.5 30t-65.5 -30t-26.5 -68z" />
<glyph unicode="&#xe6;" horiz-adv-x="1658" d="M96 242v116q0 66 45 111l97 96q27 27 50 36t58 9h397v154q0 29 -20 51l-68 66q-20 20 -53 20h-446v84l39 39h438q25 0 42 -4t32.5 -14.5t33.5 -26.5l64 -66q4 -2 8 -2t6 2l64 66q27 27 50 36t58 9h303q25 0 42.5 -4t32.5 -14.5t34 -26.5l84 -86q45 -45 45 -111v-280 l-39 -39h-602v-211q0 -31 22 -51l56 -58q20 -20 53 -20h242q33 0 53 20l53 54l92 -91l-59 -61q-27 -27 -49.5 -36t-59.5 -9h-297q-39 0 -71 29l-45 43v-72h-123l-15 86l-129 -61q-53 -25 -112 -25h-166q-37 0 -59.5 9t-49.5 36l-86 86q-45 45 -45 111zM233 252q0 -29 23 -51 l55 -58q23 -20 56 -20h135q25 0 45 8l196 94v262h-366q-33 0 -53 -20l-68 -68q-23 -23 -23 -51v-96zM891 584h504v188q-1 31 -21 51l-57 58q-20 20 -53 20h-242q-33 0 -53 -20l-56 -58q-23 -20 -22 -51v-188z" />
<glyph unicode="&#xe7;" horiz-adv-x="909" d="M98 242v540q0 66 45 111l86 86q18 16 34 26.5t33 14.5t42 4h328q37 0 60.5 -9t47.5 -36l60 -61l-91 -91l-53 54q-23 20 -55 20h-266q-33 0 -54 -20l-57 -58q-23 -20 -22 -51v-520q0 -31 22 -51l57 -58q20 -20 54 -20h266q33 0 55 20l53 54l91 -93l-60 -59 q-27 -27 -49.5 -36t-56.5 -9h-197l-25 -45q14 2 31 2t31 -2q66 -12 100.5 -52t34.5 -98q0 -43 -18.5 -78.5t-58.5 -58t-93 -22.5h-121v88h115q27 0 48.5 21.5t21.5 51.5q0 35 -21.5 52.5t-48.5 17.5h-12q-25 0 -90 -29l-64 62l43 90l-20 2q-53 2 -95 43l-86 86 q-45 45 -45 111z" />
<glyph unicode="&#xe8;" horiz-adv-x="960" d="M96 242v540q0 66 45 111l86 86q27 27 49.5 36t59.5 9h301q25 0 42 -4t32.5 -14.5t33.5 -26.5l86 -86q45 -45 46 -111v-280l-39 -39h-605v-211q0 -29 23 -51l55 -58q23 -20 56 -20h239q33 0 53 20l56 54l90 -91l-60 -61q-27 -27 -49 -36t-59 -9h-301q-37 0 -59.5 9 t-49.5 36l-86 86q-45 45 -45 111zM233 584h506v188q1 31 -22 51l-58 58q-20 20 -53 20h-239q-33 0 -56 -20l-55 -58q-23 -20 -23 -51v-188zM328 1497l86 80l223 -262l-68 -62z" />
<glyph unicode="&#xe9;" horiz-adv-x="960" d="M96 242v540q0 66 45 111l86 86q27 27 49.5 36t59.5 9h301q37 0 59.5 -9t48.5 -36l86 -86q45 -45 46 -111v-280l-39 -39h-605v-211q0 -31 23 -51l55 -58q23 -20 56 -20h239q33 0 53 20l56 54l90 -91l-60 -61q-27 -27 -49 -36t-59 -9h-301q-37 0 -59.5 9t-49.5 36l-86 86 q-45 45 -45 111zM233 584h506v188q1 31 -22 51l-58 58q-20 20 -53 20h-239q-33 0 -56 -20l-55 -58q-23 -20 -23 -51v-188zM326 1315l223 262l86 -80l-242 -244z" />
<glyph unicode="&#xea;" horiz-adv-x="960" d="M96 242v540q0 66 45 111l86 86q18 16 33.5 26.5t33 14.5t42.5 4h301q25 0 42 -4t32.5 -14.5t33.5 -26.5l86 -86q45 -45 46 -111v-280l-39 -39h-605v-211q0 -29 23 -51l55 -58q23 -20 56 -20h239q33 0 53 20l56 54l90 -91l-60 -61q-27 -27 -49 -36t-59 -9h-301 q-37 0 -59.5 9t-49.5 36l-86 86q-45 45 -45 111zM188 1315l228 268h131l227 -268l-67 -62l-226 226l-225 -226zM233 584h506v188q1 31 -22 51l-58 58q-20 20 -53 20h-239q-33 0 -56 -20l-55 -58q-23 -20 -23 -51v-188z" />
<glyph unicode="&#xeb;" horiz-adv-x="960" d="M96 242v540q0 66 45 111l86 86q27 27 49.5 36t59.5 9h301q37 0 59.5 -9t48.5 -36l86 -86q45 -45 46 -111v-280l-39 -39h-605v-211q0 -31 23 -51l55 -58q23 -20 56 -20h239q33 0 53 20l56 54l90 -91l-60 -61q-27 -27 -49 -36t-59 -9h-301q-37 0 -59.5 9t-49.5 36l-86 86 q-45 45 -45 111zM233 584h506v188q1 31 -22 51l-58 58q-20 20 -53 20h-239q-33 0 -56 -20l-55 -58q-23 -20 -23 -51v-188zM233 1360v125h129v-125h-129zM600 1360v125h129v-125h-129z" />
<glyph unicode="&#xec;" horiz-adv-x="403" d="M43 1466l88 80l221 -262l-65 -59zM141 0v1024h135v-1024h-135z" />
<glyph unicode="&#xed;" horiz-adv-x="403" d="M43 1284l221 262l88 -80l-243 -241zM141 0v1024h135v-1024h-135z" />
<glyph unicode="&#xee;" horiz-adv-x="403" d="M-94 1284l225 268h133l225 -268l-65 -59l-225 225l-228 -225zM141 0v1024h135v-1024h-135z" />
<glyph unicode="&#xef;" horiz-adv-x="403" d="M-51 1331v123h131v-123h-131zM141 0v1024h135v-1024h-135zM315 1331v123h131v-123h-131z" />
<glyph unicode="&#xf0;" d="M86 250v373q0 72 45 118l84 84q29 29 51.5 39t59.5 10h110q51 0 101 -24l196 -92v360l-129 -100l-47 59l168 129q-8 20 -23 35l-45 45q-20 20 -53 21h-287q-33 0 -53 -21l-55 -53l-94 94l61 62q27 27 50.5 36t60.5 9h348q25 0 43 -4.5t33.5 -14.5t33.5 -26l62 -62 q20 -20 29 -33l116 88l49 -59l-129 -100q2 -14 2 -31v-942q0 -72 -45 -117l-84 -84q-29 -29 -51 -39t-59 -10h-309q-37 0 -59.5 10t-51.5 39l-84 84q-45 45 -45 117zM227 248q0 -25 21 -47l55 -54q18 -18 53 -18h248q35 0 53 18l56 54q20 23 20 47v368l-260 123q-18 8 -43 9 h-74q-35 0 -53 -19l-55 -55q-20 -20 -21 -45v-381z" />
<glyph unicode="&#xf1;" horiz-adv-x="1038" d="M127 0v1024h119l20 -117l201 94q47 23 98 23h119q25 0 42 -4t33.5 -14.5t33.5 -26.5l86 -86q45 -45 45 -111v-782h-138v772q0 31 -22 51l-55 58q-23 20 -56 20h-82q-25 0 -43 -8l-264 -125v-768h-137zM129 1358q2 2 13.5 18.5t15.5 22.5l15 22.5t17.5 23.5t19.5 21.5 t21.5 21.5t20.5 17.5t23.5 15.5t24.5 9t26 6h26q23 0 42.5 -6t43 -20.5t62.5 -45.5q78 -61 121 -61q55 0 137 113l61 -39q-80 -180 -198 -181q-55 0 -117 43q-25 16 -53.5 39t-41 31t-27.5 14.5t-32 6.5q-12 0 -31 -5q-58 -12 -124 -112z" />
<glyph unicode="&#xf2;" horiz-adv-x="997" d="M96 242v540q0 66 45 111l86 86q27 27 49.5 36t59.5 9h328q25 0 42 -4t33.5 -14.5t32.5 -26.5l86 -86q45 -45 45 -111v-540q0 -66 -45 -111l-86 -86q-27 -27 -49.5 -36t-58.5 -9h-328q-37 0 -59.5 9t-49.5 36l-86 86q-45 45 -45 111zM233 252q0 -31 23 -51l55 -58 q23 -20 56 -20h266q33 0 55 20l55 58q23 20 23 51v520q0 31 -23 51l-55 58q-23 20 -55 20h-266q-33 0 -56 -20l-55 -58q-23 -20 -23 -51v-520zM346 1497l86 80l223 -262l-67 -62z" />
<glyph unicode="&#xf3;" horiz-adv-x="997" d="M96 242v540q0 66 45 111l86 86q27 27 49.5 36t59.5 9h328q37 0 59 -9t49 -36l86 -86q45 -45 45 -111v-540q0 -66 -45 -111l-86 -86q-27 -27 -49.5 -36t-58.5 -9h-328q-37 0 -59.5 9t-49.5 36l-86 86q-45 45 -45 111zM233 252q0 -31 23 -51l55 -58q23 -20 56 -20h266 q33 0 55 20l55 58q23 20 23 51v520q0 31 -23 51l-55 58q-23 20 -55 20h-266q-33 0 -56 -20l-55 -58q-23 -20 -23 -51v-520zM344 1315l223 262l86 -80l-241 -244z" />
<glyph unicode="&#xf4;" horiz-adv-x="997" d="M96 242v540q0 66 45 111l86 86q27 27 49.5 36t59.5 9h328q25 0 42 -4t33.5 -14.5t32.5 -26.5l86 -86q45 -45 45 -111v-540q0 -66 -45 -111l-86 -86q-27 -27 -49.5 -36t-58.5 -9h-328q-37 0 -59.5 9t-49.5 36l-86 86q-45 45 -45 111zM207 1315l227 268h131l228 -268 l-68 -62l-225 226l-226 -226zM233 252q0 -31 23 -51l55 -58q23 -20 56 -20h266q33 0 55 20l55 58q23 20 23 51v520q0 31 -23 51l-55 58q-23 20 -55 20h-266q-33 0 -56 -20l-55 -58q-23 -20 -23 -51v-520z" />
<glyph unicode="&#xf5;" horiz-adv-x="997" d="M96 242v540q0 66 45 111l86 86q27 27 49.5 36t59.5 9h328q37 0 59 -9t49 -36l86 -86q45 -45 45 -111v-540q0 -66 -45 -111l-86 -86q-27 -27 -49.5 -36t-58.5 -9h-328q-37 0 -59.5 9t-49.5 36l-86 86q-45 45 -45 111zM156 1405q2 2 13 18.5t14 21.5t15.5 21.5t18.5 23.5 t18.5 21.5t20.5 21.5t21.5 17.5t23.5 15.5t23.5 10t25.5 5q16 2 27 2q25 0 44 -6t42.5 -21.5t60.5 -44.5q78 -61 121 -61q57 0 139 113l60 -41q-78 -178 -197 -179q-57 0 -119 43q-23 16 -52.5 39t-40.5 31t-26.5 14.5t-31.5 6.5q-14 0 -31 -4q-62 -15 -125 -113zM233 252 q0 -31 23 -51l55 -58q23 -20 56 -20h266q33 0 55 20l55 58q23 20 23 51v520q0 31 -23 51l-55 58q-23 20 -55 20h-266q-33 0 -56 -20l-55 -58q-23 -20 -23 -51v-520z" />
<glyph unicode="&#xf6;" horiz-adv-x="997" d="M96 242v540q0 66 45 111l86 86q27 27 49.5 36t59.5 9h328q37 0 59 -9t49 -36l86 -86q45 -45 45 -111v-540q0 -66 -45 -111l-86 -86q-27 -27 -49.5 -36t-58.5 -9h-328q-37 0 -59.5 9t-49.5 36l-86 86q-45 45 -45 111zM233 252q0 -31 23 -51l55 -58q23 -20 56 -20h266 q33 0 55 20l55 58q23 20 23 51v520q0 31 -23 51l-55 58q-23 20 -55 20h-266q-33 0 -56 -20l-55 -58q-23 -20 -23 -51v-520zM252 1360v125h129v-125h-129zM618 1360v125h130v-125h-130z" />
<glyph unicode="&#xf7;" d="M88 528v142h909v-142h-909zM449 137v187h186v-187h-186zM449 874v187h186v-187h-186z" />
<glyph unicode="&#xf8;" horiz-adv-x="997" d="M96 242v540q0 66 45 111l86 86q27 27 49.5 36t59.5 9h270l35 104h121l-37 -114q23 -10 47 -35l86 -86q45 -45 45 -111v-540q0 -66 -45 -111l-86 -86q-27 -27 -49.5 -36t-58.5 -9h-273l-35 -104h-120l38 114q-23 10 -47 35l-86 86q-45 45 -45 111zM233 250q0 -29 23 -49 l55 -58q2 -2 6 -4l250 762h-200q-33 0 -56 -20l-55 -58q-23 -20 -23 -51v-522zM432 123h201q33 0 55 20l55 58q23 20 23 51v520q0 31 -23 51l-55 58q-4 2 -6 4z" />
<glyph unicode="&#xf9;" horiz-adv-x="1028" d="M117 242v782h137v-772q0 -31 22 -51l56 -58q23 -20 55 -20h82q25 0 45 8l262 125v768h137v-1024h-118l-21 117l-201 -94q-47 -23 -98 -23h-119q-37 0 -59.5 9t-48.5 36l-86 86q-45 45 -45 111zM360 1497l86 80l224 -262l-68 -62z" />
<glyph unicode="&#xfa;" horiz-adv-x="1028" d="M117 242v782h137v-772q0 -31 22 -51l56 -58q23 -20 55 -20h82q25 0 45 8l262 125v768h137v-1024h-118l-21 117l-201 -94q-47 -23 -98 -23h-119q-37 0 -59.5 9t-48.5 36l-86 86q-45 45 -45 111zM358 1315l224 262l86 -80l-242 -244z" />
<glyph unicode="&#xfb;" horiz-adv-x="1028" d="M117 242v782h137v-772q0 -31 22 -51l56 -58q23 -20 55 -20h82q25 0 45 8l262 125v768h137v-1024h-118l-21 117l-201 -94q-47 -23 -98 -23h-119q-37 0 -59.5 9t-48.5 36l-86 86q-45 45 -45 111zM221 1315l228 268h131l227 -268l-68 -62l-225 226l-225 -226z" />
<glyph unicode="&#xfc;" horiz-adv-x="1028" d="M117 242v782h137v-772q0 -31 22 -51l56 -58q23 -20 55 -20h82q25 0 45 8l262 125v768h137v-1024h-118l-21 117l-201 -94q-47 -23 -98 -23h-119q-37 0 -59.5 9t-48.5 36l-86 86q-45 45 -45 111zM266 1360v125h129v-125h-129zM633 1360v125h129v-125h-129z" />
<glyph unicode="&#xfd;" horiz-adv-x="1005" d="M45 997l57 27h78l299 -901h45l303 901h76l58 -27l-351 -1017q0 -4 -2 -11q-16 -45 -28.5 -73.5t-45 -83t-69.5 -91t-99.5 -71.5t-138.5 -49l-20 112q104 20 157.5 75.5t86.5 139.5l24 72h-86zM348 1325l223 262l86 -80l-241 -241z" />
<glyph unicode="&#xfe;" horiz-adv-x="1144" d="M137 -369v1803h137v-525l203 95q47 23 98 22h113q37 0 59.5 -10t49.5 -37l86 -84q45 -45 45 -111v-542q0 -66 -45 -111l-86 -86q-27 -27 -49.5 -36t-59.5 -9h-414v-330l-38 -39h-99zM274 123h383q33 0 56 20l55 56q23 23 23 51v524q0 28 -23 51l-55 58q-23 20 -56 20h-75 q-25 0 -45 -10l-263 -123v-647z" />
<glyph unicode="&#xff;" horiz-adv-x="1005" d="M45 997l57 27h78l299 -901h45l303 901h76l58 -27l-351 -1017q0 -4 -2 -11q-16 -45 -28.5 -73.5t-45 -83t-69.5 -91t-99.5 -71.5t-138.5 -49l-20 112q104 20 157.5 75.5t86.5 139.5l24 72h-86zM256 1372v123h129v-123h-129zM623 1372v123h129v-123h-129z" />
<glyph unicode="&#x152;" horiz-adv-x="2004" d="M137 330v774q0 66 45 110l176 175q27 27 49.5 36t59.5 9h426q37 0 59.5 -9.5t48.5 -35.5l107 -107q4 18 25 39l67 68q14 12 25.5 21t25 14.5t27 7.5t31.5 2h553l51 -52v-88h-561q-31 0 -52 -20l-57 -57q-20 -20 -20 -50v-381h573v-139h-573v-381q0 -29 20 -49l57 -57 q20 -20 52 -21h561v-88l-51 -51h-553q-37 0 -59.5 9t-49.5 36l-67 68q-20 20 -25 39l-107 -107q-27 -27 -49 -36t-59 -9h-426q-37 0 -59.5 9t-49.5 36l-176 174q-45 45 -45 111zM289 356q0 -29 22 -51l146 -145q20 -20 53 -21h340q33 0 53 21l146 145q23 23 22 49v725 q1 26 -22 49l-146 146q-20 20 -53 20h-340q-33 0 -53 -20l-146 -146q-23 -23 -22 -51v-721z" />
<glyph unicode="&#x153;" horiz-adv-x="1626" d="M96 242v540q0 66 45 111l86 86q27 27 49.5 36t59.5 9h328q25 0 42 -4t33.5 -14.5t32.5 -26.5l62 -64l61 64q27 27 50.5 36t58.5 9h303q37 0 59.5 -9t48.5 -36l86 -86q43 -45 43 -111v-280l-39 -39h-602v-213q0 -29 23 -51l55 -56q23 -20 55 -20h240q33 0 53 20l53 54 l93 -91l-60 -61q-27 -27 -49.5 -36t-58.5 -9h-303q-35 0 -58.5 9t-50.5 36l-61 64l-62 -64q-27 -27 -49.5 -36t-58.5 -9h-328q-37 0 -59.5 9t-49.5 36l-86 86q-45 45 -45 111zM233 252q0 -31 23 -51l55 -58q23 -20 56 -20h266q33 0 55 20l55 58q23 20 23 49v524q0 29 -23 49 l-55 58q-23 20 -55 20h-266q-33 0 -56 -20l-55 -58q-23 -20 -23 -51v-520zM903 584h506v188q0 31 -23 51l-57 58q-20 20 -53 20h-240q-33 0 -55 -20l-55 -56q-23 -23 -23 -51v-190z" />
<glyph unicode="&#x178;" horiz-adv-x="1193" d="M59 1395l82 39h62l329 -789h127l330 789h62l82 -39l-383 -885h-80v-510h-148v510h-80zM348 1769v123h129v-123h-129zM715 1769v123h129v-123h-129z" />
<glyph unicode="&#x2c6;" horiz-adv-x="780" d="M98 1288l228 268h131l225 -268l-66 -59l-225 225l-227 -225z" />
<glyph unicode="&#x2dc;" horiz-adv-x="886" d="M98 1380q0 2 11.5 18.5t15.5 22.5t16.5 22.5t18.5 24t18 21.5t20.5 21.5t20.5 17.5t23.5 15t25 9t25.5 7h26q33 0 63 -14.5t85 -57.5q78 -61 121 -62q55 0 137 113l61 -39q-80 -180 -196 -180q-57 0 -119 43q-25 16 -53.5 38.5t-40.5 31t-27.5 15.5t-32.5 7q-12 0 -30 -4 q-59 -15 -125 -115z" />
<glyph unicode="&#x2000;" horiz-adv-x="1031" />
<glyph unicode="&#x2001;" horiz-adv-x="2062" />
<glyph unicode="&#x2002;" horiz-adv-x="1031" />
<glyph unicode="&#x2003;" horiz-adv-x="2062" />
<glyph unicode="&#x2004;" horiz-adv-x="687" />
<glyph unicode="&#x2005;" horiz-adv-x="515" />
<glyph unicode="&#x2006;" horiz-adv-x="343" />
<glyph unicode="&#x2007;" horiz-adv-x="343" />
<glyph unicode="&#x2008;" horiz-adv-x="257" />
<glyph unicode="&#x2009;" horiz-adv-x="412" />
<glyph unicode="&#x200a;" horiz-adv-x="114" />
<glyph unicode="&#x2010;" horiz-adv-x="831" d="M94 530v142h645v-142h-645z" />
<glyph unicode="&#x2011;" horiz-adv-x="831" d="M94 530v142h645v-142h-645z" />
<glyph unicode="&#x2012;" horiz-adv-x="831" d="M94 530v142h645v-142h-645z" />
<glyph unicode="&#x2013;" horiz-adv-x="970" d="M90 530v142h791v-142h-791z" />
<glyph unicode="&#x2014;" horiz-adv-x="1333" d="M84 530v142h1167v-142h-1167z" />
<glyph unicode="&#x2018;" horiz-adv-x="413" d="M100 1206v129q0 59 25 111l51 110h125l-78 -167h62v-183h-185z" />
<glyph unicode="&#x2019;" horiz-adv-x="413" d="M109 1206l77 168h-61v182h184v-129q0 -59 -24 -110l-52 -111h-124z" />
<glyph unicode="&#x201a;" horiz-adv-x="413" d="M111 -182l79 168h-63v184h186v-131q0 -59 -26 -111l-51 -110h-125z" />
<glyph unicode="&#x201c;" horiz-adv-x="708" d="M94 1206v129q0 59 25 111l51 110h125l-78 -167h62v-183h-185zM399 1206v129q0 59 25 111l51 110h125l-78 -167h62v-183h-185z" />
<glyph unicode="&#x201d;" horiz-adv-x="694" d="M106 1206l78 168h-61v182h184v-129q0 -57 -24 -110l-52 -111h-125zM412 1206l77 168h-61v182h184v-129q0 -57 -24 -110l-51 -111h-125z" />
<glyph unicode="&#x201e;" horiz-adv-x="704" d="M104 -182l80 168h-63v184h186v-131q0 -59 -26 -111l-52 -110h-125zM410 -182l77 168h-61v184h184v-131q0 -59 -24 -111l-51 -110h-125z" />
<glyph unicode="&#x2022;" horiz-adv-x="530" d="M98 424v332h334v-332h-334z" />
<glyph unicode="&#x2026;" horiz-adv-x="1081" d="M88 -39v186h184v-186h-184zM446 -39v186h185v-186h-185zM807 -39v186h184v-186h-184z" />
<glyph unicode="&#x202f;" horiz-adv-x="412" />
<glyph unicode="&#x2039;" horiz-adv-x="647" d="M96 434v207l371 346l80 -80l-305 -370l305 -369l-80 -80z" />
<glyph unicode="&#x203a;" horiz-adv-x="647" d="M100 168l306 369l-306 370l80 80l371 -346v-207l-371 -346z" />
<glyph unicode="&#x205f;" horiz-adv-x="515" />
<glyph unicode="&#x20ac;" horiz-adv-x="1157" d="M90 481v135h141v152h-141v135h141v236q0 63 45 108l84 84q27 27 49.5 36t57.5 9h551l51 -51v-84h-559q-33 0 -53 -20l-58 -58q-23 -23 -22 -51v-209h489v-84l-49 -51h-440v-152h434v-86l-51 -49h-383v-213q0 -29 22 -51l58 -57q20 -20 53 -21h559v-84l-51 -51h-551 q-35 0 -57.5 9.5t-49.5 35.5l-84 84q-45 45 -45 109v239h-141z" />
<glyph unicode="&#x2122;" horiz-adv-x="1818" d="M78 1331v66l37 37h559l37 -37v-66h-262v-782h-109v782h-262zM821 549v848l37 37h176l236 -756h22l236 756h178l37 -37v-848h-107v743h-55l-229 -743h-142l-227 743h-55v-743h-107z" />
<glyph unicode="&#x25fc;" horiz-adv-x="1024" d="M0 0v1024h1024v-1024h-1024z" />
<glyph unicode="&#xfb01;" horiz-adv-x="1032" d="M45 901v84l39 39h125v186q0 68 45 111l84 86q14 14 25.5 22.5t24.5 13.5t26.5 7t31.5 2h95l39 -37v-84h-101q-33 0 -55 -22l-55 -56q-23 -23 -23 -51v-178h213v-123h-213v-913h-137v913h-164zM735 1219v167h166v-167h-166zM750 0v1024h137v-1024h-137z" />
<glyph unicode="&#xfb02;" horiz-adv-x="1181" d="M45 901v84l39 39h125v186q0 68 45 111l84 86q27 27 50 36t58 9h95l39 -37v-84h-101q-33 0 -55 -22l-55 -56q-23 -23 -23 -51v-178h213v-123h-213v-913h-137v913h-164zM764 242v1188l41 38h96v-1218q0 -29 23 -49l57 -60q23 -20 53 -20h96v-121h-126q-61 0 -109 45l-80 80 q-29 29 -40 53.5t-11 63.5z" />
</font>
</defs>
</svg>
