<?xml version="1.0" standalone="no"?>
<!DOCTYPE svg PUBLIC "-//W3C//DTD SVG 1.1//EN" "http://www.w3.org/Graphics/SVG/1.1/DTD/svg11.dtd" >
<svg xmlns="http://www.w3.org/2000/svg">
<metadata></metadata>
<defs>
<font id="bordabold" horiz-adv-x="360" >
<font-face units-per-em="2048" ascent="1587" descent="-461" />
<missing-glyph horiz-adv-x="614" />
<glyph horiz-adv-x="0" />
<glyph unicode="&#xd;" horiz-adv-x="681" />
<glyph unicode=" "  horiz-adv-x="614" />
<glyph unicode="&#x09;" horiz-adv-x="614" />
<glyph unicode="&#xa0;" horiz-adv-x="614" />
<glyph unicode="!" d="M129 0v109h102v-109h-102zM147 1044v390h68v-387l-18 -644h-33z" />
<glyph unicode="&#x22;" horiz-adv-x="630" d="M121 1343v160h67v-160l-16 -210h-35zM442 1343v160h68v-160l-16 -210h-35z" />
<glyph unicode="#" horiz-adv-x="1323" d="M96 524v31l15 16h262l82 379h-359v31l15 16h352l94 437h51l-92 -437h418l92 437h53l-92 -437h236v-47h-246l-82 -379h328v-47h-336l-113 -524h-53l113 524h-418l-111 -524h-53l110 524h-266zM426 571h418l80 379h-418z" />
<glyph unicode="$" horiz-adv-x="1099" d="M109 18v37h419v668l-366 186q-29 14 -41 36t-12 63v131q0 45 10 69.5t37 51.5l125 124q23 23 37 32t29 13.5t44 4.5h137v104h45v-104h332l19 -19v-37h-351v-616l308 -156q113 -57 112 -168v-137q0 -31 -6 -53.5t-20.5 -45t-40.5 -48.5l-92 -93q-61 -61 -160 -61h-101 v-104h-45v104h-401zM168 1044q0 -33 22.5 -66.5t57.5 -49.5l280 -144v594h-102q-31 0 -64.5 -13t-52.5 -32l-92 -96q-49 -49 -49 -107v-86zM573 55h101q31 0 64.5 13.5t52.5 31.5l94 95q47 47 47 106v137q0 35 -21.5 68t-56.5 51l-281 143v-645z" />
<glyph unicode="%" horiz-adv-x="1458" d="M119 944v326q0 35 22 57l52 51q24 25 53 25h198q29 0 54 -25l51 -51q23 -23 22 -57v-326q0 -35 -22 -57l-51 -51q-25 -25 -54 -25h-198q-29 0 -53 25l-52 51q-23 23 -22 57zM170 944q0 -18 8 -26l51 -52q10 -10 15 -10h2h198h2q4 0 17 10l49 52q8 8 8 26v326q0 18 -8 26 l-49 52q-12 10 -17 10h-2h-198h-2q-4 0 -15 -10l-51 -52q-8 -8 -8 -26v-326zM262 -35l860 1501h66l-862 -1501h-64zM889 164v323q0 37 22 60l52 51q24 25 53 25h196q31 0 56 -25l51 -51q23 -23 22 -60v-323q0 -37 -22 -60l-51 -49q-25 -25 -56 -24h-196q-29 0 -53 24l-52 49 q-23 23 -22 60zM940 164q0 -18 6 -27l51 -51q12 -10 17 -10h2h196h4h1q4 0 14 10l51 51q8 8 8 27v323q0 21 -8 27l-51 51q-10 12 -14 13h-5h-196h-2q-4 0 -17 -13l-51 -51q-6 -6 -6 -27v-323z" />
<glyph unicode="&#x26;" horiz-adv-x="1282" d="M96 213v141q0 53 35 90l328 328l-226 236q-35 37 -34 88v123q0 53 34 88l91 90q14 16 26 23t24.5 10.5t33.5 3.5h188q29 0 45 -7.5t39 -29.5l90 -90q35 -35 35 -88v-123q0 -51 -35 -88l-235 -236l440 -459l194 193l19 -19v-41l-174 -174l172 -180v-61l-6 -8l-205 213 l-201 -201q-23 -23 -39 -30t-45 -7h-385q-29 0 -45 7t-39 30l-90 90q-35 35 -35 88zM156 219q0 -41 32 -74l66 -67q31 -31 78 -31h332q46 0 77 31l197 196l-440 459l-310 -311q-33 -31 -32 -72v-131zM256 1102q0 -41 33 -74l209 -217l217 219q31 33 30 72v110q0 41 -32 74 l-66 68q-31 31 -78 30h-135q-47 0 -78 -30l-67 -68q-33 -33 -33 -74v-110z" />
<glyph unicode="'" horiz-adv-x="329" d="M131 1343v160h68v-160l-17 -210h-35z" />
<glyph unicode="(" horiz-adv-x="589" d="M123 37v1284q0 53 33 86l186 184q23 23 37 29t43 6h43v-59h-2q-49 0 -82 -31l-162 -162q-33 -33 -33 -76v-1239q0 -43 33 -75l168 -166q31 -27 76 -27h2v-59h-43q-27 0 -42 7t-40 30l-184 182q-20 23 -26.5 39t-6.5 47z" />
<glyph unicode=")" horiz-adv-x="589" d="M123 -209h2q55 0 84 35l160 158q33 33 32 75v1239q0 43 -32 76l-164 162q-31 31 -80 31h-2v59h41q29 0 44 -6t38 -29l186 -184q33 -33 33 -86v-1284q0 -49 -33 -86l-186 -182q-23 -23 -38 -30t-44 -7h-41v59z" />
<glyph unicode="*" horiz-adv-x="927" d="M104 854l129 74l197 94l-197 94l-129 74l35 59l119 -69l193 -131l-17 223v147h60v-147l-19 -223l191 131l120 69l33 -59l-127 -74l-198 -94l198 -94l127 -74l-33 -61l-120 69l-191 131l19 -223v-147h-60v149l17 223l-193 -133l-119 -69z" />
<glyph unicode="+" horiz-adv-x="1081" d="M104 567v64h404v409h61v-409h406v-64h-406v-409h-61v409h-404z" />
<glyph unicode="," d="M121 -176l76 164h-70v121h100v-93q0 -53 -20 -100l-45 -92h-41z" />
<glyph unicode="-" horiz-adv-x="819" d="M115 569v64h590v-64h-590z" />
<glyph unicode="." d="M129 0v109h102v-109h-102z" />
<glyph unicode="/" horiz-adv-x="782" d="M133 0l471 1434h58l-472 -1434h-57z" />
<glyph unicode="0" horiz-adv-x="999" d="M106 213v950q0 53 35 88l88 88q25 23 40 30t44 7h371q20 0 32.5 -3t24 -10t27.5 -24l88 -88q35 -35 35 -88v-950q0 -53 -35 -88l-88 -88q-25 -23 -40 -30t-44 -7h-371q-29 0 -44 7t-40 30l-88 88q-35 35 -35 88zM162 217q0 -41 33 -74l65 -67q31 -31 80 -31h317 q49 0 80 31l66 67q33 33 33 74v942q0 41 -33 74l-66 67q-31 31 -80 31h-317q-49 0 -80 -31l-65 -67q-33 -33 -33 -74v-942z" />
<glyph unicode="1" horiz-adv-x="589" d="M51 1221l19 43l305 112h69l29 -28v-1348h-55v1327l-357 -133z" />
<glyph unicode="2" horiz-adv-x="1046" d="M104 0v377q0 113 115 170l549 280q23 12 40 31t26.5 41.5t9.5 42.5v145q0 55 -45 103l-94 96q-16 18 -49 31.5t-64 13.5h-225q-31 0 -64 -13t-51 -32l-64 -65l-36 39l65 65q33 33 53.5 42t59.5 9h297q29 0 45 -4t30.5 -14t36.5 -33l113 -113q29 -27 38 -52t9 -70v-164 q0 -94 -41 -115l-620 -313q-35 -18 -56.5 -51t-21.5 -64v-338h801v-25l-21 -20h-836z" />
<glyph unicode="3" horiz-adv-x="933" d="M70 70l34 34l29 -28q31 -31 80 -31h379q47 0 78 31l67 67q33 33 33 74v315q0 41 -33 74l-123 125q-31 31 -79 31h-308v45h328q49 0 80 33l92 94q33 33 33 74v151q0 41 -33 74l-68 67q-31 31 -79 31h-357q-47 0 -78 -31l-28 -28l-37 35l35 32q23 23 38 30t44 7h411 q29 0 44.5 -7t37.5 -30l90 -88q33 -35 33 -88v-159q0 -53 -33 -89l-139 -141l150 -149q35 -35 34 -88v-324q0 -53 -34 -88l-91 -88q-23 -23 -38 -30t-44 -7h-432q-29 0 -45 7t-39 30z" />
<glyph unicode="4" horiz-adv-x="1046" d="M82 369v53l491 954h166l29 -28v-963h199v-16l-31 -29h-168v-340h-55v340h-602zM125 385h588v946h-97z" />
<glyph unicode="5" horiz-adv-x="925" d="M92 762l80 584l33 30h538l29 -28v-17h-543l-82 -579h463q29 0 44.5 -6.5t37.5 -28.5l90 -90q35 -35 35 -88v-326q0 -53 -35 -88l-90 -88q-23 -23 -38 -30t-44 -7h-370q-31 0 -46.5 7t-37.5 30l-33 33l35 34l28 -28q31 -31 80 -31h318q47 0 78 31l67 67q33 33 33 74v318 q0 41 -33 73l-67 68q-31 31 -78 31h-437z" />
<glyph unicode="6" horiz-adv-x="960" d="M109 221v942q0 53 32 88l90 88q23 23 38 30t44 7h373q29 0 44 -7t38 -30l33 -32l-35 -35l-29 28q-31 31 -78 31h-317q-49 0 -80 -31l-67 -67q-33 -33 -33 -74v-469l278 129q43 20 84 21h119q29 0 44 -7.5t40 -31.5l90 -90q33 -35 33 -95v-395q0 -59 -33 -94l-90 -88 q-25 -27 -40 -33t-44 -6h-330q-27 0 -42 6t-40 33l-90 88q-33 35 -32 94zM162 211q0 -35 33 -68l67 -67q29 -29 80 -29h274q51 0 80 29l68 67q33 33 33 68v420q0 34 -33 67l-68 68q-29 29 -80 27h-86q-37 0 -63 -13l-305 -143v-426z" />
<glyph unicode="7" horiz-adv-x="800" d="M51 1329v19l29 28h620l29 -28v-35l-401 -1313h-52l400 1329h-625z" />
<glyph unicode="8" horiz-adv-x="999" d="M106 215v322q0 53 35 88l109 108l-98 96q-35 35 -35 89v245q0 53 35 88l90 88q23 23 38 30t44 7h350q20 0 32.5 -3t23.5 -10t26 -24l90 -88q35 -35 35 -88v-245q0 -53 -35 -89l-98 -96l108 -108q35 -35 35 -88v-322q0 -53 -35 -88l-88 -88q-25 -25 -40 -31t-44 -6h-371 q-29 0 -44 6t-40 31l-88 88q-35 35 -35 88zM162 219q0 -41 33 -74l65 -67q31 -31 80 -31h317q49 0 80 31l66 67q33 33 33 74v313q0 41 -33 74l-66 68q-29 29 -73 31h-330q-45 -2 -74 -31l-65 -68q-33 -33 -33 -74v-313zM172 922q0 -41 33 -74l67 -68q27 -27 74 -30h305 q47 4 74 30l68 68q33 33 32 74v237q1 41 -32 74l-68 67q-31 31 -78 31h-297q-47 0 -78 -31l-67 -67q-33 -33 -33 -74v-237z" />
<glyph unicode="9" horiz-adv-x="960" d="M109 799v356q0 59 32 94l90 88q25 25 40 32t42 7h330q29 0 44 -7t40 -32l90 -88q33 -35 33 -94v-942q0 -53 -33 -88l-90 -90q-16 -14 -27.5 -21.5t-23.5 -10.5t-33 -3h-371q-29 0 -44 7t-38 28l-32 35l35 34l28 -28q31 -31 78 -31h317q49 0 80 31l68 67q33 33 33 74v510 l-279 -131q-43 -18 -84 -18h-121q-27 0 -42 6t-40 32l-90 89q-33 35 -32 94zM162 786q0 -37 33 -69l67 -66q29 -29 80 -28h86q37 0 64 12l305 143v387q0 35 -33 68l-68 67q-29 29 -80 29h-274q-51 0 -80 -29l-67 -67q-33 -33 -33 -68v-379z" />
<glyph unicode=":" d="M129 0v109h102v-109h-102zM129 915v109h102v-109h-102z" />
<glyph unicode=";" d="M121 -176l76 164h-70v121h100v-93q0 -53 -20 -100l-45 -92h-41zM127 915v109h100v-109h-100z" />
<glyph unicode="&#x3c;" horiz-adv-x="1112" d="M106 459v157l871 422l20 -51l-833 -401v-97l833 -401l-20 -51z" />
<glyph unicode="=" horiz-adv-x="1081" d="M106 371v63h871v-63h-871zM106 762v63h871v-63h-871z" />
<glyph unicode="&#x3e;" horiz-adv-x="1112" d="M115 88l833 401v97l-833 401l22 51l869 -422v-159l-869 -420z" />
<glyph unicode="?" horiz-adv-x="956" d="M127 1317l68 65q33 33 53 42.5t59 9.5h266q29 0 44.5 -4.5t31 -14.5t37.5 -33l113 -112q27 -27 37 -52.5t10 -70.5v-170q0 -94 -43 -115l-258 -131q-35 -18 -56.5 -50t-21.5 -65v-213h-55v213q0 111 114 172l189 97q33 18 54.5 50t21.5 64v144q0 59 -46 104l-94 94 q-18 16 -50 29.5t-64 13.5h-193q-33 0 -64.5 -13t-50.5 -30l-63 -63zM389 0v109h103v-109h-103z" />
<glyph unicode="@" horiz-adv-x="1591" d="M129 51v826q0 49 31 79l174 172q20 20 33.5 26.5t40.5 6.5h778q12 0 21.5 -1t17.5 -5t16 -10t19 -17l174 -172q31 -31 30 -79v-508q0 -47 -30 -78l-174 -172q-20 -20 -34 -26.5t-40 -6.5h-178l-15 82l-135 -64q-37 -18 -76 -18h-133q-37 0 -65 29l-68 67q-29 29 -29 72 v92q0 43 29 70l76 76q29 29 67 28h340v150q0 27 -22 51l-57 57q-20 20 -56 21h-329v35l16 14h334q37 0 65 -29l76 -76q27 -27 29 -69v-537h94q45 0 76 31l153 151q33 33 31 72v465q0 41 -33 72l-151 151q-31 31 -78 31h-701q-47 0 -77 -31l-152 -151q-33 -31 -33 -72v-784 q0 -41 33 -72l152 -152q31 -31 77 -30h607v-51h-645q-27 0 -40.5 6t-33.5 26l-174 172q-31 31 -31 80zM541 256q0 -27 22 -49l51 -51q20 -20 56 -21h112q25 0 45 10l172 80v246h-321q-33 0 -55 -20l-60 -60q-23 -23 -22 -49v-86z" />
<glyph unicode="A" horiz-adv-x="1288" d="M78 20l457 1414h221l454 -1414l-43 -20h-16l-158 500h-698l-158 -500h-16zM313 555h664l-260 823h-146z" />
<glyph unicode="B" horiz-adv-x="1228" d="M199 0v1407l26 27h611q18 0 30.5 -3.5t22.5 -10.5t26 -21l91 -90q33 -33 32 -84v-322q0 -51 -32 -86l-56 -53q-4 -2 -4 -6t4 -8l127 -125q33 -33 33 -86v-330q0 -51 -33 -84l-90 -90q-23 -23 -37 -29t-43 -6h-708zM258 55h610q49 0 82 33l66 66q35 35 35 77v285 q0 45 -35 78l-66 68q-32 32 -79 32h-3h-610v-639zM258 750h537q51 0 82 30l67 68q35 33 35 78v276q0 43 -35 78l-67 66q-30 32 -79 32h-3h-537v-628z" />
<glyph unicode="C" horiz-adv-x="1200" d="M160 303v827q0 51 33 84l186 185q23 23 37 29t43 6h397q27 0 42 -6.5t38 -28.5l127 -127l-45 -45l-121 119q-32 32 -79 32h-3h-317q-49 0 -82 -32l-162 -160q-35 -35 -35 -78v-782q0 -43 35 -78l162 -160q33 -33 82 -33h317q49 0 82 33l121 119l45 -45l-127 -127 q-23 -23 -38 -29t-42 -6h-397q-29 0 -43.5 6t-36.5 29l-186 184q-33 33 -33 84z" />
<glyph unicode="D" horiz-adv-x="1296" d="M199 0v1407l28 27h615q29 0 43 -6.5t37 -28.5l184 -185q33 -33 33 -84v-827q0 -51 -33 -84l-184 -184q-23 -23 -37.5 -29t-42.5 -6h-643zM260 55h541q51 0 82 33l164 160q33 35 32 78v782q1 43 -32 78l-164 160q-30 32 -79 32h-3h-541v-1323z" />
<glyph unicode="E" horiz-adv-x="1067" d="M154 209v1016q0 51 32 84l90 90q23 23 37 29t43 6h564l26 -27v-29h-551q-49 0 -82 -32l-65 -66q-35 -35 -35 -78v-459h610v-53h-610v-459q0 -43 35 -77l65 -66q33 -33 82 -33h551v-28l-26 -27h-564q-29 0 -43 6t-37 29l-90 90q-33 33 -32 84z" />
<glyph unicode="F" horiz-adv-x="1079" d="M205 2v1223q0 51 33 84l90 90q23 23 37 29t43 6h524l26 -27v-29h-509q-51 0 -82 -32l-68 -66q-35 -35 -35 -78v-500h570v-55h-570v-645h-59z" />
<glyph unicode="G" horiz-adv-x="1323" d="M156 303v830q0 51 32 84l185 184q30 31 55 33h420q29 0 43 -6.5t37 -28.5l127 -127l-45 -45l-121 119q-34 34 -85 34h-3h-10h-297q-49 0 -82 -32l-164 -160q-33 -35 -33 -78v-784q0 -43 33 -78l164 -160q35 -35 88 -35h10h297q49 0 82 33l164 160q33 35 32 78v354h-354 v29l27 26h387v-432q0 -51 -33 -84l-184 -184q-33 -31 -58 -33h-417q-29 0 -43.5 6t-36.5 29l-185 184q-33 33 -32 84z" />
<glyph unicode="H" horiz-adv-x="1388" d="M197 0v1407l26 27h33v-664h874v637l27 27h33v-1434h-60v715h-874v-715h-59z" />
<glyph unicode="I" horiz-adv-x="514" d="M225 0v1407l27 27h33v-1434h-60z" />
<glyph unicode="J" horiz-adv-x="659" d="M94 -209h105q55 0 84 33l67 65q31 37 31 78v1411h-287v29l27 27h319v-1489q0 -31 -6 -47.5t-26 -36.5l-91 -88q-23 -23 -37 -30t-42 -7h-144v55z" />
<glyph unicode="K" horiz-adv-x="1198" d="M199 0v1407l26 27h33v-834l735 834h17l26 -25l-565 -653l633 -731l-27 -25h-16l-629 711l-174 -199v-512h-59z" />
<glyph unicode="L" horiz-adv-x="1038" d="M205 27v1380l26 27h33v-1379h692v-55h-725z" />
<glyph unicode="M" horiz-adv-x="1839" d="M172 0v1407l27 27h229l446 -1377h82l447 1377h229l27 -27v-1407h-60v1378h-155l-443 -1378h-174l-440 1378h-156v-1378h-59z" />
<glyph unicode="N" horiz-adv-x="1366" d="M186 0v1407l27 27h195l585 -1379h125v1379h60v-1407l-27 -27h-201l-577 1378h-127v-1378h-60z" />
<glyph unicode="O" horiz-adv-x="1357" d="M154 303v827q0 51 32 84l185 185q23 23 38 29t42 6h454q27 0 42.5 -6.5t37.5 -28.5l184 -185q33 -33 33 -84v-827q0 -51 -33 -84l-184 -184q-23 -23 -38 -29t-42 -6h-454q-27 0 -42.5 6t-37.5 29l-185 184q-33 33 -32 84zM213 326q0 -43 33 -78l164 -160q33 -33 82 -33 h372q49 0 82 33l164 160q33 35 33 78v782q0 43 -33 78l-164 160q-32 32 -79 32h-3h-372q-49 0 -82 -32l-164 -160q-33 -35 -33 -78v-782z" />
<glyph unicode="P" horiz-adv-x="1202" d="M201 0v1407l26 27h631q29 0 43 -6.5t37 -28.5l90 -90q33 -33 33 -84v-367q0 -51 -33 -84l-90 -90q-14 -16 -25.5 -22.5t-22.5 -9.5t-32 -3h-598v-649h-59zM260 705h559q49 0 82 32l68 66q33 35 32 78v321q1 43 -32 78l-68 66q-32 32 -79 32h-3h-559v-673z" />
<glyph unicode="Q" horiz-adv-x="1400" d="M152 307v823q0 51 32 84l187 185q16 16 26.5 23.5t22 9.5t31.5 2h452q29 0 43.5 -6.5t36.5 -28.5l186 -185q33 -33 33 -84v-823q0 -53 -33 -86l-82 -80l205 -204l-20 -19h-31l-188 188l-70 -69q-23 -20 -37 -27.5t-43 -7.5h-452q-29 0 -43.5 7t-36.5 28l-187 184 q-33 33 -32 86zM211 330q0 -45 35 -78l162 -162q33 -33 81 -33h375q49 0 82 33l162 162q35 33 35 78v778q0 43 -35 78l-162 162q-32 30 -79 30h-3h-375q-49 0 -81 -30l-162 -162q-35 -35 -35 -78v-778z" />
<glyph unicode="R" horiz-adv-x="1239" d="M199 0v1407l26 27h631q20 0 31.5 -3.5t23 -10.5t25.5 -21l90 -90q33 -33 33 -84v-328q0 -51 -33 -84l-90 -90q-29 -29 -57 -33h-80l311 -657l-33 -33h-16l-326 690h-477v-690h-59zM258 743h559q49 0 82 31l68 68q33 35 32 78v282q1 43 -32 78l-68 66q-32 32 -79 32h-3 h-559v-635z" />
<glyph unicode="S" horiz-adv-x="1120" d="M119 18v37h565q31 0 64.5 13.5t52.5 31.5l94 95q47 47 47 106v137q0 35 -21.5 68t-56.5 51l-692 352q-14 8 -24.5 16.5t-16.5 19.5t-9 26.5t-3 36.5v131q0 45 10 69.5t37 51.5l125 124q31 31 51 40.5t59 9.5h514l19 -19v-37h-498q-31 0 -64.5 -13t-52.5 -32l-92 -96 q-49 -49 -49 -107v-86q0 -16 6 -32.5t16.5 -32.5t26 -29.5t31.5 -21.5l633 -322q113 -57 113 -168v-137q0 -45 -14.5 -76.5t-53.5 -70.5l-92 -93q-61 -61 -160 -61h-547z" />
<glyph unicode="T" horiz-adv-x="1130" d="M76 1378v29l26 27h928l27 -27v-29h-461v-1378h-59v1378h-461z" />
<glyph unicode="U" horiz-adv-x="1341" d="M199 209v1198l26 27h33v-1203q0 -43 35 -77l67 -66q31 -33 82 -33h469q51 0 82 33l68 66q35 35 35 77v1176l26 27h33v-1225q0 -51 -33 -84l-90 -90q-23 -23 -37 -29t-43 -6h-551q-29 0 -43 6t-36 29l-91 90q-33 33 -32 84z" />
<glyph unicode="V" horiz-adv-x="1239" d="M82 1413l45 21h14l408 -1379h141l408 1379h16l43 -21l-428 -1413h-219z" />
<glyph unicode="W" horiz-adv-x="2019" d="M53 1413l47 21h13l342 -1381h123l323 1381h217l324 -1379h123l342 1379h12l47 -21l-358 -1413h-207l-334 1378h-113l-333 -1378h-209z" />
<glyph unicode="X" horiz-adv-x="1144" d="M88 29l449 692l-449 684l31 29h12l447 -678l432 678h18l29 -29l-449 -694l449 -682l-29 -29h-16l-443 676l-436 -676h-14z" />
<glyph unicode="Y" horiz-adv-x="1193" d="M88 1415l39 19h20l351 -836h200l351 836h20l39 -19l-381 -872h-100v-543h-60v543h-100z" />
<glyph unicode="Z" horiz-adv-x="1173" d="M117 27v192l846 1012v147h-803v29l26 27h809l27 -27v-197l-846 -1011v-144h879v-28l-29 -27h-883z" />
<glyph unicode="[" horiz-adv-x="526" d="M125 -246v1780l27 27h247v-31l-26 -29h-185v-1714h185l26 -27v-32h-247z" />
<glyph unicode="\" horiz-adv-x="782" d="M133 1434h47l471 -1434h-47z" />
<glyph unicode="]" horiz-adv-x="526" d="M125 -240l27 27h184v1714h-184l-27 29v31h248l26 -27v-1780l-26 -26h-248v32z" />
<glyph unicode="^" horiz-adv-x="1228" d="M115 565l422 869h159l420 -869l-51 -22l-401 833h-97l-401 -833z" />
<glyph unicode="_" horiz-adv-x="1163" d="M102 -233h959v-41h-959v41z" />
<glyph unicode="`" horiz-adv-x="501" d="M121 1479l53 49l207 -244l-35 -31z" />
<glyph unicode="a" horiz-adv-x="989" d="M109 219v127q0 53 34 88l105 105q25 23 40 29.5t46 6.5h475v213q0 43 -33 78l-80 78q-31 33 -82 33h-442v31l16 16h455q31 0 46.5 -7t37.5 -30l104 -102q35 -35 35 -90v-795h-49l-20 115l-195 -92q-49 -23 -100 -23h-183q-29 0 -45 7t-38 30l-93 92q-35 35 -34 90z M164 225q0 -43 35 -78l67 -67q33 -33 82 -33h156q35 0 65 14l240 113v354h-449q-49 0 -81 -30l-80 -82q-35 -33 -35 -76v-115z" />
<glyph unicode="b" horiz-adv-x="1011" d="M139 219v1233l17 16h39v-598l284 134q43 18 88 18h123q29 0 45.5 -6t38.5 -31l92 -92q35 -35 35 -88v-586q0 -55 -35 -90l-92 -92q-23 -23 -39 -30t-45 -7h-340q-29 0 -45 7t-39 30l-92 92q-35 35 -35 90zM195 223q0 -43 34 -76l68 -69q33 -31 82 -31h283q49 0 81 31 l68 69q35 33 35 76v576q0 42 -35 75l-68 70q-31 31 -76 31h-5h-91q-35 0 -63 -14l-313 -146v-592z" />
<glyph unicode="c" horiz-adv-x="909" d="M113 219v586q0 55 34 90l93 92q25 23 40 30t46 7h356q31 0 46 -7t38 -30l35 -35l-37 -37l-29 29q-31 33 -80 33h-303q-49 0 -80 -33l-69 -67q-33 -35 -33 -78v-574q0 -43 33 -78l69 -67q31 -33 80 -33h303q49 0 80 33l29 29l37 -37l-33 -35q-25 -23 -40 -30t-46 -7h-356 q-31 0 -46.5 7t-39.5 30l-93 92q-35 35 -34 90z" />
<glyph unicode="d" horiz-adv-x="1007" d="M109 219v574q0 55 34 90l105 102q25 25 40 31t46 6h475v446h41l16 -14v-1454h-49l-20 115l-195 -92q-47 -23 -100 -23h-183q-29 0 -45 7t-38 30l-93 92q-35 35 -34 90zM164 223q0 -43 35 -76l67 -69q33 -31 82 -31h156q35 0 65 14l240 113v801h-449q-49 0 -81 -31 l-80 -80q-35 -35 -35 -78v-563z" />
<glyph unicode="e" horiz-adv-x="960" d="M109 219v586q0 55 34 90l93 92q16 16 27 23.5t23.5 10.5t35.5 3h325q20 0 33.5 -3t25 -10t27.5 -24l92 -92q35 -35 35 -90v-287l-16 -16h-680v-277q0 -43 35 -78l67 -67q33 -33 82 -33h273q49 0 81 33l29 29l37 -37l-35 -35q-23 -23 -39 -30t-47 -7h-325q-31 0 -47.5 7 t-38.5 30l-93 92q-35 35 -34 90zM164 549h641v250q0 43 -35 78l-68 67q-33 33 -81 33h-273q-49 0 -82 -33l-67 -67q-35 -35 -35 -78v-250z" />
<glyph unicode="f" horiz-adv-x="626" d="M70 977v33l14 14h162v190q0 55 35 91l92 92q25 23 40 30t46 7h80l16 -17v-31h-70q-49 0 -79 -30l-70 -70q-33 -33 -33 -76v-186h229v-47h-229v-977h-57v977h-176z" />
<glyph unicode="g" horiz-adv-x="1011" d="M109 238v585v15.5t2 13.5t2 9t5 8t6 7.5t8 8.5t11 10l93 92q23 23 38.5 30t44.5 7h340q29 0 45.5 -7t38.5 -30l93 -92q35 -35 34 -90v-946q0 -53 -34 -90l-103 -103q-12 -12 -20 -18t-18.5 -10.5t-20.5 -5.5t-27 -1h-454l-17 15v32h445q49 0 79 29l82 82q33 31 33 74v291 l-285 -134q-43 -20 -88 -20h-123q-29 0 -45 7t-38 30l-93 92q-35 35 -34 109zM164 225q0 -43 35 -78l67 -67q33 -33 82 -33h90q35 0 64 14l313 148v592q0 43 -35 76l-67 69q-33 31 -82 31h-283q-49 0 -82 -31l-67 -69q-35 -33 -35 -76v-576z" />
<glyph unicode="h" horiz-adv-x="1042" d="M150 0v1452l16 16h39v-598l284 134q43 18 89 18h122q29 0 45.5 -6t38.5 -31l93 -92q35 -35 34 -88v-805h-55v799q0 43 -35 75l-67 70q-31 31 -76 31h-6h-90q-35 0 -64 -14l-313 -146v-815h-55z" />
<glyph unicode="i" horiz-adv-x="436" d="M180 1305v96h88v-96h-88zM197 0v1024h55v-1024h-55z" />
<glyph unicode="j" horiz-adv-x="444" d="M8 -324h21q43 0 77 31l72 72q33 31 33 76v1169h57v-1176q0 -53 -37 -90l-90 -92q-25 -23 -41 -30t-45 -7h-47v47zM197 1305v96h86v-96h-86z" />
<glyph unicode="k" horiz-adv-x="1003" d="M150 0v1452l16 16h41v-923l614 479h39l21 -18l-514 -400l563 -583l-25 -23h-35l-540 580l-123 -97v-483h-57z" />
<glyph unicode="l" horiz-adv-x="552" d="M172 219v1233l16 16h39v-1245q0 -43 33 -73l72 -72q33 -31 80 -31h63v-47h-92q-29 0 -45 7t-39 30l-92 90q-35 37 -35 87v5z" />
<glyph unicode="m" horiz-adv-x="1626" d="M111 0v1024h45l22 -131l238 111q43 20 88 20h129q29 0 45 -7t39 -30l108 -108l269 125q43 20 88 20h129q29 0 45 -7t39 -30l92 -92q35 -35 35 -90v-805h-56v799q0 43 -34 78l-68 67q-31 33 -82 33h-96q-35 0 -66 -14l-276 -129v-834h-56v799q0 43 -34 78l-68 67 q-31 33 -82 33h-96q-35 0 -66 -14l-276 -132v-831h-55z" />
<glyph unicode="n" horiz-adv-x="1038" d="M139 0v1024h43l25 -147l272 127q43 20 88 20h129q29 0 45.5 -7t38.5 -30l92 -92q35 -35 35 -90v-805h-55v799q0 43 -33 78l-69 67q-31 33 -82 33h-97q-35 0 -65 -14l-311 -148v-815h-56z" />
<glyph unicode="o" horiz-adv-x="997" d="M109 219v586q0 55 34 90l93 92q25 23 40 30t46 7h356q20 0 32.5 -3t25 -10t28.5 -24l90 -92q37 -35 37 -90v-586q0 -55 -37 -90l-90 -92q-25 -23 -40 -30t-46 -7h-356q-31 0 -46.5 7t-39.5 30l-93 92q-35 35 -34 90zM166 225q0 -43 33 -78l69 -67q31 -33 80 -33h303 q49 0 80 33l70 67q33 35 33 78v574q0 43 -33 78l-70 67q-31 33 -80 33h-303q-49 0 -80 -33l-69 -67q-33 -35 -33 -78v-574z" />
<glyph unicode="p" horiz-adv-x="1021" d="M150 -369v1393h43l24 -147l272 127q44 20 89 20h122q29 0 45.5 -7t38.5 -30l93 -92q35 -35 34 -90v-586q0 -55 -34 -90l-93 -92q-23 -23 -39 -30t-45 -7h-495v-352l-17 -17h-38zM205 47h467q49 0 82 33l67 67q35 35 35 78v576q0 41 -35 76l-67 69q-33 31 -82 31h-90 q-35 0 -64 -14l-313 -148v-768z" />
<glyph unicode="q" horiz-adv-x="1011" d="M109 219v586q0 55 34 90l93 92q23 23 38.5 30t44.5 7h340q29 0 45.5 -7t38.5 -30l93 -92q35 -35 34 -90v-1157l-16 -17h-39v523l-285 -134q-43 -20 -88 -20h-123q-29 0 -45 7t-38 30l-93 92q-35 35 -34 90zM164 225q0 -43 35 -78l67 -67q33 -33 82 -33h90q35 0 64 14 l313 148v592q0 41 -35 76l-67 69q-33 31 -82 31h-283q-49 0 -82 -31l-67 -69q-35 -35 -35 -76v-576z" />
<glyph unicode="r" horiz-adv-x="651" d="M154 0v1024h30l41 -227l281 213q19 14 76 14h14v-47h-10q-47 0 -74 -19l-303 -221v-737h-55z" />
<glyph unicode="s" horiz-adv-x="888" d="M113 16v31h419q49 0 82 33l68 67q35 35 35 78v70q0 23 -15.5 47.5t-39.5 36.5l-506 258q-43 20 -43 74v94q0 55 34 90l93 92q23 23 39 30t47 7h381l14 -16v-31h-369q-51 0 -82 -33l-69 -70q-33 -35 -33 -75v-60q0 -25 15.5 -48t39.5 -36l463 -235q86 -43 86 -125v-70 q0 -61 -49 -110l-70 -70q-45 -45 -121 -45h-403z" />
<glyph unicode="t" horiz-adv-x="677" d="M70 977v31l14 16h162v250h57v-250h252v-47h-252v-754q0 -43 33 -76l70 -69q31 -31 79 -31h70v-31l-16 -16h-80q-31 0 -46.5 7t-39.5 30l-92 92q-35 35 -35 90v758h-176z" />
<glyph unicode="u" horiz-adv-x="1028" d="M129 219v805h55v-799q0 -43 33 -78l70 -67q31 -33 82 -33h96q35 0 65 14l312 148v815h55v-1024h-43l-25 147l-272 -127q-43 -20 -88 -20h-129q-29 0 -45 7t-39 30l-92 92q-35 35 -35 90z" />
<glyph unicode="v" horiz-adv-x="1005" d="M63 1016l19 8h37l332 -977h106l330 977h39l16 -8l-348 -1016h-180z" />
<glyph unicode="w" horiz-adv-x="1654" d="M29 1010l30 14h25l256 -977h127l270 977h176l273 -977h127l254 977h26l31 -14l-278 -1010h-195l-279 977h-92l-280 -977h-193z" />
<glyph unicode="x" horiz-adv-x="929" d="M61 1014l21 10h39l346 -469l330 469h39l22 -10l-356 -502l366 -502l-20 -10h-39l-344 469l-342 -469h-39l-21 10l369 502z" />
<glyph unicode="y" horiz-adv-x="1005" d="M63 1016l19 8h37l336 -977h96l336 977h39l16 -8l-358 -1047q-2 -8 -12.5 -35.5t-18.5 -48t-23.5 -55.5t-33 -61.5t-43 -58.5t-55 -56.5t-69.5 -46t-87 -33.5l-9 49q178 53 267 277l35 100h-121z" />
<glyph unicode="z" horiz-adv-x="978" d="M109 16v179l682 669v113h-646v31l15 16h669l17 -16v-160l-682 -672v-129h702v-31l-14 -16h-727z" />
<glyph unicode="{" horiz-adv-x="679" d="M121 637v70l194 137v499q0 52 33 87l144 141l47 -49l-127 -125q-33 -33 -33 -76v-496l-211 -153l211 -152v-495q0 -43 33 -78l127 -125l-47 -49l-144 145q-10 10 -16 17.5t-10.5 17.5t-5.5 21.5t-1 27.5v498z" />
<glyph unicode="|" horiz-adv-x="329" d="M131 -301v1849h68v-1849h-68z" />
<glyph unicode="}" horiz-adv-x="679" d="M139 -178l127 125q35 35 35 78v495l211 152l-211 153v496q0 43 -35 76l-127 125l49 49l142 -141q35 -35 35 -87v-499l194 -137v-70l-194 -137v-498q0 -33 -7.5 -49t-27.5 -37l-142 -143z" />
<glyph unicode="~" horiz-adv-x="1161" d="M119 553q63 96 121.5 154.5t121.5 64.5q23 2 39 2q41 0 78 -19.5t115 -78.5q131 -102 215 -103q104 0 215 150l23 -16q-104 -215 -248 -215q-72 0 -152 55q-14 10 -54 38.5t-52.5 37t-42 27t-45 23.5t-39 11t-43.5 6q-29 0 -58 -8q-80 -18 -172 -145z" />
<glyph unicode="&#xa1;" d="M129 991v109h102v-109h-102zM147 55l17 641h33l18 -643v-387h-68v389z" />
<glyph unicode="&#xa2;" horiz-adv-x="909" d="M111 227v570q0 53 32 88l90 90q23 23 38.5 29t45.5 6h146v110h55v-110h146q29 0 44 -6.5t37 -28.5l35 -35l-37 -35l-26 29q-31 31 -80 31h-119v-906h119q49 0 80 31l26 29l37 -35l-32 -35q-25 -23 -40.5 -29t-43.5 -6h-146v-110h-55v110h-146q-31 0 -46 6.5t-38 28.5 l-90 90q-33 35 -32 88zM164 231q0 -41 33 -73l67 -68q31 -31 80 -31h119v906h-119q-49 0 -80 -31l-67 -68q-33 -33 -33 -73v-562z" />
<glyph unicode="&#xa3;" horiz-adv-x="1107" d="M109 692v56h147v323q0 51 33 84l186 184q23 23 37 29t43 6h164q27 0 42 -6t38 -29l127 -127l-45 -45l-121 119q-33 33 -82 33h-84q-49 0 -82 -33l-162 -160q-35 -35 -35 -77v-301h418v-29l-26 -27h-392v-375q0 -51 -32 -84l-58 -57q-4 -4 -4 -8t4 -6l70 -70 q31 -31 82 -31h622v-55h-663q-29 0 -43 6t-37 29l-127 129l94 92q33 35 33 78v352h-147z" />
<glyph unicode="&#xa4;" horiz-adv-x="1392" />
<glyph unicode="&#xa5;" horiz-adv-x="1255" d="M119 1413l39 19h20l350 -832h201l350 832h21l39 -19l-287 -653h164v-55h-189l-69 -160h-101v-207h359v-55h-359v-283h-59v283h-356v55h356v207h-100l-70 160h-186v55h164z" />
<glyph unicode="&#xa6;" horiz-adv-x="329" d="M131 -301v653h68v-653h-68zM131 895v653h68v-653h-68z" />
<glyph unicode="&#xa7;" horiz-adv-x="868" d="M94 -199h420q49 0 82 31l68 70q35 33 34 75v70q0 25 -15 48.5t-40 35.5l-506 258q-43 23 -43 76v94q0 53 35 88l92 92q27 27 45 33l-129 68q-43 20 -43 73v95q0 55 35 90l92 92q23 23 39 30t45 7h383l14 -17v-30h-368q-51 0 -82 -33l-70 -70q-33 -35 -32 -76v-59 q0 -25 15 -48.5t40 -35.5l463 -235q86 -43 86 -125v-70q0 -59 -49 -111l-70 -69q-20 -20 -49 -33l82 -41q86 -43 86 -127v-70q0 -59 -49 -108l-70 -70q-45 -45 -121 -45h-403l-17 15v32zM150 492q0 -23 15 -47.5t40 -36.5l311 -158q49 2 80 33l68 67q35 35 34 78v70 q0 14 -7 30.5t-19.5 31t-28.5 22.5l-293 149h-16q-51 0 -82 -33l-70 -71q-33 -33 -32 -76v-59z" />
<glyph unicode="&#xa8;" horiz-adv-x="686" d="M102 1356v84h84v-84h-84zM498 1356v84h84v-84h-84z" />
<glyph unicode="&#xa9;" horiz-adv-x="1597" d="M119 715.5q0 187.5 91 346.5t247.5 250t342 91t342 -91t248 -250t91.5 -346.5t-91.5 -345t-248 -249.5t-342 -92t-342 92t-247.5 249.5t-91 345zM170 716q0 -263 185.5 -449.5t444.5 -186.5t444.5 186.5t185.5 449.5t-185.5 449.5t-444.5 186.5t-444.5 -186.5 t-185.5 -449.5zM516 498v438q0 33 21 53l98 98q22 25 51 25h213q27 0 49 -22l80 -78l-37 -37l-78 78q-8 8 -12 8h-2h-213h-1h-3t-10 -8l-101 -99q-6 -6 -6 -10l1 -3q1 -3 1 -5v-438q0 -4 -1 -8l-1 -3q0 -4 6 -8l101 -100q8 -6 12 -6h2h213h1h3t10 6l78 78l37 -35l-80 -78 q-23 -23 -49 -22h-213q-29 0 -51 22l-98 98q-20 20 -21 56z" />
<glyph unicode="&#xaa;" horiz-adv-x="667" d="M109 981v72q0 37 22 59l62 59q25 25 53 25h268v115q0 18 -16 37l-47 45q-14 16 -41 16h-265v33l15 12h264q31 0 55 -24l60 -58q23 -23 22 -59v-469h-41l-12 65l-105 -51q-29 -14 -59 -14h-106q-29 0 -54 24l-53 54q-23 23 -22 59zM156 983q0 -20 16 -37l41 -41 q14 -14 41 -14h90q20 0 35 6l135 64v190h-252q-27 0 -43 -16l-47 -48q-16 -16 -16 -36v-68z" />
<glyph unicode="&#xab;" horiz-adv-x="1036" d="M106 444v187l345 321l22 -24l-319 -391l319 -390l-22 -24zM557 444v187l344 321l25 -24l-322 -391l322 -390l-25 -24z" />
<glyph unicode="&#xac;" horiz-adv-x="1392" />
<glyph unicode="&#xad;" horiz-adv-x="819" d="M115 569v64h590v-64h-590z" />
<glyph unicode="&#xae;" horiz-adv-x="1597" d="M119 715.5q0 187.5 91 346.5t247.5 250t342 91t342 -91t248 -250t91.5 -346.5t-91.5 -345t-248 -249.5t-342 -92t-342 92t-247.5 249.5t-91 345zM170 716q0 -263 185.5 -449.5t444.5 -186.5t444.5 186.5t185.5 449.5t-185.5 449.5t-444.5 186.5t-444.5 -186.5 t-185.5 -449.5zM561 322v768l21 22h342q29 0 51 -22l47 -50q23 -20 22 -53v-174q0 -33 -22 -55l-47 -47q-23 -23 -31 -23h-31l162 -338l-28 -28h-23l-168 366h-242v-366h-53zM614 743h312q6 0 14 11l49 47q6 6 6 24v150q0 16 -6 22l-49 50q-8 8 -12 8h-2h-312v-312z" />
<glyph unicode="&#xaf;" horiz-adv-x="710" d="M102 1423v68h506v-68h-506z" />
<glyph unicode="&#xb0;" horiz-adv-x="743" d="M82 1344.5q0 119.5 85 204.5t206 85t206 -85t85 -204.5t-85 -204.5t-206 -85t-206 85t-85 204.5zM137 1344.5q0 -95.5 71 -165t165 -69.5t164.5 69.5t70.5 165t-70.5 165t-164.5 69.5t-165 -69.5t-71 -165z" />
<glyph unicode="&#xb1;" horiz-adv-x="1081" d="M104 10v64h871v-64h-871zM104 725v63h404v345h61v-345h406v-63h-406v-346h-61v346h-404z" />
<glyph unicode="&#xb2;" horiz-adv-x="735" d="M106 532v232q0 74 70 110l326 166q43 23 43 60v86q0 31 -25 55l-47 47q-35 33 -63 33h-142q-41 0 -63 -23l-43 -43l-33 33l45 47q14 14 24.5 20.5t21 9.5t26.5 3h176q25 0 38 -6t34 -27l67 -67q31 -31 31 -80v-94q0 -61 -41 -80l-356 -183q-43 -20 -43 -59v-194h477v-29 l-19 -17h-504z" />
<glyph unicode="&#xb3;" horiz-adv-x="694" d="M119 582l33 32l22 -20q16 -16 43 -16h223q27 0 43 16l39 39q18 18 19 37v188q0 18 -19 37l-73 74q-14 14 -41 16h-191v45h203q27 0 43 17l53 55q18 18 19 37v90q0 20 -19 37l-39 41q-16 14 -43 14h-211q-27 0 -43 -14l-20 -23l-33 33l27 26q22 25 53 25h244q29 0 53 -25 l53 -53q23 -23 23 -59v-94q0 -35 -23 -60l-76 -76l82 -81q23 -23 23 -60v-192q0 -37 -23 -60l-53 -51q-23 -25 -53 -25h-256q-31 0 -56 25z" />
<glyph unicode="&#xb4;" horiz-adv-x="501" d="M121 1284l207 244l53 -49l-227 -226z" />
<glyph unicode="&#xb6;" horiz-adv-x="997" d="M111 901v322q0 51 32 86l90 90q16 14 27.5 21t23 10.5t31.5 3.5h545l29 -29v-1641h-66v1610h-278v-1610h-64v926h-166q-29 0 -44 7.5t-38 29.5l-90 88q-33 35 -32 86z" />
<glyph unicode="&#xb7;" d="M129 543v108h102v-108h-102z" />
<glyph unicode="&#xb8;" horiz-adv-x="538" d="M137 -80l47 96h72l-43 -79q29 8 76 8q74 -4 113.5 -44t39.5 -100q0 -63 -41 -104t-114 -41h-99v41h99q39 0 69.5 30.5t30.5 73.5q0 51 -29.5 75t-66.5 26h-15q-29 0 -94 -27z" />
<glyph unicode="&#xb9;" horiz-adv-x="491" d="M115 1268l16 30l182 70h45l23 -22v-814h-47v785l-209 -78z" />
<glyph unicode="&#xba;" horiz-adv-x="681" d="M109 981v338q0 37 22 57l53 54q25 24 54 24h206q29 0 54 -24l53 -54q23 -20 22 -57v-338q0 -37 -22 -59l-53 -54q-25 -25 -54 -24h-206q-29 0 -54 24l-53 54q-23 23 -22 59zM156 983q0 -20 16 -37l39 -41q16 -14 43 -14h174q27 0 43 14l39 41q18 16 18 37v332 q0 21 -18 39l-39 39q-16 16 -43 16h-174q-27 0 -43 -16l-39 -39q-16 -18 -16 -39v-332z" />
<glyph unicode="&#xbb;" horiz-adv-x="1036" d="M111 147l319 390l-319 391l22 24l344 -321v-187l-344 -321zM561 147l320 392l-320 389l23 24l346 -321v-187l-346 -321z" />
<glyph unicode="&#xbc;" horiz-adv-x="1542" d="M90 1278l14 33l185 67h43l22 -22v-813h-45v784l-209 -78zM246 -35l977 1469h67l-975 -1469h-69zM913 227v39l293 570h107l20 -21v-565h119v-23l-22 -22h-97v-205h-45v205h-352zM961 250h327v534h-51z" />
<glyph unicode="&#xbd;" horiz-adv-x="1691" d="M88 1278l14 33l185 67h45l20 -22v-813h-45v784l-209 -78zM246 -35l975 1469h67l-975 -1469h-67zM1085 0v233q0 72 72 109l326 166q41 23 41 61v84q0 31 -25 56l-47 47q-35 35 -63 35h-142q-41 0 -63 -25l-41 -43l-35 35l45 45q23 20 36 26.5t36 6.5h178q23 0 37 -6.5 t35 -26.5l65 -68q31 -29 31 -78v-94q0 -61 -41 -82l-356 -180q-43 -23 -44 -61v-195h478v-29l-19 -16h-504z" />
<glyph unicode="&#xbe;" horiz-adv-x="1646" d="M98 594l33 33l21 -23q16 -14 43 -14h225q27 0 41 14l41 41q16 16 16 37v186q0 20 -16 37l-74 74q-16 16 -43 16h-188v45h200q29 0 43 17l56 57q16 16 16 37v88q0 20 -16 39l-41 39q-14 16 -41 16h-213q-27 0 -41 -16l-23 -21l-33 33l27 25q24 24 53 24h244q31 0 55 -24 l54 -54q23 -20 22 -57v-96q0 -35 -22 -57l-76 -78l82 -82q23 -23 22 -58v-194q0 -35 -22 -57l-54 -54q-25 -25 -53 -24h-258q-29 0 -53 24zM354 -35l977 1469h68l-975 -1469h-70zM1022 227v39l295 570h104l23 -21v-565h117v-23l-23 -22h-94v-205h-47v205h-353zM1071 250h326 v534h-51z" />
<glyph unicode="&#xbf;" horiz-adv-x="956" d="M111 -49v172q0 92 43 115l260 131q35 16 55 49t20 65v211h56v-211q0 -113 -115 -172l-186 -96q-35 -18 -56.5 -51t-21.5 -64v-145q0 -57 47 -102l92 -95q18 -18 51 -31.5t64 -13.5h194q31 0 64 13.5t51 31.5l62 64l38 -39l-65 -68q-18 -16 -29.5 -25t-25 -14.5 t-25.5 -7.5t-33 -2h-268q-39 0 -59.5 8.5t-53.5 40.5l-112 115q-27 27 -37 51.5t-10 69.5zM467 989v111h100v-111h-100z" />
<glyph unicode="&#xc0;" horiz-adv-x="1288" d="M78 20l457 1414h221l454 -1414l-43 -20h-16l-158 500h-698l-158 -500h-16zM313 555h664l-260 823h-146zM516 1960l53 49l207 -244l-35 -30z" />
<glyph unicode="&#xc1;" horiz-adv-x="1288" d="M78 20l457 1414h221l454 -1414l-43 -20h-16l-158 500h-698l-158 -500h-16zM313 555h664l-260 823h-146zM514 1765l207 244l53 -49l-225 -225z" />
<glyph unicode="&#xc2;" horiz-adv-x="1288" d="M78 20l457 1414h221l454 -1414l-43 -20h-16l-158 500h-698l-158 -500h-16zM313 555h664l-260 823h-146zM367 1765l221 265h114l224 -265l-35 -30l-246 245l-246 -245z" />
<glyph unicode="&#xc3;" horiz-adv-x="1288" d="M78 20l457 1414h221l454 -1414l-43 -20h-16l-158 500h-698l-158 -500h-16zM309 1868q102 156 176 162h29q31 0 57.5 -13.5t83.5 -58.5q92 -72 150 -72q74 0 156 111l24 -17q-78 -160 -180 -159q-51 0 -111 41q-23 16 -55.5 40.5t-46.5 35t-37 18.5t-43 8q-18 0 -41 -4 q-69 -17 -137 -111zM313 555h664l-260 823h-146z" />
<glyph unicode="&#xc4;" horiz-adv-x="1288" d="M78 20l457 1414h221l454 -1414l-43 -20h-16l-158 500h-698l-158 -500h-16zM311 555h666l-260 823h-146zM406 1839v84h83v-84h-83zM801 1839v84h84v-84h-84z" />
<glyph unicode="&#xc5;" horiz-adv-x="1288" d="M78 20l457 1414h221l454 -1414l-43 -20h-16l-158 500h-698l-158 -500h-16zM313 555h664l-260 823h-146zM469 1923q0 78 51 130t125 52t125 -52t51 -130t-51 -130t-125 -52t-125 52t-51 130zM522 1923q0 -51 36 -90t87 -39t87 39t36 90t-36 90t-87 39t-87 -39t-36 -90z " />
<glyph unicode="&#xc6;" horiz-adv-x="1581" d="M76 23l454 1411h908l28 -29v-35h-733v-622h610v-62h-610v-450q0 -41 33 -74l68 -68q31 -31 77 -31h555v-34l-28 -29h-566q-29 0 -45 7t-39 30l-88 88q-35 35 -34 88v279h-369l-154 -492h-20zM317 555h349v815h-91z" />
<glyph unicode="&#xc7;" horiz-adv-x="1200" d="M160 303v827q0 51 33 84l186 185q23 23 37 29t43 6h397q18 0 29.5 -3.5t23 -10.5t27.5 -21l127 -127l-45 -45l-121 119q-33 33 -82 32h-317q-49 0 -82 -32l-162 -160q-35 -35 -35 -78v-782q0 -43 35 -78l162 -160q33 -33 82 -33h317q49 0 82 33l121 119l45 -45l-127 -127 q-23 -23 -38 -29t-42 -6h-278l-37 -70q31 8 75 9q74 -4 115 -44t41 -100q0 -63 -41 -104t-115 -41h-98v41h98q39 0 70 30.5t31 73.5q0 51 -31 75t-68 26h-14q-35 0 -92 -27l-45 45l41 86h-49q-29 0 -43.5 6t-36.5 29l-186 184q-33 33 -33 84z" />
<glyph unicode="&#xc8;" horiz-adv-x="1067" d="M154 209v1016q0 51 32 84l90 90q23 23 37 29t43 6h564l26 -27v-29h-551q-49 0 -82 -32l-65 -66q-35 -35 -35 -78v-459h610v-53h-610v-459q0 -43 35 -77l65 -66q33 -33 82 -33h551v-28l-26 -27h-564q-29 0 -43 6t-37 29l-90 90q-33 33 -32 84zM455 1960l55 49l205 -244 l-33 -30z" />
<glyph unicode="&#xc9;" horiz-adv-x="1067" d="M154 209v1016q0 51 32 84l90 90q23 23 37 29t43 6h564l26 -27v-29h-551q-49 0 -82 -32l-65 -66q-35 -35 -35 -78v-459h610v-53h-610v-459q0 -43 35 -77l65 -66q33 -33 82 -33h551v-28l-26 -27h-564q-29 0 -43 6t-37 29l-90 90q-33 33 -32 84zM453 1765l206 244l54 -49 l-226 -225z" />
<glyph unicode="&#xca;" horiz-adv-x="1067" d="M152 209v1016q0 51 32 84l90 90q14 14 25.5 21t23 10.5t31.5 3.5h564l26 -27v-29h-551q-49 0 -82 -32l-65 -66q-35 -35 -35 -78v-459h610v-53h-610v-459q0 -43 35 -77l65 -66q33 -33 82 -33h551v-28l-26 -27h-564q-29 0 -43 6t-37 29l-90 90q-33 33 -32 84zM303 1765 l221 265h115l223 -265l-35 -30l-245 245l-246 -245z" />
<glyph unicode="&#xcb;" horiz-adv-x="1067" d="M154 209v1016q0 51 32 84l90 90q23 23 37 29t43 6h564l26 -27v-29h-551q-49 0 -82 -32l-65 -66q-35 -35 -35 -78v-459h610v-53h-610v-459q0 -43 35 -77l65 -66q33 -33 82 -33h551v-28l-26 -27h-564q-29 0 -43 6t-37 29l-90 90q-33 33 -32 84zM344 1839v84h84v-84h-84z M741 1839v84h84v-84h-84z" />
<glyph unicode="&#xcc;" horiz-adv-x="514" d="M129 1960l53 49l207 -244l-35 -30zM227 0v1407l27 27h33v-1434h-60z" />
<glyph unicode="&#xcd;" horiz-adv-x="514" d="M127 1765l207 244l53 -49l-225 -225zM227 0v1407l27 27h33v-1434h-60z" />
<glyph unicode="&#xce;" horiz-adv-x="514" d="M-20 1765l221 265h114l224 -265l-35 -30l-246 245l-246 -245zM227 0v1407l27 27h33v-1434h-60z" />
<glyph unicode="&#xcf;" horiz-adv-x="514" d="M16 1839v84h84v-84h-84zM225 0v1407l27 27h33v-1434h-60zM412 1839v84h84v-84h-84z" />
<glyph unicode="&#xd0;" horiz-adv-x="1366" d="M72 686v62h194v657l29 29h616q14 0 24.5 -1t20 -5.5t17.5 -11.5t20 -19l187 -185q33 -33 32 -86v-819q0 -53 -32 -86l-187 -184q-23 -23 -38 -30t-44 -7h-645v686h-194zM334 63h536q49 0 80 31l162 162q33 33 33 74v774q0 41 -33 74l-162 161q-31 31 -80 31h-536v-622 h328v-62h-328v-623z" />
<glyph unicode="&#xd1;" horiz-adv-x="1366" d="M186 0v1407l27 27h195l585 -1379h125v1379h60v-1407l-27 -27h-201l-577 1378h-127v-1378h-60zM346 1868q102 156 176 162h29q20 0 38.5 -6.5t41 -20.5t61.5 -45q90 -72 150 -72q74 0 155 111l25 -17q-78 -160 -180 -159q-51 0 -113 41q-20 16 -53 40.5t-48.5 35t-37 18.5 t-41.5 8q-18 0 -41 -4q-69 -17 -137 -111z" />
<glyph unicode="&#xd2;" horiz-adv-x="1357" d="M154 303v827q0 51 32 84l185 185q16 14 26.5 21t23 10.5t30.5 3.5h454q27 0 42.5 -6.5t37.5 -28.5l184 -185q33 -33 33 -84v-827q0 -51 -33 -84l-184 -184q-23 -23 -38 -29t-42 -6h-454q-27 0 -42.5 6t-37.5 29l-185 184q-33 33 -32 84zM213 326q0 -43 33 -78l164 -160 q33 -33 82 -33h372q49 0 82 33l164 160q33 35 33 78v782q0 43 -33 78l-164 160q-33 33 -82 32h-372q-49 0 -82 -32l-164 -160q-33 -35 -33 -78v-782zM549 1960l53 49l207 -244l-35 -30z" />
<glyph unicode="&#xd3;" horiz-adv-x="1357" d="M154 303v827q0 51 32 84l185 185q16 14 26.5 21t23 10.5t30.5 3.5h454q27 0 42.5 -6.5t37.5 -28.5l184 -185q33 -33 33 -84v-827q0 -51 -33 -84l-184 -184q-23 -23 -38 -29t-42 -6h-454q-27 0 -42.5 6t-37.5 29l-185 184q-33 33 -32 84zM213 326q0 -43 33 -78l164 -160 q33 -33 82 -33h372q49 0 82 33l164 160q33 35 33 78v782q0 43 -33 78l-164 160q-33 33 -82 32h-372q-49 0 -82 -32l-164 -160q-33 -35 -33 -78v-782zM547 1765l207 244l53 -49l-225 -225z" />
<glyph unicode="&#xd4;" horiz-adv-x="1357" d="M154 303v827q0 51 32 84l185 185q23 23 38 29t42 6h454q27 0 42.5 -6.5t37.5 -28.5l184 -185q33 -33 33 -84v-827q0 -51 -33 -84l-184 -184q-23 -23 -38 -29t-42 -6h-454q-27 0 -42.5 6t-37.5 29l-185 184q-33 33 -32 84zM213 326q0 -43 33 -78l164 -160q33 -33 82 -33 h372q49 0 82 33l164 160q33 35 33 78v782q0 43 -33 78l-164 160q-33 33 -82 32h-372q-49 0 -82 -32l-164 -160q-33 -35 -33 -78v-782zM399 1765l222 265h114l221 -265l-32 -30l-246 245l-246 -245z" />
<glyph unicode="&#xd5;" horiz-adv-x="1357" d="M154 303v827q0 51 32 84l185 185q16 14 26.5 21t23 10.5t30.5 3.5h454q27 0 42.5 -6.5t37.5 -28.5l184 -185q33 -33 33 -84v-827q0 -51 -33 -84l-184 -184q-23 -23 -38 -29t-42 -6h-454q-27 0 -42.5 6t-37.5 29l-185 184q-33 33 -32 84zM213 326q0 -43 33 -78l164 -160 q33 -33 82 -33h372q49 0 82 33l164 160q33 35 33 78v782q0 43 -33 78l-164 160q-33 33 -82 32h-372q-49 0 -82 -32l-164 -160q-33 -35 -33 -78v-782zM342 1868q102 156 176 162h29q31 0 57.5 -13.5t83.5 -58.5q90 -72 150 -72q74 0 155 111l25 -17q-78 -160 -180 -159 q-51 0 -113 41q-20 16 -53 40.5t-48.5 35t-37 18.5t-41.5 8q-18 0 -41 -4q-69 -17 -137 -111z" />
<glyph unicode="&#xd6;" horiz-adv-x="1357" d="M154 303v827q0 51 32 84l185 185q16 14 26.5 21t23 10.5t30.5 3.5h454q27 0 42.5 -6.5t37.5 -28.5l184 -185q33 -33 33 -84v-827q0 -51 -33 -84l-184 -184q-23 -23 -38 -29t-42 -6h-454q-27 0 -42.5 6t-37.5 29l-185 184q-33 33 -32 84zM213 326q0 -43 33 -78l164 -160 q33 -33 82 -33h372q49 0 82 33l164 160q33 35 33 78v782q0 43 -33 78l-164 160q-33 33 -82 32h-372q-49 0 -82 -32l-164 -160q-33 -35 -33 -78v-782zM438 1839v84h84v-84h-84zM834 1839v84h84v-84h-84z" />
<glyph unicode="&#xd7;" horiz-adv-x="919" d="M129 309l291 291l-291 289l41 41l289 -291l291 291l41 -41l-291 -289l291 -291l-41 -41l-291 291l-289 -291z" />
<glyph unicode="&#xd8;" horiz-adv-x="1357" d="M150 307v819q0 53 32 86l187 185q23 23 38 30t44 7h419l35 102h70l-35 -106q20 -6 47 -33l187 -185q33 -33 32 -86v-819q0 -53 -32 -86l-187 -184q-23 -23 -38 -30t-44 -7h-432l-35 -102h-69l34 110q-14 6 -34 29l-187 184q-33 33 -32 86zM217 330q0 -41 33 -74l162 -162 q6 -6 16 -12l422 1288h-358q-49 0 -80 -31l-162 -161q-33 -33 -33 -74v-774zM494 63h370q49 0 80 31l162 162q33 33 33 74v774q0 41 -33 74l-162 161q-10 10 -26 19z" />
<glyph unicode="&#xd9;" horiz-adv-x="1341" d="M199 209v1198l26 27h33v-1203q0 -43 35 -77l67 -66q31 -33 82 -33h469q51 0 82 33l68 66q35 35 35 77v1176l26 27h33v-1225q0 -51 -33 -84l-90 -90q-23 -23 -37 -29t-43 -6h-551q-29 0 -43 6t-36 29l-91 90q-33 33 -32 84zM543 1960l53 49l207 -244l-35 -30z" />
<glyph unicode="&#xda;" horiz-adv-x="1341" d="M199 209v1198l26 27h33v-1203q0 -43 35 -77l67 -66q31 -33 82 -33h469q51 0 82 33l68 66q35 35 35 77v1176l26 27h33v-1225q0 -51 -33 -84l-90 -90q-23 -23 -37 -29t-43 -6h-551q-29 0 -43 6t-36 29l-91 90q-33 33 -32 84zM541 1765l207 244l53 -49l-228 -225z" />
<glyph unicode="&#xdb;" horiz-adv-x="1341" d="M199 209v1198l26 27h33v-1203q0 -43 35 -77l67 -66q31 -33 82 -33h469q51 0 82 33l68 66q35 35 35 77v1176l26 27h33v-1225q0 -51 -33 -84l-90 -90q-23 -23 -37 -29t-43 -6h-551q-29 0 -43 6t-36 29l-91 90q-33 33 -32 84zM391 1765l223 265h115l221 -265l-32 -30 l-246 245l-246 -245z" />
<glyph unicode="&#xdc;" horiz-adv-x="1341" d="M199 209v1198l26 27h33v-1203q0 -43 35 -77l67 -66q31 -33 82 -33h469q51 0 82 33l68 66q35 35 35 77v1176l26 27h33v-1225q0 -51 -33 -84l-90 -90q-23 -23 -37 -29t-43 -6h-551q-29 0 -43 6t-36 29l-91 90q-33 33 -32 84zM432 1839v84h84v-84h-84zM827 1839v84h84v-84 h-84z" />
<glyph unicode="&#xdd;" horiz-adv-x="1193" d="M88 1415l39 19h20l351 -836h200l351 836h20l39 -19l-381 -872h-100v-543h-60v543h-100zM467 1765l207 244l53 -49l-225 -225z" />
<glyph unicode="&#xde;" horiz-adv-x="1228" d="M197 0v1434h67v-260h594q29 0 45.5 -6.5t38.5 -28.5l88 -90q35 -35 35 -88v-363q0 -53 -35 -86l-88 -90q-23 -23 -39 -30t-45 -7h-594v-385h-67zM264 449h555q47 0 78 30l68 68q33 33 32 74v317q1 43 -32 76l-68 65q-31 31 -78 31h-555v-661z" />
<glyph unicode="&#xdf;" horiz-adv-x="1228" d="M203 0v1221q0 53 35 88l90 88q23 23 38 30t44 7h350q29 0 44 -7.5t38 -29.5l90 -88q33 -35 33 -88v-246q0 -53 -33 -88l-98 -96l108 -109q35 -35 35 -88v-381q0 -53 -35 -88l-90 -88q-23 -23 -38 -30t-44 -7h-285v45h258q47 0 78 33l68 65q33 33 33 76v371q0 41 -33 74 l-68 67q-33 33 -78 31h-258v45h254q43 2 72 31l68 67q33 33 32 74v235q0 43 -32 76l-68 68q-31 31 -80 31h-295q-47 0 -78 -31l-67 -68q-33 -33 -33 -76v-1214h-55z" />
<glyph unicode="&#xe0;" horiz-adv-x="989" d="M109 219v127q0 53 34 88l105 105q25 23 40 29.5t46 6.5h475v213q0 43 -33 78l-80 78q-31 33 -82 33h-442v31l16 16h455q31 0 46.5 -7t37.5 -30l102 -102q37 -35 37 -90v-795h-49l-20 115l-195 -92q-49 -23 -100 -23h-183q-29 0 -45 7t-38 30l-93 92q-35 35 -34 90z M164 225q0 -43 35 -78l67 -67q33 -33 82 -33h156q35 0 65 14l240 113v354h-449q-49 0 -81 -30l-80 -82q-35 -33 -35 -76v-115zM375 1552l53 50l207 -244l-35 -31z" />
<glyph unicode="&#xe1;" horiz-adv-x="989" d="M109 219v127q0 53 34 88l105 105q16 16 27.5 23t24.5 10t34 3h475v213q0 43 -33 78l-80 78q-31 33 -82 33h-442v31l16 16h455q31 0 46.5 -7t37.5 -30l102 -102q37 -37 37 -90v-795h-49l-20 115l-195 -92q-49 -23 -100 -23h-183q-29 0 -45 7t-38 30l-93 92q-35 35 -34 90z M164 225q0 -43 35 -78l67 -67q33 -33 82 -33h156q35 0 65 14l240 113v354h-449q-49 0 -81 -30l-80 -82q-35 -33 -35 -76v-115zM373 1358l205 244l55 -50l-227 -225z" />
<glyph unicode="&#xe2;" horiz-adv-x="989" d="M109 219v127q0 53 34 88l105 105q25 23 40 29.5t46 6.5h475v213q0 43 -33 78l-80 78q-31 33 -82 33h-442v31l16 16h455q31 0 46.5 -7t37.5 -30l104 -102q35 -35 35 -90v-795h-49l-20 115l-195 -92q-49 -23 -100 -23h-183q-29 0 -45 7t-38 30l-93 92q-35 35 -34 90z M164 225q0 -43 35 -78l67 -67q33 -33 82 -33h156q35 0 65 14l240 113v354h-449q-49 0 -81 -30l-80 -82q-35 -33 -35 -76v-115zM223 1358l223 262h115l221 -262l-32 -31l-246 244l-246 -244z" />
<glyph unicode="&#xe3;" horiz-adv-x="989" d="M109 219v127q0 53 34 88l105 105q25 23 40 29.5t46 6.5h475v213q0 43 -33 78l-80 78q-31 33 -80 33h-444v31l16 16h455q31 0 46.5 -7t37.5 -30l104 -102q35 -37 35 -90v-795h-49l-20 115l-195 -92q-49 -23 -100 -23h-183q-29 0 -45 7t-38 30l-93 92q-35 35 -34 90z M164 223q0 -41 35 -76l67 -67q33 -33 82 -33h156q35 0 65 14l240 113v354h-449q-49 0 -81 -30l-80 -82q-35 -33 -35 -76v-117zM168 1458q102 156 176 162q18 2 29 2q31 0 57.5 -14.5t81.5 -57.5q92 -74 152 -73q74 0 155 110l23 -14q-76 -162 -178 -162q-53 0 -113 43 q-23 14 -55.5 40t-47 35t-36 18t-43.5 9q-16 0 -39 -6q-69 -14 -137 -108z" />
<glyph unicode="&#xe4;" horiz-adv-x="989" d="M109 219v127q0 53 34 88l105 105q25 23 40 29.5t46 6.5h475v213q0 43 -33 78l-80 78q-31 33 -82 33h-442v31l16 16h455q31 0 46.5 -7t37.5 -30l104 -102q35 -35 35 -90v-795h-49l-20 115l-195 -92q-49 -23 -100 -23h-183q-29 0 -45 7t-38 30l-93 92q-35 35 -34 90z M164 225q0 -43 35 -78l67 -67q33 -33 82 -33h156q35 0 65 14l240 113v354h-449q-49 0 -81 -30l-80 -82q-35 -33 -35 -76v-115zM262 1430v83h84v-83h-84zM659 1430v83h84v-83h-84z" />
<glyph unicode="&#xe5;" horiz-adv-x="989" d="M109 219v127q0 53 34 88l105 105q16 16 27.5 23t24.5 10t34 3h475v213q0 43 -33 78l-80 78q-31 33 -82 33h-442v31l16 16h455q31 0 46.5 -7t37.5 -30l104 -102q35 -35 35 -90v-795h-49l-20 115l-195 -92q-49 -23 -100 -23h-183q-29 0 -45 7t-38 30l-93 92q-35 35 -34 90z M164 225q0 -43 35 -78l67 -67q33 -33 82 -33h156q35 0 65 14l240 113v354h-449q-49 0 -81 -30l-80 -82q-35 -33 -35 -76v-115zM326 1516q0 49 24.5 92t64.5 66.5t89 23.5q72 0 124 -53.5t52 -130t-52.5 -130t-125 -53.5t-124.5 53.5t-52 131.5zM381 1514.5q0 -50.5 35 -90.5 t87 -40t88 40t36 92q0 25 -9.5 47t-26 40.5t-39.5 30t-48 11.5q-53 0 -88 -40t-35 -90.5z" />
<glyph unicode="&#xe6;" horiz-adv-x="1658" d="M109 219v127q0 53 34 88l105 105q16 16 27.5 23t24.5 10t34 3h475v213q0 43 -33 78l-80 78q-31 33 -82 33h-442v31l16 16h455q31 0 46.5 -7t37.5 -30l98 -98q4 -4 8.5 -4t6.5 4l96 98q16 16 28.5 23.5t25 10.5t32.5 3h328q29 0 45 -7t39 -30l92 -92q35 -35 35 -90v-287 l-17 -16h-678v-277q0 -43 33 -78l70 -67q31 -33 80 -33h272q51 0 82 33l29 29l36 -37l-34 -35q-23 -23 -39.5 -30t-44.5 -7h-328q-31 0 -46 7t-40 30l-70 72v-109h-49l-20 115l-195 -92q-49 -23 -100 -23h-183q-29 0 -45 7t-38 30l-93 92q-35 35 -34 90zM164 225 q0 -43 35 -78l67 -67q33 -33 82 -33h156q35 0 65 14l240 113v354h-449q-49 0 -81 -30l-80 -82q-35 -33 -35 -76v-115zM866 549h639v250q1 43 -32 78l-70 67q-31 33 -82 33h-272q-49 0 -80 -33l-70 -67q-33 -35 -33 -78v-250z" />
<glyph unicode="&#xe7;" horiz-adv-x="909" d="M113 219v586q0 55 34 90l93 92q25 23 40 30t46 7h356q12 0 21.5 -1t16.5 -3t15 -6t15.5 -10.5t15.5 -16.5l35 -35l-37 -37l-29 29q-31 33 -80 33h-303q-49 0 -80 -33l-69 -67q-33 -35 -33 -78v-574q0 -43 33 -78l69 -67q31 -33 80 -33h303q49 0 80 33l29 29l37 -37 l-33 -35q-25 -23 -40 -30t-46 -7h-256l-29 -57q37 10 76 10q74 -4 114 -44t40 -99q0 -41 -17.5 -74t-53.5 -52.5t-85 -19.5h-98v41h98q39 0 69.5 31t30.5 74q0 51 -29.5 74.5t-66.5 25.5h-14q-33 0 -94 -29l-45 45l34 74h-30q-31 0 -46.5 7t-39.5 30l-93 92q-35 35 -34 90z " />
<glyph unicode="&#xe8;" horiz-adv-x="960" d="M109 219v586q0 55 34 90l93 92q23 23 39 30t47 7h325q20 0 33.5 -3t25 -10t27.5 -24l92 -92q35 -35 35 -90v-287l-16 -16h-680v-277q0 -43 35 -78l67 -67q33 -33 82 -33h273q49 0 81 33l29 29l37 -37l-35 -35q-23 -23 -39 -30t-47 -7h-325q-31 0 -47.5 7t-38.5 30l-93 92 q-35 35 -34 90zM164 549h641v250q0 43 -35 78l-68 67q-33 33 -81 33h-273q-49 0 -82 -33l-67 -67q-35 -35 -35 -78v-250zM350 1552l53 50l207 -244l-35 -31z" />
<glyph unicode="&#xe9;" horiz-adv-x="960" d="M109 219v586q0 55 34 90l93 92q23 23 39 30t47 7h325q31 0 47.5 -7t38.5 -30l92 -92q35 -35 35 -90v-287l-16 -16h-680v-277q0 -43 35 -78l67 -67q33 -33 82 -33h273q49 0 81 33l29 29l37 -37l-35 -35q-23 -23 -39 -30t-47 -7h-325q-31 0 -47.5 7t-38.5 30l-93 92 q-35 35 -34 90zM164 549h641v250q0 43 -35 78l-68 67q-33 33 -81 33h-273q-49 0 -82 -33l-67 -67q-35 -35 -35 -78v-250zM348 1358l207 244l53 -50l-227 -225z" />
<glyph unicode="&#xea;" horiz-adv-x="960" d="M109 219v586q0 55 34 90l93 92q23 23 39 30t47 7h325q20 0 33.5 -3t25 -10t27.5 -24l92 -92q35 -35 35 -90v-287l-16 -16h-680v-277q0 -43 35 -78l67 -67q33 -33 82 -33h273q49 0 81 33l29 29l37 -37l-35 -35q-23 -23 -39 -30t-47 -7h-325q-31 0 -47.5 7t-38.5 30l-93 92 q-35 35 -34 90zM164 549h641v250q0 43 -35 78l-68 67q-33 33 -81 33h-273q-49 0 -82 -33l-67 -67q-35 -35 -35 -78v-250zM199 1358l223 262h115l221 -262l-33 -31l-246 244l-246 -244z" />
<glyph unicode="&#xeb;" horiz-adv-x="960" d="M109 219v586q0 55 34 90l93 92q16 16 27 23.5t23.5 10.5t35.5 3h325q20 0 33.5 -3t25 -10t27.5 -24l92 -92q35 -35 35 -90v-287l-16 -16h-680v-277q0 -43 35 -78l67 -67q33 -33 82 -33h273q49 0 81 33l29 29l37 -37l-35 -35q-23 -23 -39 -30t-47 -7h-325q-31 0 -47.5 7 t-38.5 30l-93 92q-35 35 -34 90zM164 549h641v250q0 43 -35 78l-68 67q-33 33 -81 33h-273q-49 0 -82 -33l-67 -67q-35 -35 -35 -78v-250zM238 1430v83h84v-83h-84zM635 1430v83h84v-83h-84z" />
<glyph unicode="&#xec;" horiz-adv-x="403" d="M59 1503l54 49l206 -243l-32 -31zM180 0v1024h56v-1024h-56z" />
<glyph unicode="&#xed;" horiz-adv-x="403" d="M57 1309l207 243l53 -49l-225 -225zM180 0v1024h56v-1024h-56z" />
<glyph unicode="&#xee;" horiz-adv-x="403" d="M-90 1309l221 262h115l223 -262l-35 -31l-246 244l-245 -244zM180 0v1024h56v-1024h-56z" />
<glyph unicode="&#xef;" horiz-adv-x="403" d="M-51 1380v84h84v-84h-84zM180 0v1024h56v-1024h-56zM346 1380v84h84v-84h-84z" />
<glyph unicode="&#xf0;" horiz-adv-x="1085" d="M104 221v395q0 59 35 95l90 90q25 25 40.5 32t41.5 7h119q43 0 86 -21l277 -129v504l-168 -129l-25 33l188 145q-8 27 -28 47l-66 68q-31 31 -80 31h-317q-47 0 -80 -31l-27 -29l-36 35l34 33q23 23 38 30t44 7h371q16 0 25.5 -1t19.5 -5.5t18.5 -11.5t20.5 -19l88 -88 q16 -16 23 -29l133 102l26 -34l-147 -113v-14v-1000q0 -59 -35 -92l-88 -90q-27 -25 -41 -32t-43 -7h-330q-27 0 -42 7t-40 32l-90 90q-35 33 -35 92zM160 211q0 -35 33 -68l67 -67q27 -29 78 -29h276q51 0 80 29l66 67q33 33 33 68v426l-304 143q-27 12 -63 13h-86 q-51 2 -80 -27l-67 -68q-33 -33 -33 -67v-420z" />
<glyph unicode="&#xf1;" horiz-adv-x="1038" d="M106 1382q102 154 177 162h28q20 0 39 -6t40.5 -20.5t60.5 -44.5q92 -72 151 -72q74 0 154 110l24 -16q-78 -160 -178 -160q-53 0 -113 41q-23 16 -55.5 41t-46.5 35t-35.5 18.5t-44.5 8.5q-18 0 -39 -4q-69 -17 -137 -111zM139 0v1024h43l25 -147l272 127q43 20 88 20 h129q29 0 45.5 -7t38.5 -30l92 -92q35 -35 35 -90v-805h-55v799q0 43 -33 78l-69 67q-31 33 -82 33h-97q-35 0 -65 -14l-311 -148v-815h-56z" />
<glyph unicode="&#xf2;" horiz-adv-x="997" d="M109 219v586q0 55 34 90l93 92q25 23 40 30t46 7h356q31 0 46 -7t40 -30l90 -92q37 -35 37 -90v-586q0 -55 -37 -90l-90 -92q-25 -23 -40 -30t-46 -7h-356q-31 0 -46.5 7t-39.5 30l-93 92q-35 35 -34 90zM166 225q0 -43 33 -78l69 -67q31 -33 80 -33h303q49 0 80 33 l70 67q33 35 33 78v574q0 43 -33 78l-70 67q-31 33 -80 33h-303q-49 0 -80 -33l-69 -67q-33 -35 -33 -78v-574zM371 1552l53 50l207 -244l-35 -31z" />
<glyph unicode="&#xf3;" horiz-adv-x="997" d="M109 219v586q0 55 34 90l93 92q25 23 40 30t46 7h356q31 0 46 -7t40 -30l90 -92q37 -35 37 -90v-586q0 -55 -37 -90l-90 -92q-25 -23 -40 -30t-46 -7h-356q-31 0 -46.5 7t-39.5 30l-93 92q-35 35 -34 90zM166 225q0 -43 33 -78l69 -67q31 -33 80 -33h303q49 0 80 33 l70 67q33 35 33 78v574q0 43 -33 78l-70 67q-31 33 -80 33h-303q-49 0 -80 -33l-69 -67q-33 -35 -33 -78v-574zM369 1358l206 244l54 -50l-226 -225z" />
<glyph unicode="&#xf4;" horiz-adv-x="997" d="M109 219v586q0 55 34 90l93 92q25 23 40 30t46 7h356q31 0 46 -7t40 -30l90 -92q37 -35 37 -90v-586q0 -55 -37 -90l-90 -92q-25 -23 -40 -30t-46 -7h-356q-31 0 -46.5 7t-39.5 30l-93 92q-35 35 -34 90zM166 225q0 -43 33 -78l69 -67q31 -33 80 -33h303q49 0 80 33 l70 67q33 35 33 78v574q0 43 -33 78l-70 67q-31 33 -80 33h-303q-49 0 -80 -33l-69 -67q-33 -35 -33 -78v-574zM221 1358l221 262h115l221 -262l-33 -31l-245 244l-246 -244z" />
<glyph unicode="&#xf5;" horiz-adv-x="997" d="M109 219v586q0 55 36 90l91 92q25 23 40 30t46 7h356q31 0 46 -7t40 -30l90 -92q37 -35 37 -90v-586q0 -55 -37 -90l-90 -92q-25 -23 -40 -30t-46 -7h-356q-31 0 -46.5 7t-39.5 30l-91 92q-37 35 -36 90zM164 1458q102 156 176 162q18 2 29 2q31 0 57.5 -14.5t83.5 -57.5 q90 -74 149 -73q74 0 156 110l25 -14q-78 -162 -181 -162q-51 0 -110 43q-23 14 -55.5 40t-48 35t-37 18t-41.5 9q-18 0 -41 -6q-70 -14 -138 -108zM166 223q0 -41 33 -76l69 -67q31 -33 80 -33h303q49 0 80 33l70 67q33 35 33 76v576q0 43 -33 78l-70 67q-31 33 -80 33 h-303q-49 0 -80 -33l-69 -67q-33 -35 -33 -78v-576z" />
<glyph unicode="&#xf6;" horiz-adv-x="997" d="M109 219v586q0 55 34 90l93 92q25 23 40 30t46 7h356q20 0 32.5 -3t25 -10t28.5 -24l90 -92q37 -35 37 -90v-586q0 -55 -37 -90l-90 -92q-25 -23 -40 -30t-46 -7h-356q-31 0 -46.5 7t-39.5 30l-93 92q-35 35 -34 90zM166 225q0 -43 33 -78l69 -67q31 -33 80 -33h303 q49 0 80 33l70 67q33 35 33 78v574q0 43 -33 78l-70 67q-31 33 -80 33h-303q-49 0 -80 -33l-69 -67q-33 -35 -33 -78v-574zM260 1430v83h84v-83h-84zM655 1430v83h84v-83h-84z" />
<glyph unicode="&#xf7;" horiz-adv-x="1081" d="M104 567v64h871v-64h-871zM489 158v110h101v-110h-101zM489 932v108h101v-108h-101z" />
<glyph unicode="&#xf8;" horiz-adv-x="997" d="M109 219v586q0 55 34 90l93 92q25 23 40 30t46 7h315l35 104h61l-35 -104q31 -4 66 -37l90 -92q37 -35 37 -90v-586q0 -55 -37 -90l-90 -92q-25 -23 -40 -30t-46 -7h-316l-34 -104h-62l35 104q-31 4 -65 37l-93 92q-35 35 -34 90zM166 225q0 -43 33 -78l69 -67 q18 -18 49 -29l306 926h-275q-49 0 -80 -33l-69 -67q-33 -35 -33 -78v-574zM377 47h274q49 0 80 33l70 67q33 35 33 78v574q0 43 -33 78l-70 67q-18 18 -51 29z" />
<glyph unicode="&#xf9;" horiz-adv-x="1028" d="M129 219v805h55v-799q0 -43 33 -78l70 -67q31 -33 82 -33h96q35 0 65 14l312 148v815h55v-1024h-43l-25 147l-272 -127q-43 -20 -88 -20h-129q-29 0 -45 7t-39 30l-92 92q-35 35 -35 90zM383 1552l53 50l207 -244l-35 -31z" />
<glyph unicode="&#xfa;" horiz-adv-x="1028" d="M129 219v805h55v-799q0 -43 33 -78l70 -67q31 -33 82 -33h96q35 0 65 14l312 148v815h55v-1024h-43l-25 147l-272 -127q-43 -20 -88 -20h-129q-29 0 -45 7t-39 30l-92 92q-35 35 -35 90zM381 1358l207 244l53 -50l-225 -225z" />
<glyph unicode="&#xfb;" horiz-adv-x="1028" d="M129 219v805h55v-799q0 -43 33 -78l70 -67q31 -33 82 -33h96q35 0 65 14l312 148v815h55v-1024h-43l-25 147l-272 -127q-43 -20 -88 -20h-129q-29 0 -45 7t-39 30l-92 92q-35 35 -35 90zM231 1358l224 262h114l222 -262l-33 -31l-246 244l-246 -244z" />
<glyph unicode="&#xfc;" horiz-adv-x="1028" d="M129 219v805h55v-799q0 -43 33 -78l70 -67q31 -33 82 -33h96q35 0 65 14l312 148v815h55v-1024h-43l-25 147l-272 -127q-43 -20 -88 -20h-129q-29 0 -45 7t-39 30l-92 92q-35 35 -35 90zM272 1430v83h84v-83h-84zM668 1430v83h84v-83h-84z" />
<glyph unicode="&#xfd;" horiz-adv-x="1005" d="M63 1016l19 8h37l336 -977h96l336 977h39l16 -8l-358 -1047q-2 -4 -14.5 -41t-22.5 -59.5t-29.5 -63.5t-44 -71.5t-57.5 -63t-77 -57.5t-97 -39l-9 49q178 53 267 277l35 100h-121zM373 1376l207 244l53 -49l-225 -225z" />
<glyph unicode="&#xfe;" horiz-adv-x="1228" d="M150 -369v1803h55v-564l284 134q43 20 89 20h122q20 0 32.5 -3t24 -10t27.5 -24l93 -92q35 -35 34 -90v-586q0 -55 -34 -90l-93 -92q-23 -23 -39 -30t-45 -7h-495v-352l-17 -17h-38zM205 47h467q49 0 82 31l67 69q35 33 35 76v578q0 41 -35 76l-67 67q-33 33 -82 33h-90 q-35 0 -64 -14l-313 -148v-768z" />
<glyph unicode="&#xff;" horiz-adv-x="1005" d="M63 1016l19 8h37l336 -977h96l336 977h39l16 -8l-358 -1047q-2 -8 -12.5 -35.5t-18.5 -48t-23.5 -55.5t-33 -61.5t-43 -58.5t-55 -56.5t-69.5 -46t-87 -33.5l-9 49q178 53 267 277l35 100h-121zM264 1450v84h84v-84h-84zM659 1450v84h84v-84h-84z" />
<glyph unicode="&#x152;" horiz-adv-x="2056" d="M150 307v819q0 53 32 86l187 185q23 23 38 30t44 7h454q29 0 44.5 -7.5t37.5 -29.5l154 -152q4 33 33 64l90 88q23 23 38 30t44 7h567l29 -29v-35h-556q-49 0 -79 -31l-68 -67q-33 -33 -33 -74v-448h611v-64h-611v-450q0 -41 33 -74l68 -68q31 -31 79 -31h556v-34 l-29 -29h-567q-29 0 -44.5 7t-37.5 30l-90 88q-29 31 -33 63l-154 -151q-23 -23 -38 -30t-44 -7h-454q-29 0 -44.5 7t-37.5 30l-187 184q-33 33 -32 86zM217 330q0 -41 33 -74l162 -162q31 -31 80 -31h372q49 0 80 31l162 162q33 33 33 74v774q0 41 -33 74l-162 161 q-31 31 -80 31h-372q-49 0 -80 -31l-162 -161q-33 -33 -33 -74v-774z" />
<glyph unicode="&#x153;" horiz-adv-x="1681" d="M109 219v586q0 55 34 90l93 92q25 23 40 30t46 7h356q20 0 32.5 -3t25 -10t28.5 -24l98 -100l101 100q23 23 39 30t45 7h327q20 0 32.5 -3t25 -10t26.5 -24l92 -92q37 -35 37 -90v-287l-16 -16h-680v-277q0 -43 33 -78l69 -67q31 -33 82 -33h271q51 0 81 33l29 29l37 -37 l-35 -35q-23 -23 -39 -30t-45 -7h-327q-31 0 -46.5 7t-37.5 30l-101 100l-98 -100q-25 -23 -40 -30t-46 -7h-356q-31 0 -46.5 7t-39.5 30l-93 92q-35 35 -34 90zM166 225q0 -43 33 -78l69 -67q31 -33 80 -33h303q49 0 80 33l70 67q33 35 33 78v574q0 43 -33 78l-70 67 q-31 33 -80 33h-303q-49 0 -80 -33l-69 -67q-33 -35 -33 -78v-574zM891 549h639v250q0 43 -33 78l-70 67q-31 33 -81 33h-271q-51 0 -82 -33l-69 -67q-33 -35 -33 -78v-250z" />
<glyph unicode="&#x178;" horiz-adv-x="1193" d="M88 1415l39 19h20l351 -836h200l351 836h20l39 -19l-381 -872h-100v-543h-60v543h-100zM358 1839v84h84v-84h-84zM754 1839v84h84v-84h-84z" />
<glyph unicode="&#x2c6;" horiz-adv-x="780" d="M111 1284l223 262h115l221 -262l-33 -33l-246 246l-246 -246z" />
<glyph unicode="&#x2dc;" horiz-adv-x="886" d="M106 1382q102 154 177 162h28q20 0 39 -6t40.5 -20.5t60.5 -44.5q92 -72 151 -72q74 0 154 110l24 -16q-78 -160 -178 -160q-53 0 -113 41q-23 16 -55.5 41t-46.5 35t-35.5 18.5t-44.5 8.5q-18 0 -39 -4q-69 -17 -137 -111z" />
<glyph unicode="&#x2000;" horiz-adv-x="1052" />
<glyph unicode="&#x2001;" horiz-adv-x="2105" />
<glyph unicode="&#x2002;" horiz-adv-x="1052" />
<glyph unicode="&#x2003;" horiz-adv-x="2105" />
<glyph unicode="&#x2004;" horiz-adv-x="701" />
<glyph unicode="&#x2005;" horiz-adv-x="526" />
<glyph unicode="&#x2006;" horiz-adv-x="350" />
<glyph unicode="&#x2007;" horiz-adv-x="350" />
<glyph unicode="&#x2008;" horiz-adv-x="263" />
<glyph unicode="&#x2009;" horiz-adv-x="421" />
<glyph unicode="&#x200a;" horiz-adv-x="116" />
<glyph unicode="&#x2010;" horiz-adv-x="819" d="M115 569v64h590v-64h-590z" />
<glyph unicode="&#x2011;" horiz-adv-x="819" d="M115 569v64h590v-64h-590z" />
<glyph unicode="&#x2012;" horiz-adv-x="819" d="M115 569v64h590v-64h-590z" />
<glyph unicode="&#x2013;" horiz-adv-x="962" d="M109 569v64h743v-64h-743z" />
<glyph unicode="&#x2014;" horiz-adv-x="1337" d="M96 569v64h1143v-64h-1143z" />
<glyph unicode="&#x2018;" d="M127 1239v94q0 53 23 99l43 92h40l-75 -164h69v-121h-100z" />
<glyph unicode="&#x2019;" d="M117 1239l76 164h-70v121h100v-92q0 -53 -20 -101l-45 -92h-41z" />
<glyph unicode="&#x201a;" d="M121 -176l76 164h-70v121h100v-93q0 -53 -20 -100l-45 -92h-41z" />
<glyph unicode="&#x201c;" horiz-adv-x="606" d="M117 1239v94q0 53 22 99l43 92h41l-76 -164h70v-121h-100zM381 1239v94q0 53 20 99l43 92h43l-75 -164h69v-121h-100z" />
<glyph unicode="&#x201d;" horiz-adv-x="581" d="M117 1239l76 164h-70v121h100v-92q0 -53 -20 -101l-45 -92h-41zM381 1239l76 164h-70v121h100v-92q0 -53 -22 -101l-43 -92h-41z" />
<glyph unicode="&#x201e;" horiz-adv-x="600" d="M111 -176l75 164h-69v121h100v-93q0 -53 -20 -100l-43 -92h-43zM375 -176l76 164h-70v121h100v-93q0 -53 -22 -100l-43 -92h-41z" />
<glyph unicode="&#x2022;" horiz-adv-x="507" d="M125 459v262h258v-262h-258z" />
<glyph unicode="&#x2026;" horiz-adv-x="1024" d="M106 0v109h101v-109h-101zM459 0v109h102v-109h-102zM815 0v109h100v-109h-100z" />
<glyph unicode="&#x202f;" horiz-adv-x="421" />
<glyph unicode="&#x2039;" horiz-adv-x="614" d="M121 444v187l344 321l22 -24l-319 -391l319 -390l-22 -24z" />
<glyph unicode="&#x203a;" horiz-adv-x="614" d="M125 147l319 390l-319 391l22 24l345 -321v-187l-345 -321z" />
<glyph unicode="&#x205f;" horiz-adv-x="526" />
<glyph unicode="&#x20ac;" horiz-adv-x="1157" d="M106 532v56h150v209h-150v55h150v313q0 51 33 84l90 90q23 23 37 29t43 6h563l27 -26v-29h-551q-49 0 -82 -33l-66 -65q-35 -35 -35 -78v-291h521v-29l-27 -26h-494v-209h461v-29l-26 -27h-435v-294q0 -43 35 -78l66 -68q33 -31 82 -31h551v-28l-27 -27h-563 q-29 0 -43.5 6t-36.5 29l-90 90q-33 33 -33 84v317h-150z" />
<glyph unicode="&#x2122;" horiz-adv-x="1851" d="M88 1376v35l23 23h567l22 -23v-35h-278v-829h-55v829h-279zM842 547v864l22 23h148l272 -832h35l272 832h148l22 -23v-864h-55v829h-84l-268 -829h-105l-268 829h-84v-829h-55z" />
<glyph unicode="&#x25fc;" horiz-adv-x="1024" d="M0 0v1024h1024v-1024h-1024z" />
<glyph unicode="&#xfb01;" horiz-adv-x="1032" d="M70 977v31l14 16h162v223q0 53 35 88l92 92q25 25 40 31t46 6h80l16 -14v-33h-70q-49 0 -79 -31l-70 -69q-33 -33 -33 -76v-217h229v-47h-229v-997h-57v997h-176zM774 1305v96h88v-96h-88zM791 0v1024h55v-1024h-55z" />
<glyph unicode="&#xfb02;" horiz-adv-x="1179" d="M70 977v33l14 14h162v223q0 53 35 88l92 92q25 25 40 31t46 6h80l16 -14v-33h-70q-49 0 -79 -31l-70 -69q-33 -33 -33 -76v-217h229v-47h-229v-997h-57v997h-176zM797 219v1233l16 16h39v-1245q0 -43 33 -73l71 -72q33 -31 80 -31h64v-47h-92q-29 0 -45.5 7t-38.5 30 l-93 90q-37 39 -34 92z" />
</font>
</defs>
</svg>
